<svg height="512" viewBox="0 0 512 512" width="512" xmlns="http://www.w3.org/2000/svg"><g id="social_media" data-name="social media"><path d="m302.89 496c-57.89 0-135.35-78.08-107.94-100.5s207.82 43 207.82 43 26.38 6.16 37.37 24.79-79.31 32.71-137.25 32.71z" fill="#877a6b"/><path d="m194.95 395.5c-3.65 3-4.39 7-3 11.62 37.19 32.28 17.31 42.42 231.26 40 0 0-5.63-3.17-10.07-5.08a93.73 93.73 0 0 0 -10.4-3.53s-180.39-65.43-207.79-43.01z" fill="#c7b299"/><g opacity=".21"><path d="m196.79 409.65c0 2.78 58.42 22 86.6 22s29-10.75 29-13.53-36.39-13.51-64.57-13.51-51.03 2.26-51.03 5.04z" fill="#3f3f44"/></g><g id="S5RET_l_3ezza" data-name="S5RET  l 3ezza"><path d="m258.42 358.62 1.82-.65c1.21-1.15 2.59-2.34 4.11-3.56l6.52-8.67 9.58-2.39 2.93-1.78-4.32-5.25s-31.9-4.15-35.6-3.34.8 15.38 1 17.07 13.96 8.57 13.96 8.57z" fill="#90278e"/><g fill="#3e2945"><path d="m231.91 319.12a2.09 2.09 0 0 0 .16-.66 1.28 1.28 0 0 1 -.12.93 1.77 1.77 0 0 1 -1.41 1.09c-.9.18-.52 1.56.38 1.38a3.22 3.22 0 0 0 2.6-2.88c.08-1.13-.82-2.82-2.17-2a2 2 0 0 0 -.14 3.11 1.27 1.27 0 0 0 2.07-1.31c-.22-.9-1.6-.52-1.38.38z"/><path d="m225.3 315a3.44 3.44 0 0 0 1-3.1c-.16-.83-.77-2.07-1.81-1.78s-.91 1.41-.53 2.13a3.65 3.65 0 0 0 2.89 1.81c.91.12.9-1.31 0-1.43-.67-.09-1.54-1.2-2-.71a2 2 0 0 1 0 1.12 1.78 1.78 0 0 1 -.6 1 .72.72 0 0 0 1 1z"/><path d="m225.71 300.65c-.16 1-.26 2.17.6 2.93a1.59 1.59 0 0 0 2.16 0 1.49 1.49 0 0 0 .06-1.93c-.64-.72-1.52-.29-2.13.21s.31 1.59 1 1a2.32 2.32 0 0 1 -.32-1.89c.14-.9-1.24-1.29-1.38-.38z"/><path d="m247.18 303.9c-.16 1-.26 2.17.6 2.93a1.59 1.59 0 0 0 2.16 0 1.49 1.49 0 0 0 .06-1.93c-.64-.72-1.52-.29-2.13.21s.31 1.59 1 1a2.32 2.32 0 0 1 -.32-1.89c.14-.9-1.24-1.29-1.38-.38z"/><path d="m223.93 317a2.46 2.46 0 0 0 1.3 2.6 1.68 1.68 0 0 0 2.25-1 1.44 1.44 0 1 0 -2.72-.92c-.32.87 1.06 1.24 1.38.38q-.94-.31-.77-1.11a.72.72 0 0 0 -1.43 0z"/><path d="m233.05 304.32a2.46 2.46 0 0 0 1.3 2.6 1.68 1.68 0 0 0 2.25-1 1.44 1.44 0 1 0 -2.72-.92c-.32.87 1.06 1.24 1.38.38q-.94-.31-.77-1.11a.72.72 0 0 0 -1.43 0z"/><path d="m231.68 299.27a2.46 2.46 0 0 0 1.3 2.6 1.68 1.68 0 0 0 2.25-1 1.44 1.44 0 1 0 -2.72-.92c-.32.87 1.06 1.24 1.38.38q-.94-.31-.77-1.11a.72.72 0 0 0 -1.43 0z"/><path d="m228.09 309.12c.45-1 .74-2 0-2.92a1.69 1.69 0 0 0 -2.32-.25 1.44 1.44 0 1 0 1.9 2.16c.65-.66-.36-1.67-1-1q.82.58.23 1.31c-.39.83.85 1.56 1.24.72z"/><path d="m241.18 314.5c.45-1 .74-2 0-2.92a1.69 1.69 0 0 0 -2.32-.25 1.44 1.44 0 1 0 1.9 2.16c.65-.66-.36-1.67-1-1q.82.58.23 1.31c-.39.83.85 1.56 1.24.72z"/><path d="m221.79 312.72c.45-1 .74-2 0-2.92a1.69 1.69 0 0 0 -2.32-.25 1.44 1.44 0 1 0 1.9 2.16c.65-.66-.36-1.67-1-1q.82.58.23 1.31c-.39.83.85 1.56 1.24.72z"/><path d="m239.21 305.33a2.46 2.46 0 0 0 1.3 2.6 1.68 1.68 0 0 0 2.25-1 1.44 1.44 0 1 0 -2.72-.92c-.32.87 1.06 1.24 1.38.38q-.94-.31-.77-1.11a.72.72 0 0 0 -1.43 0z"/><path d="m220.21 323.13a3.18 3.18 0 0 0 1.59 2.71 1.65 1.65 0 0 0 2.22-.75 1.4 1.4 0 0 0 -.65-2c-1-.44-1.9.26-2.52 1s.43 1.73 1 1-.14-1.61-.27-2.41-1.52-.52-1.38.38z"/><path d="m218.89 306.94c.6-1.18 1-2.57.12-3.74-.46-.63-1.46-1.23-2.15-.58s-.32 1.7.16 2.33a3.92 3.92 0 0 0 3.51 1.28c.92-.05.92-1.49 0-1.43a5.28 5.28 0 0 1 -.84 0 1.61 1.61 0 0 1 -1-.34q-.35-.44-.63 0a2.56 2.56 0 0 1 -.4 1.75c-.42.82.82 1.55 1.24.72z"/><path d="m212 309.86-.73 2.16c-.6.7.41 1.72 1 1 .77-.9 1.36-2.13.58-3.23a1.64 1.64 0 0 0 -2.48-.36 1.45 1.45 0 0 0 0 2.17c1.08.88 2.26-.1 2.84-1s-.75-1.5-1.24-.72z"/><path d="m232.16 310.24-.73 2.16c-.6.7.41 1.72 1 1 .77-.9 1.36-2.13.58-3.23a1.64 1.64 0 0 0 -2.48-.36 1.45 1.45 0 0 0 0 2.17c1.08.88 2.26-.1 2.84-1s-.75-1.5-1.24-.72z"/><path d="m217.1 319.27c1-.79 2-1.94 1.57-3.34-.26-1-1.32-1.87-2.2-1-2 1.92 1.25 5.26 3.41 3.36.69-.61-.32-1.62-1-1q-1.39.2-1.4-.73.08-.38-.18-.22l-.14.9a2.64 2.64 0 0 1 -.77.82c-.73.55 0 1.8.72 1.24z"/></g><path d="m296.11 244.2-14.59-4.33h-49.61l-14.53 4.29c-8.91 3.67-15.32 19.8-15.32 38.52l2.43 63.74c15.56 25.85 88.36 24.85 102.75-3.51l4.17-60.22c0-18.73-6.41-34.85-15.31-38.52zm0 0" fill="#f7bf9a"/><path d="m304.14 372.15s18.41 23.26 12.32 29.83-19.89 21.91-25.94 19.45-8.64-16.46 4.39-30.28 9.23-19 9.23-19z" fill="#f7bf9a"/><path d="m313.26 404.61c2.54-1.38-4.75-23.78-15.61-48.18l-54.38.91c19.18 3.66 59.32 53.08 69.99 47.27z" fill="#f7bf9a"/><path d="m244.57 378.57s.78 29.65-8 31.25-29.05 5.6-32.42 0 3-18.35 21.68-21.6 18.74-9.65 18.74-9.65z" fill="#f7bf9a"/><path d="m230.69 410c-2.86.42-10.46-21.87-16.4-47.91h39.09c-13.13 14.47-10.66 46.16-22.69 47.91z" fill="#f7bf9a"/><path d="m137.71 124.6c1.71-17.32 30.93-31.53 30.93-31.53s-18.18 10.44-22.7 4.41 3.45-15.89 29.23-24.65c0 0-13.24-7.54-11.24-15.78s40.88 1.52 40.88 1.52-16.43-16.6-7.47-18 28 8.18 28 8.18-15.23-6.92-13.06-14 31.46 9.9 31.46 9.9-13.74-20.37-1.32-18.54c7.92 1.16 19.24 17.89 19.24 17.89s-11.58-27.81-.07-28 12.6 27.39 12.6 27.39 7.58-27.88 14.81-25.53-6.76 25.53-6.76 25.53 39.29-31 45.84-19.91-17.16 18.45-19.55 19.52 31-10.57 34.57-.92-13.24 14.12-19.08 16c0 0 42.05-5.85 44.05 3.44s-22.43 9.2-27.21 8.93c0 0 34.37 11 33 18.2s-9.37 3.47-22.47.79c0 0 22.4 8.72 22 18.75s-24.25-.6-24.25-.6 21.48 6.45 24.54 16.19-26.59 18.78-26.59 18.78h-176.28s-34.81-.64-33.1-17.96z" fill="#3e2945"/><path d="m306.56 347.58 5.82-60.22c0-18.73-8.95-34.85-21.38-38.52l-20.36-4.33h-69.24l-20.28 4.29 80.93 20.77 44.5 78m-15.55-99.79" fill="#fed9be"/><ellipse cx="285.96" cy="274" fill="#f79820" rx="6.92" ry="5.25" transform="matrix(.79 -.613 .613 .79 -107.93 232.79)"/><path d="m251.56 354.58c-4-2.22-10.63-5-8.62-7.26 1.84-2 7.85-9.33 12.24-14.68 2.78-3.39 7.15-4.18 10.11-1.7 2.3 1.92 5 4.23 7.52 6.4 5.68 5 1.63 9.88 1.63 9.88l-2.93 2-9.73 4.15s-6.08 3.51-10.22 1.21z" fill="#90278e"/><path d="m224.28 330.8c-7.12 2.09-13.93 5.74-21 7.45.7 13.29 2.12 32 4.85 44.94l8.07-7.88 12.45 7.78 11.47-11.36 2.43 2.5-14.23-44.55c-1.32.32-2.7.73-4.04 1.12z" fill="#f88f1c"/><path d="m304.27 322c-.39-.42-.77-.87-1.15-1.3a1.9 1.9 0 0 1 -.67-.82 50.21 50.21 0 0 1 -10.15-21.23c-3.81-16.26-3.38-33.75-6-50.35a2.61 2.61 0 0 1 .44-2q-.26-2.55-.53-5.09a27.83 27.83 0 0 0 -7.61-1.42 2.87 2.87 0 0 1 -.14 1.26c-.92 2.55-1.81 5.12-2.71 7.69-1.58 13.58-7.46 41.17-7.89 41.32-.06 0-.11.09-.17.13l41.06 43.88c.13-1.86.23-3.62.32-5.3a12.92 12.92 0 0 1 -4.8-6.77z" fill="#f9ac67"/><path d="m304 382.26-.87.45.76.48z" fill="#f88f1c"/><path d="m267.69 290.19c-2.28 1.34-19.28 23.57-20.12 24.43-6.3 6.46-11.81 13-19.26 15.06l14.23 44.55 9 9.31 12.29-8.75 14.75 12.61 12.78-12.1 11.74 7.4.87-.45c.6-5 3.52-30.21 4.75-48.18z" fill="#f79c41"/><path d="m292.29 298.66c-.85-3.62-1.46-7.3-2-11l-3.85 2.34c-2.72 1.64-3.87 4.88-2.56 7.21 1.31 2.33 5.34 4.23 8.94 4.23h.23c-.23-.91-.53-1.79-.76-2.78z" fill="#90278e"/><path d="m299.59 316.05a85.22 85.22 0 0 0 -10.36 7.22c-3.49 2.89-2.1 6.83-1.28 9.35s19.16 6.19 19.16 6.19.6-.93 1.46-2.32c.27-3.61.47-7 .59-9.93a47.62 47.62 0 0 1 -9.57-10.51z" fill="#90278e"/><path d="m307.26 351.79-2.59-.05h-4.72c-4.52 0-8.92.11-11.73.11-4.84 0-6.35 5.4-6.8 9.45-.27 2.43 2.15 6.17 4.9 8.28 3.08 2.37 14 3.32 18.72 3.63.64-5.82 1.47-13.53 2.22-21.42z" fill="#90278e"/><path d="m251.86 379.13a4.13 4.13 0 0 0 3-5.08c-.22-1.23-.35-2.48-.43-3.24-.22-2-1.21-3.42-3.46-4.51s-8.19-3.2-8.19-3.2-6-2.81-9-.47c-.68.54-1.81 1.52-2.36 2.08-3.7 3.74.64 10 .64 10l4.1 1.14 3.93-4.09 8.68 8.75z" fill="#90278e"/><path d="m219.13 360.3c2.29-.12 5.75-2.31 6.13-8.9s-6.13-8.39-6.13-8.39l-15.72-2.16c.34 5.92.81 12.7 1.47 19.46 4.12.04 12.53.09 14.25-.01z" fill="#90278e"/><path d="m257.22 305.9a37.72 37.72 0 0 0 7.2-1.26c1.49-.72.64-4.77-.39-8.27a67.07 67.07 0 0 1 -6.81 9.53z" fill="#90278e"/><path d="m285 261a38.3 38.3 0 0 0 -10-4.21c-.27 3.26-.51 6.58-.83 9.85 1-.37 2.1-.78 3.22-1.28 8.43-3.8 7.61-4.36 7.61-4.36z" fill="#90278e"/><ellipse cx="259.9" cy="214.55" fill="#8e3d7c" rx="58.12" ry="30.97"/><ellipse cx="259.9" cy="207.83" fill="#d49f77" rx="58.12" ry="30.97"/><path d="m346.87 171.45c-5.59-27.45-8.87-59.63-28.66-83.05-42-49.84-120.11-24.68-140.8 24.69-11.65 28.62-31.08 86.56 11.79 100.33 52.43 16.72 170.39 20.51 157.67-41.97z" fill="#f7bf9a"/><path d="m219.59 113.08c10.12-24.15 34-42.5 60.63-49.12-40.4-10.86-87.44 12.45-102.81 49.12-11.65 28.62-31.08 86.55 11.79 100.33 24.16 7.71 62.24 12.67 95 9.66-19.82-1.59-38.72-5.15-52.86-9.66-42.83-13.77-23.4-71.71-11.75-100.33z" fill="#fed9be"/><path d="m166 120.35.36.81a2.72 2.72 0 0 1 -.15-.37c-.03-.13-.1-.28-.21-.44z" fill="#d49f77"/><path d="m166.42 121.21-.06-.09a.12.12 0 0 1 .06.09z" fill="#d49f77"/><path d="m166.24 120.79a2.72 2.72 0 0 0 .15.37l.06.09c.1.17.01-.02-.21-.46z" fill="#d49f77"/><path d="m345 120.35-.36.81a3.13 3.13 0 0 0 .15-.37c.08-.13.14-.28.21-.44z" fill="#d49f77"/><path d="m344.62 121.21.06-.09s-.05.07-.06.09z" fill="#d49f77"/><path d="m344.8 120.79a3.13 3.13 0 0 1 -.15.37l-.06.09c-.09.17 0-.02.21-.46z" fill="#d49f77"/><path d="m379.9 209.39c-2.41-9-21.69-22.55-21.69-22.55 26.85 7 17.21-8.62 17.21-8.62-4.82-9.62-27.19-16.91-27.19-16.91 29.6-3.32 11.7-14.92 11.7-14.92-17.21-9.28-42-7.62-42-7.62 14.11-5.64 15.49-14.92 15.49-14.92-1.38-6-12.73-6.63-12.73-6.63-1.61.08-3.13.23-4.57.44-.48.07-.92.18-1.38.26-.93.16-1.86.32-2.72.53-.53.13-1 .29-1.5.43-.73.21-1.47.42-2.16.66-.5.18-1 .38-1.43.57s-1.24.5-1.81.77-.88.45-1.31.68-1 .56-1.53.85-.8.51-1.19.77-.88.6-1.28.91-.72.56-1.06.85-.73.61-1.06.93-.63.6-.93.9c-.14.14-.3.28-.43.41a25.63 25.63 0 0 0 -6.29 10.92c9.14 9.65-.88 15.7-3.48 16.73s-12.67 13.17-32.79 13.17-30.26-12.18-32.82-13.19-12.62-7.08-3.48-16.73a25.63 25.63 0 0 0 -6.29-10.92c-.13-.14-.29-.28-.43-.41q-.45-.45-.93-.9c-.34-.31-.7-.62-1.06-.93s-.69-.57-1.06-.85-.84-.61-1.28-.91-.77-.52-1.19-.77-1-.57-1.53-.85-.86-.46-1.31-.68-1.19-.52-1.81-.77-.93-.39-1.43-.57c-.68-.24-1.42-.45-2.16-.66-.5-.14-1-.3-1.5-.43-.86-.21-1.79-.37-2.72-.53-.47-.08-.9-.19-1.38-.26-1.45-.21-3-.36-4.57-.44 0 0-11.36.66-12.73 6.63 0 0 1.38 9.28 15.49 14.92 0 0-24.78-1.66-42 7.62 0 0-17.9 11.6 11.7 14.92 0 0-22.37 7.29-27.19 16.91 0 0-9.64 15.58 17.21 8.62 0 0-19.28 13.59-21.69 22.55 0 0-4.13 11.27 18.59-1.33 0 0-8.61 10.61-11.7 20.56s2.91 11.07 13.16 5.2c0 0-8.68 11-9.37 19s1.45 24.41 20.69-2.72c0 0-5.2 21.28-1.07 29.9 0 0 5.51 4.64 9 1.33s6.2-10.61 5.85-14.59c0 0 4.13 19.89 17.21 25.2 0 0 9.64 2.66 11.36-14.92 0 0 5.51 12.26 15.49 15.91s15.14-2 14.8-14.92c0 0 4.51 19.68 21.29 19.68s23.09-19.67 23.09-19.67c-.34 12.93 4.82 18.57 14.8 14.92s15.44-15.92 15.44-15.92c1.72 17.57 11.36 14.92 11.36 14.92 13.08-5.3 17.21-25.2 17.21-25.2-.34 4 2.41 11.27 5.85 14.59s9-1.33 9-1.33c4.13-8.62-1.07-29.9-1.07-29.9 19.24 27.12 21.38 10.67 20.69 2.72s-9.37-19-9.37-19c10.25 5.87 16.25 4.74 13.16-5.2s-11.7-20.56-11.7-20.56c22.63 12.62 18.53 1.35 18.53 1.35z" fill="#3e2945"/><g opacity=".35"><path d="m221 163.67c2.55 1 12.69 13.19 32.82 13.19s30.26-12.18 32.82-13.19 16.21-8 7.24-17.58c.11.93-.66 3.17-2 5a14.39 14.39 0 0 1 -5.2 3.78c-2.55 1-12.69 13.19-32.82 13.19s-30.32-12.21-32.86-13.23a16.18 16.18 0 0 1 -4.33-2.79c-1.59-1.56-2.29-3.51-3-4.09-8.98 9.58 4.72 14.69 7.33 15.72z" fill="#2a1d30"/></g><path d="m204.57 289c-22.41-14-71-32.5-76.57-22.91-5.33 9.12 32.46 23.43 52.31 35.82 5.85-.28 7.93-7 14.08-9.33 3.94-3 8.8.25 10.18-3.58z" fill="#f7bf9a" fill-rule="evenodd"/><ellipse cx="188.69" cy="132.44" fill="#fff" rx="31.84" ry="31.84"/><circle cx="313.13" cy="131.68" fill="#fff" r="31.85"/><path d="m157.43 138.42a31.82 31.82 0 0 0 62.52 0z" fill="#f7bf9a"/><circle cx="170.18" cy="120.97" fill="#543966" r="8.6"/><circle cx="296.95" cy="120.97" fill="#543966" r="8.6"/><path d="m216.19 116.46a31.79 31.79 0 0 0 -55 0z" fill="#f7bf9a"/><path d="m341.12 116.46a31.86 31.86 0 0 0 -56 0z" fill="#f7bf9a"/><path d="m282 138.42a31.84 31.84 0 0 0 62.24 0z" fill="#f7bf9a"/><path d="m335.38 82.16c-4.15-3.33-9.38-4.09-15-3.36a6.45 6.45 0 0 0 -9.32-7.8 36.43 36.43 0 0 0 -9.82 7.86 6.77 6.77 0 0 0 -5.85-3.93c-11.39-1.03-19.27 15.07-21.11 24.17-.83 4.08 2.31 7.58 6.33 8a19.26 19.26 0 0 0 7-1c14.64-4.06 33.14-6.14 46.41-13.7 3.37-1.93 4.66-7.59 1.36-10.24z" fill="#543966"/><path d="m159 86.39c4.15-3.33 9.38-4.09 15-3.36a6.45 6.45 0 0 1 9.33-7.81 36.43 36.43 0 0 1 9.82 7.86 6.77 6.77 0 0 1 5.85-3.94c11.35-1 19.28 15.13 21.11 24.19.83 4.08-2.31 7.58-6.33 8a19.26 19.26 0 0 1 -7-1c-14.64-4.06-33.14-6.14-46.41-13.7-3.37-1.93-4.64-7.63-1.37-10.24z" fill="#543966"/><path d="m232.21 319.92a.66.66 0 0 1 .18-.74 1.84 1.84 0 0 1 -.17 1.24 2.09 2.09 0 0 1 -1.6 1.13c-.9.17-.52 1.56.38 1.38a3.52 3.52 0 0 0 2.86-3.21c.06-1.18-.92-3-2.35-2.15a2.23 2.23 0 0 0 0 3.4 1.34 1.34 0 0 0 2.12-1.43c-.29-.87-1.68-.5-1.38.38z" fill="#3e2945"/><path d="m224.66 315.23a3.76 3.76 0 0 0 1.11-3.5c-.19-.84-.82-2.11-1.88-1.83s-1 1.35-.67 2.09a4 4 0 0 0 3.26 2.17c.91.12.9-1.31 0-1.43a2.73 2.73 0 0 1 -1.39-.6l-.43-.49q-.67-.31-.37.2c0 .35.14.75.06 1.14a2.26 2.26 0 0 1 -.71 1.24c-.66.65.35 1.66 1 1z" fill="#3e2945"/><path d="m225.26 299.27c-.17 1.11-.3 2.38.65 3.2a1.68 1.68 0 0 0 2.33 0 1.54 1.54 0 0 0 0-2c-.7-.73-1.6-.29-2.25.25s.31 1.59 1 1a2.39 2.39 0 0 1 -.38-2.08c.14-.9-1.24-1.29-1.38-.38z" fill="#3e2945"/><path d="m249.32 302.92c-.17 1.11-.3 2.38.65 3.2a1.68 1.68 0 0 0 2.33 0 1.54 1.54 0 0 0 0-2c-.7-.73-1.6-.29-2.25.25s.31 1.59 1 1a2.39 2.39 0 0 1 -.38-2.08c.14-.9-1.24-1.29-1.38-.38z" fill="#3e2945"/><path d="m223.27 317.53c0 1.18.24 2.42 1.48 2.87a1.81 1.81 0 0 0 2.33-1.06 1.53 1.53 0 1 0 -2.9-1c-.29.88 1.09 1.25 1.38.38q-1.05-.33-.86-1.22a.72.72 0 0 0 -1.43 0z" fill="#3e2945"/><path d="m233.49 303.36c0 1.18.24 2.42 1.48 2.87a1.81 1.81 0 0 0 2.33-1.06 1.53 1.53 0 1 0 -2.9-1c-.29.88 1.09 1.25 1.38.38q-1.05-.33-.86-1.22a.72.72 0 0 0 -1.43 0z" fill="#3e2945"/><path d="m232 297.7c0 1.18.24 2.42 1.48 2.87a1.81 1.81 0 0 0 2.33-1.06 1.53 1.53 0 1 0 -2.9-1c-.29.88 1.09 1.25 1.38.38q-1.05-.33-.86-1.22a.72.72 0 0 0 -1.43 0z" fill="#3e2945"/><path d="m227.77 308.69c.5-1.06.83-2.3-.09-3.25a1.81 1.81 0 0 0 -2.55-.07 1.53 1.53 0 1 0 2.15 2.17c.62-.68-.39-1.7-1-1q1 .62.28 1.45c-.39.83.85 1.56 1.24.72z" fill="#3e2945"/><path d="m242.44 314.72c.5-1.06.83-2.3-.09-3.25a1.81 1.81 0 0 0 -2.55-.07 1.53 1.53 0 1 0 2.15 2.17c.62-.68-.39-1.7-1-1q1 .62.28 1.45c-.39.83.85 1.56 1.24.72z" fill="#3e2945"/><path d="m220.71 312.73c.5-1.06.83-2.3-.09-3.25a1.81 1.81 0 0 0 -2.55-.07 1.53 1.53 0 1 0 2.15 2.17c.62-.68-.39-1.7-1-1q1 .62.28 1.45c-.39.83.85 1.56 1.24.72z" fill="#3e2945"/><path d="m240.39 304.5c0 1.18.24 2.42 1.48 2.87a1.81 1.81 0 0 0 2.33-1.06 1.53 1.53 0 1 0 -2.9-1c-.29.88 1.09 1.25 1.38.38q-1.05-.33-.86-1.22a.72.72 0 0 0 -1.43 0z" fill="#3e2945"/><path d="m219.1 324.41c.19 1.21.55 2.52 1.8 3a1.79 1.79 0 0 0 2.32-.84 1.52 1.52 0 0 0 -.61-2c-1.11-.59-2.15.26-2.82 1.08s.43 1.73 1 1-.19-1.75-.32-2.62-1.52-.52-1.38.38z" fill="#3e2945"/><path d="m217.46 306.25a3.94 3.94 0 0 0 .35-3.75c-.42-.78-1.55-1.73-2.43-1s-.39 1.89.15 2.58a4.32 4.32 0 0 0 3.84 1.37c.92-.05.92-1.49 0-1.43a4.77 4.77 0 0 1 -1.3-.05c-.15 0-1.85-.6-1.53-.92-.14.14.13.4.16.57a3.08 3.08 0 0 1 -.48 2c-.43.82.81 1.54 1.24.72z" fill="#3e2945"/><path d="m209.9 309.62c-.52.82-.15 1.66-.83 2.43s.4 1.71 1 1c.8-.91 1.42-2.14.77-3.32a1.78 1.78 0 0 0 -2.71-.64 1.53 1.53 0 0 0 .05 2.44c1.18.79 2.33-.24 2.94-1.21.49-.78-.75-1.5-1.24-.72z" fill="#3e2945"/><path d="m232.49 310c-.52.82-.15 1.66-.83 2.43s.4 1.71 1 1c.8-.91 1.42-2.14.77-3.32a1.78 1.78 0 0 0 -2.71-.64 1.53 1.53 0 0 0 .05 2.44c1.18.79 2.33-.24 2.94-1.21.49-.78-.75-1.5-1.24-.72z" fill="#3e2945"/><path d="m215.49 320c1.14-.86 2.13-2.12 1.72-3.65-.29-1.07-1.45-2-2.37-1s-.41 2.91.52 3.7a2.39 2.39 0 0 0 3.22-.13c.68-.63-.34-1.64-1-1s-1.3.31-1.67-.56q-.2-.92-.08-.61c.43.75-.58 1.68-1.06 2-.73.55 0 1.8.72 1.24z" fill="#3e2945"/></g><path d="m259.91 351.17 1.82-.65c1.21-1.15 2.59-2.34 4.11-3.56l6.52-8.67 9.58-2.39 2.93-1.78-4.32-5.25s-31.9-4.15-35.6-3.34.8 15.38 1 17.07 13.96 8.57 13.96 8.57z" fill="#90278e"/><g opacity=".65"><path d="m205.82 284.3-24 28.88s4.95 2.48 13-4.58 11-24.3 11-24.3z" fill="#dda78a"/></g><path d="m199.53 224a3.15 3.15 0 0 1 -.69-6.23c4.07-.91 8.18-2.22 12.16-3.49 3.63-1.16 7.38-2.35 11.19-3.28a86.92 86.92 0 0 1 52.89 3.87 3.15 3.15 0 0 1 -2.37 5.85 80.61 80.61 0 0 0 -49-3.59c-3.6.88-7.24 2-10.77 3.16-4.1 1.31-8.35 2.66-12.69 3.63a3.1 3.1 0 0 1 -.72.08z" fill="#543966"/><path d="m149.17 188c0-10.06 1.2-20.37 5.79-29.33s13-16.38 22.95-17.8a7.19 7.19 0 0 1 3.94.28 3 3 0 0 1 1.89 3.18 4.56 4.56 0 0 1 -1.26 2l-7 7.72c-1.35 1.48-2.74 3.74-1.46 5.28 1.1 1.32 3.18.83 4.85.4a25.09 25.09 0 0 1 20.08 3.45 4 4 0 0 1 1.78 2 3 3 0 0 1 -1.94 3.35 8.72 8.72 0 0 1 -4.19.28l-7.81-.75c-1.72-.16-3.94 0-4.51 1.6-.69 2 1.75 3.45 3.66 4.26a34.49 34.49 0 0 1 9.11 5.67 7.08 7.08 0 0 1 2.26 2.9 2.8 2.8 0 0 1 -1 3.3c-1.25.73-2.82 0-4.12-.63a32.81 32.81 0 0 0 -15.19-3.36 2.31 2.31 0 0 0 -1.89.67 2 2 0 0 0 0 1.82c.9 2.36 3.32 3.7 5.34 5.22s3.93 3.94 3.16 6.35l-8.32-3.3a3.45 3.45 0 0 0 -2.07-.35c-1.9.48-1.54 3.4-.26 4.88s3.14 2.88 3 4.84c-.2 2.73-4.08 3.41-6.62 2.39s-4.94-3-7.66-2.64c-1.5.18-2.9 1-4.41.94a5.53 5.53 0 0 1 -3.42-1.88c-3.44-3.54-4.52-8.77-4.58-13.7" fill="#90278e"/><path d="m141 246.28a100 100 0 0 0 -42.82-29.28c-7.66-2.67-16.19-4.38-23.78-1.52a5.74 5.74 0 0 0 -2.89 2 4.38 4.38 0 0 0 .18 4.59 11 11 0 0 0 3.53 3.25 48.23 48.23 0 0 0 20 7.43c-4-1.31-8.35-2.3-12.35-1s-7.28 5.63-6 9.63a10.55 10.55 0 0 0 4.13 4.84c10.93 8.05 25.4 9 39 9.18 4.29.05 8.74 0 12.62-1.81a14 14 0 0 0 6.94.22 2.21 2.21 0 0 0 1.05-.49 2.36 2.36 0 0 0 .53-1.24 36.34 36.34 0 0 0 .65-4.68" fill="#ccc"/><path d="m178.84 159.7c-1.66.43-3.74.92-4.85-.4-1.29-1.54.11-3.8 1.46-5.28l7-7.72a4.57 4.57 0 0 0 1.26-2 3 3 0 0 0 -1.89-3.18 7.19 7.19 0 0 0 -3.94-.28c-.31 0-.62.11-.93.17.5 1.39.17 3.27-.93 5.49-1.71 3.44-5.25 7.17-4.55 11.21.92 5.3 9.81 5 13.91 5.12a1 1 0 0 1 .51 1.79c-2.05 1.63-5 3.66-5.14 6.59-.12 3.52 1.65 2.52 2.38 4.74a3.62 3.62 0 0 1 -1.9 4.12c-2.69 1.4-5.84-1.75-7.61.9-1.2 1.8.37 3.19-1.15 4.93s-4.33 1.39-5.09 3.83c-.29.95.23 2.52.37 3.46a33.1 33.1 0 0 1 .75 7.65 7.24 7.24 0 0 1 -.74 2.76c.49.25 1 .49 1.48.69 2.54 1 6.42.34 6.62-2.39.14-2-1.72-3.35-3-4.84s-1.63-4.4.26-4.88a3.45 3.45 0 0 1 2.07.35l8.32 3.3c.77-2.41-1.14-4.83-3.16-6.35s-4.43-2.86-5.34-5.22a2 2 0 0 1 0-1.82 2.31 2.31 0 0 1 1.89-.67 32.81 32.81 0 0 1 15.18 3.31c1.3.64 2.87 1.37 4.12.63a2.8 2.8 0 0 0 1-3.3 7.08 7.08 0 0 0 -2.26-2.9 34.49 34.49 0 0 0 -9.11-5.67c-1.91-.81-4.34-2.3-3.66-4.26.57-1.63 2.79-1.76 4.51-1.6l7.81.75a8.72 8.72 0 0 0 4.19-.28 3 3 0 0 0 1.94-3.35 4 4 0 0 0 -1.78-2 25.09 25.09 0 0 0 -20-3.4z" fill="#90278e"/><path d="m119.59 281.48c.17-11.94 3.77-24.41 12.55-32.5 2.26-2.08 4.86-3.89 6.51-6.48a22.87 22.87 0 0 0 2.53-7l3.09-12.64c.7-2.85 1.39-5.83.74-8.69a28.84 28.84 0 0 0 -2.11-5.17 28 28 0 0 1 -2.1-15.47l-1.62-1 3-6.9c1.25-2.86 3.15-6.18 6.27-6.22a6.86 6.86 0 0 1 4.27 1.88 20.28 20.28 0 0 1 5.4 23.37c-1.42 3.12-3.64 5.83-5.13 8.92a43.1 43.1 0 0 0 -2.9 9.58l-3.67 16.69a6.36 6.36 0 0 0 -.14 3.22c.49 1.6 2.12 2.52 3.59 3.32 14.2 7.73 26.92 19 34.06 33.46s8.08 32.51.22 46.64c-3.84 6.9-10.11 12.94-17.88 14.33-2.73.49-5-.14-7.67-1a54.87 54.87 0 0 1 -29.12-22.67 64.73 64.73 0 0 1 -9.89-35.67z" fill="#ccc"/><path d="m184 280.29c-5.63-11.44-14.78-20.78-25.35-28-.21.15-.43.3-.51.38l-1.25 1.11c-1.11 1-2.25 2-3.45 2.89a71.69 71.69 0 0 1 8 12.4c5.74 11.84 5.7 26 4.81 38.9-.76 11-3.46 21.69-6.61 32.23a13.89 13.89 0 0 0 6.78.71c7.72-1.39 14-7.39 17.77-14.24 7.87-14.06 6.94-31.96-.19-46.38z" fill="#999"/><path d="m147.46 247-.38-1a154.1 154.1 0 0 1 41.33-10c4.66-.47 9.8-.6 13.52 2.24 1 .74 1.87 2 1.34 3.11a3.07 3.07 0 0 1 -2.26 1.33 45.1 45.1 0 0 1 -8.05 1.07 29.3 29.3 0 0 1 19 5.55 8.21 8.21 0 0 1 3.06 3.49 3.45 3.45 0 0 1 -1.16 4.16 5.16 5.16 0 0 1 -3.26.29q-8.85-1.17-17.6-3c6.24 1.5 12.29 3.89 17 8.14a12.35 12.35 0 0 1 3.5 4.62 6 6 0 0 1 -.51 5.6 7.78 7.78 0 0 1 -4 2.51c-8.66 2.83-18.19 0-26.24-4.31s-15.34-10-23.76-13.46a80 80 0 0 1 -8.41-3.54 8.08 8.08 0 0 1 -3.2-2.78 3.62 3.62 0 0 1 .08-4.02z" fill="#ccc"/><path d="m172.78 158.78c-5.67-2-11.87 3.59-13 4.69-5.1 4.81-5.9 11.07-7 19.57-.69 5.37-.84 8.53.76 12.28s5.14 7 9.28 7.47c3.46.38 6.87-1.13 9.73-3.12a24.68 24.68 0 0 0 9.16-12.43c1.87-6.41.23-11.65-1.17-16.12-1.83-5.76-3.42-10.83-7.76-12.34z" fill="#e6e6e6"/><path d="m157.86 200.8a10.33 10.33 0 0 0 4.93 2c3.46.38 6.87-1.13 9.73-3.12a24.68 24.68 0 0 0 9.16-12.43 20.63 20.63 0 0 0 .8-7 83.5 83.5 0 0 1 -24.62 20.55z" fill="#ccc"/><path d="m156.61 206.32-.59-.23a2.11 2.11 0 0 0 .24 2.79 1.66 1.66 0 0 0 .17-2.73" fill="none"/><path d="m153.33 206a1.35 1.35 0 0 0 -1.26 1.1 3.36 3.36 0 0 0 .2 1.78.87.87 0 0 0 .26.45c.38.28.88-.16 1.07-.6a3.4 3.4 0 0 0 .06-2.49c-.07-.2-.2-.41-.41-.44s-.39.3-.2.39" fill="none"/><path d="m155.57 185.91a3.07 3.07 0 0 0 4.07 2 3.35 3.35 0 0 0 1.55-4.38 3.16 3.16 0 0 0 -4.32-1.37 2.92 2.92 0 0 0 -1.22 3.56" fill="#3e2945"/><path d="m129.63 176.65c1.24-2 6.86-10.72 14.16-10.91a7.41 7.41 0 0 1 3.82.81c3.21 1.74 4 5.76 4.54 8.47a31.58 31.58 0 0 1 -4.05 21.41c-2.48 3.44-5.41 6.77-9.32 8.39s-9 1.08-11.61-2.26a12.29 12.29 0 0 1 -2.16-6.43 31.72 31.72 0 0 1 4.62-19.48z" fill="#e6e6e6"/><path d="m137.07 200.77a17.38 17.38 0 0 0 6.15 1.54c-.29.24-.57.5-.88.72-3.9 2.88-9.67 3.84-13.54.92s-4.55-8.11-4.1-12.77a33.88 33.88 0 0 1 .78-4.55c2.59 5.78 5.94 11.49 11.59 14.14z" fill="#ccc"/><path d="m126 193.1c5.17 4.59 12.37 7.76 19.44 9.46a5.78 5.78 0 0 1 3-.54c1.79.2 3.3 1.36 4.94 2.1a15.59 15.59 0 0 0 7.26 1.09c3.25-.18 7.09-.74 9.26 1.69a7.89 7.89 0 0 1 1.59 4.77 16.2 16.2 0 0 1 -1.66 9.17 8.86 8.86 0 0 1 -7.65 4.72c-4-.14-7.17-3.62-11-4.84-5.19-1.63-10.64 1-16 1.92a6.58 6.58 0 0 1 -3.68-.18c-2.09-.9-1.86-2.07-2.73-4.43a5.76 5.76 0 0 1 1.57-6.62 6.85 6.85 0 0 1 1.79-.93 3.36 3.36 0 0 1 -.59-.44 53.12 53.12 0 0 1 -10.22-13.13 3.07 3.07 0 0 1 4.68-3.81z" fill="#f79c41"/><path d="m143.57 185.95a2.6 2.6 0 0 0 3.56 2.24 3.5 3.5 0 0 0 1.47-1.57c.55-1 .88-3.14-.36-4.08s-3.12-.56-4.35 1" fill="#3e2945"/><path d="m133.52 218.8c3.92 3.76 12.45-4.84 20.63-.89a51.25 51.25 0 0 0 7.45 3.1c1.83.59 4 1 5.58 0a4.65 4.65 0 0 0 1.82-4.41 11.37 11.37 0 0 0 -1.86-4.61 6.78 6.78 0 0 0 -3.36-3.24 5.78 5.78 0 0 0 -3.35.06c-4.59 1.27-7.09-.52-19.66.75-5.52.56-7 1.1-7.82 2.38-1.23 1.85-1.16 5.2.57 6.86z" fill="#3e2945"/><g fill="#f88f1c"><path d="m185.51 350.78a2.51 2.51 0 0 1 -2.48-2.19l-.94-7.24a63.36 63.36 0 0 0 -1.42-8.2c-1.94-7.32-6.52-13.75-11-20a2.51 2.51 0 1 1 4.08-2.91c4.47 6.27 9.54 13.38 11.71 21.59a67.68 67.68 0 0 1 1.54 8.82l1 7.35a2.51 2.51 0 0 1 -2.17 2.81z"/><path d="m203.07 336.94a2.48 2.48 0 0 1 -.6-.07 158.32 158.32 0 0 0 -19-3.5 2.51 2.51 0 0 1 -.13-5c4.48-.78 9.4-2.12 14.15-3.43 1.9-.52 3.75-1 5.54-1.49a2.51 2.51 0 1 1 1.25 4.85c-1.77.46-3.6 1-5.47 1.47l-2.17.59q3.56.72 7.07 1.59a2.51 2.51 0 0 1 -.6 4.94z"/><path d="m114.91 337.57a2.51 2.51 0 0 1 -1.91-4.12l4.7-5.58a68 68 0 0 1 6.08-6.6c6.27-5.73 14.38-9 21.53-11.81a2.51 2.51 0 1 1 1.86 4.65c-7.08 2.83-14.41 5.75-20 10.86a64.08 64.08 0 0 0 -5.62 6.13l-4.71 5.59a2.5 2.5 0 0 1 -1.93.88z"/><path d="m125.82 323.91a2.54 2.54 0 0 1 -1.09-.25 158 158 0 0 0 -17.9-7.36 2.5 2.5 0 0 1 1.61-4.74q3.42 1.16 6.81 2.49l-1.5-1.67c-1.3-1.44-2.57-2.86-3.81-4.2a2.51 2.51 0 0 1 3.68-3.4c1.26 1.36 2.55 2.79 3.86 4.26 3.29 3.66 6.7 7.45 10 10.53a2.51 2.51 0 0 1 -1.7 4.35z"/></g><path d="m280.89 300.43c-32.31 26-68.85-33.8-83.84-1.65s93.77 47 109.49 21.63c7.44-12 1.58-20.41-1.92-25.85-3.89-6.06-6.7-7.8-23.73 5.87z" fill="#fed9be" fill-rule="evenodd"/><path d="m178.2 286.57a15.94 15.94 0 0 1 21.86-5.48l9.84 5.91a15.93 15.93 0 0 1 5.49 21.85 15.93 15.93 0 0 1 -21.85 5.49l-9.84-5.89a15.94 15.94 0 0 1 -5.49-21.86z" fill="#fed9be"/><g opacity=".21"><path d="m326.28 472.44c7.52 25.89 64.71 11.43 77-5.64-19.79-.8-87.15-29.34-77 5.64z" fill="#3f3f44"/></g><g opacity=".21"><path d="m263.79 469.52c4-13.59-22.8-23.36-32.35-19.26 7.69 5.94 26.89 37.62 32.35 19.26z" fill="#3f3f44"/></g></g></svg>