<svg height="512" viewBox="0 0 512 512" width="512" xmlns="http://www.w3.org/2000/svg"><g id="social_media" data-name="social media"><g id="adorable"><path d="m166.66 105.43c6.85-19.33 44.34-27.33 44.34-27.33s-23.75 6.8-27.21-1.37 8.44-17.2 40.4-19.95c0 0-13-12.37-8.41-21.24s46.34 13.29 46.34 13.29-14.12-23.62-3.5-22.67 29.74 17.28 29.74 17.28-15.46-12.22-11-19.66 33.19 20.22 33.19 20.22-10-27.26 3.74-21.66c8.74 3.57 17 25.9 17 25.9s-5.39-35.09 7.83-32 6.68 34.9 6.68 34.9 16.55-29.76 24.14-25-14.94 27.22-14.94 27.22 53.66-24.36 58-9.83-24.83 16.26-27.88 16.84 38.43-3.37 39.88 8.72-19.18 12.41-26.41 12.91c0 0 49.77 5.19 49.43 16.38s-28.26 4.19-33.65 2.53c0 0 36.22 22.25 32.66 30.16s-11.71 1.32-25.93-5.45c0 0 23.16 16.3 19.92 27.68s-27.57-7.53-27.57-7.53 22.75 13.45 23.5 25.45-35.73 14-35.73 14l-201.78-49.81s-39.63-10.64-32.78-29.98z" fill="#3e2945"/><g opacity=".21"><ellipse cx="281.65" cy="486.28" fill="#3f3f44" rx="84.8" ry="9.72"/></g><path d="m346.24 448.16s.88 33.26-9 35.05-32.58 6.28-36.36 0 3.32-20.58 24.31-24.22 21.05-10.83 21.05-10.83z" fill="#f7bf9a"/><path d="m332.24 483.43c-3.21.47-11.73-24.53-18.4-53.74h43.85c-14.69 16.22-11.96 51.77-25.45 53.74z" fill="#f7bf9a"/><path d="m212.25 449s-.88 33.26 9 35.05 32.58 6.28 36.36 0-3.32-20.58-24.31-24.22-21.05-10.83-21.05-10.83z" fill="#f7bf9a"/><path d="m226.9 484.22c3.21.47 11.73-24.53 18.4-53.74h-43.85c14.73 16.23 11.96 51.77 25.45 53.74z" fill="#f7bf9a"/><path d="m345.67 277.67-24-5.11-81.6.05-23.89 5.06c-14.64 4.33-25.18 23.33-25.18 45.39l4 75.12c25.59 30.46 145.34 29.29 169-4.14l6.86-71c0-22.07-10.54-41.07-25.19-45.4zm0 0" fill="#f7bf9a"/><path d="m364 394 6.86-71c0-22.07-10.54-41.07-25.19-45.4l-24-5.11-81.6.05-23.89 5.06 95.38 24.48 52.44 91.92m-18.33-117.57" fill="#fed9be"/><ellipse cx="315.35" cy="307.04" fill="#f79820" rx="8.16" ry="6.18" transform="matrix(.79 -.613 .613 .79 -122.01 257.73)"/><path d="m272.39 407.75c-6.57-2.62-17.49-5.92-14.19-8.55 3-2.41 12.91-11 20.14-17.3 4.58-4 11.76-4.93 16.64-2 3.78 2.26 8.28 5 12.36 7.54 9.35 5.85 2.68 11.64 2.68 11.64l-4.81 2.37-16 4.89s-10.02 4.12-16.82 1.41z" fill="#90278e"/><path d="m227.52 379.73c-11.7 2.47-22.91 6.76-34.56 8.77 1.16 15.67 3.48 37.76 8 53l13.27-9.29 20.48 9.17 18.84-13.38 4 3-23.4-52.51c-2.22.34-4.43.77-6.63 1.24z" fill="#f88f1c"/><path d="m359.09 369.38c-.65-.5-1.27-1-1.89-1.54a2.61 2.61 0 0 1 -1.11-1 54.59 54.59 0 0 1 -16.7-25c-6.27-19.16-5.56-39.77-9.86-59.33a2.43 2.43 0 0 1 .72-2.37c-.29-2-.57-4-.87-6a62.28 62.28 0 0 0 -12.51-1.67 2.49 2.49 0 0 1 -.24 1.48c-1.52 3-3 6-4.45 9.06-2.61 16-12.27 48.52-13 48.69-.1 0-.18.11-.28.15l67.53 51.71c.21-2.2.38-4.27.52-6.25a16.59 16.59 0 0 1 -7.86-7.93z" fill="#f9ac67"/><path d="m358.64 440.37-1.43.53 1.25.56z" fill="#f88f1c"/><path d="m298.92 331.87c-3.76 1.57-31.72 27.78-33.09 28.79-10.37 7.62-19.42 15.38-31.68 17.74l23.4 52.51 14.87 11 20.21-10.31 24.26 14.86 21-14.25 19.31 8.72 1.43-.53c1-5.94 5.79-35.61 7.81-56.78z" fill="#f79c41"/><path d="m339.39 341.85a104.67 104.67 0 0 1 -3.24-13l-6.37 2.75c-4.47 1.93-6.37 5.75-4.21 8.49v.06c2.16 2.74 8.78 5 14.7 5h.38c-.4-1.09-.88-2.15-1.26-3.3z" fill="#90278e"/><path d="m351.4 362.35a150.72 150.72 0 0 0 -17 8.51c-5.75 3.4-3.45 8.05-2.11 11s31.52 7.29 31.52 7.29 1-1.09 2.4-2.73c.44-4.26.77-8.22 1-11.7a68.7 68.7 0 0 1 -15.81-12.37z" fill="#90278e"/><path d="m364 404.47-4.26-.06h-7.77c-7.43 0-14.68.13-19.29.13-8 0-10.44 6.36-11.18 11.14-.45 2.86 3.53 7.27 8.05 9.76 5.07 2.79 23 3.92 30.79 4.28 1.07-6.87 2.43-15.95 3.66-25.25z" fill="#90278e"/><path d="m272.88 436.68s6.16-1 4.94-6c-.36-1.45-.57-2.92-.71-3.82-.35-2.35-2-4-5.7-5.32s-13.48-3.77-13.48-3.77-9.91-3.32-14.76-.55c-1.12.64-3 1.79-3.88 2.45-6.09 4.4 1 11.77 1 11.77l6.74 1.34 6.47-4.82 14.28 10.31z" fill="#90278e"/><path d="m219 414.5c3.77-.15 9.46-2.73 10.08-10.48s-10.08-9.9-10.08-9.9l-25.85-2.54c.56 7 1.34 15 2.42 22.94 6.74.03 20.64.09 23.43-.02z" fill="#90278e"/><path d="m281.7 350.38c5.8-.5 10.51-1 11.85-1.49 2.46-.85 1.05-5.62-.64-9.75a86 86 0 0 1 -11.21 11.24z" fill="#90278e"/><path d="m327.45 297.51a78.14 78.14 0 0 0 -16.54-5c-.44 3.85-.84 7.75-1.36 11.61 1.7-.43 3.46-.92 5.29-1.51 13.91-4.48 12.61-5.1 12.61-5.1z" fill="#90278e"/><ellipse cx="281.05" cy="242.87" fill="#8e3d7c" rx="36.49" ry="68.49" transform="matrix(.24 -.971 .971 .24 -22.11 457.49)"/><ellipse cx="282.94" cy="235.18" fill="#d49f77" rx="36.49" ry="68.49" transform="matrix(.24 -.971 .971 .24 -13.21 453.49)"/><path d="m392.73 218.13c1.36-33 6.66-70.74-9.33-103.12-34-68.89-130.45-62.17-168.07-11.53-21.42 29.45-60 90.25-14.86 118.12 55.27 33.94 189.16 71.61 192.26-3.47z" fill="#f7bf9a"/><path d="m263.59 115.39c18.4-24.77 50.88-39 83.24-39.07-43.15-23.83-103.56-10.46-131.5 27.15-21.42 29.45-60 90.24-14.86 118.12 25.47 15.64 67.64 32.08 106 37.9-22.23-7.41-42.85-16.83-57.75-26-45.14-27.85-6.54-88.65 14.87-118.1z" fill="#fed9be"/><path d="m194.59 131.54c.06.34.12.69.19 1a3.2 3.2 0 0 1 -.07-.47c-.03-.14-.06-.32-.12-.53z" fill="#d49f77"/><path d="m194.8 132.63s0 0 0 .06 0-.08 0-.12a.14.14 0 0 1 0 .06z" fill="#d49f77"/><path d="m194.71 132.09a3.2 3.2 0 0 0 .07.47s0 .09 0 .12c.11.23.06-.02-.07-.59z" fill="#d49f77"/><path d="m399.38 182.1-.64.82a3.69 3.69 0 0 0 .27-.39z" fill="#d49f77"/><path d="m398.69 183h-.05l.1-.09s-.04.09-.05.09z" fill="#d49f77"/><path d="m399 182.54a3.69 3.69 0 0 1 -.27.39l-.1.09c-.15.16.01-.02.37-.48z" fill="#d49f77"/><path d="m282.9 406.76 2.1-.76c1.42-1.35 3-2.76 4.84-4.19l7.69-10.22 11.29-2.82q1.71-1.06 3.45-2.1l-5.09-6.19s-37.6-4.89-42-3.94.95 18.13 1.23 20.12 16.49 10.1 16.49 10.1z" fill="#90278e"/><path d="m214.47 51.59c5-3.77 11.2-4.47 17.77-3.4a7.6 7.6 0 0 1 11.28-8.86 42.93 42.93 0 0 1 11.29 9.67 8 8 0 0 1 7-4.42c13.41-.77 22.14 18.53 24 29.27.82 4.84-3 8.85-7.75 9.19-2.81.2-5.58-.65-8.26-1.48-17.1-5.37-38.8-8.51-54.16-17.9-3.84-2.36-5.16-9.07-1.17-12.07z" fill="#543966"/><g fill="#3e2945"><path d="m252.92 363.6a1 1 0 0 1 -.52-1.14q-.07-.76.79 0c.31.4-.07 1.59-.24 2a3.34 3.34 0 0 1 -2.6 1.92c-1.07.19-.62 1.82.45 1.63a5.05 5.05 0 0 0 4.1-4.28c.21-1.59-.86-4.48-3-3.46-1.67.8-1.57 3.63-.31 4.73s3.64-.08 2.94-1.83c-.4-1-2-.56-1.63.45z"/><path d="m241.15 356.43a5.36 5.36 0 0 0 1.67-4.67c-.17-1.22-1-3.36-2.58-3s-1.24 2.24-.68 3.24a5.81 5.81 0 0 0 4.5 2.75c1.08.12 1.07-1.57 0-1.69a4.08 4.08 0 0 1 -2.31-1 3.53 3.53 0 0 1 -.74-.9c-.31-.59-.35-.86-.14 0a3.79 3.79 0 0 1 -.93 4.15c-.79.75.4 1.94 1.19 1.19z"/><path d="m242.44 332.59c-.25 1.56-.44 3.32.83 4.5a2.34 2.34 0 0 0 3.12.27 2.17 2.17 0 0 0 .34-2.69c-.86-1.25-2.31-.55-3.22.2s.36 1.88 1.19 1.19c-.73.6-.66-2.83-.63-3 .17-1.06-1.46-1.52-1.63-.45z"/><path d="m278.72 338.09c-.25 1.56-.44 3.32.83 4.5a2.34 2.34 0 0 0 3.12.27 2.17 2.17 0 0 0 .34-2.69c-.86-1.25-2.31-.55-3.22.2s.36 1.88 1.19 1.19c-.73.6-.66-2.83-.63-3 .17-1.06-1.46-1.52-1.63-.45z"/><path d="m354.12 337.2c-.25 1.56-.44 3.32.83 4.5a2.34 2.34 0 0 0 3.12.27 2.17 2.17 0 0 0 .34-2.69c-.86-1.25-2.31-.55-3.22.2s.36 1.88 1.19 1.19c-.73.6-.66-2.83-.63-3 .17-1.06-1.46-1.52-1.63-.45z"/><path d="m239.46 360.06c0 1.65.28 3.38 2 4.07a2.49 2.49 0 0 0 3.26-1.3c1.2-2.79-3.1-4.24-3.88-1.45a.85.85 0 0 0 1.63.45v.82a1.1 1.1 0 0 1 -1.08-.83 3.43 3.43 0 0 1 -.24-1.76.85.85 0 0 0 -1.69 0z"/><path d="m254.87 338.69c0 1.65.28 3.38 2 4.07a2.49 2.49 0 0 0 3.26-1.3c1.2-2.79-3.1-4.24-3.88-1.45a.85.85 0 0 0 1.63.45v.82a1.1 1.1 0 0 1 -1.08-.83 3.43 3.43 0 0 1 -.24-1.76.85.85 0 0 0 -1.69 0z"/><path d="m252.55 330.16c0 1.65.28 3.38 2 4.07a2.49 2.49 0 0 0 3.26-1.3c1.2-2.79-3.1-4.24-3.88-1.45a.85.85 0 0 0 1.63.45v.82a1.1 1.1 0 0 1 -1.08-.83 3.43 3.43 0 0 1 -.24-1.76.85.85 0 0 0 -1.69 0z"/><path d="m245.8 346.61c.7-1.46 1.18-3.09 0-4.47a2.49 2.49 0 0 0 -3.49-.41c-2.47 2 .89 5.33 2.76 3.08.69-.83-.5-2-1.19-1.19q1.08-.7 1 .58a4.28 4.28 0 0 1 -.53 1.55c-.46 1 1 1.83 1.46.85z"/><path d="m267.92 355.71c.7-1.46 1.18-3.09 0-4.47a2.49 2.49 0 0 0 -3.49-.41c-2.47 2 .89 5.33 2.76 3.08.69-.83-.5-2-1.19-1.19q1.08-.7 1 .58a4.28 4.28 0 0 1 -.53 1.55c-.46 1 1 1.83 1.46.85z"/><path d="m235.16 352.69c.7-1.46 1.18-3.09 0-4.47a2.49 2.49 0 0 0 -3.49-.41c-2.47 2 .89 5.33 2.76 3.08.69-.83-.5-2-1.19-1.19q1.08-.7 1 .58a4.28 4.28 0 0 1 -.53 1.55c-.46 1 1 1.83 1.46.85z"/><path d="m265.27 340.41c0 1.65.28 3.38 2 4.07a2.49 2.49 0 0 0 3.26-1.3c1.2-2.79-3.1-4.24-3.88-1.45a.85.85 0 0 0 1.63.45v.82a1.1 1.1 0 0 1 -1.08-.83 3.43 3.43 0 0 1 -.24-1.76.85.85 0 0 0 -1.69 0z"/><path d="m342.95 342.38c0 1.65.28 3.38 2 4.07a2.49 2.49 0 0 0 3.26-1.3c1.2-2.79-3.1-4.24-3.88-1.45a.85.85 0 0 0 1.63.45v.85a1.1 1.1 0 0 1 -1.08-.83 3.43 3.43 0 0 1 -.24-1.76.85.85 0 0 0 -1.69 0z"/><path d="m233.16 370.38c.25 1.69.72 3.55 2.42 4.32a2.47 2.47 0 0 0 3.36-1.09 2 2 0 0 0 -1-2.78c-1.56-.7-2.93.49-3.85 1.63-.68.84.51 2 1.19 1.19a6.37 6.37 0 0 1 .66-.78l.81-.53q-.07 1.51-.83.52c-.94-.57-1-1.94-1.19-2.93s-1.79-.62-1.63.45z"/><path d="m230.25 342.93c.89-1.67 1.5-3.68.52-5.46-.56-1-2.18-2.44-3.35-1.44s-.4 2.65.31 3.55c1.36 1.72 3.54 2.1 5.61 2 1.08-.07 1.09-1.76 0-1.69s-4.18 0-4.55-1.73c-.23-1 .79 1 .8 1.15a5 5 0 0 1 -.8 2.79c-.51 1 .95 1.81 1.46.85z"/><path d="m219.26 348.24a2.93 2.93 0 0 1 -1.17 1.23q.19-1.34.59-.17c.67 1 0 1.89-.7 2.65s.47 2 1.19 1.19c1.2-1.34 2.13-3.28 1-5a2.4 2.4 0 0 0 -3.61-.62 2.08 2.08 0 0 0 .19 3.36c1.66.94 3.18-.51 4-1.83.57-.93-.89-1.78-1.46-.85z"/><path d="m253.32 348.88a2.93 2.93 0 0 1 -1.17 1.23q.19-1.34.59-.17c.67 1 0 1.89-.7 2.65s.47 2 1.19 1.19c1.2-1.34 2.13-3.28 1-5a2.4 2.4 0 0 0 -3.61-.62 2.08 2.08 0 0 0 .19 3.36c1.66.94 3.18-.51 4-1.83.57-.93-.89-1.78-1.46-.85z"/><path d="m227.37 363.64c1.62-1.21 3-3 2.51-5.15-.34-1.41-2-3.06-3.28-1.48-2.53 3.19 2.3 8 5.39 5 .78-.76-.42-2-1.19-1.19-1.45 1.41-3.34-.47-3-2.11s.54.91.5 1.13a4 4 0 0 1 -1.74 2.33c-.86.64 0 2.11.85 1.46z"/><path d="m350.89 333.29-.06-.1-.13 1 .13-.13-.82.22h.16l-.62-.81c0 .42-1.43 1.08-1.64 1.13a1 1 0 0 1 -1.31-.24 1 1 0 0 1 -.5-.85l.67.21a3.42 3.42 0 0 1 .07 1.52 3.65 3.65 0 0 1 -.92 1.8c-.72.81.47 2 1.19 1.19 1.4-1.58 2.11-4.18.79-6.06a1.88 1.88 0 0 0 -3.4.62 2.9 2.9 0 0 0 2.43 3.55c1.5.21 4.44-1 4.3-2.86a.86.86 0 0 0 -.62-.81 1.06 1.06 0 0 0 -1.11.31.86.86 0 0 0 -.13 1l.06.1c.57.92 2 .08 1.46-.85z"/><path d="m352.84 352.63q-.71 1.13-1.48-.13a2.33 2.33 0 0 1 .2-1.53c.71-1.2 1.5-.27 1.68.7.35 1.89-1.12 3.78-3.12 3-1-.38-1.46 1.25-.45 1.63a4 4 0 0 0 5.24-3.25c.32-1.83-.77-5.35-3.29-4.49-1.92.65-2.59 3.8-1.4 5.31s3.86 1.12 4.25-.84c.21-1.06-1.42-1.52-1.63-.45z"/></g><path d="m365.18 307.38c-7.44-7.32-17-16.66-18.48-17.91-2.5-2.07-95.2 85.4-80.7 98.53s91.88-62.31 91.88-62.31 4.16-2.47 8.45-5c-.5-4.37-.87-8.83-1.15-13.31z" fill="#f7bf9a" fill-rule="evenodd"/><g opacity=".35"><path d="m250.9 173.67c2.64 1.88 10.8 18.68 33.82 24.37s38.07-5.39 41.27-5.82 20.81-4.56 13.25-18.06c-.14 1.09-1.65 3.44-3.74 5.1a17 17 0 0 1 -7 2.85c-3.21.44-18.25 11.51-41.27 5.82s-31.23-22.49-33.83-24.37a19.07 19.07 0 0 1 -4.17-4.42c-1.37-2.23-1.63-4.66-2.27-5.53-12.96 8.39 1.27 18.15 3.94 20.06z" fill="#2a1d30"/></g><path d="m215.71 288.13c-1.35.76-8.66 5.74-15.93 10.72-2.15 6.23-4.53 12.36-6.5 18.66 2.84 2.41 5.15 4.39 5.15 4.39s63.09 87.78 79.65 77.33-59.54-112.7-62.37-111.1z" fill="#f7bf9a" fill-rule="evenodd"/><path d="m419.8 270.87c-.23-10.92-18.44-31.92-18.44-31.92 28.75 15.55 22.13-5 22.13-5-2.8-12.36-26.33-27-26.33-27 34.8 4.57 17.61-13.76 17.61-13.76-17.07-15.48-45.89-20.59-45.89-20.59 17.74-2.46 21.94-12.69 21.94-12.69.11-7.22-12.7-11.19-12.7-11.19-1.86-.36-3.64-.62-5.36-.79-.57-.06-1.1-.06-1.65-.1-1.11-.08-2.22-.16-3.26-.16-.64 0-1.23 0-1.84.07-.9 0-1.8.06-2.65.14-.62.06-1.2.16-1.8.25-.77.11-1.55.22-2.29.37s-1.14.27-1.69.41-1.35.34-2 .54-1.06.36-1.58.55-1.17.44-1.72.67-1 .44-1.45.67-1 .5-1.48.76-.89.51-1.32.77c-.2.12-.42.23-.61.35a30.2 30.2 0 0 0 -10.28 10.71c7.74 13.62-5.44 17.71-8.71 18.16s-18.25 11.51-41.27 5.82-31.16-22.48-33.8-24.36-12.44-11.67.75-20.12a30.2 30.2 0 0 0 -4.11-14.28c-.11-.2-.26-.4-.37-.6q-.38-.64-.81-1.29c-.3-.45-.62-.91-1-1.36s-.63-.84-1-1.27-.79-.93-1.21-1.4-.74-.82-1.14-1.22-1-.94-1.51-1.41-.85-.77-1.31-1.15-1.22-.93-1.85-1.39-1-.71-1.48-1.06c-.71-.47-1.5-.91-2.28-1.36-.53-.31-1-.62-1.6-.92-.93-.48-1.94-.93-3-1.38-.51-.23-1-.47-1.51-.68-1.6-.65-3.29-1.25-5.11-1.8 0 0-13.18-2.45-16.44 4 0 0-1 11 13.51 21.45 0 0-27.89-8.9-50.2-3.14 0 0-23.76 8.22 9.18 20.38 0 0-27.66 2-35.89 11.67 0 0-15.43 15.11 17.26 14.72 0 0-25.89 10.11-31.18 19.67 0 0-7.91 11.73 21.64 3.73 0 0-12.84 9.71-19.2 20.21s.2 13.49 13.58 9.67c0 0-13.05 10.18-16.09 19.09s-5.24 28.33 24.44 2.74c0 0-12 22.88-9.67 33.91 0 0 5 6.87 9.87 4s10.09-10.39 10.82-15c0 0-.9 23.92 12.57 33.69 0 0 10.28 5.76 17.21-13.86 0 0 2.84 15.59 13.23 22.58s17.89 2 21.15-12.89c0 0-.41 23.79 18.8 28.54s32-16 32-16c-4 14.7.27 22.6 12.72 21.25s22.22-13.83 22.22-13.83c-3 20.59 8.78 20.28 8.78 20.28 16.46-2.37 26.81-24 26.81-24-1.52 4.45-.43 13.58 2.57 18.34s10.62 1 10.62 1c7.16-8.69 7.22-34.51 7.22-34.51 14.35 36.47 21.44 18.25 22.9 9s-5.25-24.39-5.25-24.39c10.07 9.61 17.25 10 16.52-2.24s-7.58-26.83-7.58-26.83c22.4 20.84 20.86 6.78 20.86 6.78z" fill="#3e2945"/><circle cx="372.1" cy="155.19" fill="#f2a88f" r="37.53" transform="matrix(.24 -.971 .971 .24 132.23 479.24)"/><path d="m378.34 146.6c-13.77-3.82-28.53-4.68-42.39-1.36-.09.32-.21.63-.29 1a37.54 37.54 0 1 0 73.62 14.13 124.81 124.81 0 0 0 -30.94-13.77z" fill="#fff"/><path d="m409.42 159.8a136.1 136.1 0 0 0 -31.08-13.2c-13.78-3.78-28.48-4.88-42.2-2.14-.06.23-.14.45-.21.67 2.33.44 4.66.88 7 1.43a2.35 2.35 0 0 1 1.29.79c16.57 4.28 33 9 49.23 14.44 4.26 1.42 9.47 2.79 14.37 4.65a30.07 30.07 0 0 0 1.61-6.63z" fill="#e6e6e6"/><path d="m348.65 161.21a21.83 21.83 0 1 1 16 26.43 21.83 21.83 0 0 1 -16-26.43z" fill="#3e2945"/><path d="m335.67 144.58c-1-3.13 12-12.44 26.63-14 0 0 10.64-1.12 26.93 3.82 6.18 1.89 12.77 4.6 12.77 4.6 4.9 2 5.49 2.45 8.24 3.47a71.57 71.57 0 0 0 16.82 3.34c14.88.9 30.84-5.13 33.22-6-1.94 1.14-24.88 14.48-39 19.45-4.15 1.46-8 2.44-12 1.08-2.29-.78-3.07-1.7-8.09-4.55 0 0-2.94-1.67-8.05-4.14-8.46-4.09-20.49-5.21-25.32-5.6-22.58-1.85-31.4.95-32.15-1.47z" fill="#2a1d30"/><path d="m280.36 380.71a12.77 12.77 0 0 1 -2.7 17.85l-7.4 5.45a12.77 12.77 0 0 1 -17.85-2.7 12.77 12.77 0 0 1 2.7-17.85l7.4-5.45a12.77 12.77 0 0 1 17.85 2.7z" fill="#f7bf9a"/><circle cx="232.18" cy="120.64" fill="#f2a88f" r="37.53" transform="matrix(.24 -.971 .971 .24 59.4 317.13)"/><path d="m230.66 110.14c14 3 27.43 9.14 38.15 18.53-.07.32-.11.65-.19 1a37.54 37.54 0 1 1 -71.74-21.77 124.81 124.81 0 0 1 33.78 2.24z" fill="#fff"/><path d="m197 107.35a136.1 136.1 0 0 1 33.65 2.78c14 3.06 27.48 8.94 38.34 17.75 0 .23-.09.46-.13.69-2.27-.7-4.54-1.39-6.84-2a2.35 2.35 0 0 0 -1.51.09c-16.65-3.93-33.43-7.37-50.3-10.14-4.43-.73-9.68-1.94-14.88-2.57a30.07 30.07 0 0 1 1.66-6.62z" fill="#e6e6e6"/><path d="m250.22 135.93a22.66 22.66 0 1 0 -27.42 16.57 22.66 22.66 0 0 0 27.42-16.57z" fill="#3e2945"/><path d="m269.37 128.21c2.31-2.32-4.86-16.62-17.06-24.77 0 0-8.89-5.94-25.62-9.16-6.34-1.22-13.45-1.87-13.45-1.87-5.25-.54-6-.38-8.91-.77a71.57 71.57 0 0 1 -16.44-4.87c-13.6-6.13-24.89-18.89-26.59-20.77 1.19 1.91 15.28 24.4 25.46 35.37 3 3.23 6 5.91 10.13 6.55 2.39.37 3.51-.08 9.28-.26 0 0 3.38-.11 9.06.08 9.39.31 20.56 4.93 25 6.83 20.85 8.85 27.34 15.43 29.14 13.64z" fill="#2a1d30"/><path d="m418.4 96.07c-3.81-5-9.58-7.33-16.19-8.07a7.6 7.6 0 0 0 -8.47-11.58 42.93 42.93 0 0 0 -13.46 6.21 8 8 0 0 0 -5.58-6.15c-12.71-4.36-26.33 11.86-31 21.71-2.1 4.44.5 9.33 5 10.94 2.65 1 5.54.88 8.36.8 17.9-.51 39.65 2.34 57-2.56 4.29-1.23 7.37-7.37 4.34-11.3z" fill="#543966"/><path d="m339.13 284.13c-21.71 9.66-50.2 13.92-84.18 5.65-47.73-11.62-70.37-32.87-78.25-54-11.17-30 7.31-59.83 26-61.93a63.45 63.45 0 0 1 7.63-.43c25.2.18 31 17.84 65.4 32.09 0 0 54.12 23.59 84.81 14.42a53.18 53.18 0 0 1 6-1.45c36.31-6.37 22.03 43.65-27.41 65.65z" fill="#84575d"/><path d="m339.13 284.13c-21.71 9.66-50.2 13.92-84.18 5.65-47.73-11.62-70.37-32.87-78.25-54 0-.04 90.18-26.94 162.43 48.35z" fill="#ca6867"/><path d="m313.29 236.48c3.62 1.6 8.44 1.52 12.35 2.1 3.71.55 8.76 2.32 12.16-.07 3.58-2.5 2.18-5.94 2.41-9.58.16-2.57 1.52-4.69 2.47-6.93a138.59 138.59 0 0 1 -29.21-4.12l-2.77 9.28c-1.06 3.55-1.51 7.5 2.59 9.32z" fill="#f2f2f2"/><path d="m237.53 282.58v-.09a40.54 40.54 0 0 0 3-16.07 5.35 5.35 0 0 0 -4-4.93l-13-3.91c-3.43-1-8-3.34-11.66-3-5.57.47-8.23 7.32-9.58 12.85 8.93 6.4 20.22 12.21 34.31 17a5.62 5.62 0 0 0 .32-.56c.31-.41.44-.87.61-1.29z" fill="#f2f2f2"/><path d="m232.24 210.75a91.78 91.78 0 0 1 22.91 10.25 5.26 5.26 0 0 0 7.62-3.3l3.49-16.61c-13.87-7-22.42-14.3-30.7-19.65l-7.15 23c-.85 2.76 1.24 5.56 3.83 6.31z" fill="#f2f2f2"/><path d="m146.28 35c-5.22-4.5-12-5.66-20.3.23-18.23 12.92-19.65 31.14-20 51.24-14.49-6.06-32.37-20.47-47.53-6.35-7.52 7-8.52 19.23-4.13 28.52s13.19 15.88 22.68 19.9c15.44 6.56 36.2 14.2 52 8.5 11.2-15.19 22.62-30.82 27.78-49 3.11-10.93 3.59-23 .36-33.94-2.2-7.24-5.8-14.75-10.86-19.1z" fill="#c02c32"/></g></g></svg>