<svg height="512" viewBox="0 0 512 512" width="512" xmlns="http://www.w3.org/2000/svg"><g id="social_media" data-name="social media"><g id="NERD"><path d="m364.5 372.2a10.29 10.29 0 0 1 -14.37-2.27l-4.35-6a10.28 10.28 0 0 1 2.22-14.35 10.28 10.28 0 0 1 14.36 2.26l4.36 6a10.29 10.29 0 0 1 -2.26 14.37z" fill="#fed9be"/><path d="m106.8 358.78a10.29 10.29 0 0 1 2.27-14.37l6-4.35a10.28 10.28 0 0 1 14.36 2.26 10.28 10.28 0 0 1 -2.26 14.36l-6 4.36a10.29 10.29 0 0 1 -14.37-2.26z" fill="#f7bf9a"/><path d="m369.58 327.67-8.15-1.89s0 0 0 .06a6.33 6.33 0 0 1 -.28 1.09c-1.75 5.85-4 13.68-6.2 21.55s-4.26 15.75-5.77 21.69a7.82 7.82 0 0 1 -.31 1.08 1.38 1.38 0 0 0 -.16 1.07l.39 2.16c.26 1.36.55 2.55.78 3.54s.47 1.76.61 2.29l.25.82.6-.59c.37-.39 1-1 1.6-1.7s1.47-1.63 2.33-2.66l1.35-1.65a1.33 1.33 0 0 0 .36-1 7.61 7.61 0 0 1 .24-1.08c1.49-5.84 3.54-13.61 5.68-21.34s4.38-15.44 6.1-21.2a6 6 0 0 1 .36-1 1.48 1.48 0 0 0 .24-1z" fill="#b2b2b2"/><path d="m369.58 327.67-3.8-.88-15 54.33.6-.59c.37-.39 1-1 1.6-1.7s1.47-1.63 2.33-2.66l1.35-1.65a1.33 1.33 0 0 0 .36-1 7.61 7.61 0 0 1 .24-1.08c1.49-5.84 3.54-13.61 5.68-21.34s4.38-15.44 6.1-21.2a6 6 0 0 1 .36-1 1.48 1.48 0 0 0 .24-1z" fill="#999"/><ellipse cx="365.56" cy="326.41" fill="#b2b2b2" rx="3.34" ry="13.4" transform="matrix(.23 -.97 .97 .23 -35.15 608.57)"/><path d="m145.36 386.55a96.15 96.15 0 0 1 .21-10c.84.87 1.61 1.68 2.26 2.41 1.1 1.22 2 2.2 2.52 2.88a1.41 1.41 0 0 0 2.06-.2l8.76-8.88a1.4 1.4 0 0 0 .16-2.07c-.7-.56-1.73-1.39-3-2.47s-2.81-2.4-4.53-4l-2.73-2.49-3-2.8a27.91 27.91 0 0 1 -3-3.28c-1-1.22-1.91-2.53-3-3.75a18.55 18.55 0 0 0 -3.82-3.27c-1.48-.93-3.2-1.66-4.71-2.65a16.44 16.44 0 0 1 -2.13-1.67q-1-.89-2-1.84l-2-1.92-1.95-2c-2.56-2.74-5.17-5.51-8-8.05a77.16 77.16 0 0 0 -9-6.92 99.25 99.25 0 0 1 -9-6.46 39.86 39.86 0 0 1 -3.84-3.58 37.33 37.33 0 0 1 -3.14-4c-1-1.37-1.91-2.7-2.88-3.92a28.83 28.83 0 0 0 -3.07-3.25c-2.11-1.93-4.11-3.62-6-5s-3.54-2.61-4.93-3.52-2.56-1.57-3.35-2-1.25-.64-1.25-.64l-10.48 12s.3.38.88 1.06 1.49 1.63 2.67 2.79 2.62 2.54 4.37 4 3.75 3.12 6 4.81a33.56 33.56 0 0 0 3.75 2.42c1.38.75 2.87 1.45 4.4 2.17a37.31 37.31 0 0 1 4.51 2.46 35.4 35.4 0 0 1 4.14 3.2 84.22 84.22 0 0 1 7.76 7.88 82.43 82.43 0 0 0 8 7.95c2.85 2.48 5.94 4.7 8.94 6.94l2.21 1.7 2.13 1.75q1 .89 2 1.81a16.12 16.12 0 0 1 1.86 1.93c1.12 1.39 2 3 3 4.39a18.47 18.47 0 0 0 3.57 3.48c1.3 1 2.68 1.82 4 2.68a24.56 24.56 0 0 1 3.48 2.75l1.69 1.58c0 .55-.09 1.12-.14 1.7-.15 1.67-.34 3.46-.57 5.26-.46 3.59-1.11 7.21-1.74 10v.08a2.91 2.91 0 0 0 3.43 3.76h.26a5.28 5.28 0 0 0 4.29-5z" fill="#af9a63"/><path d="m147.83 379c1.1 1.22 2 2.2 2.52 2.88a1.41 1.41 0 0 0 2.06-.2l3.45-3.5a29 29 0 0 1 -5.92-3.71c-2.93-2.71-6.1-5.11-8.93-7.93s-5.76-5.68-8.79-8.37c-.74-.66-8-6.82-7.86-6.92a.63.63 0 0 1 -.85.11q-9.73-9-19.85-17.64c-6.38-5.45-12.55-11.34-19.41-16.23-3.26-2.32-6.92-3.88-10.59-5.62-2.11-1-5.29-2.05-5.39-4.9-.1-2.69 1.06-4.51-1-6.4a17.69 17.69 0 0 0 -2.66-2l-4.1 4.69s.3.38.88 1.06 1.49 1.63 2.67 2.79 2.62 2.54 4.37 4 3.75 3.12 6 4.81a33.56 33.56 0 0 0 3.75 2.42c1.38.75 2.87 1.45 4.4 2.17a37.31 37.31 0 0 1 4.51 2.46 35.4 35.4 0 0 1 4.14 3.2 84.22 84.22 0 0 1 7.77 7.83 82.43 82.43 0 0 0 8 7.95c2.85 2.48 5.94 4.7 8.94 6.94l2.21 1.7 2.13 1.75q1 .89 2 1.81a16.12 16.12 0 0 1 1.86 1.93c1.12 1.39 2 3 3 4.39a18.47 18.47 0 0 0 3.57 3.48c1.3 1 2.68 1.82 4 2.68a24.56 24.56 0 0 1 3.48 2.75l1.69 1.58c0 .55-.09 1.12-.14 1.7-.15 1.67-.34 3.46-.57 5.26-.46 3.59-1.11 7.21-1.74 10v.08a2.91 2.91 0 0 0 3.43 3.76h.26a5.28 5.28 0 0 0 4.29-5v-.08a96.16 96.16 0 0 1 .21-10c.79.76 1.56 1.57 2.21 2.32z" fill="#8e7b51"/><path d="m101.33 265.93c2.28-2.48-.09-6.37-2.41-8.82l-10.5-11.11a8.8 8.8 0 0 0 -3.93-2.85c-2.34-.6-4.68.79-6.7 2.11-21.17 13.87-43 28.44-56.21 50.05-2.94 4.82-5.45 10.14-5.57 15.79s2.67 11.66 7.85 13.91a21.14 21.14 0 0 0 8.06 1.28c7.7.15 15.82-.33 22.34-4.45a44.83 44.83 0 0 0 8.45-7.63l24.74-26.47c6.52-7 13.4-14.77 13.94-24.3" fill="#b2b2b2"/><path d="m99.56 257.83a20.85 20.85 0 0 1 -4.64 9.61c-2.34 2.54-5.33 5.09-7.64 7.69-3.43 3.85-7 7.23-9.85 11.59a70 70 0 0 1 -20.2 20.19 152.31 152.31 0 0 1 -13.87 8.25c-5.1 2.6-10.36 2.21-15.77 4a2.09 2.09 0 0 1 -2.62-2c-.14-3.69 1-6.14-3.23-7.61-.72-.25-1.77 1-2.64.5a12.32 12.32 0 0 1 -2.8-1.86 21 21 0 0 0 -.29 2.92c-.12 5.65 2.67 11.66 7.85 13.91a21.14 21.14 0 0 0 8.06 1.28c7.7.15 15.82-.33 22.34-4.45a44.83 44.83 0 0 0 8.45-7.63l24.74-26.47c6.52-7 13.4-14.77 13.94-24.3l-.05 2.51c2.06-2.28.29-5.68-1.78-8.13z" fill="#999"/><path d="m81.45 333.84a4 4 0 0 1 -3.55-5.79 73.14 73.14 0 0 1 14.26-19.4 4 4 0 0 1 5.56 5.71 65.18 65.18 0 0 0 -12.72 17.3 4 4 0 0 1 -3.55 2.18z" fill="#755026"/><path d="m75.46 321.87a4 4 0 0 1 -2.85-6.78 64.68 64.68 0 0 1 21.51-14.44 4 4 0 0 1 3 7.38 56.62 56.62 0 0 0 -18.84 12.65 4 4 0 0 1 -2.82 1.19z" fill="#755026"/><path d="m72.92 315.7a4 4 0 0 1 -2.92-6.7 59.55 59.55 0 0 1 20.26-14.13 4 4 0 0 1 3.09 7.35 51.49 51.49 0 0 0 -17.53 12.23 4 4 0 0 1 -2.9 1.25z" fill="#755026"/><path d="m81 299.09c-6.76 0-13.31-2.46-18.82-4.53l-14.49-5.44c-5.3-2-10.77-4-16.32-4a4.26 4.26 0 0 0 -2.3.51 2.66 2.66 0 1 1 -5.07-1.63c.83-2.64 3.57-4.22 7.33-4.22 6.51 0 12.71 2.33 18.19 4.39l14.48 5.41c7.93 3 15 5.3 21.72 3.62a2.66 2.66 0 1 1 1.3 5.15 24.81 24.81 0 0 1 -6.02.74z" fill="#755026"/><path d="m66 317.81a2.73 2.73 0 0 1 -.58-.06 2.66 2.66 0 0 1 -2-3.17 67.63 67.63 0 0 0 1.58-16.1c-.12-5.38-.9-9.49-2.45-12.94-2.12-4.71-6-8.7-9.72-12.55l-.21-.21a14 14 0 0 1 -3.62-5.24 10 10 0 0 1 1.43-8.62 16.18 16.18 0 0 1 6-5.06 2.66 2.66 0 1 1 2.52 4.68 11.12 11.12 0 0 0 -4.08 3.36 4.72 4.72 0 0 0 -.79 4 9.84 9.84 0 0 0 2.39 3.2l.21.21c4.06 4.19 8.26 8.51 10.75 14.08 1.85 4.12 2.78 8.88 2.92 15a72.83 72.83 0 0 1 -1.7 17.37 2.66 2.66 0 0 1 -2.65 2.05z" fill="#755026"/><path d="m130.17 156.77c1.71-17.28 30.85-31.45 30.85-31.45s-18.13 10.41-22.64 4.4 3.44-15.85 29.15-24.59c0 0-13.21-7.52-11.22-15.74s40.77 1.52 40.77 1.52-16.37-16.56-7.43-17.91 27.94 8.16 27.94 8.16-15.19-6.91-13-13.92 31.37 9.87 31.37 9.87-13.71-20.37-1.32-18.55c7.9 1.16 19.19 17.84 19.19 17.84s-11.55-27.74-.07-27.92 12.57 27.32 12.57 27.32 7.53-27.8 14.73-25.49-6.74 25.47-6.74 25.47 39.18-30.92 45.68-19.86-17.11 18.4-19.49 19.49 30.91-10.53 34.49-.91-13.2 14.08-19 16c0 0 41.94-5.84 43.94 3.43s-22.37 9.18-27.14 8.9c0 0 34.28 10.94 33 18.16s-9.35 3.46-22.41.79c0 0 22.34 8.7 22 18.7s-24.19-.6-24.19-.6 21.42 6.44 24.47 16.14-26.52 18.73-26.52 18.73h-175.96s-34.72-.75-33.02-17.98z" fill="#3e2945"/><g opacity=".21"><ellipse cx="249.51" cy="455.31" fill="#3f3f44" rx="83.37" ry="8.23"/></g><path d="m280.83 422.15s-.78 29.58 8 31.17 29 5.59 32.34 0-3-18.3-21.62-21.54-18.72-9.63-18.72-9.63z" fill="#f7bf9a"/><path d="m294.84 453.52c2.85.42 10.43-21.82 16.36-47.79h-39c13.11 14.42 10.65 46.03 22.64 47.79z" fill="#f7bf9a"/><path d="m217.32 422.86s.78 29.58-8 31.17-29 5.59-32.34 0 3-18.3 21.62-21.54 18.72-9.63 18.72-9.63z" fill="#f7bf9a"/><path d="m203.48 454.22c-2.85.42-10.43-21.82-16.36-47.79h39c-13.12 14.43-10.65 46.04-22.64 47.79z" fill="#f7bf9a"/><g opacity=".63"><path d="m281.85 426.31 16.47-9.74 8.7 5.93 3.79-10.31-16.74-3.98-14.82 11.48z" fill="#f2a88f"/></g><g opacity=".63"><path d="m190.48 419.86 3.78-3.83 14.46 7.72 10.74-6.9 2.9-6.22h-32.8l-.75 3.05z" fill="#f2a88f"/></g><path d="m303.7 280.93-20.31-4.32h-69.06l-20.22 4.28c-12.4 3.66-21.32 19.74-21.32 38.42l3.39 63.58c21.66 25.78 123 24.78 143-3.5l5.8-60.06c0-18.68-8.92-34.76-21.32-38.42zm0 0" fill="#f7bf9a"/><path d="m319.22 379.41 5.8-60.06c0-18.68-8.92-34.76-21.32-38.42l-20.31-4.32h-69.06l-20.22 4.28 80.72 20.72 44.38 77.77m-15.51-99.5" fill="#fed9be"/><path d="m330.79 269c.47 3.48 2.53 13.91 2.53 13.91s33.86 73.23 21 80.34-51.42-79.86-49.32-81.14 25.79-13.11 25.79-13.11z" fill="#fed9be" fill-rule="evenodd"/><ellipse cx="278.04" cy="305.78" fill="#f79820" rx="6.9" ry="5.23" transform="matrix(.79 -.613 .613 .79 -129.07 234.6)"/><path d="m185.22 273.25c-2.07 2.87-8.84 11.19-8.84 11.19s-64.79 49.32-56.65 61.65 83.55-47.09 82.27-49.19-16.78-23.65-16.78-23.65z" fill="#f7bf9a" fill-rule="evenodd"/><path d="m241.68 391c-5.56-2.21-14.8-5-12-7.24 2.56-2 10.93-9.31 17-14.64 3.88-3.38 10-4.17 14.08-1.7 3.2 1.91 7 4.22 10.46 6.38 7.91 5 2.27 9.85 2.27 9.85l-4.07 2-13.54 4.14s-8.44 3.52-14.2 1.21z" fill="#90278e"/><path d="m203.7 367.3c-9.91 2.09-19.39 5.72-29.25 7.43 1 13.26 2.95 32 6.75 44.82l11.23-7.86 17.34 7.76 16-11.33 3.38 2.5-19.81-44.44c-1.9.36-3.77.73-5.64 1.12z" fill="#f88f1c"/><path d="m315.05 358.54c-.55-.42-1.07-.86-1.6-1.3a2.21 2.21 0 0 1 -.94-.82 46.2 46.2 0 0 1 -14.13-21.18c-5.31-16.24-4.71-33.65-8.38-50.24a2.06 2.06 0 0 1 .61-2c-.24-1.69-.49-3.39-.74-5.08a52.71 52.71 0 0 0 -10.59-1.41 2.11 2.11 0 0 1 -.2 1.25c-1.29 2.54-2.52 5.11-3.77 7.67-2.21 13.54-10.38 41.06-11 41.21-.09 0-.15.09-.24.13l57.15 43.76c.18-1.86.32-3.61.44-5.29a14 14 0 0 1 -6.61-6.7z" fill="#f9ac67"/><path d="m314.68 418.63-1.21.45 1.06.48z" fill="#f88f1c"/><path d="m264.13 326.8c-3.18 1.33-26.85 23.51-28 24.36-8.77 6.45-16.44 13-26.81 15l19.81 44.44 12.58 9.28 17.11-8.72 20.53 12.57 17.79-12.06 16.34 7.38 1.21-.45c.83-5 4.9-30.13 6.61-48.06z" fill="#f79c41"/><path d="m298.38 335.25a88.58 88.58 0 0 1 -2.75-11l-5.39 2.33c-3.79 1.63-5.39 4.87-3.56 7.19 1.83 2.32 7.43 4.22 12.44 4.22h.32c-.33-.88-.74-1.76-1.06-2.74z" fill="#90278e"/><path d="m308.55 352.59a127.56 127.56 0 0 0 -14.42 7.2c-4.86 2.88-2.92 6.81-1.79 9.33s26.66 6.17 26.66 6.17.83-.92 2-2.31c.37-3.6.65-7 .82-9.9a58.14 58.14 0 0 1 -13.27-10.49z" fill="#90278e"/><path d="m319.22 388.24-3.6-.05h-6.58c-6.29 0-12.42.11-16.33.11-6.73 0-8.83 5.39-9.46 9.43-.38 2.42 3 6.15 6.82 8.26 4.29 2.36 19.44 3.32 26.06 3.62.87-5.81 2.04-13.5 3.09-21.37z" fill="#90278e"/><path d="m242.09 415.5s5.22-.82 4.18-5.07c-.3-1.23-.48-2.47-.6-3.24-.3-2-1.68-3.41-4.82-4.5s-11.41-3.19-11.41-3.19-8.39-2.81-12.49-.47c-.95.54-2.52 1.52-3.28 2.07-5.16 3.73.89 10 .89 10l5.7 1.13 5.47-4.08 12.09 8.72z" fill="#90278e"/><path d="m196.54 396.73c3.19-.12 8-2.31 8.53-8.87s-8.54-8.37-8.54-8.37l-21.88-2.15c.47 5.91 1.13 12.67 2 19.41 5.72.02 17.48.07 19.89-.02z" fill="#90278e"/><path d="m249.56 342.46a71.46 71.46 0 0 0 10-1.26c2.08-.72.89-4.76-.54-8.25a72.75 72.75 0 0 1 -9.46 9.51z" fill="#90278e"/><path d="m288.28 297.72a66.13 66.13 0 0 0 -14-4.24c-.37 3.26-.71 6.56-1.15 9.83 1.44-.36 2.93-.78 4.48-1.28 11.77-3.79 10.67-4.31 10.67-4.31z" fill="#90278e"/><ellipse cx="252.04" cy="246.48" fill="#8e3d7c" rx="57.96" ry="30.88"/><ellipse cx="252.04" cy="239.78" fill="#d49f77" rx="57.96" ry="30.88"/><path d="m338.79 203.5c-5.57-27.38-8.88-59.47-28.59-82.83-41.89-49.67-119.8-24.67-140.43 24.62-11.62 28.54-31 86.33 11.76 100.07 52.29 16.64 169.94 20.46 157.26-41.86z" fill="#f7bf9a"/><path d="m211.84 145.29c10.09-24.08 33.89-42.38 60.47-49-40.29-10.83-87.21 12.41-102.54 49-11.62 28.54-31 86.33 11.76 100.07 24.1 7.64 62.08 12.64 94.79 9.64-19.77-1.58-38.62-5.14-52.72-9.63-42.76-13.76-23.38-71.54-11.76-100.08z" fill="#fed9be"/><path d="m158.42 152.53.36.81a2.71 2.71 0 0 1 -.15-.37c-.06-.13-.12-.28-.21-.44z" fill="#d49f77"/><path d="m158.81 153.39-.06-.09a.12.12 0 0 1 .06.09z" fill="#d49f77"/><path d="m158.63 153a2.71 2.71 0 0 0 .15.37l.06.09c.1.14.01-.05-.21-.46z" fill="#d49f77"/><path d="m336.94 152.53-.36.81a3.12 3.12 0 0 0 .15-.37c.06-.13.12-.28.21-.44z" fill="#d49f77"/><path d="m336.55 153.39.06-.09s-.05.07-.06.09z" fill="#d49f77"/><path d="m336.72 153a3.12 3.12 0 0 1 -.15.37l-.06.09c-.09.14 0-.05.21-.46z" fill="#d49f77"/><path d="m371.73 241.34c-2.4-8.93-21.63-22.49-21.63-22.49 26.78 6.94 17.17-8.6 17.17-8.6-4.81-9.59-27.12-16.87-27.12-16.87 29.52-3.31 11.67-14.88 11.67-14.88-17.17-9.26-41.88-7.6-41.88-7.6 14.06-5.62 15.45-14.9 15.45-14.9-1.37-6-12.7-6.61-12.7-6.61-1.6.08-3.12.23-4.56.44-.48.07-.91.17-1.38.26-.92.16-1.85.32-2.71.53-.52.13-1 .29-1.5.43-.73.21-1.47.41-2.15.66-.5.18-1 .38-1.43.57s-1.23.5-1.8.77-.88.45-1.31.68-1 .56-1.52.85-.8.51-1.18.77-.87.6-1.28.9-.71.56-1.05.84-.72.61-1.06.92-.63.6-.93.9c-.14.14-.3.27-.43.41a25.56 25.56 0 0 0 -6.28 10.89c9.12 9.62-.88 15.66-3.47 16.69s-12.65 13.19-32.72 13.19-30.18-12.15-32.73-13.16-12.59-7.07-3.47-16.69a25.56 25.56 0 0 0 -6.28-10.89c-.13-.14-.29-.28-.43-.41q-.44-.45-.93-.9c-.34-.31-.69-.62-1.06-.92s-.69-.57-1.05-.84-.84-.61-1.28-.9-.77-.52-1.18-.77-1-.57-1.52-.85-.85-.46-1.31-.68-1.19-.52-1.8-.77-.93-.39-1.43-.57c-.68-.24-1.42-.45-2.15-.66-.5-.14-1-.3-1.5-.43-.86-.21-1.79-.37-2.71-.53-.47-.08-.9-.19-1.38-.26-1.44-.21-3-.36-4.56-.44 0 0-11.33.66-12.7 6.61 0 0 1.37 9.26 15.45 14.88 0 0-24.72-1.65-41.88 7.6 0 0-17.85 11.57 11.67 14.88 0 0-22.32 7.28-27.12 16.87 0 0-9.61 15.54 17.17 8.6 0 0-19.23 13.56-21.63 22.49 0 0-4.12 11.24 18.54-1.32 0 0-8.58 10.58-11.67 20.5s2.9 11 13.12 5.19c0 0-8.66 11-9.34 18.95s1.45 24.34 20.64-2.71c0 0-5.19 21.23-1.07 29.82 0 0 5.49 4.63 8.93 1.32s6.18-10.58 5.84-14.55c0 0 4.12 19.84 17.16 25.13 0 0 9.61 2.65 11.33-14.88 0 0 5.49 12.23 15.45 15.87s15.1-2 14.76-14.88c0 0 4.49 19.63 21.24 19.63s23-19.63 23-19.63c-.34 12.9 4.81 18.52 14.76 14.88s15.45-15.87 15.45-15.87c1.72 17.53 11.33 14.88 11.33 14.88 13-5.29 17.16-25.13 17.16-25.13-.34 4 2.4 11.24 5.84 14.55s8.93-1.32 8.93-1.32c4.12-8.6-1.07-29.82-1.07-29.82 19.19 27.05 21.32 10.64 20.64 2.71s-9.34-18.95-9.34-18.95c10.22 5.85 16.21 4.73 13.12-5.19s-11.68-20.53-11.68-20.53c22.66 12.58 18.54 1.34 18.54 1.34z" fill="#3e2945"/><ellipse cx="184.36" cy="156.73" fill="#fff" rx="31.76" ry="31.75"/><circle cx="309.07" cy="155.97" fill="#fff" r="31.77"/><path d="m309.07 177.5a31.75 31.75 0 0 1 -31.31-26.65 31.77 31.77 0 1 0 62.64 0 31.76 31.76 0 0 1 -31.33 26.65z" fill="#f2f2f2"/><path d="m184.36 178.25a31.75 31.75 0 0 1 -31.36-26.65 31.77 31.77 0 1 0 62.64 0 31.76 31.76 0 0 1 -31.28 26.65z" fill="#f2f2f2"/><path d="m175.82 156.53a7.41 7.41 0 1 1 7.41 7.41 7.41 7.41 0 0 1 -7.41-7.41z" fill="#3e2945"/><path d="m301.79 158a7.42 7.42 0 1 1 7.41 7.42 7.42 7.42 0 0 1 -7.41-7.42z" fill="#3e2945"/><path d="m250.57 390.18 1.82-.64c1.2-1.15 2.58-2.33 4.1-3.55l6.51-8.65 9.55-2.38 2.92-1.78-4.31-5.24s-31.82-4.14-35.51-3.33.8 15.34 1 17 13.92 8.57 13.92 8.57z" fill="#90278e"/><g fill="#3e2945"><path d="m225.2 353.65a.88.88 0 0 1 -.44-1q-.06-.65.67 0c.26.33-.06 1.35-.2 1.65a2.83 2.83 0 0 1 -2.23 1.7c-.9.16-.52 1.54.38 1.38a4.28 4.28 0 0 0 3.47-3.63c.17-1.35-.73-3.79-2.53-2.93-1.41.68-1.32 3.07-.26 4s3.08-.07 2.48-1.55c-.34-.84-1.72-.47-1.38.38z"/><path d="m215.24 347.58a4.54 4.54 0 0 0 1.41-4c-.14-1-.84-2.84-2.18-2.54s-1.07 1.89-.58 2.73a4.91 4.91 0 0 0 3.81 2.33c.91.1.91-1.33 0-1.43a3.45 3.45 0 0 1 -2-.86 3 3 0 0 1 -.62-.76c-.26-.5-.3-.73-.12 0a3.21 3.21 0 0 1 -.78 3.51c-.67.63.34 1.64 1 1z"/><path d="m216.34 327.4c-.21 1.32-.37 2.81.7 3.81a2 2 0 0 0 2.64.23 1.83 1.83 0 0 0 .29-2.28c-.73-1.06-2-.46-2.73.17s.3 1.59 1 1c-.62.5-.56-2.39-.54-2.56.14-.9-1.24-1.29-1.38-.38z"/><path d="m247 332.06c-.21 1.32-.37 2.81.7 3.81a2 2 0 0 0 2.64.23 1.83 1.83 0 0 0 .29-2.28c-.73-1.06-2-.46-2.73.17s.3 1.59 1 1c-.62.5-.56-2.39-.54-2.56.14-.9-1.24-1.29-1.38-.38z"/><path d="m310.85 331.31c-.21 1.32-.37 2.81.7 3.81a2 2 0 0 0 2.64.23 1.83 1.83 0 0 0 .29-2.28c-.73-1.06-2-.46-2.73.17s.3 1.59 1 1c-.62.5-.56-2.39-.54-2.56.14-.9-1.24-1.29-1.38-.38z"/><path d="m213.81 350.65c0 1.4.23 2.86 1.68 3.44a2.1 2.1 0 0 0 2.76-1.1 1.76 1.76 0 1 0 -3.28-1.22.72.72 0 0 0 1.38.38v.69a.93.93 0 0 1 -.91-.71 2.9 2.9 0 0 1 -.21-1.49.72.72 0 0 0 -1.43 0z"/><path d="m226.85 332.57c0 1.4.23 2.86 1.68 3.44a2.1 2.1 0 0 0 2.76-1.1 1.76 1.76 0 1 0 -3.28-1.22.72.72 0 0 0 1.38.38v.69a.93.93 0 0 1 -.91-.71 2.9 2.9 0 0 1 -.21-1.49.72.72 0 0 0 -1.43 0z"/><path d="m224.89 325.35c0 1.4.23 2.86 1.68 3.44a2.1 2.1 0 0 0 2.76-1.1 1.76 1.76 0 1 0 -3.28-1.22.72.72 0 0 0 1.38.38v.69a.93.93 0 0 1 -.91-.71 2.9 2.9 0 0 1 -.21-1.49.72.72 0 0 0 -1.43 0z"/><path d="m219.18 339.27c.59-1.24 1-2.62 0-3.78a2.11 2.11 0 0 0 -3-.35c-2.09 1.66.75 4.51 2.33 2.61.58-.7-.42-1.72-1-1q.91-.59.83.49a3.62 3.62 0 0 1 -.45 1.32c-.39.83.84 1.55 1.23.72z"/><path d="m237.9 347c.59-1.24 1-2.62 0-3.78a2.11 2.11 0 0 0 -3-.35c-2.09 1.66.75 4.51 2.33 2.61.58-.7-.42-1.72-1-1q.91-.59.83.49a3.62 3.62 0 0 1 -.45 1.32c-.39.83.84 1.55 1.23.72z"/><path d="m210.17 344.42c.59-1.24 1-2.62 0-3.78a2.11 2.11 0 0 0 -3-.35c-2.09 1.66.75 4.51 2.33 2.61.58-.7-.42-1.72-1-1q.91-.59.83.49a3.62 3.62 0 0 1 -.45 1.32c-.39.83.84 1.55 1.23.72z"/><path d="m235.66 334c0 1.4.23 2.86 1.68 3.44a2.1 2.1 0 0 0 2.76-1.1 1.76 1.76 0 1 0 -3.28-1.22.72.72 0 0 0 1.38.38v.69a.93.93 0 0 1 -.91-.71 2.9 2.9 0 0 1 -.21-1.49.72.72 0 0 0 -1.43 0z"/><path d="m301.4 335.7c0 1.4.23 2.86 1.68 3.44a2.1 2.1 0 0 0 2.76-1.1 1.76 1.76 0 1 0 -3.28-1.22.72.72 0 0 0 1.38.38v.69a.93.93 0 0 1 -.91-.71 2.9 2.9 0 0 1 -.21-1.49.72.72 0 0 0 -1.43 0z"/><path d="m208.48 359.39c.22 1.43.61 3 2.05 3.66a2.09 2.09 0 0 0 2.84-.92 1.71 1.71 0 0 0 -.81-2.36c-1.32-.59-2.48.41-3.26 1.38-.57.71.43 1.73 1 1a5.39 5.39 0 0 1 .56-.66l.69-.45q-.06 1.28-.7.44c-.8-.48-.88-1.64-1-2.48s-1.51-.52-1.38.38z"/><path d="m206 336.16c.76-1.42 1.27-3.12.44-4.63-.48-.87-1.85-2.06-2.84-1.22s-.34 2.24.26 3a5.34 5.34 0 0 0 4.75 1.67c.91-.06.92-1.49 0-1.43s-3.54 0-3.85-1.46c-.19-.89.67.84.68 1a4.24 4.24 0 0 1 -.67 2.36c-.43.81.8 1.53 1.23.72z"/><path d="m196.71 340.66a2.48 2.48 0 0 1 -1 1q.16-1.14.5-.14c.56.82 0 1.6-.59 2.25s.39 1.7 1 1c1-1.14 1.8-2.78.82-4.2a2 2 0 0 0 -3.06-.53 1.76 1.76 0 0 0 .16 2.84c1.41.79 2.69-.44 3.38-1.55.48-.79-.75-1.51-1.23-.72z"/><path d="m225.54 341.2a2.48 2.48 0 0 1 -1 1q.16-1.14.5-.14c.56.82 0 1.6-.59 2.25s.39 1.7 1 1c1-1.14 1.8-2.78.82-4.2a2 2 0 0 0 -3.06-.53 1.76 1.76 0 0 0 .16 2.84c1.41.79 2.69-.44 3.38-1.55.48-.79-.75-1.51-1.23-.72z"/><path d="m203.58 353.69c1.37-1 2.57-2.53 2.13-4.35-.29-1.19-1.71-2.59-2.77-1.25-2.14 2.7 1.95 6.79 4.56 4.24.66-.64-.35-1.66-1-1-1.22 1.2-2.82-.4-2.57-1.78s.46.77.42 1a3.39 3.39 0 0 1 -1.47 2c-.73.54 0 1.79.72 1.23z"/><path d="m308.12 328-.05-.09-.11.87.11-.11-.7.18h.14l-.52-.69c0 .36-1.21.91-1.39 1a.87.87 0 0 1 -1.11-.21.81.81 0 0 1 -.42-.72l.57.18a2.9 2.9 0 0 1 .06 1.29 3.09 3.09 0 0 1 -.78 1.52c-.61.69.4 1.7 1 1 1.19-1.33 1.79-3.54.67-5.13a1.59 1.59 0 0 0 -2.87.52 2.46 2.46 0 0 0 2.06 3c1.27.18 3.76-.87 3.64-2.42a.73.73 0 0 0 -.52-.69.9.9 0 0 0 -.94.27.73.73 0 0 0 -.11.87l.05.09c.48.78 1.72.06 1.23-.72z"/><path d="m309.77 344.37q-.6 1-1.25-.11a2 2 0 0 1 .17-1.29c.6-1 1.27-.23 1.42.6.29 1.6-.95 3.2-2.64 2.57-.86-.32-1.24 1.06-.38 1.38a3.36 3.36 0 0 0 4.43-2.75c.27-1.55-.65-4.53-2.78-3.8-1.62.55-2.19 3.21-1.19 4.49a2.06 2.06 0 0 0 3.6-.71c.18-.9-1.2-1.28-1.38-.38z"/></g><g opacity=".35"><path d="m213.23 195.74c2.55 1 12.66 13.16 32.73 13.16s30.18-12.15 32.73-13.16 16.17-8 7.22-17.53c.11.93-.66 3.16-2 4.95a14.35 14.35 0 0 1 -5.19 3.77c-2.55 1-12.66 13.16-32.73 13.16s-30.18-12.15-32.73-13.16a16.14 16.14 0 0 1 -4.32-2.79c-1.58-1.56-2.29-3.5-3-4.08-8.94 9.56 4.71 14.65 7.29 15.68z" fill="#2a1d30"/></g><path d="m332.26 197.91h-47.37a7.52 7.52 0 0 1 -7.46-6.56l-8.58-66.18a7.52 7.52 0 0 1 7.46-8.49h64.52a7.52 7.52 0 0 1 7.46 8.49l-8.58 66.18a7.52 7.52 0 0 1 -7.45 6.56zm-40.76-15h34.15l6.63-51.14h-47.4z" fill="#808080"/><path d="m208.41 197.91h-47.41a7.52 7.52 0 0 1 -7.46-6.56l-8.54-66.18a7.52 7.52 0 0 1 7.46-8.49h64.54a7.52 7.52 0 0 1 7.46 8.49l-8.58 66.18a7.52 7.52 0 0 1 -7.47 6.56zm-40.76-15h34.15l6.63-51.14h-47.43z" fill="#808080"/><path d="m214.67 155.57-8.09-12.68c21.3-13.58 49.91-15.56 72.88-5l-6.27 13.67a62.73 62.73 0 0 0 -58.52 4.01z" fill="#808080"/><path d="m224.53 134.05c1.3 5.29 2.19 10.66 3.19 16a63.26 63.26 0 0 1 33.15-2c.82-5.35 1.2-10.75 1.64-16.18a80.35 80.35 0 0 0 -37.98 2.18z" fill="#e6e6e6"/><path d="m335.12 78c-4.14-3.32-9.36-4.08-14.94-3.35a6.43 6.43 0 0 0 -9.31-7.79 36.33 36.33 0 0 0 -9.8 7.84 6.75 6.75 0 0 0 -5.83-3.92c-11.32-1-19.22 15.09-21.06 24.12-.82 4.07 2.3 7.56 6.31 8a19.21 19.21 0 0 0 7-1c14.6-4 33.05-6.12 46.29-13.66 3.34-1.97 4.63-7.62 1.34-10.24z" fill="#543966"/><path d="m159.23 113.66c4.14-3.32 9.36-4.08 14.94-3.35a6.43 6.43 0 0 1 9.31-7.79 36.33 36.33 0 0 1 9.8 7.84 6.75 6.75 0 0 1 5.83-3.92c11.32-1 19.22 15.09 21.06 24.12.82 4.07-2.3 7.56-6.31 8a19.21 19.21 0 0 1 -7-1c-14.6-4-33.05-6.12-46.29-13.66-3.34-1.96-4.63-7.6-1.34-10.24z" fill="#543966"/><path d="m493.7 453.4a65 65 0 0 1 2-7c1-3.08-.87-6.35-4-7.74h-148.7a11.1 11.1 0 0 1 .41 2.31c.21 3.93-.57 7.7-.06 11.62a9.9 9.9 0 0 1 0 4c.56.13 1.08.25 1.5.38a2.64 2.64 0 0 1 1.45 1.11h146.8a29.49 29.49 0 0 1 .6-4.68z" fill="#999"/><path d="m493.7 449.8a65 65 0 0 1 2-7c1-3.08-.87-6.35-4-7.74h-148.7a11.1 11.1 0 0 1 .41 2.31c.21 3.93-.57 7.7-.06 11.62a9.9 9.9 0 0 1 0 4c.56.13 1.08.25 1.5.38a2.64 2.64 0 0 1 1.45 1.11h146.8a29.49 29.49 0 0 1 .6-4.68z" fill="#b2b2b2"/><path d="m460.92 435.13c.67-1 2.19-2 2.74-2.86a15 15 0 0 0 .43-2.38c.47-2.33 1.76-4 3-5.77v-3.82a12.45 12.45 0 0 0 -.24-2.37c-.61-.5-1.31-1-2-1.65-1.94-1.75-4-3.44-5.33-5.73h-114.52a45.35 45.35 0 0 1 -5.28 6.18c.43.45.83.93 1.28 1.37a2.09 2.09 0 0 1 .32 2.51c-2.81 4.1-.3 10 1.31 14.31a18.37 18.37 0 0 1 1.51 1.71 1.84 1.84 0 0 1 1.65-.91h114.9a2 2 0 0 1 .23-.59z" fill="#999"/><path d="m460.92 432.27c.67-1 2.19-2 2.74-2.86a15 15 0 0 0 .43-2.38c.47-2.33 1.76-4 3-5.77v-3.82a12.45 12.45 0 0 0 -.24-2.37c-.61-.5-1.31-1-2-1.65-1.94-1.75-4-3.44-5.33-5.73h-114.52a45.35 45.35 0 0 1 -5.28 6.18c.43.45.83.93 1.28 1.37a2.09 2.09 0 0 1 .32 2.51c-2.81 4.1-.3 10 1.31 14.31a18.37 18.37 0 0 1 1.51 1.71 1.84 1.84 0 0 1 1.65-.91h114.9a2 2 0 0 1 .23-.59z" fill="#b2b2b2"/><path d="m222.15 247.85a3.14 3.14 0 0 1 -.68-6.21c4.06-.91 8.16-2.21 12.12-3.48 3.62-1.15 7.36-2.34 11.16-3.27a86.7 86.7 0 0 1 52.75 3.86 3.15 3.15 0 0 1 -2.37 5.83 80.33 80.33 0 0 0 -48.89-3.58c-3.59.88-7.23 2-10.74 3.15-4.09 1.3-8.33 2.65-12.66 3.62a3.08 3.08 0 0 1 -.69.08z" fill="#543966"/></g></g></svg>