<svg height="512" viewBox="0 0 512 512" width="512" xmlns="http://www.w3.org/2000/svg"><g id="social_media" data-name="social media"><g id="love_struck" data-name="love struck"><path d="m82.83 141.25c2-20 35.68-36.36 35.68-36.36s-21 12-26.18 5.09 4-18.32 33.71-28.43c0 0-15.27-8.7-13-18.2s47.15 1.76 47.15 1.76-18.95-19.15-8.61-20.73 32.31 9.44 32.31 9.44-17.56-8-15.06-16.1 36.28 11.41 36.28 11.41-15.85-23.56-1.53-21.45c9.14 1.34 22.19 20.63 22.19 20.63s-13.33-32.11-.05-32.31 14.53 31.6 14.53 31.6 8.75-32.16 17.06-29.45-7.8 29.45-7.8 29.45 45.31-35.76 52.87-23-19.78 21.27-22.54 22.54 35.7-12.19 39.87-1.06-15.27 16.29-22 18.5c0 0 48.5-6.75 50.81 4s-25.87 10.61-31.38 10.3c0 0 39.64 12.65 38.11 21s-10.81 4-25.92.91c0 0 25.83 10.06 25.42 21.63s-28-.69-28-.69 24.77 7.44 28.3 18.67-30.64 21.6-30.64 21.6h-203.41s-40.15-.77-38.17-20.75z" fill="#3e2945"/><g opacity=".21"><ellipse cx="220.83" cy="486.48" fill="#3f3f44" rx="96.41" ry="9.52"/></g><path d="m257 448.14s-.9 34.2 9.27 36 33.51 6.46 37.4 0-3.42-21.16-25-24.91-21.67-11.09-21.67-11.09z" fill="#f7bf9a"/><path d="m273.25 484.4c3.3.48 12.06-25.23 18.92-55.26h-45.09c15.14 16.69 12.3 53.24 26.17 55.26z" fill="#f7bf9a"/><path d="m183.6 449s.9 34.2-9.27 36-33.51 6.46-37.4 0 3.42-21.16 25-24.91 21.67-11.09 21.67-11.09z" fill="#f7bf9a"/><path d="m167.6 485.22c-3.3.48-12.06-25.23-18.92-55.26h45.09c-15.15 16.68-12.3 53.23-26.17 55.26z" fill="#f7bf9a"/><g opacity=".63"><path d="m258.23 452.95 19.04-11.26 10.06 6.85 4.38-11.92-19.35-4.61-17.14 13.28z" fill="#f2a88f"/></g><g opacity=".63"><path d="m152.56 445.49 4.37-4.43 16.73 8.93 12.41-7.99 3.36-7.18h-37.93l-.86 3.52z" fill="#f2a88f"/></g><path d="m367.1 264.52a12.5 12.5 0 0 1 8.23-15.64l8.59-2.66a12.5 12.5 0 0 1 15.64 8.23 12.49 12.49 0 0 1 -8.23 15.63l-8.59 2.67a12.5 12.5 0 0 1 -15.64-8.23z" fill="#f7bf9a"/><path d="m283.5 284.82-23.49-5h-79.86l-23.38 4.95c-14.34 4.24-24.66 22.83-24.66 44.42l3.89 73.58c25 29.81 142.24 28.66 165.41-4.05l6.71-69.46c0-21.6-10.32-40.2-24.65-44.43zm0 0" fill="#f7bf9a"/><path d="m301.44 398.71 6.71-69.46c0-21.6-10.32-40.2-24.65-44.43l-23.49-5h-79.86l-23.38 4.95 93.34 24 51.33 89.93m-17.94-115.09" fill="#fed9be"/><g fill="#3e2945"><path d="m192.72 368.92a1 1 0 0 1 -.51-1.11q-.07-.75.78 0c.3.39-.07 1.56-.23 1.91a3.27 3.27 0 0 1 -2.54 1.88c-1 .18-.6 1.78.44 1.59a5 5 0 0 0 4-4.19c.2-1.56-.84-4.38-2.92-3.38-1.63.78-1.53 3.55-.3 4.63s3.56-.08 2.87-1.79c-.39-1-2-.55-1.59.44z"/><path d="m181.2 361.9a5.25 5.25 0 0 0 1.63-4.57c-.16-1.19-1-3.29-2.52-2.93s-1.24 2.18-.67 3.16a5.68 5.68 0 0 0 4.41 2.69c1.06.12 1-1.53 0-1.65a4 4 0 0 1 -2.26-1 3.45 3.45 0 0 1 -.72-.88c-.3-.58-.35-.85-.13 0a3.71 3.71 0 0 1 -.91 4.06c-.78.73.39 1.9 1.17 1.17z"/><path d="m182.47 338.57c-.24 1.52-.43 3.25.81 4.41a2.29 2.29 0 0 0 3.05.27 2.12 2.12 0 0 0 .33-2.64c-.84-1.23-2.26-.53-3.15.2s.35 1.84 1.17 1.17c-.71.58-.65-2.77-.62-3 .16-1-1.43-1.49-1.59-.44z"/><path d="m218 344c-.24 1.52-.43 3.25.81 4.41a2.29 2.29 0 0 0 3.05.27 2.12 2.12 0 0 0 .33-2.64c-.84-1.23-2.26-.53-3.15.2s.35 1.84 1.17 1.17c-.71.58-.65-2.77-.62-3 .16-1-1.43-1.49-1.59-.44z"/><path d="m291.76 343.08c-.24 1.52-.43 3.25.81 4.41a2.29 2.29 0 0 0 3.05.27 2.12 2.12 0 0 0 .33-2.64c-.84-1.23-2.26-.53-3.15.2s.35 1.84 1.17 1.17c-.71.58-.65-2.77-.62-3 .16-1-1.43-1.49-1.59-.44z"/><path d="m179.54 365.46c0 1.62.27 3.31 1.95 4a2.43 2.43 0 0 0 3.19-1.27c1.17-2.73-3-4.14-3.8-1.42a.83.83 0 0 0 1.59.44v.8a1.07 1.07 0 0 1 -1.06-.82 3.36 3.36 0 0 1 -.24-1.72.83.83 0 0 0 -1.65 0z"/><path d="m194.63 344.54c0 1.62.27 3.31 1.95 4a2.43 2.43 0 0 0 3.19-1.27c1.17-2.73-3-4.14-3.8-1.42a.83.83 0 0 0 1.59.44v.8a1.07 1.07 0 0 1 -1.06-.82 3.36 3.36 0 0 1 -.24-1.72.83.83 0 0 0 -1.65 0z"/><path d="m192.36 336.19c0 1.62.27 3.31 1.95 4a2.43 2.43 0 0 0 3.19-1.27c1.17-2.73-3-4.14-3.8-1.42a.83.83 0 0 0 1.59.44v.8a1.07 1.07 0 0 1 -1.06-.82 3.36 3.36 0 0 1 -.24-1.72.83.83 0 0 0 -1.65 0z"/><path d="m185.75 352.3c.68-1.43 1.16-3 0-4.37a2.44 2.44 0 0 0 -3.42-.4c-2.42 1.91.87 5.22 2.7 3 .68-.81-.49-2-1.17-1.17q1.05-.68 1 .57a4.19 4.19 0 0 1 -.52 1.52c-.45 1 1 1.8 1.43.83z"/><path d="m207.4 361.2c.68-1.43 1.16-3 0-4.37a2.44 2.44 0 0 0 -3.42-.4c-2.42 1.91.87 5.22 2.7 3 .68-.81-.49-2-1.17-1.17q1.05-.68 1 .57a4.19 4.19 0 0 1 -.52 1.52c-.45 1 1 1.8 1.43.83z"/><path d="m175.33 358.25c.68-1.43 1.16-3 0-4.37a2.44 2.44 0 0 0 -3.42-.4c-2.42 1.91.87 5.22 2.7 3 .68-.81-.49-2-1.17-1.17q1.05-.68 1 .57a4.19 4.19 0 0 1 -.52 1.52c-.45 1 1 1.8 1.43.83z"/><path d="m204.81 346.23c0 1.62.27 3.31 1.95 4a2.43 2.43 0 0 0 3.19-1.27c1.17-2.73-3-4.14-3.8-1.42a.83.83 0 0 0 1.59.44v.8a1.07 1.07 0 0 1 -1.06-.82 3.36 3.36 0 0 1 -.24-1.72.83.83 0 0 0 -1.65 0z"/><path d="m280.83 348.16c0 1.62.27 3.31 1.95 4a2.43 2.43 0 0 0 3.19-1.27c1.17-2.73-3-4.14-3.8-1.42a.83.83 0 0 0 1.59.44v.8a1.07 1.07 0 0 1 -1.06-.82 3.36 3.36 0 0 1 -.24-1.72.83.83 0 0 0 -1.65 0z"/><path d="m173.38 375.56c.25 1.66.7 3.48 2.37 4.23a2.42 2.42 0 0 0 3.29-1.07 2 2 0 0 0 -.93-2.73c-1.53-.69-2.87.47-3.77 1.59-.66.82.5 2 1.17 1.17a6.24 6.24 0 0 1 .65-.76l.8-.52q-.07 1.48-.81.51c-.92-.56-1-1.9-1.17-2.87s-1.75-.6-1.59.44z"/><path d="m170.54 348.7c.87-1.64 1.46-3.6.51-5.35-.55-1-2.13-2.38-3.28-1.41s-.4 2.6.3 3.48c1.33 1.69 3.46 2.06 5.49 1.93 1.06-.07 1.06-1.72 0-1.65s-4.09 0-4.46-1.69c-.22-1 .77 1 .79 1.13a4.9 4.9 0 0 1 -.78 2.73c-.5.94.93 1.77 1.43.83z"/><path d="m159.77 353.9a2.87 2.87 0 0 1 -1.15 1.21q.19-1.32.58-.17c.65.95 0 1.85-.69 2.6s.46 2 1.17 1.17c1.18-1.31 2.08-3.21 1-4.86a2.35 2.35 0 0 0 -3.53-.61 2 2 0 0 0 .19 3.29c1.63.92 3.12-.5 3.91-1.79.56-.91-.87-1.74-1.43-.83z"/><path d="m193.11 354.52a2.87 2.87 0 0 1 -1.15 1.21q.19-1.32.58-.17c.65.95 0 1.85-.69 2.6s.46 2 1.17 1.17c1.18-1.31 2.08-3.21 1-4.86a2.35 2.35 0 0 0 -3.53-.61 2 2 0 0 0 .19 3.29c1.63.92 3.12-.5 3.91-1.79.56-.91-.87-1.74-1.43-.83z"/><path d="m167.71 369c1.58-1.18 3-2.93 2.46-5-.34-1.38-2-3-3.21-1.45-2.47 3.12 2.25 7.86 5.27 4.9.76-.75-.41-1.91-1.17-1.17-1.41 1.38-3.26-.46-3-2.06s.53.89.49 1.11a3.92 3.92 0 0 1 -1.7 2.28c-.84.63 0 2.06.83 1.43z"/><path d="m288.6 339.26-.06-.1-.13 1 .12-.13-.8.21h.16l-.61-.8c0 .41-1.4 1.05-1.61 1.11a1 1 0 0 1 -1.28-.24.93.93 0 0 1 -.49-.84l.66.2a3.35 3.35 0 0 1 .07 1.49 3.57 3.57 0 0 1 -.9 1.76c-.7.79.46 2 1.17 1.17 1.37-1.54 2.07-4.1.77-5.93a1.84 1.84 0 0 0 -3.32.6 2.84 2.84 0 0 0 2.38 3.48c1.47.2 4.34-1 4.21-2.8a.85.85 0 0 0 -.61-.8 1 1 0 0 0 -1.09.31.84.84 0 0 0 -.13 1l.06.1c.56.9 2 .07 1.43-.83z"/><path d="m290.51 358.19q-.69 1.1-1.45-.12a2.28 2.28 0 0 1 .2-1.49c.69-1.17 1.47-.27 1.64.69.34 1.85-1.1 3.7-3.06 3-1-.37-1.43 1.23-.44 1.59a3.89 3.89 0 0 0 5.13-3.18c.32-1.79-.75-5.23-3.22-4.39-1.88.64-2.54 3.72-1.37 5.19s3.78 1.1 4.16-.82c.21-1-1.39-1.48-1.59-.44z"/></g><path d="m171 285.94c-4.53.71-18.38 2.09-18.38 2.09s-104.78-14.61-108.55 4.18 120 34 120.81 30.87 6.12-37.14 6.12-37.14z" fill="#f7bf9a" fill-rule="evenodd"/><path d="m259.58 291.74c4.55-.64 18.17-3.43 18.17-3.43s95.79-44.94 104.95-28.11-104.62 67.93-106.27 65.22-16.85-33.68-16.85-33.68z" fill="#f7bf9a" fill-rule="evenodd"/><ellipse cx="253.82" cy="313.57" fill="#f79820" rx="7.98" ry="6.05" transform="matrix(.79 -.613 .613 .79 -138.93 221.39)"/><g opacity=".16"><path d="m443.13 206.38q-15.31-5.36-31-9.44l7.28-6.65 35 10.14c6.12 1.78 9.1-7.69 2.95-9.47l-29.36-8.51 2.49-2.28 39.51 10.44c6.15 1.62 9.14-7.84 2.95-9.47l-40-10.55-5.39-5.9-6.89-40.75c-1.07-6.31-10.76-4.2-9.7 2.08l6.82 40.32-2.49 2.28-5.82-30c-1.22-6.28-10.92-4.18-9.7 2.08l6.93 35.74-7.28 6.65q-2.66-16-6.6-31.71c-1.56-6.19-11.26-4.12-9.7 2.08q4.69 18.64 7.52 37.64l-3.81 3.48-1.84-12.51c-1-6.33-10.65-4.21-9.7 2.08l2.8 18.48-154.38 141 12.64 13.84 154.38-141 18.15 4.46c6.17 1.51 9.17-7.95 2.95-9.47l-12.3-3 3.81-3.48q18.66 4.58 36.8 10.9c6.06 2.12 9.01-7.39 2.98-9.5z" fill="#2a1d30"/></g><path d="m35.6 293.34a12.5 12.5 0 0 1 12.93-12.05l9 .32a12.5 12.5 0 0 1 12.05 12.92 12.49 12.49 0 0 1 -12.92 12.05l-9-.31a12.5 12.5 0 0 1 -12.06-12.93z" fill="#f7bf9a"/><path d="m211.77 412.13c-6.43-2.56-17.11-5.79-13.88-8.37 3-2.36 12.64-10.76 19.71-16.93 4.48-3.91 11.51-4.82 16.28-2 3.7 2.21 8.11 4.88 12.1 7.38 9.15 5.73 2.62 11.39 2.62 11.39l-4.71 2.4-15.66 4.79s-9.8 3.99-16.46 1.34z" fill="#90278e"/><path d="m167.86 384.71c-11.46 2.41-22.42 6.62-33.82 8.59 1.13 15.33 3.41 37 7.8 51.83l13-9.09 20 9 18.46-13.1 3.91 2.89-22.9-51.39c-2.13.39-4.31.81-6.45 1.27z" fill="#f88f1c"/><path d="m296.62 374.58c-.64-.49-1.24-1-1.85-1.51a2.56 2.56 0 0 1 -1.08-.95 53.43 53.43 0 0 1 -16.34-24.49c-6.14-18.75-5.44-38.92-9.65-58.07a2.38 2.38 0 0 1 .71-2.32c-.28-2-.56-3.92-.85-5.87a61 61 0 0 0 -12.25-1.63 2.44 2.44 0 0 1 -.23 1.45c-1.49 2.94-2.92 5.91-4.36 8.87-2.55 15.66-12 47.49-12.69 47.65-.1 0-.17.11-.27.15l66.09 50.61c.2-2.15.37-4.18.51-6.11a16.24 16.24 0 0 1 -7.74-7.78z" fill="#f9ac67"/><path d="m296.19 444.06-1.4.52 1.22.55z" fill="#f88f1c"/><path d="m237.74 337.87c-3.68 1.54-31 27.19-32.39 28.17-10.15 7.45-19 15-31 17.37l22.9 51.39 14.55 10.73 19.78-10.09 23.74 14.56 20.57-14 18.89 8.54 1.4-.52c1-5.81 5.67-34.85 7.64-55.57z" fill="#f79c41"/><path d="m277.34 347.64a102.44 102.44 0 0 1 -3.17-12.7l-6.24 2.69c-4.38 1.89-6.23 5.63-4.12 8.31v.05c2.11 2.68 8.59 4.88 14.39 4.88h.37c-.38-1.07-.86-2.09-1.23-3.23z" fill="#90278e"/><path d="m289.1 367.7a147.51 147.51 0 0 0 -16.68 8.3c-5.63 3.33-3.38 7.88-2.07 10.79s30.85 7.14 30.85 7.14 1-1.07 2.35-2.67c.43-4.17.76-8 .95-11.45a67.23 67.23 0 0 1 -15.4-12.11z" fill="#90278e"/><path d="m301.44 408.92-4.17-.06h-7.6c-7.27 0-14.37.13-18.88.13-7.79 0-10.22 6.23-10.94 10.9-.44 2.8 3.45 7.11 7.88 9.55 5 2.73 22.48 3.83 30.13 4.19 1.04-6.72 2.37-15.63 3.58-24.71z" fill="#90278e"/><path d="m212.25 440.44s6-1 4.83-5.86c-.35-1.42-.56-2.86-.69-3.74-.35-2.3-1.95-3.95-5.57-5.21s-13.19-3.69-13.19-3.69-9.7-3.25-14.45-.54c-1.09.62-2.91 1.75-3.8 2.4-6 4.31 1 11.52 1 11.52l6.59 1.31 6.33-4.72 14 10.09z" fill="#90278e"/><path d="m159.57 418.73c3.69-.14 9.26-2.67 9.86-10.26s-9.87-9.68-9.87-9.68l-25.3-2.49c.55 6.83 1.31 14.65 2.37 22.45 6.56.04 20.16.09 22.94-.02z" fill="#90278e"/><path d="m220.88 356c5.68-.49 10.29-1 11.6-1.45 2.4-.83 1-5.5-.62-9.54a84.12 84.12 0 0 1 -10.98 10.99z" fill="#90278e"/><path d="m265.66 304.24a76.47 76.47 0 0 0 -16.19-4.9c-.43 3.76-.83 7.59-1.33 11.37 1.66-.42 3.38-.9 5.18-1.48 13.61-4.38 12.34-4.99 12.34-4.99z" fill="#90278e"/><ellipse cx="223.76" cy="244.99" fill="#8e3d7c" rx="67.03" ry="35.71"/><ellipse cx="223.76" cy="237.25" fill="#d49f77" rx="67.03" ry="35.71"/><path d="m324.07 195.29c-6.45-31.65-10.27-68.77-33.07-95.79-48.43-57.5-138.52-28.5-162.38 28.5-13.44 33-35.85 99.83 13.6 115.72 60.47 19.28 196.51 23.63 181.85-48.43z" fill="#f7bf9a"/><path d="m177.27 128c11.67-27.85 39.19-49 69.93-56.65-46.6-12.55-100.86 14.33-118.58 56.65-13.44 33-35.85 99.83 13.6 115.72 27.87 8.89 71.79 14.61 109.61 11.14-22.86-1.83-44.66-5.94-61-11.14-49.41-15.92-27-82.72-13.56-115.72z" fill="#fed9be"/><path d="m115.49 136.35.42.93a3.14 3.14 0 0 1 -.17-.43c-.07-.15-.15-.31-.25-.5z" fill="#d49f77"/><path d="m115.94 137.34v.05l-.07-.11a.14.14 0 0 1 .07.06z" fill="#d49f77"/><path d="m115.74 136.85a3.14 3.14 0 0 0 .17.43l.07.11c.11.2.02-.03-.24-.54z" fill="#d49f77"/><path d="m321.93 136.35-.42.93a3.61 3.61 0 0 0 .17-.43c.08-.15.15-.31.25-.5z" fill="#d49f77"/><path d="m321.48 137.34v.05l.07-.11s-.06.04-.07.06z" fill="#d49f77"/><path d="m321.68 136.85a3.61 3.61 0 0 1 -.17.43l-.07.11c-.11.2-.01-.03.24-.54z" fill="#d49f77"/><path d="m362.16 239c-2.78-10.33-25-26-25-26 31 8 19.85-9.94 19.85-9.94-5.56-11.09-31.36-19.5-31.36-19.5 34.14-3.82 13.5-17.21 13.5-17.21-19.85-10.71-48.43-8.79-48.43-8.79 16.28-6.5 17.87-17.21 17.87-17.21-1.59-6.88-14.69-7.65-14.69-7.65-1.85.09-3.61.27-5.27.51-.56.08-1.06.2-1.59.3-1.07.19-2.14.37-3.14.61-.61.15-1.16.33-1.73.5-.85.24-1.7.48-2.49.76-.58.2-1.11.44-1.65.66-.71.29-1.42.57-2.09.89s-1 .52-1.51.78-1.2.64-1.76 1-.92.59-1.37.89-1 .69-1.48 1-.83.65-1.22 1-.84.71-1.23 1.07-.73.69-1.07 1c-.16.16-.34.32-.5.48a29.56 29.56 0 0 0 -7.26 12.59c10.55 11.13-1 18.1-4 19.3s-14.64 15.22-37.85 15.22-34.9-14-37.85-15.22-14.56-8.17-4-19.3a29.56 29.56 0 0 0 -7.26-12.59c-.15-.16-.34-.32-.5-.48q-.51-.52-1.07-1c-.39-.36-.8-.72-1.23-1.07s-.8-.65-1.22-1-1-.7-1.48-1-.89-.6-1.37-.89-1.16-.66-1.76-1-1-.53-1.51-.78-1.38-.6-2.09-.89c-.55-.22-1.08-.45-1.65-.66-.79-.28-1.64-.52-2.49-.76-.58-.17-1.13-.35-1.73-.5-1-.24-2.07-.43-3.14-.61-.54-.09-1-.22-1.59-.3-1.67-.24-3.42-.41-5.27-.51 0 0-13.1.77-14.69 7.65 0 0 1.59 10.71 17.87 17.21 0 0-28.58-1.91-48.43 8.79 0 0-20.64 13.38 13.5 17.21 0 0-25.81 8.41-31.36 19.5 0 0-11.12 18 19.85 9.94 0 0-22.23 15.68-25 26 0 0-4.76 13 21.44-1.53 0 0-9.93 12.24-13.5 23.71s3.35 12.77 15.17 6c0 0-10 12.73-10.81 21.91s1.67 28.15 23.86-3.13c0 0-6 24.55-1.24 34.49 0 0 6.35 5.35 10.32 1.53s7.15-12.24 6.75-16.82c0 0 4.76 22.94 19.85 29.06 0 0 11.12 3.06 13.1-17.2 0 0 6.35 14.14 17.87 18.35s17.47-2.3 17.07-17.21c0 0 5.2 22.7 24.56 22.7s26.62-22.7 26.62-22.7c-.39 14.91 5.56 21.41 17.07 17.21s17.87-18.35 17.87-18.35c2 20.27 13.1 17.2 13.1 17.2 15.08-6.12 19.85-29.06 19.85-29.06-.4 4.59 2.78 13 6.75 16.82s10.32-1.53 10.32-1.53c4.76-9.9-1.24-34.45-1.24-34.45 22.19 31.28 24.66 12.31 23.86 3.13s-10.86-21.91-10.86-21.91c11.82 6.77 18.74 5.47 15.17-6s-13.5-23.71-13.5-23.71c26.25 14.49 21.49 1.49 21.49 1.49z" fill="#3e2945"/><ellipse cx="145.49" cy="141.21" fill="#fff" rx="36.72" ry="36.72"/><circle cx="289.7" cy="140.33" fill="#fff" r="36.74"/><path d="m289.7 165.23a36.71 36.71 0 0 1 -36.21-30.82 36.74 36.74 0 1 0 72.43 0 36.72 36.72 0 0 1 -36.22 30.82z" fill="#f2f2f2"/><path d="m145.49 166.09a36.71 36.71 0 0 1 -36.21-30.82 36.74 36.74 0 1 0 72.43 0 36.72 36.72 0 0 1 -36.22 30.82z" fill="#f2f2f2"/><path d="m291.49 277.81c-18.36 14.27-44.43 25-78.66 25.12-48.08.16-74.58-14.72-87-33-17.65-25.87-7.1-58.56 10.21-65a62.09 62.09 0 0 1 7.15-2.2c24-5.74 33.66 9.68 69.67 15.15 0 0 57 9.72 84-6.2a52 52 0 0 1 5.39-2.79c32.88-14.46 31.05 36.41-10.76 68.92z" fill="#84575d"/><path d="m255.75 238.6c3.81.67 8.37-.53 12.22-.9 3.66-.35 8.86.15 11.54-2.92 2.81-3.22.68-6.16 0-9.67-.45-2.48.34-4.81.72-7.17a135.64 135.64 0 0 1 -28.72 2.94l-.45 9.47c-.12 3.65.37 7.49 4.69 8.25z" fill="#f2f2f2"/><path d="m194.59 300.18a.35.35 0 0 0 0-.08 39.68 39.68 0 0 0 -.89-16 5.24 5.24 0 0 0 -4.93-3.75l-13.24-.68c-3.5-.18-8.35-1.3-11.79-.14-5.18 1.75-6.1 8.88-6.09 14.46 10 4 22.07 6.86 36.59 8.14a5.5 5.5 0 0 0 .17-.61c.1-.44.12-.88.18-1.34z" fill="#f2f2f2"/><path d="m172.7 233.17a89.82 89.82 0 0 1 24.18 4.36 5.15 5.15 0 0 0 6.47-4.93l-.58-16.6c-14.82-3.41-24.66-8.33-33.78-11.47l-1.39 23.53c-.17 2.83 2.48 5 5.1 5.11z" fill="#f2f2f2"/><path d="m308.15 261.58c-3.74 42.78-51.53 92.35-87.49 97.2-45 6.06-93.15-33-94.86-88.84 0 0 35.9-8.27 83.53-14.08 30.27-3.7 65.28-15.49 98.82 5.72z" fill="#ca6867"/><path d="m222.06 411.16 2.1-.74c1.39-1.33 3-2.7 4.74-4.1l7.52-10 11-2.76 3.37-2.05-5-6.06s-36.79-4.78-41.06-3.85.93 17.74 1.2 19.69 16.13 9.87 16.13 9.87z" fill="#90278e"/><path d="m319.82 66.68c-4.82-3.85-10.82-4.68-17.28-3.87a7.44 7.44 0 0 0 -10.76-9 42 42 0 0 0 -11.33 9.06 7.81 7.81 0 0 0 -6.74-4.54c-13.1-1.16-22.23 17.45-24.35 27.9-1 4.71 2.66 8.75 7.3 9.23 2.74.28 5.47-.46 8.13-1.2 16.89-4.68 38.22-7.08 53.52-15.8 3.83-2.2 5.32-8.73 1.51-11.78z" fill="#543966"/><path d="m116.43 68.25c4.79-3.84 10.82-4.72 17.28-3.87a7.44 7.44 0 0 1 10.76-9 42 42 0 0 1 11.33 9.06 7.81 7.81 0 0 1 6.74-4.54c13.1-1.16 22.23 17.45 24.35 27.9 1 4.71-2.66 8.75-7.3 9.23-2.74.28-5.47-.46-8.13-1.2-16.87-4.7-38.21-7.1-53.46-15.83-3.88-2.17-5.37-8.69-1.57-11.75z" fill="#543966"/><g opacity=".35"><path d="m178.88 186.32c2.95 1.17 14.64 15.22 37.85 15.22s34.9-14 37.85-15.22 18.7-9.22 8.35-20.27c.12 1.07-.76 3.65-2.36 5.72a16.6 16.6 0 0 1 -6 4.36c-2.95 1.17-14.64 15.22-37.85 15.22s-34.9-14-37.85-15.22a18.66 18.66 0 0 1 -5-3.22c-1.83-1.8-2.64-4-3.45-4.72-10.33 11.05 5.47 16.94 8.46 18.13z" fill="#2a1d30"/></g><path d="m308.68 126.3c-2.73-3.36-7.89-4-11.88-2.35s-6.81 5.09-8.85 8.83c-2.85-1.92-8.48-3.1-11.49-3.95-3.25-.91-7.26-.06-9 2.86s-.49 6.8 1.41 9.65c4.35 6.51 15.11 13.86 22.93 13.59a34.36 34.36 0 0 0 14.67-12 21.22 21.22 0 0 0 3.92-8.09 10.44 10.44 0 0 0 -1.71-8.54z" fill="#c02c32"/><path d="m312.18 122.79c-10.08-9.48-22.36-2.72-28.52 7.49l6.79-1.78c-7.32-4-20.29-8.5-26.45-.31-7 9.32 3.16 20.26 10.52 25.41 4.34 3 9.9 6 15.32 6.22 5.64.24 10.66-3.53 14.71-7.19 8-7.25 14.7-18.46 8.42-28.82-3.31-5.45-11.89-.47-8.57 5 3.46 5.7-1.88 12-5.88 15.84-5 4.76-8.6 6.2-14.79 3-2.77-1.44-9.82-5.41-10.52-8.79-1.81-8.78 9.24-3.44 12.24-1.78a5.05 5.05 0 0 0 6.79-1.78c2.52-4.17 7.71-10.4 12.94-5.48 4.64 4.36 11.67-2.64 7-7.03z" fill="#c02c32"/><path d="m124.7 126.3c2.73-3.36 7.89-4 11.88-2.35s6.81 5.09 8.85 8.83c2.85-1.92 8.48-3.1 11.49-3.95 3.25-.91 7.26-.06 9 2.86s.49 6.8-1.41 9.65c-4.35 6.51-15.11 13.86-22.93 13.59a34.36 34.36 0 0 1 -14.67-12 21.22 21.22 0 0 1 -3.92-8.09 10.44 10.44 0 0 1 1.71-8.54z" fill="#c02c32"/><path d="m128.2 129.81c5.23-4.92 10.42 1.31 12.94 5.48a5.06 5.06 0 0 0 6.79 1.78 29.55 29.55 0 0 1 6.62-2.48c3.07-.87 3.17-1.77 4.65 1.64 2.11 4.87-5.54 9.3-9.55 11.4-5.6 2.93-9.09 2.14-13.81-2-4.36-3.85-10.55-10.73-6.86-16.8 3.32-5.47-5.25-10.46-8.57-5-6.29 10.36.4 21.57 8.42 28.82 4 3.66 9.07 7.43 14.71 7.19 5.42-.23 11-3.18 15.32-6.22 7.36-5.15 17.53-16.09 10.52-25.41-6.16-8.19-19.13-3.73-26.45.31l6.79 1.78c-6.16-10.21-18.44-17-28.52-7.49-4.67 4.36 2.35 11.37 7 7z" fill="#c02c32"/></g></g></svg>