<svg height="512" viewBox="0 0 512 512" width="512" xmlns="http://www.w3.org/2000/svg"><g id="social_media" data-name="social media"><g id="astronaut"><path d="m97.69 382.13-14.91-33a4.86 4.86 0 0 0 -3.57-2.78l-35.61-6.35a4.86 4.86 0 0 1 -2.41-8.38l26.75-24.36a4.86 4.86 0 0 0 1.54-4.26l-4.91-35.85a4.86 4.86 0 0 1 7.22-4.88l31.44 17.91a4.86 4.86 0 0 0 4.52.15l32.58-15.74a4.86 4.86 0 0 1 6.88 5.36l-7.32 35.43a4.86 4.86 0 0 0 1.25 4.35l25 26.12a4.86 4.86 0 0 1 -3 8.2l-36 4a4.86 4.86 0 0 0 -3.75 2.53l-17.1 31.89a4.86 4.86 0 0 1 -8.6-.34z" fill="#e2d9b3"/><path d="m411.33 365-2.65-19.52a2.65 2.65 0 0 0 -1.43-2l-17.58-8.89a2.65 2.65 0 0 1 0-4.75l17.75-8.55a2.65 2.65 0 0 0 1.47-2l3-19.47a2.65 2.65 0 0 1 4.53-1.42l13.62 14.24a2.65 2.65 0 0 0 2.34.78l19.45-3.14a2.65 2.65 0 0 1 2.75 3.87l-9.34 17.35a2.65 2.65 0 0 0 0 2.46l9 17.53a2.65 2.65 0 0 1 -2.83 3.82l-19.39-3.52a2.65 2.65 0 0 0 -2.35.74l-13.89 14a2.65 2.65 0 0 1 -4.45-1.53z" fill="#e2d9b3"/><g id="HUH"><path d="m409.31 169.42c6.47 4.52 15.46 9.32 17.69 3 3.57-10.14-16.53-26.22-16.53-26.22 8.74 4.83 14.79 9.41 18.91 9.37-.31-4.51-.7-9-1.2-13.54-8.27-8.67-22.44-18.62-22.44-18.62 2.83 1.07 12.63 4.22 20.41 4.58a137.92 137.92 0 0 0 -3.62-15.16c-12.88-4.58-30.06-7.44-30.06-7.44 5.95-.08 21.69.54 24.25-7.44a75.67 75.67 0 0 0 -5-8.68c-10.49-4.69-32.36-4-30.21-4.28 2-.25 15.79-.3 22.64-5a64.47 64.47 0 0 0 -15.46-11.67c-.46-.25-.88-.51-1.29-.78-15.05 2.64-32.9 9.45-32.9 9.45s21.66-19.28 15.04-23.99-23.29 21.37-23.29 21.37 7.7-28.53-4.12-32-8.88 28.63-8.88 28.63-6.22-20.71-14-24.44c-12.07-5.86-4.55 19.44-4.55 19.44s-24.53-26.67-29-20.18c-3.8 5.53 5.29 15 8.08 17.69-3.39-3.16-16.87-15.29-25.21-16.56-9.6-1.46 1.88 20.76 1.88 20.76s-36.62-22.41-41.3-14.63 6.45 19.73 6.45 19.73c-29.15.72-40.45 8.25-37.76 15.86 2 5.72 14.93 4.39 21.2 3.38-8.87 1.82-32.4 7.86-38.29 21.71-7.29 17.16 28.07 29 28.07 29l180.29 56.39s33.2.23 33.19-10.7c0-6.6-7.25-14.11-12.99-19.03z" fill="#3e2945"/><path d="m273.53 441.94s-28.32 14.41-25.32 23.53 9.57 30.21 16.56 30.52 15.76-12.16 9.26-31.44-.5-22.61-.5-22.61z" fill="#f7bf9a"/><path d="m253.58 474.74c2.79 1.34 17.69-19 32.09-43.74l-40-12.5c8.83 18.99-3.83 50.6 7.91 56.24z" fill="#f7bf9a"/><path d="m160.66 406.63s15.06 28 7.4 33.77-25.06 19.37-31.01 15.6-6-19 10.3-31.11 13.31-18.26 13.31-18.26z" fill="#f7bf9a"/><path d="m158.36 445c-3.06-.49-3.7-25.71-1.45-54.22l40 12.5c-18.08 10.55-25.69 43.72-38.55 41.72z" fill="#f7bf9a"/><g opacity=".63"><path d="m249.81 438.63 20.01-4.7 7.01 8.86 7.19-9.35-15.88-9.45-18.87 7.02z" fill="#f2a88f"/></g><g opacity=".63"><path d="m158.23 402.72 5.1-2.71 12.34 12.55 13.22-3.64 4.97-5.43-33.61-10.51-1.75 2.88z" fill="#f2a88f"/></g><path d="m318.82 296.62-19.43-10.94-70.79-22.09-22.1-2.1c-13.88-.22-28.18 13.4-34.17 32.54l-16.91 66.25c13.94 33.36 118.13 64.84 147.73 42.26l25.2-59.7c6-19.14 2-38.49-9.53-46.22zm0 0" fill="#f7bf9a"/><path d="m303.15 402.54 25.2-59.7c6-19.14 2-38.49-9.53-46.22l-19.43-10.94-70.79-22.09-22.1-2.1 76.09 47.11 20.56 93.94m16-107" fill="#fed9be"/><path d="m218.81 266.43c-4.22-.63-16.87-3.25-16.87-3.25s-88.83-42-97.38-26.39 97 63.37 98.52 60.85 15.73-31.21 15.73-31.21z" fill="#f7bf9a" fill-rule="evenodd"/><path d="m317.34 294.39c2.49 3.46 10.65 13.47 10.65 13.47s78.23 59.45 68.33 74.24-101-56.82-99.43-59.34 20.45-28.37 20.45-28.37z" fill="#f7bf9a" fill-rule="evenodd"/><ellipse cx="284.55" cy="313.87" fill="#f79820" rx="7.41" ry="5.62" transform="matrix(.937 -.349 .349 .937 -91.68 119.09)"/><path d="m220 389.57c-5-4.05-13.56-9.88-10-11.27 3.27-1.27 14.19-6 22.16-9.54 5.06-2.22 11.54-1.08 15 2.77 2.66 3 5.83 6.57 8.68 9.9 6.52 7.61-.83 10.83-.83 10.83l-4.82.75-15.2-.1s-9.87.86-14.99-3.34z" fill="#90278e"/><path d="m188.63 353.09c-10.82-1-21.7-.35-32.36-1.77-3.25 13.91-7.23 33.7-7.46 48.1l14-4.46 15.28 13.51 20-6.49 2.67 3.64-6.05-51.89c-2.01-.21-4.04-.44-6.08-.64z" fill="#f88f1c"/><path d="m305.57 379.81c-.43-.61-.82-1.23-1.23-1.85a2.37 2.37 0 0 1 -.7-1.14 49.62 49.62 0 0 1 -7.7-26.23c-.24-18.32 6-36 7.54-54.14a2.21 2.21 0 0 1 1.27-1.86c.29-1.81.59-3.63.87-5.44a56.6 56.6 0 0 0 -10.4-4.84 2.27 2.27 0 0 1 -.61 1.22c-2.13 2.19-4.22 4.43-6.32 6.65-6.6 13.17-23.81 38.76-24.46 38.72-.1 0-.18 0-.28.06l44.55 63.18c.78-1.85 1.49-3.6 2.14-5.28a15.08 15.08 0 0 1 -4.67-9.05z" fill="#f9ac67"/><path d="m285.92 441.27-1.38.07.93.83z" fill="#f88f1c"/><path d="m263.55 331c-3.69.35-35.05 15.49-36.52 16-11.06 3.79-21 8.07-32.29 6.8l6.05 51.89 9.92 13.55 20.29-3.51 17 19.47 22.1-6.66 14.38 12.81 1.38-.07c2.46-4.89 14.69-29.31 22.18-47.14z" fill="#f79c41"/><path d="m295.95 350.59a95.13 95.13 0 0 1 .71-12.14l-6.27.65c-4.41.46-7.08 3.26-6 6.22v.06c1.13 3 6.26 6.7 11.4 8.31l.33.1c-.02-1.05-.12-2.08-.17-3.2z" fill="#90278e"/><path d="m300.81 371.63a137 137 0 0 0 -17.09 2.76c-5.91 1.39-5.18 6-4.82 9s25.36 14.88 25.36 14.88 1.15-.68 2.82-1.72c1.53-3.57 2.9-6.92 4-9.88a62.44 62.44 0 0 1 -10.27-15.04z" fill="#90278e"/><path d="m300.32 411.59-3.68-1.21-6.73-2.13c-6.45-2-12.77-3.87-16.77-5.12-6.9-2.16-10.78 2.69-12.72 6.63-1.16 2.36 1.09 7.26 4.34 10.65 3.64 3.79 18.86 9.63 25.55 12.06 2.77-5.64 6.41-13.15 10.01-20.88z" fill="#90278e"/><path d="m212.53 414.8s5.61.83 5.91-3.86c.09-1.36.3-2.69.42-3.51.33-2.13-.63-4-3.5-6.16s-10.67-6.93-10.67-6.93-7.7-5.57-12.66-4.48c-1.14.25-3.07.75-4 1.07-6.48 2.17-2.28 10.49-2.28 10.49l5.48 3 6.92-2.42 9.59 12.82z" fill="#90278e"/><path d="m171.85 381c3.31.9 8.94.2 11.58-6.36s-6.07-11.31-6.07-11.31l-21.73-9.22c-1.41 6.21-2.9 13.35-4.13 20.55 5.82 1.8 17.86 5.62 20.35 6.34z" fill="#90278e"/><path d="m243.59 342.34c5.17 1.14 9.4 2 10.68 1.93 2.36-.07 2.44-4.59 2.09-8.63a78.12 78.12 0 0 1 -12.77 6.7z" fill="#90278e"/><path d="m297.62 308.89a71 71 0 0 0 -13-8.83c-1.42 3.22-2.84 6.49-4.33 9.7 1.59.09 3.25.14 5 .12 13.29-.1 12.33-.99 12.33-.99z" fill="#90278e"/><ellipse cx="276.91" cy="244.76" fill="#8e3d7c" rx="33.17" ry="62.25" transform="matrix(.299 -.954 .954 .299 -39.35 435.97)"/><ellipse cx="279.05" cy="237.89" fill="#d49f77" rx="33.17" ry="62.25" transform="matrix(.299 -.954 .954 .299 -31.29 433.21)"/><path d="m379.6 228.51c3.06-29.85 10-63.8-2.75-94.07-27-64.37-114.85-63.63-151.85-19.77-21 25.52-59.43 78.54-20 106.33 48.25 33.85 167.62 75.45 174.6 7.51z" fill="#f7bf9a"/><path d="m268.14 128.15c18.07-21.45 48.33-32.58 77.68-30.83-37.82-24.01-93.36-15.23-120.82 17.34-21 25.53-59.42 78.54-20 106.34 22.24 15.6 59.58 32.85 94.07 40.26-19.75-8-37.94-17.65-50.95-26.78-39.42-27.79-1.04-80.8 20.02-106.33z" fill="#fed9be"/><path d="m211.07 118.45c0 .31.07.63.11.94a2.91 2.91 0 0 1 0-.43c-.06-.15-.07-.32-.11-.51z" fill="#d49f77"/><path d="m211.19 119.45s0 0 0 .06 0-.08 0-.11a.13.13 0 0 1 0 .05z" fill="#d49f77"/><path d="m211.15 119a2.91 2.91 0 0 0 0 .43s0 .08 0 .11c.11.17.08-.06 0-.54z" fill="#d49f77"/><path d="m394 175.68-.63.71a3.35 3.35 0 0 0 .27-.33z" fill="#d49f77"/><path d="m393.37 176.43.09-.08s-.08.07-.09.08z" fill="#d49f77"/><path d="m393.68 176.06a3.35 3.35 0 0 1 -.27.33l-.09.08c-.15.14 0-.03.36-.41z" fill="#d49f77"/><path d="m161.58 249.45.81-.6-.61 1c.34.8.74 1.58 1.1 2.37 5.12-2.36 11.32-1.86 16.09 3.83 18.45 22 45.05 34.3 72.56 42.32 9 2.29 18.11 4.59 27.19 6.73l3.76.79c30.82 6.31 63.58 6.46 90.91-8.22-.28-.81-.45-1.28-.45-1.28.33.36.66.68 1 1a91.22 91.22 0 0 0 13.55-9.1 92.93 92.93 0 0 0 -4.81-17.79c6.79 7.13 11.07 10.08 13.81 11a13 13 0 0 1 4.17-1.06 5.72 5.72 0 0 0 .59-2.62c.4-9.92-15-30-15-30 25.22 15.7 20.35-3.31 20.35-3.31-1.85-11.37-22.39-26-22.39-26 31.32 6.08 16.73-11.51 16.73-11.51-14.63-15-40.49-21.22-40.49-21.22 16.23-1.25 20.61-10.3 20.61-10.3.5-6.54-10.9-10.85-10.9-10.85-1.67-.43-3.27-.76-4.82-1-.52-.08-1-.11-1.49-.18-1-.13-2-.26-2.95-.33-.58 0-1.12 0-1.67 0-.82 0-1.64 0-2.41 0-.57 0-1.1.08-1.65.12-.71.06-1.42.11-2.09.21s-1 .18-1.56.28-1.25.24-1.83.38-1 .27-1.46.41-1.09.33-1.6.52-.91.34-1.35.53-.94.4-1.38.61-.84.41-1.24.62c-.18.1-.39.19-.57.29a27.45 27.45 0 0 0 -9.92 9.15c6.26 12.78-5.92 15.77-8.91 16s-17.2 9.43-37.77 3-27-22.13-29.33-24-10.61-11.24 1.84-18.24a27.45 27.45 0 0 0 -3-13.12c-.09-.18-.21-.38-.31-.56-.21-.4-.43-.81-.66-1.22s-.51-.86-.79-1.29-.52-.8-.81-1.2-.67-.89-1-1.34-.62-.78-1-1.17-.84-.91-1.29-1.36-.73-.75-1.12-1.12-1.05-.91-1.6-1.36-.83-.7-1.28-1c-.62-.47-1.31-.91-2-1.36-.47-.31-.9-.62-1.4-.92-.81-.49-1.71-1-2.61-1.41-.45-.23-.86-.48-1.33-.7-1.41-.67-2.92-1.32-4.53-1.91 0 0-11.82-3-15.14 2.71 0 0-1.56 9.93 11.06 20.2 0 0-24.8-9.62-45.37-5.63 0 0-22 6.14 7.19 19 0 0-25.2.3-33.2 8.59 0 0-14.83 12.85 14.84 14.31 0 0-16.38 5.28-25.09 11.84 2.42 1.84 4.15 4.78 4.59 9l.15 1.46a81 81 0 0 0 10.4-1.55 96 96 0 0 0 -9.76 7.67c.68 6.32 1.48 12.8 2.67 19.2l.34-.07-.31.22a103.82 103.82 0 0 0 5.94 20.54z" fill="#3e2945"/><ellipse cx="236.31" cy="131.07" fill="#fff" rx="34.1" ry="34.1" transform="matrix(.299 -.954 .954 .299 40.67 317.48)"/><circle cx="364.37" cy="170.27" fill="#fff" r="34.11" transform="matrix(.3 -.95 .95 .3 93.1 467.2)"/><path d="m357.47 192.34a34.1 34.1 0 0 1 -23.55-37.34 34.12 34.12 0 1 0 64.2 20.08 34.1 34.1 0 0 1 -40.65 17.26z" fill="#f2f2f2"/><path d="m229.41 153.12a34.1 34.1 0 0 1 -23.55-37.35 34.12 34.12 0 1 0 64.2 20.08 34.1 34.1 0 0 1 -40.65 17.27z" fill="#f2f2f2"/><path d="m373.87 148.53 1.92 12.28a2.86 2.86 0 0 0 1.59 2.14l11.2 5.38a2.86 2.86 0 0 1 .06 5.13l-11.08 5.62a2.86 2.86 0 0 0 -1.54 2.17l-1.65 12.32a2.86 2.86 0 0 1 -4.86 1.64l-8.77-8.8a2.86 2.86 0 0 0 -2.54-.79l-12.2 2.21a2.86 2.86 0 0 1 -3.06-4.12l5.66-11.06a2.86 2.86 0 0 0 0-2.66l-5.9-10.94a2.86 2.86 0 0 1 3-4.18l12.27 2a2.86 2.86 0 0 0 2.52-.85l8.58-9a2.86 2.86 0 0 1 4.8 1.51z" fill="#3e2945"/><path d="m246 108.54 2 12.28a2.86 2.86 0 0 0 1.59 2.14l11.2 5.38a2.86 2.86 0 0 1 .06 5.13l-11.08 5.62a2.86 2.86 0 0 0 -1.54 2.17l-1.65 12.32a2.86 2.86 0 0 1 -4.86 1.64l-8.77-8.8a2.86 2.86 0 0 0 -2.54-.79l-12.22 2.24a2.86 2.86 0 0 1 -3.06-4.12l5.66-11.06a2.86 2.86 0 0 0 0-2.66l-5.9-10.94a2.86 2.86 0 0 1 3-4.18l12.27 2a2.86 2.86 0 0 0 2.52-.85l8.58-9a2.86 2.86 0 0 1 4.74 1.48z" fill="#3e2945"/><path d="m229.34 391.57 2.07-.08c1.6-.79 3.39-1.57 5.34-2.32l9.44-6.78 10.56.62 3.56-.88-2.74-6.75s-31.29-14.44-35.33-14.8-4.1 16-4.39 17.78 11.49 13.21 11.49 13.21z" fill="#90278e"/><path d="m411.49 113.34c-3.18-4.74-8.28-7.18-14.24-8.22a6.91 6.91 0 0 0 -7-11 39 39 0 0 0 -12.6 4.88 7.25 7.25 0 0 0 -4.72-5.89c-11.28-4.66-24.54 9.3-29.32 18-2.15 3.91-.07 8.49 3.91 10.2a20.63 20.63 0 0 0 7.54 1.19c16.26.53 35.84 4.32 51.82.83 4.01-.85 7.12-6.23 4.61-9.99z" fill="#543966"/><path d="m230.78 58.35c5.31-2.08 10.9-1.18 16.39 1.36a6.91 6.91 0 0 1 12-5 39 39 0 0 1 7.53 11.17 7.25 7.25 0 0 1 7.3-2.16c11.93 2.6 14.87 21.63 13.85 31.48-.46 4.44-4.78 7-9 6.15a20.63 20.63 0 0 1 -6.93-3.35c-13.66-8.79-31.92-16.83-43.06-28.8-2.79-3-2.3-9.2 1.92-10.85z" fill="#543966"/><g fill="#3e2945"><path d="m215 346a1 1 0 0 1 -.08-1.25q.24-.83.62.35a2.61 2.61 0 0 1 -.76 1.63 3.09 3.09 0 0 1 -2.77.93c-1-.13-1 1.41 0 1.54a4.58 4.58 0 0 0 4.7-2.63c.6-1.33.42-4.12-1.69-3.78-1.65.27-2.32 2.76-1.5 4.05s3.16.84 3-.85c-.08-1-1.61-1-1.54 0z"/><path d="m206.81 336.56a4.84 4.84 0 0 0 2.71-3.79c.12-1 0-2.88-1.34-3.08s-1.75 1.2-1.64 2.21a5.09 5.09 0 0 0 3.07 3.92c.9.4 1.68-.93.77-1.33a4.15 4.15 0 0 1 -1.54-1.08 4 4 0 0 1 -.64-1.11c-.13-.31 0-1-.21-.42s0 1.26-.41 1.94a3.36 3.36 0 0 1 -1.55 1.4c-.89.43-.11 1.76.77 1.33z"/><path d="m214.35 316.28c-.61 1.22-1.22 2.64-.56 4a2.19 2.19 0 0 0 2.65 1.23 1.94 1.94 0 0 0 1.1-2.17c-.32-1.29-1.7-1.26-2.71-.85s-.51 1.85.41 1.48l.46-.19q-.86-.21-.6-.94a3.67 3.67 0 0 1 .58-1.75c.44-.88-.89-1.66-1.33-.77z"/><path d="m244.33 330.89c-.61 1.22-1.22 2.64-.56 4a2.19 2.19 0 0 0 2.65 1.23 1.94 1.94 0 0 0 1.1-2.17c-.32-1.29-1.7-1.26-2.71-.85s-.51 1.85.41 1.48l.46-.19q-.86-.21-.6-.94a3.67 3.67 0 0 1 .58-1.75c.44-.88-.89-1.66-1.33-.77z"/><path d="m310 350.58c-.61 1.22-1.22 2.64-.56 4a2.19 2.19 0 0 0 2.65 1.23 1.94 1.94 0 0 0 1.1-2.17c-.32-1.29-1.7-1.26-2.71-.85s-.51 1.85.41 1.48l.46-.19q-.86-.21-.6-.94a3.67 3.67 0 0 1 .58-1.75c.44-.88-.89-1.66-1.33-.77z"/><path d="m204.32 339.3c-.47 1.39-.66 2.95.58 4a2.26 2.26 0 0 0 3.31-.3c1.66-2.12-1.66-4.35-3.07-2.18-.54.83.79 1.6 1.33.77q.56-.41-.08.25-.46 1-.88-.32a3.28 3.28 0 0 1 .3-1.82c.32-.94-1.17-1.34-1.48-.41z"/><path d="m223.48 324.94c-.47 1.39-.66 2.95.58 4a2.26 2.26 0 0 0 3.31-.3c1.66-2.12-1.66-4.35-3.07-2.18-.54.83.79 1.6 1.33.77q.56-.41-.08.25-.46 1-.88-.32a3.28 3.28 0 0 1 .3-1.82c.32-.94-1.17-1.34-1.48-.41z"/><path d="m223.79 316.91c-.47 1.39-.66 2.95.58 4a2.26 2.26 0 0 0 3.31-.3c1.66-2.12-1.66-4.35-3.07-2.18-.54.83.79 1.6 1.33.77q.56-.41-.08.25-.46 1-.88-.32a3.28 3.28 0 0 1 .3-1.82c.32-.94-1.17-1.34-1.48-.41z"/><path d="m213.5 329.3c1-1.08 1.85-2.38 1.19-3.88a2.27 2.27 0 0 0 -2.93-1.26c-2.62 1-.69 4.81 1.61 3.4.84-.52.07-1.85-.77-1.33q-.72.25-.2-.33.32-1 1 .38c.21.7-.54 1.49-1 1.93-.67.72.41 1.81 1.09 1.09z"/><path d="m230.22 343.2c1-1.08 1.85-2.38 1.19-3.88a2.27 2.27 0 0 0 -2.93-1.26c-2.62 1-.69 4.81 1.61 3.4.84-.52.07-1.85-.77-1.33q-.72.25-.2-.33.32-1 1 .38c.21.7-.54 1.49-1 1.93-.67.72.41 1.81 1.09 1.09z"/><path d="m202.62 331.69c1-1.08 1.85-2.38 1.19-3.88a2.27 2.27 0 0 0 -2.93-1.26c-2.62 1-.69 4.81 1.61 3.4.84-.52.07-1.85-.77-1.33q-.72.25-.2-.33.32-1 1 .38c.21.7-.54 1.49-1 1.93-.67.72.41 1.81 1.09 1.09z"/><path d="m232 329.25c-.47 1.39-.66 2.95.58 4a2.26 2.26 0 0 0 3.31-.3c1.66-2.12-1.66-4.35-3.07-2.18-.54.83.79 1.6 1.33.77q.56-.41-.08.25-.46 1-.88-.32a3.28 3.28 0 0 1 .3-1.82c.32-.94-1.17-1.34-1.48-.41z"/><path d="m298.89 352c-.47 1.39-.66 2.95.58 4a2.26 2.26 0 0 0 3.31-.3c1.66-2.12-1.66-4.35-3.07-2.18-.54.83.79 1.6 1.33.77q.56-.41-.08.25-.46 1-.88-.32a3.28 3.28 0 0 1 .3-1.82c.32-.94-1.17-1.34-1.48-.41z"/><path d="m196.09 346.34c-.24 1.54-.42 3.27.78 4.48a2.3 2.3 0 0 0 3.23.18 1.85 1.85 0 0 0 -.12-2.9c-1.19-.88-2.59-.22-3.66.5-.82.55 0 1.88.77 1.33a8.48 8.48 0 0 1 .79-.49q2-.53.07.3c-.86-.33-.48-2.37-.38-3 .15-1-1.33-1.38-1.48-.41z"/><path d="m201 321.89a5.22 5.22 0 0 0 1.93-4.4c-.16-1.12-1.18-2.9-2.55-2.3s-1 2.56-.49 3.59a6 6 0 0 0 4.16 2.79c1 .23 1.37-1.25.41-1.48a6.53 6.53 0 0 1 -2-.72c-.54-.34-1.82-1.46-1.53-2.28q.65-.19.47.85a2.66 2.66 0 0 1 -.29 1.31 5.57 5.57 0 0 1 -1.24 1.57c-.71.69.38 1.78 1.09 1.09z"/><path d="m190 323.57a2.06 2.06 0 0 1 -1.51.7q-.4-1.18.75-.34c.82 1-.7 2.11-1.37 2.5a.77.77 0 0 0 .77 1.33c1.41-.83 2.72-2.3 2.15-4.06a2.17 2.17 0 0 0 -3-1.47 1.88 1.88 0 0 0 -.69 3c1.22 1.24 2.9.37 4-.56.75-.65-.34-1.73-1.09-1.09z"/><path d="m219.35 333.36a2.06 2.06 0 0 1 -1.51.7q-.4-1.18.75-.34c.82 1-.7 2.11-1.37 2.5a.77.77 0 0 0 .77 1.33c1.41-.83 2.72-2.3 2.15-4.06a2.17 2.17 0 0 0 -3-1.47 1.88 1.88 0 0 0 -.69 3c1.22 1.24 2.9.37 4-.56.75-.65-.34-1.73-1.09-1.09z"/><path d="m192.9 339.09c1.73-.61 3.43-1.8 3.54-3.8.07-1.28-.88-3.12-2.39-2.19s-1.56 3.51-.7 4.82a3.06 3.06 0 0 0 4 1c.88-.45.1-1.77-.77-1.33-2.28 1.16-2.46-2.9-1.82-2.91s-.15 1.44-.32 1.66a3.83 3.83 0 0 1 -1.95 1.25c-.93.33-.53 1.81.41 1.48z"/><path d="m308.24 346.25v-.11l-.35.87.15-.08h-.77l.13.07-.35-.87c-.18.78-2.44.45-2.73.14s-.28-1.74.21-1.26c.24.23 0 1.28-.14 1.54a3.23 3.23 0 0 1 -1.47 1.68.77.77 0 0 0 .77 1.33 4.66 4.66 0 0 0 2.38-4.62 1.72 1.72 0 0 0 -3.07-1 2.63 2.63 0 0 0 .85 3.83c1.28.69 4.29.46 4.68-1.25a.79.79 0 0 0 -.35-.87 1 1 0 0 0 -1.05 0 .78.78 0 0 0 -.35.87v.11a.77.77 0 0 0 1.48-.41z"/><path d="m304.68 363.62q-.95.73-1.23-.56a2.17 2.17 0 0 1 .61-1.27c.83-.6 1.31 0 1.29.79 0 1.65-1.83 3.45-3.46 2.19-.77-.6-1.87.48-1.09 1.09a3.6 3.6 0 0 0 5.42-1c.86-1.44 1.11-4.56-1.09-5-2-.4-3.74 2.48-3.05 4.21a2.21 2.21 0 0 0 3.92.36c.47-.87-.85-1.64-1.33-.77z"/></g><g opacity=".35"><path d="m253.4 180.31c2.29 1.85 8.76 17.55 29.33 24s34.83-2.78 37.77-3 19.13-3 13-15.65c-.19 1-1.69 3-3.67 4.42a15.42 15.42 0 0 1 -6.52 2.2c-2.94.22-17.2 9.43-37.77 3s-27-22.13-29.33-24a17.33 17.33 0 0 1 -3.54-4.24c-1.12-2.1-1.22-4.32-1.75-5.14-12.22 6.92.16 16.53 2.48 18.41z" fill="#2a1d30"/></g><path d="m244.38 229.89a6.52 6.52 0 0 1 5.42 1.67 17.72 17.72 0 0 1 7.71 10.28 8.94 8.94 0 0 1 .28 2.12 8 8 0 0 0 1.21-6.86 17.72 17.72 0 0 0 -7.71-10.28 6.52 6.52 0 0 0 -5.42-1.67c-4.26.49-6.92 4.59-7.21 8.65a7.77 7.77 0 0 1 5.72-3.91z" fill="#ca6867"/><path d="m248.73 246.53a7.72 7.72 0 0 0 9.07-2.58 8.94 8.94 0 0 0 -.28-2.12 17.72 17.72 0 0 0 -7.71-10.28 6.52 6.52 0 0 0 -5.42-1.67 7.77 7.77 0 0 0 -5.72 3.9 9.55 9.55 0 0 0 .12 2.6c.95 4.62 5.6 8.62 9.94 10.15z" fill="#b75e5e"/></g><g id="HELMET"><path d="m235.81 326.86q9.14 3.18 18.17 5.68 24.75 6.77 49.89 11.26 29.6 5.27 39.55 3.68a12 12 0 0 0 -.91-1.73q-5.56-9-14.35-11.73-7.91-2.47-28-4.58t-45.45-10a365.3 365.3 0 0 1 -50.89-20.44q-25.82-12.59-26.41-12.77-8.94-2.8-15.9-1.11a16.76 16.76 0 0 0 -7.22 3.53q7.92 7 34.1 19 23.22 10.64 47.41 19.17m68.2-310.66a44.82 44.82 0 0 0 -8 1 22.29 22.29 0 0 0 -7 3.29q-4.37 2.65-5.62 3.55a151.48 151.48 0 0 1 54.91 7 152.73 152.73 0 0 1 47.85 24.46q-2.24-10.84-7.92-15.83t-20.22-10.93q-14.54-6-22.15-7.89t-16.72-3.62a57.55 57.55 0 0 0 -15.13-1.03z" fill="#90278e"/><path d="m352.87 328.56a43.85 43.85 0 0 0 .08-5.92 38.39 38.39 0 0 0 -.48-4.65 517.22 517.22 0 0 1 -96-19.58 517.67 517.67 0 0 1 -93.29-39.64 27.15 27.15 0 0 0 -2.85 3.45 40.12 40.12 0 0 0 -7.53 13.78l-1.15 3.66q-1.12 5.12.12 6.31a13.75 13.75 0 0 0 2.53 2.72 16.76 16.76 0 0 1 7.22-3.53q7-1.69 15.9 1.11.59.18 26.41 12.76a365.3 365.3 0 0 0 50.88 20.42q25.2 7.88 45.45 10t28 4.58q8.79 2.75 14.35 11.73a12 12 0 0 1 .91 1.73 12.15 12.15 0 0 0 2.95-.69q1.55-.32 3.54-5.16.65-1.57 1.29-3.62a31.27 31.27 0 0 0 1.67-9.46z" fill="#3e2945"/><path d="m159.13 261.37a3.2 3.2 0 0 0 -1.13-.51q-6.59-2.06-10.58 10.68a5.13 5.13 0 0 0 1.61 5.65q1.63 1.47 2.62 2.43l1.15-3.62a40.12 40.12 0 0 1 7.51-13.74 3.62 3.62 0 0 1 -1.18-.85m-23.71-162.41a7.72 7.72 0 0 0 .5 6.11 8.24 8.24 0 0 0 4.88 3.94 8.06 8.06 0 0 0 6.11-.5 7.72 7.72 0 0 0 3.89-4.74 8.24 8.24 0 0 0 -.46-6.25 8.06 8.06 0 0 0 -4.73-3.89 7.88 7.88 0 0 0 -10.19 5.33m220.4 223.69a3.2 3.2 0 0 0 -1.22-.22 12 12 0 0 1 -1.65.13 43.85 43.85 0 0 1 -.08 5.92 31.27 31.27 0 0 1 -1.67 9.48q-.64 2.05-1.29 3.62 1.65-.13 4-.37a5.12 5.12 0 0 0 4.54-3.73q4-12.75-2.61-14.81m108.82-126.81a8.15 8.15 0 0 0 -10.84-3.39 8 8 0 0 0 -4.09 4.83 7.49 7.49 0 0 0 .65 6.16 8.15 8.15 0 0 0 10.84 3.39 7.49 7.49 0 0 0 4-4.69 8 8 0 0 0 -.61-6.3m-45.08 20.16a138.6 138.6 0 0 0 6.07-31.24q2.65-35.82-15.19-69.74-25.43-48.81-78-65.27t-101.15 9.19q-48.62 25.33-65 77.79-16.5 52.75 9 101.28 1.67 3.42 3.67 6.78a470.77 470.77 0 0 0 168.66 52.75q3.42-1.66 6.88-3.48 48.62-25.33 65.12-78.09m-.9-24.89a135 135 0 0 1 -5.11 23q-15.68 50.12-61.93 74.58-2.5 1.31-5 2.47a462 462 0 0 1 -163.24-51.06q-1.35-2.35-2.56-4.66v-.15q-14.47-27.62-14.85-56.58a127.89 127.89 0 0 1 6.1-40.08q15.63-50 62.09-74l.19-.1q46.07-24.36 96.18-8.69t74.44 62.18q18.59 35.44 13.69 73.12z" fill="#2a1d30"/><path d="m133.25 89.51a77 77 0 0 0 -5.25 10.73q-2.23 5.58-6.4 18.91a55.5 55.5 0 0 0 -1.19 26.85q2.73 13.4 13.42 16.74 1.47.46 6 1.4a158.52 158.52 0 0 1 6.68-32.66 154.61 154.61 0 0 1 20.49-42.48q-7.19-2.73-12.36-4.19-8.65-2.7-13.53-1.49a12.68 12.68 0 0 0 -7.9 6.21m2.67 15.64a7.72 7.72 0 0 1 -.5-6.11 7.88 7.88 0 0 1 10.19-5.34 8.06 8.06 0 0 1 4.73 3.89 8.24 8.24 0 0 1 .46 6.25 7.72 7.72 0 0 1 -3.89 4.74 8.06 8.06 0 0 1 -6.11.5 8.24 8.24 0 0 1 -4.88-3.94m334.78 102.3a91.89 91.89 0 0 0 1.63-11.88 12.17 12.17 0 0 0 -2.8-9.56q-3.47-3.82-12.12-6.53a102.51 102.51 0 0 0 -11.37-3.25 153.65 153.65 0 0 1 -7.34 46.61 161.36 161.36 0 0 1 -13.22 30.94q2.45.93 4.65 1.61 10.7 3.35 20.57-6.11a55.54 55.54 0 0 0 14.34-22.71q4.32-13.29 5.66-19.14m-10.73-15.44a7.72 7.72 0 0 1 4.73 3.89 8 8 0 0 1 .61 6.3 7.49 7.49 0 0 1 -4 4.69 8.15 8.15 0 0 1 -10.84-3.39 7.49 7.49 0 0 1 -.65-6.16 8 8 0 0 1 4.09-4.83 7.72 7.72 0 0 1 6.06-.5z" fill="#c4c4c4"/><path d="m283.39 24q-31.39 1.77-61.78 17.53-34.24 17.93-54.61 47.47a154.61 154.61 0 0 0 -20.53 42.48 158.52 158.52 0 0 0 -6.68 32.66q-4.2 43.25 17.15 84 2.82 5.39 6.17 10.62a517.67 517.67 0 0 0 93.29 39.64 517.22 517.22 0 0 0 96 19.58q5.59-2.43 11.12-5.21 40.59-21.25 61.88-59a161.36 161.36 0 0 0 13.22-30.94 153.65 153.65 0 0 0 7.38-46.59q.11-35.84-17.82-70.08-16.27-31.16-42.03-50.64a152.73 152.73 0 0 0 -47.85-24.46 151.48 151.48 0 0 0 -54.91-7m142.27 160.8a138.6 138.6 0 0 1 -6.07 31.24q-16.5 52.75-65.12 78.09-3.46 1.81-6.88 3.48a470.77 470.77 0 0 1 -168.66-52.75q-2-3.36-3.67-6.78-25.52-48.52-9-101.28 16.41-52.46 65-77.79 48.57-25.67 101.17-9.21t78 65.27q17.89 33.87 15.23 69.7z" fill="#e2e2e2"/><path d="m293 215.56q42.21 2.91 62.68-.83 35.13-6.87 48.7-13.24a50 50 0 0 0 14.32-10.32q4.91-37.68-13.65-73.12-24.38-46.55-74.49-62.23t-96.18 8.69l-.19.1q-46.46 24.08-62.09 74a127.89 127.89 0 0 0 -6.1 40.08q22.1 14.79 55.64 25.28 26.66 8.39 71.36 11.59z" fill="#543966" opacity=".16"/><path d="m418.69 191.17a50 50 0 0 1 -14.32 10.32q-13.58 6.37-48.7 13.24-20.47 3.73-62.68.83-44.69-3.2-71.35-11.54-33.55-10.49-55.64-25.28.39 29 14.94 56.63v.15q1.21 2.31 2.56 4.66a462 462 0 0 0 163.24 51.06q2.45-1.16 5-2.47 46.26-24.46 61.93-74.58a135 135 0 0 0 5.02-23.02z" fill="#2a1d30" opacity=".16"/><path d="m294.68 76.08a11 11 0 0 0 2-7.14q-.42-11.35-10.81-9.74-10.38 1.77-10 11a11.38 11.38 0 0 0 1.27 5.33q2.48 4.82 9.39 4.57 5.52-.2 8.15-4m-31.43-2.22q-3.5-3.25-12.4-2.92-30.69 1.13-52.91 35.76a136 136 0 0 0 -12.73 25.66q-4.19 11.22-4 15.51 0 .31 1 6 2.5 5.29 10.94 5 5.06-.19 39.3-38.33 33.5-37.34 33.42-39.34-.23-4.99-2.62-7.36z" fill="#fff"/></g></g></g></svg>