<svg height="512" viewBox="0 0 512 512" width="512" xmlns="http://www.w3.org/2000/svg"><g id="social_media" data-name="social media"><path d="m332.69 113.56v284.83" fill="none" stroke="#bf0031" stroke-linecap="round" stroke-linejoin="round" stroke-width="27.44"/><path d="m315.43 113.56v284.83" fill="none" stroke="#d68500" stroke-linecap="round" stroke-linejoin="round" stroke-width="27.44"/><path d="m298.18 113.56v284.83" fill="none" stroke="#f0cf46" stroke-linecap="round" stroke-linejoin="round" stroke-width="27.44"/><path d="m280.92 113.56v284.83" fill="none" stroke="#8db336" stroke-linecap="round" stroke-linejoin="round" stroke-width="27.44"/><path d="m263.66 113.56v284.83" fill="none" stroke="#10b0ea" stroke-linecap="round" stroke-linejoin="round" stroke-width="27.44"/><path d="m246.41 113.56v284.83" fill="none" stroke="#594388" stroke-linecap="round" stroke-linejoin="round" stroke-width="27.44"/><path d="m229.15 113.56v284.83" fill="none" stroke="#9d007f" stroke-linecap="round" stroke-linejoin="round" stroke-width="27.44"/><path d="m272.83 280.75 3.93 12.58 12.59 3.94-12.59 3.94-3.93 12.58-3.94-12.58-12.58-3.94 12.58-3.94z" fill="#fff"/><path d="m308.53 197 3.94 12.59 12.58 3.93-12.58 3.94-3.94 12.58-3.93-12.58-12.59-3.94 12.59-3.93z" fill="#fff"/><path d="m220.18 220.2 3.93 12.58 12.58 3.94-12.58 3.93-3.93 12.59-3.94-12.59-12.58-3.93 12.58-3.94z" fill="#fff"/><path d="m325.01 342.67 3.94 12.58 12.58 3.94-12.58 3.93-3.94 12.58-3.93-12.58-12.58-3.93 12.58-3.94z" fill="#fff"/><g fill="#d1d1d1"><circle cx="394.68" cy="179.68" opacity=".5" r="5.5" transform="matrix(.143 -.99 .99 .143 160.5 544.68)"/><circle cx="374.41" cy="158.56" opacity=".5" r="5.5" transform="matrix(.143 -.99 .99 .143 164.03 506.5)"/><circle cx="427.27" cy="155.32" opacity=".8" r="5.5" transform="matrix(.143 -.99 .99 .143 212.55 556.05)"/><circle cx="355.51" cy="184.81" opacity=".5" r="5.5" transform="matrix(.143 -.99 .99 .143 121.84 510.3)"/><circle cx="178.07" cy="179.68" opacity=".5" r="5.5" transform="matrix(.99 -.143 .143 .99 -23.82 27.26)"/><circle cx="198.34" cy="158.56" opacity=".5" r="5.5" transform="matrix(.99 -.143 .143 .99 -20.6 29.93)"/><circle cx="145.48" cy="155.32" opacity=".8" r="5.5" transform="matrix(.99 -.143 .143 .99 -20.68 22.36)"/><circle cx="217.24" cy="184.81" opacity=".5" r="5.5" transform="matrix(.99 -.143 .143 .99 -24.16 32.9)"/><path d="m425.87 120.91a25.41 25.41 0 0 0 -11.87 2.94 30.58 30.58 0 0 0 -48.33-20c0-.54 0-1.08 0-1.63a84.77 84.77 0 0 0 -169.54 0v1.63a30.58 30.58 0 0 0 -48.33 20 25.49 25.49 0 0 0 -32.8 8.15 5.58 5.58 0 0 0 4.6 8.74h322.69a5.58 5.58 0 0 0 4.6-8.74 25.47 25.47 0 0 0 -21.02-11.09z"/></g><path d="m446.89 132a25.49 25.49 0 0 0 -32.89-8.15 30.58 30.58 0 0 0 -48.33-20c0-.54 0-1.08 0-1.63a84.64 84.64 0 0 0 -95-84.13 62.28 62.28 0 0 1 11.7 122.61h159.92a5.58 5.58 0 0 0 4.6-8.7z" fill="#a3a3a3"/><g id="ballerina"><path d="m91.9 210.57c1.41-14.29 25.51-26 25.51-26s-15 8.61-18.72 3.64 2.85-13.1 24.1-20.33c0 0-10.92-6.22-9.27-13s33.72 1.26 33.72 1.26-13.55-13.69-6.16-14.83 23.1 6.75 23.1 6.75-12.56-5.71-10.77-11.51 25.95 8.16 25.95 8.16-11.34-16.85-1.09-15.34c6.54 1 15.87 14.75 15.87 14.75s-9.55-22.94-.06-23.09 10.39 22.59 10.39 22.59 6.25-23 12.2-21.06-5.57 21.06-5.57 21.06 32.4-25.57 37.81-16.42-14.15 15.21-16.12 16.12 25.53-8.71 28.51-.76-10.92 11.65-15.74 13.23c0 0 34.69-4.83 36.33 2.83s-18.5 7.59-22.44 7.36c0 0 28.35 9 27.25 15s-7.73 2.86-18.53.65c0 0 18.47 7.19 18.18 15.47s-20-.49-20-.49 17.71 5.32 20.24 13.35-21.93 15.49-21.93 15.49h-145.46s-28.71-.59-27.3-14.88z" fill="#3e2945"/><path d="m235.39 427.85s-17.5 17.15-13.2 23.15 14 20 19.19 18.63 8.79-12.56-.42-25.23-5.57-16.55-5.57-16.55z" fill="#f7bf9a"/><path d="m228.27 456.55c2.36.35 8.63-18 13.53-39.52h-32.25c10.83 11.97 8.8 38.07 18.72 39.52z" fill="#f7bf9a"/><path d="m145.79 427.85s17.5 17.15 13.21 23.15-14 20-19.19 18.63-8.79-12.56.42-25.23 5.56-16.55 5.56-16.55z" fill="#f7bf9a"/><path d="m152.91 456.55c-2.36.35-8.63-18-13.53-39.52h32.24c-10.82 11.97-8.79 38.07-18.71 39.52z" fill="#f7bf9a"/><path d="m235.4 313.24-16.8-3.57h-57.11l-16.72 3.54c-10.25 3-17.63 16.33-17.63 31.77l2.8 52.58c17.91 21.32 101.72 20.5 118.29-2.9l4.77-49.66c0-15.45-7.38-28.75-17.63-31.77zm0 0" fill="#f7bf9a"/><path d="m248.23 394.69 4.77-49.69c0-15.45-7.38-28.75-17.63-31.77l-16.8-3.57h-57.11l-16.72 3.54 66.75 17.13 36.7 64.31m-12.79-82.27" fill="#fed9be"/><path d="m155 314c-3.24.51-13.15 1.49-13.15 1.49s-74.93-10.45-77.63 3 85.78 24.31 86.35 22.1 4.43-26.59 4.43-26.59z" fill="#f7bf9a" fill-rule="evenodd"/><path d="m218.3 318.18c3.25-.46 13-2.46 13-2.46s68.5-32.14 75.05-20.1-74.82 48.58-76 46.64-12.05-24.08-12.05-24.08z" fill="#f7bf9a" fill-rule="evenodd"/><ellipse cx="214.18" cy="333.79" fill="#97839c" rx="5.71" ry="4.33" transform="matrix(.79 -.61 .61 .79 -159.65 201.34)"/><path d="m184.11 404.28c-4.6-1.83-12.24-4.14-9.93-6 2.11-1.69 9-7.7 14.09-12.11 3.21-2.8 8.23-3.45 11.64-1.4 2.64 1.58 5.8 3.49 8.65 5.28 6.54 4.1 1.88 8.15 1.88 8.15l-3.37 1.66-11.2 3.42s-7 2.9-11.76 1z" fill="#d93bd6"/><path d="m152.71 384.67c-8.19 1.73-16 4.73-24.19 6.14.81 11 2.44 26.43 5.58 37.07l9.29-6.5 14.34 6.42 13.2-9.37 2.8 2.07-16.38-36.75c-1.55.25-3.1.59-4.64.92z" fill="#a38ea8"/><path d="m244.79 377.43c-.45-.35-.89-.71-1.33-1.08a1.83 1.83 0 0 1 -.78-.68 38.21 38.21 0 0 1 -11.68-17.51c-4.39-13.41-3.89-27.83-6.9-41.53a1.7 1.7 0 0 1 .5-1.66c-.2-1.4-.4-2.8-.61-4.2a43.59 43.59 0 0 0 -8.76-1.17 1.74 1.74 0 0 1 -.17 1c-1.06 2.15-2.06 4.27-3.06 6.4-1.82 11.2-8.59 34-9.08 34.08-.07 0-.13.08-.2.11l47.26 36.19c.15-1.54.26-3 .36-4.37a11.61 11.61 0 0 1 -5.55-5.58z" fill="#d9bde0"/><path d="m244.48 427.11-1 .37.87.39z" fill="#a38ea8"/><path d="m202.68 351.18c-2.63 1.1-22.2 19.44-23.16 20.15-7.26 5.33-13.59 10.76-22.17 12.42l16.38 36.75 10.4 7.68 14.15-7.18 17 10.4 14.71-10 13.51 6.11 1-.37c.69-4.16 4.06-24.92 5.46-39.74z" fill="#b79fbd"/><path d="m231 358.16a73.25 73.25 0 0 1 -2.27-9.08l-4.46 1.92c-3.13 1.35-4.46 4-2.94 5.94 1.51 1.92 6.14 3.49 10.29 3.49h.26c-.27-.73-.61-1.43-.88-2.27z" fill="#d93bd6"/><path d="m239.41 372.5a105.49 105.49 0 0 0 -11.92 6c-4 2.38-2.42 5.63-1.48 7.71s22.06 5.11 22.06 5.11.69-.76 1.68-1.91c.31-3 .54-5.75.68-8.19a48.08 48.08 0 0 1 -11.02-8.72z" fill="#d93bd6"/><path d="m248.23 402h-3-5.44c-5.2 0-10.27.09-13.5.09-5.57 0-7.31 4.45-7.83 7.79-.31 2 2.47 5.09 5.64 6.83 3.55 2 16.07 2.74 21.55 3 .77-4.86 1.72-11.22 2.58-17.71z" fill="#d93bd6"/><path d="m184.45 424.53s4.31-.68 3.45-4.19c-.25-1-.4-2-.49-2.68-.25-1.64-1.39-2.82-4-3.72s-9.41-2.64-9.41-2.64-6.93-2.32-10.33-.39c-.78.45-2.08 1.25-2.72 1.71-4.26 3.08.73 8.24.73 8.24l4.72.94 4.53-3.37 10 7.21z" fill="#d93bd6"/><path d="m146.78 409c2.64-.1 6.62-1.91 7.05-7.34s-7.06-6.92-7.06-6.92l-18.09-1.74c.39 4.89.94 10.47 1.69 16.05 4.7-.05 14.42.03 16.41-.05z" fill="#d93bd6"/><path d="m190.63 364.13a59.09 59.09 0 0 0 8.29-1c1.72-.6.74-3.93-.45-6.82a60.16 60.16 0 0 1 -7.84 7.82z" fill="#d93bd6"/><path d="m222.65 327.13a54.69 54.69 0 0 0 -11.58-3.5c-.31 2.69-.59 5.42-1 8.13 1.19-.3 2.42-.65 3.7-1.06 9.78-3.14 8.88-3.57 8.88-3.57z" fill="#d93bd6"/><ellipse cx="192.68" cy="284.76" fill="#8e3d7c" rx="47.93" ry="25.54"/><ellipse cx="192.68" cy="279.22" fill="#d49f77" rx="47.93" ry="25.54"/><path d="m264.42 249.21c-4.61-22.64-7.34-49.18-23.64-68.5-34.64-41.11-99.07-20.36-116.13 20.36-9.61 23.6-25.64 71.39 9.72 82.75 43.24 13.8 140.53 16.93 130.05-34.61z" fill="#f7bf9a"/><path d="m159.43 201.07c8.35-19.92 28-35 50-40.51-33.32-9-72.12 10.27-84.8 40.51-9.61 23.6-25.64 71.39 9.72 82.75 19.93 6.36 51.34 10.45 78.39 8-16.35-1.31-31.94-4.25-43.6-8-35.34-11.36-19.31-59.15-9.71-82.75z" fill="#fed9be"/><path d="m115.26 223.62.3.67a2.24 2.24 0 0 1 -.12-.31c-.06-.11-.11-.23-.18-.36z" fill="#d49f77"/><path d="m115.58 224.32v-.08z" fill="#d49f77"/><path d="m115.44 224a2.24 2.24 0 0 0 .12.31v.08c.13.11.05-.05-.12-.39z" fill="#d49f77"/><path d="m262.89 223.62-.3.67a2.58 2.58 0 0 0 .12-.31z" fill="#d49f77"/><path d="m262.56 224.32.05-.08s-.04.07-.05.08z" fill="#d49f77"/><path d="m262.71 224a2.58 2.58 0 0 1 -.12.31l-.05.08c-.08.11-.01-.05.17-.39z" fill="#d49f77"/><path d="m291.66 280.5c-2-7.38-17.89-18.6-17.89-18.6 22.14 5.74 14.2-7.11 14.2-7.11-4-7.93-22.43-13.95-22.43-13.95 24.42-2.73 9.65-12.31 9.65-12.31-14.2-7.66-34.64-6.29-34.64-6.29 11.64-4.65 12.78-12.31 12.78-12.31-1.14-4.92-10.5-5.47-10.5-5.47-1.33.07-2.58.19-3.77.36-.4.06-.76.14-1.14.21-.76.13-1.53.27-2.24.44-.43.11-.83.24-1.24.36-.6.17-1.21.34-1.78.54-.41.15-.79.31-1.18.47s-1 .41-1.49.63-.73.37-1.08.56-.86.46-1.26.7-.66.42-1 .64-.72.49-1.06.75-.59.46-.87.7-.6.51-.88.76-.52.49-.77.74-.25.23-.35.34a21.14 21.14 0 0 0 -5.19 9c7.54 8-.73 12.95-2.87 13.8s-10.47 10.88-27.07 10.88-25-10-27.07-10.88-10.41-5.84-2.87-13.8a21.14 21.14 0 0 0 -5.19-9c-.11-.11-.24-.23-.35-.34s-.5-.5-.77-.74-.57-.51-.88-.76-.57-.47-.87-.7-.69-.5-1.06-.75-.64-.43-1-.64-.83-.47-1.26-.7-.71-.38-1.08-.56-1-.43-1.49-.63-.77-.32-1.18-.47c-.56-.2-1.17-.37-1.78-.54-.41-.12-.81-.25-1.24-.36-.71-.17-1.48-.31-2.24-.44-.38-.07-.74-.16-1.14-.21-1.19-.17-2.45-.3-3.77-.36 0 0-9.37.55-10.5 5.47 0 0 1.14 7.66 12.78 12.31 0 0-20.44-1.37-34.64 6.29 0 0-14.76 9.57 9.65 12.31 0 0-18.45 6-22.43 13.95 0 0-7.95 12.85 14.2 7.11 0 0-15.9 11.21-17.89 18.6 0 0-3.41 9.29 15.33-1.1 0 0-7.1 8.75-9.65 17s2.4 9.13 10.85 4.29c0 0-7.16 9.11-7.73 15.67s1.2 20.13 17.07-2.24c0 0-4.29 17.55-.88 24.66 0 0 4.54 3.83 7.38 1.1s5.11-8.75 4.83-12c0 0 3.41 16.41 14.19 20.78 0 0 7.95 2.19 9.37-12.3 0 0 4.54 10.12 12.78 13.12s12.49-1.64 12.21-12.31c0 0 3.72 16.23 17.56 16.23s19-16.23 19-16.23c-.28 10.66 4 15.31 12.21 12.31s12.78-13.12 12.78-13.12c1.42 14.49 9.37 12.3 9.37 12.3 10.79-4.37 14.19-20.78 14.19-20.78-.28 3.28 2 9.3 4.83 12s7.38-1.1 7.38-1.1c3.41-7.11-.88-24.66-.88-24.66 15.87 22.37 17.63 8.8 17.07 2.24s-7.73-15.67-7.73-15.67c8.45 4.84 13.4 3.91 10.85-4.29s-9.65-17-9.65-17c18.81 10.4 15.41 1.1 15.41 1.1z" fill="#3e2945"/><path d="m191.47 403.59 1.5-.53c1-.95 2.13-1.93 3.39-2.94l5.38-7.15 7.9-2 2.41-1.47-3.56-4.33s-26.31-3.42-29.37-2.76.66 12.69.86 14.08 11.49 7.1 11.49 7.1z" fill="#d93bd6"/><path d="m115.35 166c2.78-3.4 6.86-4.92 11.51-5.29a5.32 5.32 0 0 1 6.18-7.91 30 30 0 0 1 9.28 4.64 5.58 5.58 0 0 1 4-4.18c9-2.77 18.16 8.88 21.2 15.87a5.65 5.65 0 0 1 -3.72 7.54 15.89 15.89 0 0 1 -5.8.33c-12.51-.75-27.79.76-39.79-3-3.05-1-5.06-5.33-2.86-8z" fill="#543966"/><g fill="#3e2945"><path d="m170.48 373.38a.72.72 0 0 1 -.37-.79q-.05-.53.55 0c.21.28 0 1.11-.16 1.37a2.34 2.34 0 0 1 -1.82 1.34c-.75.13-.43 1.27.31 1.14a3.54 3.54 0 0 0 2.87-3c.14-1.11-.6-3.13-2.09-2.42-1.17.56-1.1 2.54-.21 3.31s2.55-.06 2.05-1.28c-.28-.7-1.42-.39-1.14.31z"/><path d="m162.24 368.36a3.75 3.75 0 0 0 1.17-3.27c-.12-.85-.7-2.35-1.8-2.1s-.88 1.56-.48 2.26a4.06 4.06 0 0 0 3.15 1.92c.75.09.75-1.1 0-1.18a2.85 2.85 0 0 1 -1.62-.71 2.47 2.47 0 0 1 -.52-.63c-.21-.41-.25-.61-.1 0a2.65 2.65 0 0 1 -.65 2.91c-.56.52.28 1.36.84.84z"/><path d="m163.15 351.68c-.17 1.09-.31 2.32.58 3.15a1.64 1.64 0 0 0 2.18.19 1.52 1.52 0 0 0 .24-1.89c-.6-.88-1.62-.38-2.25.14s.25 1.31.84.84c-.51.42-.47-2-.44-2.12.12-.74-1-1.06-1.14-.31z"/><path d="m188.55 355.53c-.17 1.09-.31 2.32.58 3.15a1.64 1.64 0 0 0 2.18.19 1.52 1.52 0 0 0 .24-1.89c-.6-.88-1.62-.38-2.25.14s.25 1.31.84.84c-.51.42-.47-2-.44-2.12.12-.74-1-1.06-1.14-.31z"/><path d="m241.31 354.9c-.17 1.09-.31 2.32.58 3.15a1.64 1.64 0 0 0 2.18.19 1.52 1.52 0 0 0 .24-1.89c-.6-.88-1.62-.38-2.25.14s.25 1.31.84.84c-.51.42-.47-2-.44-2.12.12-.74-1-1.06-1.14-.31z"/><path d="m161.06 370.9c0 1.16.19 2.37 1.39 2.85a1.74 1.74 0 0 0 2.28-.91 1.45 1.45 0 1 0 -2.72-1 .59.59 0 0 0 1.14.31v.57a.77.77 0 0 1 -.76-.58 2.4 2.4 0 0 1 -.17-1.23.59.59 0 0 0 -1.18 0z"/><path d="m171.85 355.95c0 1.16.19 2.37 1.39 2.85a1.74 1.74 0 0 0 2.28-.91 1.45 1.45 0 1 0 -2.72-1 .59.59 0 0 0 1.14.31v.57a.77.77 0 0 1 -.76-.58 2.4 2.4 0 0 1 -.17-1.23.59.59 0 0 0 -1.18 0z"/><path d="m170.23 350c0 1.16.19 2.37 1.39 2.85a1.74 1.74 0 0 0 2.28-.91 1.45 1.45 0 1 0 -2.72-1 .59.59 0 0 0 1.14.31v.57a.77.77 0 0 1 -.76-.58 2.4 2.4 0 0 1 -.17-1.23.59.59 0 0 0 -1.18 0z"/><path d="m165.5 361.49c.49-1 .83-2.16 0-3.13a1.74 1.74 0 0 0 -2.44-.29c-1.73 1.37.62 3.73 1.93 2.16.48-.58-.35-1.42-.84-.84q.75-.49.69.41a3 3 0 0 1 -.37 1.09c-.33.68.69 1.28 1 .6z"/><path d="m181 367.86c.49-1 .83-2.16 0-3.13a1.74 1.74 0 0 0 -2.44-.29c-1.73 1.37.62 3.73 1.93 2.16.48-.58-.35-1.42-.84-.84q.75-.49.69.41a3 3 0 0 1 -.37 1.09c-.33.68.69 1.28 1 .6z"/><path d="m158.05 365.75c.49-1 .83-2.16 0-3.13a1.74 1.74 0 0 0 -2.44-.29c-1.73 1.37.62 3.73 1.93 2.16.48-.58-.35-1.42-.84-.84q.75-.49.69.41a3 3 0 0 1 -.37 1.09c-.33.68.69 1.28 1 .6z"/><path d="m179.13 357.15c0 1.16.19 2.37 1.39 2.85a1.74 1.74 0 0 0 2.28-.91 1.45 1.45 0 1 0 -2.72-1 .59.59 0 0 0 1.14.31v.6a.77.77 0 0 1 -.76-.58 2.4 2.4 0 0 1 -.17-1.23.59.59 0 0 0 -1.18 0z"/><path d="m233.49 358.53c0 1.16.19 2.37 1.39 2.85a1.74 1.74 0 0 0 2.28-.91 1.45 1.45 0 1 0 -2.72-1 .59.59 0 0 0 1.14.31v.57a.77.77 0 0 1 -.76-.58 2.4 2.4 0 0 1 -.17-1.23.59.59 0 0 0 -1.18 0z"/><path d="m156.65 378.13c.18 1.19.5 2.49 1.7 3a1.73 1.73 0 0 0 2.35-.76 1.42 1.42 0 0 0 -.67-1.95c-1.1-.49-2.05.34-2.7 1.14-.47.59.36 1.43.84.84a4.46 4.46 0 0 1 .46-.54l.57-.37q0 1.06-.58.36c-.66-.4-.73-1.36-.84-2.05s-1.25-.43-1.14.31z"/><path d="m154.62 358.92a4 4 0 0 0 .36-3.82c-.4-.72-1.53-1.7-2.35-1s-.28 1.86.21 2.49a4.41 4.41 0 0 0 3.93 1.38c.76 0 .76-1.23 0-1.18s-2.93 0-3.19-1.21c-.16-.73.55.7.56.81a3.51 3.51 0 0 1 -.56 2c-.36.67.66 1.27 1 .6z"/><path d="m146.92 362.64a2.05 2.05 0 0 1 -.82.86q.14-.94.41-.12c.47.68 0 1.33-.49 1.86s.33 1.4.84.84c.84-.94 1.49-2.3.68-3.48a1.68 1.68 0 0 0 -2.53-.44 1.45 1.45 0 0 0 .14 2.35c1.17.66 2.23-.36 2.8-1.28.4-.65-.62-1.24-1-.6z"/><path d="m170.76 363.08a2.05 2.05 0 0 1 -.82.86q.14-.94.41-.12c.47.68 0 1.33-.49 1.86s.33 1.4.84.84c.84-.94 1.49-2.3.68-3.48a1.68 1.68 0 0 0 -2.53-.44 1.45 1.45 0 0 0 .15 2.4c1.17.66 2.23-.36 2.8-1.28.4-.65-.62-1.24-1-.6z"/><path d="m152.6 373.41c1.13-.85 2.13-2.09 1.76-3.6-.24-1-1.42-2.14-2.29-1-1.77 2.23 1.61 5.62 3.77 3.51.54-.53-.29-1.37-.84-.84-1 1-2.33-.33-2.13-1.47s.38.64.35.79a2.8 2.8 0 0 1 -1.22 1.63c-.6.45 0 1.48.6 1z"/><path d="m239.05 352.17v-.07l-.09.72.09-.09-.58.15h.11l-.43-.57c0 .3-1 .75-1.15.79a.72.72 0 0 1 -.91-.17.67.67 0 0 1 -.35-.6l.47.15a2.4 2.4 0 0 1 .05 1.06 2.55 2.55 0 0 1 -.65 1.26c-.5.57.33 1.41.84.84a3.54 3.54 0 0 0 .55-4.24 1.31 1.31 0 0 0 -2.38.43 2 2 0 0 0 1.7 2.49c1.05.14 3.11-.72 3-2a.61.61 0 0 0 -.43-.57.74.74 0 0 0 -.78.22.6.6 0 0 0 -.09.72v.07c.4.65 1.42.05 1-.6z"/><path d="m240.42 365.7q-.49.79-1-.09a1.63 1.63 0 0 1 .14-1.07c.5-.84 1.05-.19 1.18.49.24 1.32-.78 2.65-2.19 2.13-.71-.27-1 .88-.31 1.14a2.78 2.78 0 0 0 3.67-2.27c.23-1.28-.54-3.74-2.3-3.14a2.6 2.6 0 0 0 -1 3.71 1.7 1.7 0 0 0 3-.59c.15-.74-1-1.06-1.14-.31z"/></g><g opacity=".35"><path d="m160.59 242.8c2.11.84 10.47 10.88 27.07 10.88s25-10 27.07-10.88 13.37-6.59 6-14.5a7.45 7.45 0 0 1 -1.69 4.09 11.87 11.87 0 0 1 -4.29 3.12c-2.11.84-10.47 10.88-27.07 10.88s-25-10-27.07-10.88a13.35 13.35 0 0 1 -3.57-2.3c-1.31-1.29-1.89-2.89-2.47-3.37-7.42 7.89 3.88 12.11 6.02 12.96z" fill="#2a1d30"/></g><circle cx="239.84" cy="209.91" fill="#f2a88f" r="26.27"/><path d="m242.64 203a59.74 59.74 0 0 0 -29 6.19v.69a26.27 26.27 0 1 0 52.4-2.75 87.35 87.35 0 0 0 -23.4-4.13z" fill="#fff"/><path d="m266 206.78a95.25 95.25 0 0 0 -23.36-3.78 64.81 64.81 0 0 0 -29 5.63v.49c1.66-.09 3.32-.18 5-.2a1.65 1.65 0 0 1 1 .32c12 .13 23.95.6 35.88 1.55 3.13.25 6.9.3 10.54.75a21 21 0 0 0 0-4.78z" fill="#e6e6e6"/><circle cx="239.95" cy="211.56" fill="#3e2945" r="6.13"/><path d="m213.3 208.81c-1.18-2 6.09-10.47 15.75-14 0 0 7-2.55 18.94-1.92 4.51.24 9.45 1 9.45 1 3.66.52 4.14.74 6.18 1a50.09 50.09 0 0 0 12-.55c10.26-1.88 20.1-8.66 21.56-9.68-1.13 1.1-14.48 14-23.23 19.76-2.58 1.69-5.06 3-8 2.75-1.69-.15-2.37-.64-6.26-1.74 0 0-2.28-.64-6.17-1.46-6.43-1.36-14.8-.1-18.15.44-15.63 2.54-21.15 5.93-22.07 4.4z" fill="#2a1d30"/><circle cx="138.97" cy="209.91" fill="#f2a88f" r="26.27"/><path d="m136.18 203a59.74 59.74 0 0 1 29 6.19v.69a26.27 26.27 0 1 1 -52.4-2.75 87.35 87.35 0 0 1 23.4-4.13z" fill="#fff"/><path d="m112.85 206.78a95.25 95.25 0 0 1 23.33-3.78 64.81 64.81 0 0 1 29 5.63v.49c-1.66-.09-3.32-.18-5-.2a1.65 1.65 0 0 0 -1 .32c-12 .13-23.95.6-35.88 1.55-3.13.25-6.9.3-10.54.75a21 21 0 0 1 0-4.78z" fill="#e6e6e6"/><circle cx="138.87" cy="211.56" fill="#3e2945" r="6.13"/><path d="m165.51 208.81c1.18-2-6.09-10.47-15.75-14 0 0-7-2.55-18.94-1.92-4.51.24-9.45 1-9.45 1-3.66.52-4.14.74-6.18 1a50.09 50.09 0 0 1 -12-.55c-10.26-1.88-20.1-8.66-21.56-9.68 1.13 1.1 14.48 14 23.23 19.76 2.58 1.69 5.06 3 8 2.75 1.69-.15 2.37-.64 6.26-1.74 0 0 2.28-.64 6.17-1.46 6.43-1.36 14.8-.1 18.15.44 15.63 2.54 21.15 5.93 22.07 4.4z" fill="#2a1d30"/><path d="m172.1 270.05s3.29 7.78 17.39 8.24c9.89.32 16.29-3.54 20.27-9.21l-16.44-.26-5.12 1-14.29-.28z" fill="#c57d7d"/><path d="m171.13 269.73c-1.5-.56-2.05-2.55.46-1.66 3 1.09 5.61.65 10.07-1.08 1.66-.64 4.48-.92 7.7 1.86 0 0 1.49-3 8.06-2.28s6.58 2.68 11.58 1.43c0 0 4.37-1 1.69 1-3.91 3-17.09 2.35-17.09 2.35s-4.48 1.37-8-.08c.02-.01-8.67.63-14.47-1.54z" fill="#b75e5e"/><path d="m261.38 162c-3.43-2.75-7.74-3.37-12.36-2.77a5.32 5.32 0 0 0 -7.7-6.45 30 30 0 0 0 -8.1 6.48 5.58 5.58 0 0 0 -4.82-3.26c-9.36-.83-15.9 12.48-17.41 19.95a5.65 5.65 0 0 0 5.22 6.6 15.89 15.89 0 0 0 5.81-.86c12.07-3.35 27.33-5.07 38.28-11.3 2.7-1.57 3.8-6.24 1.08-8.39z" fill="#543966"/></g><path d="m164.38 164.27 18.08-141.55a7.69 7.69 0 0 1 7.63-6.72 7.69 7.69 0 0 1 7.63 6.72l18.08 141.56a7.69 7.69 0 0 1 -7.63 8.66 33.88 33.88 0 0 1 -21.36 5.26 33.08 33.08 0 0 1 -14.8-5.26 7.91 7.91 0 0 1 -5.77-2.61 7.66 7.66 0 0 1 -1.86-6.06z" fill="#d9bde0"/><path d="m215.79 164.27-18.07-141.55a7.68 7.68 0 0 0 -11.72-5.55c.19.29.35.6.53.89a4.37 4.37 0 0 1 4.07 0 9.36 9.36 0 0 1 4.61 6 4.11 4.11 0 0 1 -2.82 5 3.47 3.47 0 0 1 -1.5.13c0 .12.06.23.08.35s0 .15 0 .22a12.38 12.38 0 0 1 4.77 6.19c.59 1.94.56 4.23-1 5.74a4.69 4.69 0 0 1 -2.69 1.33 3.57 3.57 0 0 1 -1.29 0h-.39a4.92 4.92 0 0 1 1 .6 16.89 16.89 0 0 1 4.89 7.29 5.43 5.43 0 0 1 -1.07 5.6 5.28 5.28 0 0 1 -4.59 1.32 4.38 4.38 0 0 1 .41.32c3.9 3.75 8.35 6.57 8.73 12.51.17 2.55-.46 5.45-2.8 6.87a4.76 4.76 0 0 1 -.51.23c2.47 2.33 4.47 5.15 4.83 8.48.27 2.53-.13 5.37-2.25 7a5.08 5.08 0 0 1 -3.21 1.11c3.65 3.07 7.17 6.3 8.07 11.28.3 1.65-.15 3.77-1.86 4.56a9.32 9.32 0 0 1 -3.16.86c3.1 2.56 5.6 5.8 5.57 9.65 0 3.38-2.06 6.35-5.42 6.86 3.44 2.24 6.61 4.8 7.62 8.8 1.5 5.94-2.45 9-7.18 9.81 5 2.9 9.3 6.66 7.93 13.06a8.27 8.27 0 0 1 -4.67 6 15.37 15.37 0 0 1 2.52 2.06 9.06 9.06 0 0 1 2.48 5.92l.41-.26a7.69 7.69 0 0 0 7.68-8.68z" fill="#b79fbd"/><ellipse cx="190.09" cy="490.86" fill="#3f3f44" opacity=".21" rx="44.83" ry="5.14"/></g></svg>