<svg height="512" viewBox="0 0 512 512" width="512" xmlns="http://www.w3.org/2000/svg"><g id="social_media" data-name="social media"><g id="SANTA"><g opacity=".21"><ellipse cx="213.31" cy="487.58" fill="#3f3f44" rx="85.32" ry="8.42"/></g><path d="m245.36 453.64s-.8 30.27 8.2 31.9 29.65 5.72 33.09 0-3-18.73-22.12-22-19.17-9.9-19.17-9.9z" fill="#f7bf9a"/><path d="m259.7 485.74c2.92.43 10.68-22.33 16.74-48.9h-39.9c13.4 14.76 10.89 47.1 23.16 48.9z" fill="#f7bf9a"/><path d="m180.36 454.36s.8 30.27-8.2 31.9-29.65 5.72-33.09 0 3-18.73 22.12-22 19.17-9.9 19.17-9.9z" fill="#f7bf9a"/><path d="m166.2 486.46c-2.92.43-10.68-22.33-16.74-48.9h39.9c-13.36 14.76-10.88 47.1-23.16 48.9z" fill="#f7bf9a"/><g opacity=".63"><path d="m246.41 457.9 16.85-9.97 8.9 6.07 3.88-10.55-17.13-4.08-15.16 11.75z" fill="#f2a88f"/></g><g opacity=".63"><path d="m152.9 451.3 3.86-3.92 14.8 7.9 10.99-7.07 2.98-6.36h-33.57l-.77 3.12z" fill="#f2a88f"/></g><path d="m342.75 291.15a11.06 11.06 0 0 1 7.25-13.84l7.6-2.36a11.06 11.06 0 0 1 13.84 7.28 11.06 11.06 0 0 1 -7.28 13.84l-7.6 2.36a11.06 11.06 0 0 1 -13.84-7.28z" fill="#f7bf9a"/><path d="m268.77 309.12-20.77-4.43h-70.67l-20.69 4.38c-12.69 3.75-21.82 20.21-21.82 39.31l3.47 65.06c22.17 26.38 125.88 25.36 146.38-3.59l5.94-61.47c0-19.12-9.13-35.57-21.82-39.32zm0 0" fill="#f7bf9a"/><path d="m284.65 409.91 5.94-61.47c0-19.12-9.13-35.57-21.82-39.32l-20.77-4.43h-70.67l-20.69 4.38 82.61 21.2 45.42 79.58m-15.9-101.85" fill="#fed9be"/><path d="m169.22 310.11c-4 .63-16.27 1.85-16.27 1.85s-92.73-12.96-96.07 3.69 106.22 30 106.91 27.32 5.43-32.86 5.43-32.86z" fill="#f7bf9a" fill-rule="evenodd"/><ellipse cx="242.51" cy="334.55" fill="#f79820" rx="7.06" ry="5.35" transform="matrix(.79 -.613 .613 .79 -154.17 218.86)"/><path d="m49.39 316.65a11.06 11.06 0 0 1 11.43-10.65l8 .28a11.06 11.06 0 0 1 10.62 11.42 11.06 11.06 0 0 1 -11.44 10.67l-8-.28a11.06 11.06 0 0 1 -10.67-11.44z" fill="#f7bf9a"/><path d="m205.29 421.78c-5.69-2.27-15.14-5.13-12.29-7.41 2.62-2.09 11.18-9.52 17.44-15 4-3.46 10.18-4.27 14.41-1.74 3.27 2 7.17 4.32 10.71 6.53 8.1 5.07 2.32 10.08 2.32 10.08l-4.17 2-13.86 4.24s-8.66 3.64-14.56 1.3z" fill="#bf3017"/><path d="m166.43 397.51c-10.14 2.14-19.84 5.86-29.93 7.6 1 13.57 3 32.7 6.9 45.87l11.5-8 17.74 7.94 16.36-11.64 3.46 2.56-20.27-45.47c-1.93.36-3.85.74-5.76 1.14z" fill="#bf3017"/><path d="m280.38 388.55c-.56-.43-1.1-.88-1.64-1.33a2.26 2.26 0 0 1 -1-.84 47.28 47.28 0 0 1 -14.46-21.67c-5.43-16.59-4.82-34.44-8.54-51.39a2.11 2.11 0 0 1 .62-2c-.25-1.73-.5-3.47-.76-5.2a53.94 53.94 0 0 0 -10.84-1.45 2.16 2.16 0 0 1 -.2 1.28c-1.32 2.6-2.58 5.23-3.86 7.85-2.26 13.86-10.63 42-11.23 42.17-.09 0-.15.1-.24.13l58.49 44.79c.18-1.9.33-3.7.45-5.41a14.37 14.37 0 0 1 -6.79-6.93z" fill="#bf3017"/><path d="m280 450-1.24.46 1.08.49z" fill="#bf3017"/><path d="m228.27 356.06c-3.27 1.37-27.47 24.06-28.66 24.94-9 6.6-16.82 13.32-27.44 15.37l20.27 45.47 12.88 9.5 17.51-8.93 21 12.87 18.17-12.34 16.72 7.56 1.28-.5c.85-5.14 5-30.84 6.76-49.18z" fill="#bf3017"/><path d="m263.32 364.71a90.65 90.65 0 0 1 -2.81-11.24l-5.51 2.38c-3.88 1.67-5.52 5-3.64 7.35 1.87 2.37 7.6 4.32 12.74 4.32h.33c-.36-.91-.78-1.81-1.11-2.81z" fill="#f4f2f4"/><path d="m273.73 382.45a130.54 130.54 0 0 0 -14.73 7.37c-5 2.95-3 7-1.83 9.55s27.3 6.32 27.3 6.32.85-.95 2.08-2.37c.38-3.69.67-7.12.84-10.13a59.5 59.5 0 0 1 -13.66-10.74z" fill="#f4f2f4"/><path d="m284.65 418.94-3.69-.05h-6.73c-6.43 0-12.71.11-16.71.11-6.89 0-9 5.51-9.68 9.65-.39 2.48 3.06 6.3 7 8.45 4.39 2.42 19.89 3.39 26.67 3.71.89-5.95 2.07-13.81 3.14-21.87z" fill="#f4f2f4"/><path d="m205.72 446.83s5.34-.84 4.27-5.19c-.31-1.26-.49-2.53-.61-3.31-.31-2-1.72-3.49-4.93-4.61s-11.67-3.27-11.67-3.27-8.58-2.87-12.79-.48c-1 .55-2.58 1.55-3.36 2.12-5.28 3.81.91 10.19.91 10.19l5.84 1.16 5.6-4.17 12.37 8.93z" fill="#f4f2f4"/><path d="m159.1 427.62c3.27-.13 8.19-2.36 8.73-9.08s-8.74-8.56-8.74-8.56l-22.39-2.2c.48 6 1.16 13 2.09 19.86 5.81.03 17.85.08 20.31-.02z" fill="#f4f2f4"/><path d="m213.36 372.09a73.13 73.13 0 0 0 10.26-1.29c2.13-.74.91-4.87-.55-8.44a74.45 74.45 0 0 1 -9.71 9.73z" fill="#f4f2f4"/><path d="m253 326.3a67.67 67.67 0 0 0 -14.34-4.3c-.38 3.33-.73 6.71-1.18 10.06 1.47-.37 3-.8 4.58-1.31 12.05-3.91 10.94-4.45 10.94-4.45z" fill="#f4f2f4"/><ellipse cx="215.9" cy="273.87" fill="#8e3d7c" rx="59.32" ry="31.61"/><ellipse cx="215.9" cy="267.01" fill="#d49f77" rx="59.32" ry="31.61"/><path d="m304.67 229.88c-5.71-28-9.09-60.86-29.26-84.77-42.87-50.87-122.6-25.19-143.71 25.2-11.89 29.21-31.72 88.34 12 102.41 53.55 17.06 173.95 20.93 160.97-42.84z" fill="#f7bf9a"/><path d="m174.76 170.31c10.33-24.65 34.68-43.37 61.88-50.13-41.23-11.08-89.25 12.7-104.94 50.13-11.89 29.21-31.72 88.34 12 102.41 24.66 7.86 63.53 12.93 97 9.86-20.23-1.62-39.52-5.26-54-9.86-43.7-14.07-23.83-73.21-11.94-102.41z" fill="#fed9be"/><path d="m136.39 114.56c11.81-28.85 37.29-50.74 63.47-69.56 14.81-10.63 30.46-20.81 48.31-25.9s38.41-4.44 53.78 5.46c6.55 4.22 11.87 9.89 16.65 15.84a149.16 149.16 0 0 1 24.77 44.6c-11.39.83-22.67-7.84-33.45-4.32-8.21 2.64-12.23 11.32-13.92 19.32s-2.17 16.59-7.07 23.32-16.56 10-22.16 3.73c-38-6.86-79.08 4.4-117-3.16-5.29-1.06-11.41-3.37-12.37-8.35" fill="#d63719"/><path d="m324.81 48.74c-10 8.64-24.62 10.9-39.33 16-29.42 10.1-40.35 42.88-66.66 57.24a56.44 56.44 0 0 1 -8.23 3.65c19-1 37.91-1.86 56.17 1.44 5.6 6.24 17.26 3 22.16-3.73s5.38-15.34 7.08-23.34 5.71-16.65 13.92-19.33c10.79-3.54 22.08 5.12 33.45 4.33a148.36 148.36 0 0 0 -18.56-36.26z" fill="#c03017"/><path d="m461.32 392.59c-.17-1.28-.79-5.76-1.69-9.77-1-4.29-4.6-18.52-18-35.11-10.51-13-21.28-20.32-33-28.17-27.15-18.21-43.83-21.35-44.17-31.9-.18-5.54 3.51-11.9 8.88-17.47 4.61-4.78 9.74-9.43 12.07-15.65 1.83-4.9-7.54-7.52-12.69-8.45a13.67 13.67 0 0 0 -7.36.29 8.67 8.67 0 0 0 -5.14 9.67c-1.83-3.29-6.83-4.57-10.6-4.57a10.86 10.86 0 0 0 -9.29 5.45c-2.27-2-8.24-1.51-10.87 0-3.18 1.84-5.77 5.12-5.78 8.79s3.29 7.32 6.93 6.81c2.62 1.53 5.25 2.68 7.87 4.21 7.22 4.21 8 13.67 6.63 21.91l.18.75c-3.47 10.38-11 18.77-17.84 27.35-12.85 16.25-23.61 34.63-28 54.89s-1.7 42.59 10.24 59.52c12.26 17.39 32.91 27.34 53.82 31.28 8.54 1.61 33.69 6.21 59.69-7.51 17.45-9.2 37.4-27.74 39.11-46.07a130.35 130.35 0 0 0 -.99-26.25z" fill="#d63719"/><path d="m461.32 392.59c-.17-1.28-.79-5.76-1.69-9.77-1-4.29-4.6-18.52-18-35.11-10.51-13-21.28-20.32-33-28.17-27.15-18.21-43.83-21.35-44.17-31.9-.18-5.54 3.51-11.9 8.88-17.47 4.61-4.78 9.74-9.43 12.07-15.65 1.83-4.9-7.54-7.52-12.69-8.45a13.67 13.67 0 0 0 -7.36.29 8.44 8.44 0 0 0 -4.51 4.42c2.45 8.41 1.16 16.58 0 25.39-.76 6-1.16 12.07 1 17.9 2.48 6.76 8.32 12 13.22 17.12 14.26 14.81 28.76 28.74 37.62 47.65a82.23 82.23 0 0 1 2 65.35c-8.42 21.75-23.53 37.88-42 49.65 11.88 1.35 31 1.41 50.58-8.92 17.45-9.2 37.4-27.74 39.11-46.07a130.35 130.35 0 0 0 -1.06-26.26z" fill="#c03017"/><path d="m347.43 293.62q-1.31 0-2.63-.11a4.15 4.15 0 1 1 .7-8.26 23.72 23.72 0 0 0 17.06-5.4 4.15 4.15 0 0 1 5.33 6.36 32 32 0 0 1 -20.46 7.41z" fill="#c03017"/><path d="m120.09 177.72.37.83a2.78 2.78 0 0 1 -.15-.38c-.07-.17-.13-.28-.22-.45z" fill="#d49f77"/><path d="m120.49 178.6-.06-.1a.12.12 0 0 1 .06.1z" fill="#d49f77"/><path d="m120.31 178.17a2.78 2.78 0 0 0 .15.38l.06.1c.1.16.01-.03-.21-.48z" fill="#d49f77"/><path d="m247.6 315.23c4-.57 16.08-3 16.08-3s84.77-39.77 92.88-24.88-92.56 60.09-94.05 57.65-14.91-29.77-14.91-29.77z" fill="#f7bf9a" fill-rule="evenodd"/><path d="m130.8 116.15c-1.39 2 0 2.95-1.13 11-.82 6-1.94 11.1-3.09 13.56-2.05 4.37-4.22 8.9-3.61 13.51s4.94 9.31 11.08 9.76c5 .37 9.55-2.06 13.77-4.14 21.9-10.83 87.2-23.24 123.07-5.43 10.73 5.33 21.4 14.56 25.41 12.44 1.85-1 1.18-3.8.73-6-4.54-22.5 4.84-27.08-3.13-37.45-7.16-9.3-20.12-13.11-24.13-13.85-10.19-1.9-20.86-1.4-31.34-.9-20.21 1-45.1 3.24-67.8 3.28-21.29 0-35.91-1.51-39.83 4.22z" fill="#f2f2f2"/><path d="m302.78 177.72-.37.83a3.19 3.19 0 0 0 .15-.38c.07-.17.13-.28.22-.45z" fill="#d49f77"/><path d="m302.38 178.6.06-.1s-.05.08-.06.1z" fill="#d49f77"/><path d="m302.56 178.17a3.19 3.19 0 0 1 -.15.38l-.06.1c-.1.16-.01-.03.21-.48z" fill="#d49f77"/><path d="m338.38 268.6c-2.46-9.14-22.13-23-22.13-23 27.4 7.11 17.57-8.8 17.57-8.8-4.92-9.81-27.75-17.26-27.75-17.26 30.21-3.39 11.93-15.24 11.93-15.24-17.57-9.48-42.86-7.78-42.86-7.78 14.4-5.75 15.81-15.23 15.81-15.23-1.41-6.09-13-6.77-13-6.77-1.64.08-3.19.24-4.67.45-.49.07-.93.18-1.41.26-.95.17-1.9.33-2.77.54-.54.13-1 .29-1.53.44-.75.21-1.5.42-2.2.67-.51.18-1 .38-1.46.58s-1.26.51-1.85.78-.9.46-1.34.69-1.06.57-1.56.87-.82.52-1.21.79-.89.61-1.31.92-.73.57-1.08.86-.74.63-1.08.95-.65.61-1 .92c-.14.14-.3.28-.44.42a26.16 26.16 0 0 0 -6.42 11.14c9.33 9.85-.9 16-3.55 17.08s-13 13.47-33.5 13.47-30.89-12.43-33.5-13.47-12.89-7.23-3.55-17.08a26.16 26.16 0 0 0 -6.42-11.14c-.13-.14-.3-.28-.44-.42q-.46-.46-1-.92c-.34-.32-.71-.63-1.08-.95s-.7-.58-1.08-.86-.86-.62-1.31-.92-.79-.53-1.21-.79-1-.59-1.56-.87-.87-.47-1.34-.69-1.22-.53-1.85-.78-1-.4-1.46-.58c-.7-.25-1.45-.46-2.2-.67-.51-.15-1-.31-1.53-.44-.88-.21-1.83-.38-2.77-.54-.48-.08-.92-.19-1.41-.26-1.48-.21-3-.37-4.67-.45 0 0-11.59.68-13 6.77 0 0 1.41 9.48 15.81 15.23 0 0-25.29-1.69-42.86 7.78 0 0-18.27 11.84 11.95 15.23 0 0-22.84 7.45-27.75 17.26 0 0-9.84 15.9 17.57 8.8 0 0-19.67 13.87-22.13 23 0 0-4.22 11.5 19-1.36 0 0-8.78 10.83-11.95 21s3 11.3 13.43 5.31c0 0-8.86 11.27-9.56 19.39s1.48 24.91 21.12-2.77c0 0-5.31 21.72-1.1 30.52 0 0 5.62 4.74 9.14 1.36s6.32-10.83 6-14.89c0 0 4.21 20.3 17.56 25.72 0 0 9.84 2.71 11.59-15.23 0 0 5.62 12.52 15.81 16.24s15.46-2 15.11-15.23c0 0 4.6 20.09 21.73 20.09s23.55-20.09 23.55-20.09c-.35 13.2 4.92 19 15.11 15.23s15.81-16.24 15.81-16.24c1.76 17.94 11.59 15.23 11.59 15.23 13.35-5.41 17.56-25.72 17.56-25.72-.35 4.06 2.46 11.5 6 14.89s9.14-1.36 9.14-1.36c4.21-8.8-1.1-30.52-1.1-30.52 19.64 27.68 21.82 10.89 21.12 2.77s-9.56-19.39-9.56-19.39c10.46 6 16.59 4.84 13.43-5.31s-11.95-21-11.95-21c23.24 12.87 19.02 1.37 19.02 1.37z" fill="#cfdde9"/><path d="m275.84 302.91c-16.25 12.63-39.32 22.13-69.61 22.23-42.54.14-66-13-77-29.19-15.62-22.89-6.28-51.82 9-57.48a55 55 0 0 1 6.32-1.95c21.22-5.08 29.79 8.56 61.66 13.41 0 0 50.41 8.6 74.31-5.48a46.06 46.06 0 0 1 4.77-2.47c29.17-12.86 27.55 32.16-9.45 60.93z" fill="#84575d"/><path d="m275.84 302.91c-16.25 12.63-39.32 22.13-69.61 22.23-42.54.14-66-13-77-29.19-.02 0 70.23-41.35 146.61 6.96z" fill="#ca6867"/><path d="m244.22 268.21c3.38.59 7.41-.47 10.82-.8 3.24-.31 7.84.13 10.21-2.58s.6-5.45 0-8.56c-.4-2.2.3-4.26.64-6.34a120 120 0 0 1 -25.41 2.6l-.4 8.38c-.08 3.2.31 6.62 4.14 7.3z" fill="#f2f2f2"/><path d="m190.09 322.71v-.08a35.12 35.12 0 0 0 -.79-14.14 4.64 4.64 0 0 0 -4.36-3.32l-11.71-.6c-3.1-.16-7.39-1.15-10.43-.12-4.58 1.55-5.4 7.86-5.39 12.79 8.83 3.53 19.54 6.07 32.39 7.21a4.87 4.87 0 0 0 .15-.54c.05-.41.05-.8.14-1.2z" fill="#f2f2f2"/><path d="m170.72 263.4a79.49 79.49 0 0 1 21.4 3.86 4.55 4.55 0 0 0 5.72-4.36l-.51-14.69c-13.12-3-21.82-7.37-29.89-10.15l-1.23 20.82c-.16 2.51 2.18 4.43 4.51 4.52z" fill="#f2f2f2"/><ellipse cx="146.64" cy="182.02" fill="#fff" rx="32.5" ry="32.49"/><circle cx="274.26" cy="181.24" fill="#fff" r="32.51"/><path d="m274.26 203.28a32.49 32.49 0 0 1 -32-27.27 32.51 32.51 0 1 0 64.1 0 32.5 32.5 0 0 1 -32.1 27.27z" fill="#f2f2f2"/><path d="m146.63 204a32.49 32.49 0 0 1 -32-27.27 32.51 32.51 0 1 0 64.1 0 32.5 32.5 0 0 1 -32.1 27.27z" fill="#f2f2f2"/><path d="m135 181.81a7.58 7.58 0 1 1 7.58 7.59 7.59 7.59 0 0 1 -7.58-7.59z" fill="#3e2945"/><path d="m266.81 183.28a7.59 7.59 0 1 1 7.58 7.59 7.59 7.59 0 0 1 -7.58-7.59z" fill="#3e2945"/><path d="m214.4 420.92 1.86-.66c1.23-1.17 2.64-2.39 4.19-3.63l6.66-8.85 9.78-2.44 3-1.82-4.41-5.36s-32.56-4.23-36.34-3.41.82 15.7 1.06 17.42 14.2 8.75 14.2 8.75z" fill="#f4f2f4"/><path d="m300.92 116.06c-4.24-3.4-9.58-4.18-15.29-3.42a6.58 6.58 0 0 0 -9.53-8 37.18 37.18 0 0 0 -10 8 6.91 6.91 0 0 0 -6-4c-11.59-1-19.67 15.44-21.55 24.69-.84 4.17 2.35 7.74 6.46 8.16a19.66 19.66 0 0 0 7.19-1.06c14.94-4.14 33.83-6.27 47.37-14 3.43-1.89 4.72-7.66 1.35-10.37z" fill="#d0dee9"/><path d="m120.92 117.45c4.24-3.4 9.58-4.18 15.29-3.42a6.58 6.58 0 0 1 9.53-8 37.18 37.18 0 0 1 10 8 6.91 6.91 0 0 1 6-4c11.59-1 19.67 15.44 21.55 24.69.84 4.17-2.35 7.74-6.46 8.16a19.66 19.66 0 0 1 -7.19-1.06c-14.94-4.14-33.83-6.27-47.37-14-3.4-1.88-4.72-7.66-1.35-10.37z" fill="#d0dee9"/><g fill="#3e2945"><path d="m188.43 383.54a.9.9 0 0 1 -.45-1q-.06-.66.69 0c.26.34-.06 1.38-.2 1.69a2.9 2.9 0 0 1 -2.25 1.66c-.93.16-.53 1.57.39 1.41a4.38 4.38 0 0 0 3.55-3.71c.18-1.38-.75-3.88-2.58-3-1.44.69-1.36 3.14-.27 4.1s3.15-.07 2.54-1.58c-.35-.86-1.76-.49-1.41.39z"/><path d="m178.24 377.33a4.64 4.64 0 0 0 1.44-4c-.15-1.05-.86-2.91-2.23-2.6s-1.09 1.93-.59 2.79a5 5 0 0 0 3.9 2.38c.93.11.93-1.36 0-1.46a3.53 3.53 0 0 1 -2-.88 3.06 3.06 0 0 1 -.64-.78c-.26-.51-.31-.75-.12 0a3.28 3.28 0 0 1 -.8 3.6c-.69.65.35 1.68 1 1z"/><path d="m179.36 356.68c-.21 1.35-.38 2.88.72 3.9a2 2 0 0 0 2.7.23 1.88 1.88 0 0 0 .29-2.33c-.74-1.09-2-.47-2.79.17s.31 1.63 1 1c-.63.52-.58-2.45-.55-2.62.15-.92-1.26-1.32-1.41-.39z"/><path d="m210.78 361.44c-.21 1.35-.38 2.88.72 3.9a2 2 0 0 0 2.7.23 1.88 1.88 0 0 0 .29-2.33c-.74-1.09-2-.47-2.79.17s.31 1.63 1 1c-.63.52-.58-2.45-.55-2.62.15-.92-1.26-1.32-1.41-.39z"/><path d="m276.08 360.67c-.21 1.35-.38 2.88.72 3.9a2 2 0 0 0 2.7.23 1.88 1.88 0 0 0 .29-2.33c-.74-1.09-2-.47-2.79.17s.31 1.63 1 1c-.63.52-.58-2.45-.55-2.62.15-.92-1.26-1.32-1.41-.39z"/><path d="m176.77 380.47c0 1.43.24 2.93 1.72 3.52a2.15 2.15 0 0 0 2.82-1.12 1.8 1.8 0 1 0 -3.36-1.25.73.73 0 0 0 1.41.39v.71a1 1 0 0 1 -.94-.72 3 3 0 0 1 -.21-1.52.73.73 0 0 0 -1.46 0z"/><path d="m190.12 362c0 1.43.24 2.93 1.72 3.52a2.15 2.15 0 0 0 2.82-1.12 1.8 1.8 0 1 0 -3.36-1.25.73.73 0 0 0 1.41.39v.71a1 1 0 0 1 -.94-.72 3 3 0 0 1 -.21-1.52.73.73 0 0 0 -1.46 0z"/><path d="m188.11 354.58c0 1.43.24 2.93 1.72 3.52a2.15 2.15 0 0 0 2.82-1.12 1.8 1.8 0 1 0 -3.36-1.25.73.73 0 0 0 1.41.39v.71a1 1 0 0 1 -.94-.72 3 3 0 0 1 -.21-1.52.73.73 0 0 0 -1.46 0z"/><path d="m182.27 368.83c.6-1.27 1-2.68 0-3.87a2.16 2.16 0 0 0 -3-.35c-2.14 1.69.77 4.62 2.39 2.67.6-.72-.43-1.76-1-1q.93-.6.85.5a3.71 3.71 0 0 1 -.46 1.35c-.4.85.86 1.59 1.26.74z"/><path d="m201.43 376.71c.6-1.27 1-2.68 0-3.87a2.16 2.16 0 0 0 -3-.35c-2.14 1.69.77 4.62 2.39 2.67.6-.72-.43-1.76-1-1q.93-.6.85.5a3.71 3.71 0 0 1 -.46 1.35c-.4.85.86 1.59 1.26.74z"/><path d="m173 374.1c.6-1.27 1-2.68 0-3.87a2.16 2.16 0 0 0 -3-.35c-2.14 1.69.77 4.62 2.39 2.67.6-.72-.43-1.76-1-1q.93-.6.85.5a3.71 3.71 0 0 1 -.46 1.35c-.4.85.86 1.59 1.26.74z"/><path d="m199.13 363.45c0 1.43.24 2.93 1.72 3.52a2.15 2.15 0 0 0 2.82-1.12 1.8 1.8 0 1 0 -3.36-1.25.73.73 0 0 0 1.41.39v.71a1 1 0 0 1 -.94-.72 3 3 0 0 1 -.21-1.52.73.73 0 0 0 -1.46 0z"/><path d="m266.41 365.16c0 1.43.24 2.93 1.72 3.52a2.15 2.15 0 0 0 2.82-1.12 1.8 1.8 0 1 0 -3.36-1.25.73.73 0 0 0 1.41.39v.71a1 1 0 0 1 -.94-.72 3 3 0 0 1 -.21-1.52.73.73 0 0 0 -1.46 0z"/><path d="m171.32 389.41c.22 1.47.62 3.08 2.1 3.75a2.14 2.14 0 0 0 2.91-.94 1.75 1.75 0 0 0 -.82-2.41c-1.36-.61-2.54.42-3.34 1.41-.59.73.44 1.77 1 1a5.52 5.52 0 0 1 .57-.67l.7-.46q-.06 1.31-.71.45c-.82-.49-.9-1.68-1-2.54s-1.55-.53-1.41.39z"/><path d="m168.8 365.64c.77-1.45 1.3-3.19.45-4.73-.49-.89-1.89-2.11-2.9-1.24s-.35 2.3.27 3.08a5.46 5.46 0 0 0 4.86 1.71c.94-.06.94-1.52 0-1.46s-3.62 0-3.94-1.5c-.2-.91.68.86.7 1a4.34 4.34 0 0 1 -.69 2.41c-.44.83.82 1.57 1.26.74z"/><path d="m159.28 370.24a2.54 2.54 0 0 1 -1 1.07q.17-1.16.51-.15c.58.84 0 1.64-.61 2.3s.4 1.74 1 1c1-1.16 1.84-2.84.84-4.3a2.08 2.08 0 0 0 -3.13-.54 1.8 1.8 0 0 0 .17 2.91c1.44.81 2.76-.45 3.46-1.59.49-.8-.77-1.54-1.26-.74z"/><path d="m188.78 370.8a2.54 2.54 0 0 1 -1 1.07q.17-1.16.51-.15c.58.84 0 1.64-.61 2.3s.4 1.74 1 1c1-1.16 1.84-2.84.84-4.3a2.08 2.08 0 0 0 -3.13-.54 1.8 1.8 0 0 0 .17 2.91c1.44.81 2.76-.45 3.46-1.59.49-.8-.77-1.54-1.26-.74z"/><path d="m166.3 383.58c1.4-1 2.63-2.59 2.18-4.46-.3-1.22-1.75-2.65-2.84-1.28-2.19 2.76 2 7 4.67 4.34.67-.66-.36-1.69-1-1-1.25 1.22-2.89-.41-2.64-1.83s.47.79.43 1a3.47 3.47 0 0 1 -1.51 2c-.75.56 0 1.83.74 1.26z"/><path d="m273.29 357.29-.06-.09-.11.89.11-.11-.71.19h.14l-.54-.71c0 .37-1.24.93-1.42 1a.89.89 0 0 1 -1.13-.21.83.83 0 0 1 -.43-.74l.58.18a3 3 0 0 1 .06 1.32 3.16 3.16 0 0 1 -.8 1.55c-.62.7.41 1.74 1 1 1.21-1.36 1.83-3.62.68-5.25a1.63 1.63 0 0 0 -2.94.53 2.52 2.52 0 0 0 2.1 3.08c1.3.18 3.84-.89 3.72-2.48a.75.75 0 0 0 -.54-.71.92.92 0 0 0 -1 .27.74.74 0 0 0 -.11.89l.06.09c.49.8 1.76.07 1.26-.74z"/><path d="m275 374q-.61 1-1.28-.11a2 2 0 0 1 .17-1.32c.61-1 1.3-.24 1.46.61.3 1.64-1 3.28-2.71 2.63-.88-.33-1.27 1.09-.39 1.41a3.44 3.44 0 0 0 4.54-2.81c.28-1.59-.67-4.63-2.85-3.89-1.66.57-2.25 3.29-1.21 4.6a2.11 2.11 0 0 0 3.68-.73c.18-.92-1.23-1.31-1.41-.39z"/></g><g opacity=".26"><path d="m176.18 221.94c2.61 1 13 13.47 33.5 13.47s30.89-12.43 33.5-13.47 16.55-8.16 7.39-17.94c.11.95-.67 3.23-2.09 5.06a14.69 14.69 0 0 1 -5.31 3.86c-2.61 1-13 13.47-33.5 13.47s-30.89-12.43-33.5-13.47a16.52 16.52 0 0 1 -4.42-2.85c-1.62-1.59-2.34-3.58-3.05-4.18-9.15 9.79 4.84 15 7.48 16.05z" fill="#543966"/></g><path d="m341.88 68.84a16.05 16.05 0 0 0 -9.74 27.51 11.18 11.18 0 0 0 -5.34 11.43c.89 4.4 5.22 7.94 9.7 7.59s8.27-4.89 7.51-9.31c.74 6.49 8.85 10.9 14.7 8s7.25-12 2.53-16.54c3.74 2.6 9.47.81 11.73-3.14s1.35-9.21-1.5-12.77-7.27-5.61-11.76-6.32c3-1.13 3.46-5.59 1.49-8.11s-5.37-3.42-8.56-3.67c-4.33-.34-9.69 1-10.75 5.24" fill="#d0dee9"/></g></g></svg>