<svg id="Capa_1" enable-background="new 0 0 512 512" height="512" viewBox="0 0 512 512" width="512" xmlns="http://www.w3.org/2000/svg"><g id="social_media"><g id="scared"><g opacity=".21"><ellipse cx="286.67" cy="456.37" fill="#3f3f44" rx="87.93" ry="8.68"/></g><path d="m321.35 421.39s-.82 31.19 8.45 32.88 30.56 5.89 34.11 0-3.12-19.3-22.8-22.72-19.76-10.16-19.76-10.16z" fill="#f7bf9a"/><path d="m334.48 454.47c3 .44 11-23 17.25-50.4h-41.12c13.82 15.22 11.22 48.55 23.87 50.4z" fill="#f7bf9a"/><path d="m251.86 422.14s.82 31.19-8.45 32.88-30.56 5.89-34.11 0 3.12-19.3 22.8-22.72 19.76-10.16 19.76-10.16z" fill="#f7bf9a"/><path d="m238.12 455.21c-3 .44-11-23-17.25-50.4h41.13c-13.82 15.19-11.23 48.55-23.88 50.4z" fill="#f7bf9a"/><g opacity=".63"><path d="m320.78 425.78 17.37-10.27 9.17 6.25 4-10.87-17.65-4.21-15.63 12.12z" fill="#f2a88f"/></g><g opacity=".63"><path d="m224.41 418.98 3.99-4.04 15.25 8.14 11.32-7.28 3.07-6.55h-34.59l-.8 3.21z" fill="#f2a88f"/></g><path d="m343.83 272.45-21.42-4.56h-72.83l-21.33 4.51c-13.08 3.86-22.49 20.82-22.49 40.52l3.57 67.08c22.84 27.19 129.73 26.14 150.86-3.7l6.12-63.3c0-19.7-9.41-36.66-22.48-40.52z" fill="#f7bf9a"/><path d="m360.19 376.32 6.12-63.32c0-19.7-9.41-36.66-22.48-40.52l-21.42-4.56h-72.83l-21.33 4.51 104.22 18.43-2.05 42.86z" fill="#fed9be"/><path clip-rule="evenodd" d="m195.4 271.51c-.62 3.9-3.18 15.58-3.18 15.58s-39.62 81.43-25.4 89.74 59.34-88.49 57-90-28.42-15.32-28.42-15.32z" fill="#f7bf9a" fill-rule="evenodd"/><path clip-rule="evenodd" d="m364.92 268.6c1.44 3.93 6.51 15.55 6.51 15.55s58.29 76.91 45 88.28-80.43-80.43-78.34-82.43 26.83-21.4 26.83-21.4z" fill="#fed9be" fill-rule="evenodd"/><ellipse cx="316.76" cy="298.683" fill="#f79820" rx="7.28" ry="5.52" transform="matrix(.79 -.613 .613 .79 -116.595 256.822)"/><path d="m278.41 388.55c-5.87-2.34-15.61-5.28-12.66-7.63 2.7-2.15 11.53-9.82 18-15.44 4.09-3.57 10.49-4.4 14.85-1.79 3.37 2 7.39 4.45 11 6.73 8.35 5.22 2.39 10.39 2.39 10.39l-4.3 2.11-14.28 4.37s-8.92 3.71-15 1.26z" fill="#90278e"/><path d="m238.36 363.54c-10.45 2.2-20.44 6-30.85 7.83 1 14 3.11 33.7 7.11 47.27l11.85-8.29 18.28 8.18 16.84-11.95 3.57 2.63-20.89-46.87c-1.97.4-3.94.79-5.91 1.2z" fill="#f88f1c"/><path d="m355.8 354.31c-.58-.44-1.13-.91-1.69-1.37-.409-.184-.756-.483-1-.86-6.959-5.902-12.122-13.638-14.9-22.33-5.6-17.1-5-35.5-8.8-53-.186-.767.059-1.576.64-2.11-.26-1.79-.51-3.57-.78-5.36-3.663-.874-7.406-1.373-11.17-1.49.067.451-.007.912-.21 1.32-1.36 2.68-2.66 5.39-4 8.09-2.33 14.28-2 31.13-9.93 42.6-.465.423-1.029.722-1.64.87-.09 0-.16.1-.25.14l60.3 46.19c.19-2 .34-3.81.46-5.58-3.097-1.483-5.582-3.997-7.03-7.11z" fill="#f9ac67"/><path d="m355.4 417.67-1.28.47 1.11.5z" fill="#f88f1c"/><path d="m302.09 320.83c-3.35 1.41-5.5 4.19-6.39 8.39-1.217 2.007-2.584 3.919-4.09 5.72-4.637 5.043-9.935 9.436-15.75 13.06.816.959.7 2.398-.258 3.214-.079.068-.164.13-.252.186-9.25 6.8-20.13 8.82-31.07 10.93l20.89 46.87 13.26 9.8 18-9.2 21.65 13.26 18.76-12.72 17.23 7.79 1.28-.47c.87-5.3 5.17-31.78 7-50.69z" fill="#f79c41"/><path d="m338.21 329.74c-1.213-3.794-2.181-7.662-2.9-11.58l-5.69 2.45c-4 1.72-5.68 5.13-3.76 7.58 1.93 2.45 7.83 4.45 13.12 4.45h.34c-.32-.94-.77-1.86-1.11-2.9z" fill="#90278e"/><path d="m348.94 348c-5.225 2.207-10.305 4.742-15.21 7.59-5.13 3-3.08 7.19-1.89 9.84s28.16 6.57 28.16 6.57.87-1 2.14-2.44c.39-3.8.69-7.34.87-10.44-5.21-2.997-9.95-6.744-14.07-11.12z" fill="#90278e"/><path d="m360.19 385.63-3.8-.05h-6.93c-6.63 0-13.1.12-17.22.12-7.1 0-9.32 5.68-10 9.94-.4 2.56 3.15 6.49 7.19 8.71 4.52 2.49 20.5 3.5 27.48 3.82.96-6.17 2.18-14.24 3.28-22.54z" fill="#90278e"/><path d="m278.85 414.38s5.5-.87 4.41-5.35c-.32-1.3-.51-2.61-.63-3.41-.32-2.1-1.78-3.6-5.08-4.75s-12-3.37-12-3.37-8.84-3-13.18-.49c-1 .57-2.65 1.6-3.46 2.19-5.44 3.93.94 10.51.94 10.51l6 1.19 5.77-4.3 12.75 9.2z" fill="#90278e"/><path d="m230.8 394.58c3.37-.13 8.44-2.43 9-9.36s-9-8.83-9-8.83l-23.07-2.27c.5 6.23 1.2 13.36 2.16 20.47 5.97.04 18.38.09 20.91-.01z" fill="#90278e"/><path d="m277.17 347.15c5.16.79 9.37 1.31 10.62 1.11 2.3-.36 2-5.83 1.25-10.67-3.632 3.57-7.608 6.772-11.87 9.56z" fill="#90278e"/><path d="m308.24 287.18c-2.778 3.964-5.937 7.648-9.43 11 2.745-.21 5.477-.578 8.18-1.1.52-3.25.9-6.59 1.25-9.9z" fill="#90278e"/><path d="m327.56 290.16c-4.74-2.031-9.69-3.53-14.76-4.47-.39 3.43-.75 6.92-1.22 10.37 1.52-.38 3.09-.82 4.72-1.35 12.41-4 11.26-4.55 11.26-4.55z" fill="#90278e"/><path d="m287.79 387.67 1.92-.68c1.27-1.21 2.72-2.46 4.32-3.74l6.86-9.12 10.11-2.53 3.08-1.87-4.55-5.52s-33.56-4.36-37.45-3.51.84 16.18 1.1 18 14.61 8.97 14.61 8.97z" fill="#90278e"/><path d="m150.5 136c1.89-19.15 34.19-34.85 34.19-34.85s-20.09 11.54-25.09 4.88 3.82-17.56 32.3-27.25c0 0-14.64-8.34-12.43-17.45s45.2 1.67 45.2 1.67-18.16-18.35-8.25-19.87 31 9 31 9-16.83-7.65-14.44-15.43 34.77 10.94 34.77 10.94-15.19-22.58-1.46-20.56c8.76 1.29 21.27 19.77 21.27 19.77s-12.84-30.65-.12-30.85 13.93 30.28 13.93 30.28 8.38-30.82 16.35-28.22-7.47 28.22-7.47 28.22 43.43-34.27 50.67-22-19 20.39-21.6 21.6 34.22-11.68 38.21-1-14.63 15.59-21.09 17.7c0 0 46.48-6.47 48.69 3.8s-24.79 10.17-30.07 9.87c0 0 38 12.12 36.52 20.12s-10.36 3.83-24.84.87c0 0 24.76 9.64 24.36 20.73s-26.8-.66-26.8-.66 23.74 7.13 27.12 17.89-29.42 20.8-29.42 20.8h-194.91s-38.48-.82-36.59-20z" fill="#3e2945"/><ellipse cx="287.82" cy="235.46" fill="#8e3d7c" rx="64.24" ry="34.23"/><ellipse cx="287.82" cy="228.03" fill="#d49f77" rx="64.24" ry="34.23"/><path d="m384 187.83c-6.18-30.34-9.84-65.91-31.68-91.8-46.42-55.09-132.76-27.28-155.63 27.29-12.88 31.63-34.35 95.67 13 110.9 57.94 18.47 188.31 22.66 174.31-46.39z" fill="#f7bf9a"/><path d="m243.27 123.31c11.19-26.69 37.56-47 67-54.29-44.65-12-96.65 13.76-113.64 54.29-12.88 31.63-34.35 95.67 13 110.9 26.71 8.52 68.8 14 105 10.68-21.91-1.75-42.8-5.69-58.43-10.68-47.29-15.21-25.81-79.27-12.93-110.9z" fill="#fed9be"/><path d="m184.07 131.34.4.89c-.067-.132-.124-.269-.17-.41-.07-.14-.13-.3-.23-.48z" fill="#d49f77"/><path d="m184.5 132.29v.05l-.07-.1c.028.008.053.026.07.05z" fill="#d49f77"/><path d="m184.31 131.82c.046.141.103.278.17.41l.07.1c.09.19-.01-.02-.24-.51z" fill="#d49f77"/><path d="m381.91 131.34-.4.89c.062-.133.115-.27.16-.41.07-.14.14-.3.24-.48z" fill="#d49f77"/><path d="m381.48 132.29v.05l.07-.1s-.07.03-.07.05z" fill="#d49f77"/><path d="m381.67 131.82c-.045.14-.098.277-.16.41l-.07.1c-.11.19-.01-.02.23-.51z" fill="#d49f77"/><path d="m420.46 229.75c-2.66-9.9-24-24.92-24-24.92 29.68 7.7 19-9.53 19-9.53-5.33-10.63-30.06-18.69-30.06-18.69 32.72-3.66 12.94-16.49 12.94-16.49-19-10.26-46.42-8.43-46.42-8.43 15.6-6.23 17.12-16.49 17.12-16.49-1.52-6.6-14.08-7.33-14.08-7.33-1.78.09-3.46.26-5.06.49-.53.08-1 .19-1.53.28-1 .18-2.05.36-3 .59-.58.14-1.11.32-1.66.48-.81.23-1.63.46-2.38.73-.55.2-1.06.42-1.58.63-.68.28-1.37.55-2 .85s-1 .5-1.45.75-1.15.62-1.69.94-.88.57-1.31.86-1 .66-1.42 1-.79.62-1.17.93-.8.68-1.17 1-.7.66-1 1c-.15.15-.33.3-.47.46-3.302 3.374-5.708 7.52-7 12.06 10.11 10.66-1 17.35-3.85 18.49s-13.93 14.59-36.22 14.59-33.45-13.46-36.27-14.58-14-7.83-3.85-18.49c-1.292-4.54-3.698-8.686-7-12.06-.15-.15-.32-.3-.47-.46-.327-.333-.66-.667-1-1-.37-.34-.77-.69-1.17-1s-.76-.63-1.17-.93-.93-.67-1.42-1-.86-.58-1.31-.86-1.11-.63-1.69-.94-.95-.51-1.45-.75-1.32-.57-2-.85c-.52-.21-1-.43-1.58-.63-.75-.27-1.57-.49-2.38-.73-.55-.16-1.08-.34-1.66-.48-1-.23-2-.41-3-.59-.52-.09-1-.21-1.53-.28-1.6-.23-3.28-.4-5.06-.49 0 0-12.55.73-14.08 7.33 0 0 1.52 10.26 17.12 16.49 0 0-27.39-1.83-46.42 8.43 0 0-19.78 12.83 12.94 16.49 0 0-24.73 8.06-30.06 18.69 0 0-10.65 17.22 19 9.53 0 0-21.31 15-24 24.92 0 0-4.56 12.46 20.54-1.47 0 0-9.51 11.73-12.94 22.72s3.21 12.24 14.54 5.75c0 0-9.59 12.2-10.36 21s1.6 27 22.87-3c0 0-5.75 23.52-1.19 33.05 0 0 6.09 5.13 9.89 1.47s6.85-11.73 6.47-16.12c0 0 4.56 22 19 27.85 0 0 10.65 2.94 12.55-16.49 0 0 6.09 13.56 17.12 17.59s16.74-2.2 16.36-16.49c0 0 5 21.76 23.54 21.76s25.51-21.76 25.51-21.76c-.38 14.29 5.33 20.52 16.36 16.49s17.12-17.59 17.12-17.59c2.13 19.42 12.74 16.48 12.74 16.48 14.46-5.86 19-27.85 19-27.85-.38 4.4 2.66 12.46 6.47 16.12s9.89-1.47 9.89-1.47c4.56-9.53-1.19-33.05-1.19-33.05 21.27 30 23.63 11.8 22.87 3s-10.36-21-10.36-21c11.33 6.49 18 5.24 14.54-5.75s-12.94-22.72-12.94-22.72c25.11 13.93 20.57 1.47 20.57 1.47z" fill="#3e2945"/><ellipse cx="212.81" cy="135.99" fill="#fff" rx="35.19" ry="35.19"/><circle cx="351.02" cy="135.15" fill="#fff" r="35.21"/><path d="m351 159c-17.24-.011-31.931-12.514-34.7-29.53-3.266 19.17 9.627 37.357 28.797 40.623s37.357-9.627 40.623-28.797c.667-3.914.667-7.912 0-11.825-2.774 17.02-17.474 29.523-34.72 29.529z" fill="#f2f2f2"/><path d="m212.81 159.84c-17.24-.011-31.931-12.514-34.7-29.53-3.265 19.17 9.628 37.357 28.797 40.623s37.357-9.628 40.623-28.797c.667-3.914.667-7.912 0-11.825-2.774 17.02-17.474 29.523-34.72 29.529z" fill="#f2f2f2"/><path d="m193.52 161.8c.006-4.534 3.686-8.206 8.22-8.2s8.206 3.686 8.2 8.22c-.006 4.53-3.68 8.2-8.21 8.2-4.536-.006-8.21-3.684-8.21-8.22z" fill="#3e2945"/><path d="m329.94 160.22c0-4.54 3.68-8.22 8.22-8.22s8.22 3.68 8.22 8.22-3.68 8.22-8.22 8.22c-.003 0-.007 0-.01 0-4.536-.006-8.21-3.684-8.21-8.22z" fill="#3e2945"/><path d="m397.43 78c-2-5.55-6.44-9.3-12.14-11.86 3.116-2.408 3.689-6.886 1.281-10.002-1.322-1.711-3.349-2.729-5.511-2.768-4.66-.26-9.329.291-13.8 1.63.344-2.781-.894-5.521-3.21-7.1-10.09-7.55-26.91 3-33.91 10.47-3.15 3.36-2.24 8.47 1.3 11.2 2.195 1.481 4.647 2.539 7.23 3.12 16.12 4.69 34.73 13.49 51.59 14.09 4.23.16 8.74-4.41 7.17-8.78z" fill="#543966"/><path d="m185.22 89.17c2.46-5.35 7.26-8.68 13.15-10.72-2.888-2.677-3.058-7.189-.381-10.076 1.471-1.587 3.583-2.419 5.741-2.264 4.667.168 9.269 1.145 13.6 2.89-.091-2.801 1.391-5.418 3.84-6.78 10.73-6.59 26.53 5.45 32.83 13.5 2.84 3.63 1.47 8.64-2.3 11-2.319 1.278-4.855 2.112-7.48 2.46-16.48 3.22-35.8 10.31-52.65 9.39-4.23-.19-8.31-5.15-6.35-9.4z" fill="#543966"/><g fill="#3e2945"><path d="m255.64 351.33c-.374-.211-.571-.638-.49-1.06-.047-.48.2-.48.74 0 .29.37-.07 1.49-.22 1.83-.451.979-1.372 1.658-2.44 1.8-1 .18-.58 1.7.42 1.53 2.008-.368 3.555-1.979 3.84-4 .19-1.49-.81-4.2-2.8-3.24-1.56.75-1.47 3.4-.29 4.44s3.41-.08 2.75-1.71c-.38-.93-1.91-.53-1.53.42z"/><path d="m244.59 344.6c1.208-1.115 1.792-2.752 1.56-4.38-.16-1.14-.93-3.15-2.42-2.81s-1.18 2.09-.64 3c.913 1.486 2.482 2.445 4.22 2.58 1 .11 1-1.47 0-1.58-.812-.093-1.572-.443-2.17-1-.275-.24-.508-.524-.69-.84-.29-.55-.33-.81-.13 0 .534 1.352.189 2.894-.87 3.89-.74.7.38 1.82 1.12 1.12z"/><path d="m245.81 322.24c-.23 1.46-.41 3.11.78 4.22.768.814 2.025.921 2.92.25.7-.657.835-1.719.32-2.53-.8-1.18-2.16-.51-3 .19s.34 1.76 1.12 1.12c-.68.56-.62-2.65-.59-2.84.16-1-1.37-1.43-1.53-.42z"/><path d="m279.84 327.4c-.23 1.46-.41 3.11.78 4.22.768.814 2.025.921 2.92.25.7-.657.835-1.719.32-2.53-.8-1.18-2.16-.51-3 .19s.34 1.76 1.12 1.12c-.68.56-.62-2.65-.59-2.84.16-1-1.37-1.43-1.53-.42z"/><path d="m350.55 326.57c-.23 1.46-.41 3.11.78 4.22.768.814 2.025.921 2.92.25.7-.657.835-1.719.32-2.53-.8-1.18-2.16-.51-3 .19s.34 1.76 1.12 1.12c-.68.56-.62-2.65-.59-2.84.16-1-1.37-1.43-1.53-.42z"/><path d="m243 348c0 1.55.26 3.17 1.87 3.82 1.182.508 2.552-.038 3.06-1.22 1.12-2.62-2.91-4-3.64-1.36-.116.422.132.859.555.975s.859-.133.975-.555v.77c-.477.012-.895-.315-1-.78-.22-.52-.299-1.089-.23-1.65 0-.436-.354-.79-.79-.79s-.79.354-.79.79z"/><path d="m257.46 328c0 1.55.26 3.17 1.87 3.82 1.182.508 2.552-.038 3.06-1.22 1.12-2.62-2.91-4-3.64-1.36-.116.422.133.859.555.975s.859-.133.975-.555v.77c-.477.012-.895-.315-1-.78-.237-.516-.334-1.085-.28-1.65-.002-.436-.357-.789-.793-.787-.434.002-.785.353-.787.787z"/><path d="m255.29 320c0 1.55.26 3.17 1.87 3.82 1.182.508 2.552-.038 3.06-1.22 1.12-2.62-2.91-4-3.64-1.36-.116.422.133.859.555.975s.859-.133.975-.555v.77c-.477.012-.895-.315-1-.78-.22-.52-.299-1.089-.23-1.65 0-.436-.354-.79-.79-.79s-.79.354-.79.79z"/><path d="m249 335.4c.65-1.37 1.11-2.9 0-4.19-.802-1.008-2.268-1.178-3.28-.38-2.32 1.83.83 5 2.58 2.89.65-.78-.47-1.91-1.12-1.12.667-.433.973-.25.92.55-.07.514-.24 1.01-.5 1.46-.44.92.93 1.72 1.37.8z"/><path d="m269.71 343.93c.65-1.37 1.11-2.9 0-4.19-.802-1.008-2.268-1.178-3.28-.38-2.32 1.83.83 5 2.58 2.89.65-.78-.47-1.91-1.12-1.12.667-.433.973-.25.92.55-.07.514-.24 1.01-.5 1.46-.44.92.93 1.72 1.37.8z"/><path d="m239 341.1c.65-1.37 1.11-2.9 0-4.19-.802-1.008-2.268-1.178-3.28-.38-2.32 1.83.83 5 2.58 2.89.65-.78-.47-1.91-1.12-1.12.667-.433.973-.25.92.55-.07.514-.24 1.01-.5 1.46-.44.92.93 1.72 1.37.8z"/><path d="m267.22 329.58c0 1.55.26 3.17 1.87 3.82 1.182.508 2.552-.038 3.06-1.22 1.12-2.62-2.91-4-3.64-1.36-.116.422.133.859.555.975s.859-.133.975-.555v.76c-.477.012-.895-.315-1-.78-.22-.52-.299-1.089-.23-1.65-.002-.436-.357-.789-.793-.787-.434.002-.785.353-.787.787z"/><path d="m340.08 331.43c0 1.55.26 3.17 1.87 3.82 1.187.497 2.552-.062 3.049-1.249 0 0 0-.001.001-.001 1.12-2.62-2.91-4-3.64-1.36-.116.422.133.859.555.975s.859-.133.975-.555v.77c-.477.012-.895-.315-1-.78-.22-.52-.299-1.089-.23-1.65-.002-.436-.357-.789-.793-.787-.434.002-.785.353-.787.787z"/><path d="m237.1 357.69c.24 1.59.67 3.33 2.27 4.06 1.133.598 2.537.164 3.134-.97.005-.01.01-.02.016-.03.488-.929.13-2.078-.799-2.565-.03-.016-.06-.031-.091-.045-1.47-.66-2.75.45-3.61 1.53-.63.79.48 1.91 1.12 1.12.187-.259.394-.504.62-.73l.76-.5c-.04.947-.297 1.11-.77.49-.88-.53-1-1.82-1.12-2.75s-1.68-.58-1.53.42z"/><path d="m234.38 331.95c.84-1.57 1.4-3.45.49-5.13-.53-1-2-2.28-3.14-1.35s-.38 2.49.29 3.33c1.27 1.61 3.32 2 5.26 1.85 1-.06 1-1.65 0-1.58s-3.92 0-4.27-1.62c-.21-1 .74.93.75 1.08.012.925-.249 1.833-.75 2.61-.48.9.89 1.7 1.37.8z"/><path d="m224.06 336.93c-.244.487-.627.891-1.1 1.16.12-.84.303-.893.55-.16.63.91 0 1.78-.66 2.49s.44 1.88 1.12 1.12c1.13-1.26 2-3.08.91-4.66-.63-1.071-2.009-1.429-3.08-.799-.109.064-.213.138-.31.219-.831.728-.915 1.991-.188 2.822.109.124.232.234.368.328 1.56.88 3-.48 3.75-1.72.53-.87-.83-1.67-1.37-.8z"/><path d="m256 337.53c-.244.487-.627.891-1.1 1.16.12-.84.303-.893.55-.16.63.91 0 1.78-.66 2.49s.44 1.88 1.12 1.12c1.13-1.26 2-3.08.91-4.66-.63-1.071-2.009-1.429-3.08-.799-.109.064-.213.138-.31.219-.831.728-.915 1.991-.188 2.822.109.124.232.234.368.328 1.56.88 3-.48 3.75-1.72.53-.87-.83-1.67-1.37-.8z"/><path d="m231.67 351.37c1.52-1.13 2.85-2.81 2.36-4.83-.32-1.32-1.9-2.87-3.07-1.39-2.37 3 2.16 7.53 5.05 4.7.73-.71-.39-1.83-1.12-1.12-1.36 1.33-3.13-.44-2.85-2s.51.85.47 1.06c-.252.905-.833 1.682-1.63 2.18-.81.6 0 2 .8 1.37z"/><path d="m347.53 322.9-.06-.1-.12 1 .12-.12-.77.2h.15l-.58-.76c0 .4-1.34 1-1.54 1.06-.413.221-.925.125-1.23-.23-.293-.159-.473-.467-.47-.8l.63.2c.131.465.155.954.07 1.43-.123.63-.421 1.212-.86 1.68-.68.76.44 1.88 1.12 1.12 1.31-1.48 2-3.92.74-5.68-.532-.813-1.623-1.041-2.437-.508-.383.251-.653.641-.753 1.088-.35 1.461.55 2.929 2.01 3.28.089.021.179.038.27.05 1.41.19 4.16-1 4-2.68-.007-.353-.242-.66-.58-.76-.363-.096-.749.02-1 .3-.268.265-.317.679-.12 1l.06.1c.54.87 1.91.07 1.37-.8z"/><path d="m349.36 341c-.44.707-.903.667-1.39-.12-.101-.484-.034-.989.19-1.43.67-1.12 1.41-.26 1.58.66.33 1.78-1.05 3.55-2.93 2.85-1-.36-1.37 1.18-.42 1.53 1.947.672 4.071-.361 4.743-2.309.078-.225.133-.456.167-.691.3-1.72-.72-5-3.08-4.21-1.8.61-2.43 3.56-1.31 5 .771.995 2.203 1.177 3.199.406.389-.302.67-.721.801-1.196.2-1-1.33-1.42-1.53-.42z"/></g><path d="m244.77 179.22c2.82 1.12 14 14.58 36.27 14.58s33.45-13.46 36.27-14.58 17.92-8.83 8-19.43c.12 1-.73 3.5-2.26 5.48-1.577 1.809-3.543 3.238-5.75 4.18-2.8 1.13-14.01 14.55-36.3 14.55s-33.45-13.46-36.27-14.58c-1.752-.767-3.369-1.811-4.79-3.09-1.75-1.73-2.53-3.88-3.31-4.52-9.86 10.63 5.28 16.28 8.14 17.41z" fill="#2a1d30" opacity=".22"/><path d="m228.8 215.68c11.71-7.13 31.58-19.33 60.82-19.42 37.18-.12 57.67 11.38 67.3 25.51 13.65 20 5.49 45.28-7.9 50.23-1.807.677-3.654 1.245-5.53 1.7-18.54 4.44-26-7.48-53.88-11.72-41.06-2-58.1.87-64.93 4.79-1.588.986-3.446 1.444-5.31 1.31-8.21-.86-16.08-15.95-14.26-27.73 1.73-11.14 11.83-17.45 23.69-24.67z" fill="#84575d"/><path d="m276.5 228.54c-26.047-.018-50.177 13.688-63.5 36.07 1.672 1.834 3.912 3.053 6.36 3.46 1.864.134 3.722-.324 5.31-1.31 6.83-3.92 23.87-6.81 64.93-4.79 27.85 4.23 35.33 16.16 53.88 11.72.31-.08.65-.18 1-.26-11.622-27.23-38.374-44.895-67.98-44.89z" fill="#ca6867"/><path d="m307.92 207c-.634 2.524.828 5.1 3.32 5.85 3.42 1.13 6.86 2.2 10.32 3.19 3 .86 6.86 2.62 10 1.5 2.95-1.05 3.65-3.35 4-6.2l.85-6.36c-8.57-3.911-17.701-6.448-27.06-7.52-.315.621-.489 1.304-.51 2-.064 2.537-.372 5.062-.92 7.54z" fill="#f2f2f2"/><path d="m242.76 216.31c3 1.42 6.55-.22 9.54-1 4.09-1.09 8.34-1.94 12.35-3.31 6.45-2.19 5.94-8.14 4.69-13.64-10.576 2.258-20.76 6.069-30.22 11.31.42 2.64 1 5.4 3.64 6.64z" fill="#f2f2f2"/><path d="m268.87 251.3c-2.48-4-9.69-2.8-13.66-3s-10.24-1.72-13.31 1.38c-2.82 2.84-1.91 8.83-1.7 12.87 10.05-1.104 20.163-1.522 30.27-1.25l-.32-3.07c-.22-2.12-.07-4.98-1.28-6.93z" fill="#f2f2f2"/><path d="m61.32 454.88s-22.9 5.44-22.83 13.77 12.29 29.72 38 18.71c24.51-10.47 37.51-24.14 48.44-20.36s7.11 17.52 3.26 19.94c0 0 5.9-18-5.83-16.11s-43 26.78-65.66 25.1-39-30.72-6.54-45.46c-.01-.02 9.38.12 11.16 4.41z" fill="#543966"/><path d="m122.65 366.34s-28.92-11.19-33.93 3.66 20.95 34.71 33.93-3.66z" fill="#2a1d30"/><path d="m137.23 433.91s5.28.63 4.78 2.8-6.3 1-6.3 1l-2.41-2.52z" fill="#543966"/><path d="m138.42 422.2s5.28.61 4.78 2.72-6.3 1-6.3 1l-2.41-2.44z" fill="#543966"/><path d="m44.28 447.61s-2-27.52 13-37.56 44.68-8.82 49.15-18 4.41-15.15 8.5-19.56c12.77-13.79 23.47-10 31.12-16.18 3.49-2.82 2.24 21.09-14.59 35.16-7.52 6.29-1.85 37.86-26.37 58.34-14.42 12-32.26 11.33-38.79 10.82s-22.99-3-22.02-13.02z" fill="#2a1d30"/><path d="m137.23 433.91s-6-2-9.15-11.78c-.64-2-1.27-18.18-1.27-18.18l-10.54 30.9 19.44 2.9z" fill="#2a1d30"/><path d="m116.09 369.35s-21.94-8-22 2.58c-.25 26.94 26.78 2.39 22-2.58z" fill="#543966"/><path d="m148.11 354.24s3.5 6.77-3.61 4.95 3.61-4.95 3.61-4.95z" fill="#543966"/><path d="m126.81 403.95s-4.16 9.43 6 15.84c1.18.75 5.37 3 5.37 3s.89 3.37.65 3.35-9.4-1.15-12.65-1.27-6.41-21.18.63-20.92z" fill="#2a1d30"/><circle cx="125.57" cy="368.98" fill="#f2f2f2" r="12.57"/><circle cx="125.57" cy="368.98" fill="#2a1d30" r="2.51"/><ellipse cx="89.86" cy="460.37" fill="#543966" rx="13.07" ry="3.5"/></g></g></svg>