<svg id="Capa_1" enable-background="new 0 0 512 512" height="512" viewBox="0 0 512 512" width="512" xmlns="http://www.w3.org/2000/svg"><g id="social_media"><g id="Angry"><path d="m133.65 323.08c.206-5.873 5.127-10.471 11-10.28l7.67.27c5.873.206 10.471 5.127 10.28 11-.206 5.873-5.127 10.471-11 10.28l-7.67-.27c-5.874-.206-10.475-5.125-10.29-11z" fill="#f7bf9a"/><path d="m127.08 30.73c10.39 10.23 17.23 21.86 23.2 33.81 2.825 6.023 5.345 12.184 7.55 18.46 2.113 6.24 3.943 12.573 5.49 19 1.44 6.48 2.72 13 3.78 19.58s1.76 13.25 2.38 19.93c.45 6.73.81 13.46.91 20.25s0 13.62-.16 20.42l-.57 20.39c-.26 6.79-.38 13.53-.44 20.23s-.07 13.37.06 20 .21 13.24.48 19.81c.42 13.16 1.09 26.21 1.38 39.29l.28 19.61v19.59c.073 6.5-5.137 11.829-11.637 11.902-5.097.057-9.652-3.173-11.283-8.002l-.06-.18-6.24-18.24-6.4-18.13-6.49-18c-2.18-6-4.55-11.95-6.82-17.91s-4.95-11.81-7.54-17.67-5.49-11.63-8.4-17.39-6.11-11.42-9.33-17.06l-9.9-16.79c-3.38-5.55-6.76-11.08-9.93-16.65s-6.35-11.11-9.3-16.7-5.73-11.28-8.26-16.96-5-11.36-7.3-17.11c-4.581-11.477-8.073-23.359-10.43-35.49-1.206-6.182-2.018-12.435-2.43-18.72-.562-6.621-.408-13.283.46-19.87l.35-2.39c4.136-27.978 30.17-47.306 58.149-43.17 10.743 1.588 20.703 6.551 28.441 14.17z" fill="#755026"/><g opacity=".38"><path d="m114.45 253.69c3.63 8.24 7.17 16.23 10 23.93 2.4 6.06 4.55 11.88 6.55 17.38-1.17-8.46-48.05-132-61.23-211.49-6.88-41.32 15.23-63.9 15.39-66.92-23.16 2.24-40.99 21.2-45.16 45.27-.644 4.704-.848 9.458-.61 14.2 0 2.19.25 4.65.4 7.18s.37 5.16.78 8c.791 6.268 1.947 12.486 3.46 18.62 1.803 7.243 3.986 14.387 6.54 21.4 2.81 7.44 6 15.23 9.69 23.18 7.25 15.95 16.8 32.53 27 49.17 4.91 8.37 10 16.74 14.57 25.15s8.8 16.73 12.62 24.93z" fill="#bc763c"/></g><g opacity=".21"><ellipse cx="291.7" cy="487.88" fill="#3f3f44" rx="82.27" ry="8.12"/></g><path d="m324.15 455.16s-.77 29.18 7.91 30.76 28.59 5.51 31.91 0-2.91-18.06-21.33-21.26-18.49-9.5-18.49-9.5z" fill="#f7bf9a"/><path d="m336.43 486.1c2.82.41 10.29-21.53 16.14-47.15h-38.47c12.9 14.24 10.49 45.43 22.33 47.15z" fill="#f7bf9a"/><path d="m259.13 455.85s.77 29.18-7.91 30.76-28.59 5.51-31.91 0 2.91-18.06 21.33-21.26 18.49-9.5 18.49-9.5z" fill="#f7bf9a"/><path d="m246.28 486.8c-2.82.41-10.29-21.53-16.14-47.15h38.47c-12.92 14.23-10.49 45.42-22.33 47.15z" fill="#f7bf9a"/><g opacity=".63"><path d="m323.61 459.26 16.25-9.61 8.58 5.85 3.74-10.17-16.51-3.93-14.62 11.33z" fill="#f2a88f"/></g><g opacity=".63"><path d="m233.45 452.9 3.73-3.78 14.27 7.62 10.59-6.82 2.87-6.13h-32.36l-.74 3.01z" fill="#f2a88f"/></g><path d="m345.17 315.81-20-4.27h-68.14l-20 4.22c-12.23 3.61-21 19.48-21 37.91l3.34 62.73c21.37 25.43 121.37 24.46 141.14-3.46l5.73-59.27c0-18.43-8.8-34.3-21-37.91z" fill="#f7bf9a"/><path d="m360.48 413 5.73-59.27c0-18.43-8.8-34.3-21-37.91l-20-4.27h-68.14l-20 4.22 97.47 17.23-1.92 40.1z" fill="#fed9be"/><path clip-rule="evenodd" d="m250.1 317.74c-3.64.6-14.77 1.79-14.77 1.79s-84-11-87.16 4.06 96.11 26.43 96.76 23.95 5.17-29.8 5.17-29.8z" fill="#f7bf9a" fill-rule="evenodd"/><path clip-rule="evenodd" d="m364.91 312.21c1.34 3.68 6.09 14.55 6.09 14.55s54.53 72 42.11 82.59-75.29-75.24-73.31-77.1 25.11-20.04 25.11-20.04z" fill="#fed9be" fill-rule="evenodd"/><ellipse cx="319.842" cy="340.355" fill="#f79820" rx="6.81" ry="5.16" transform="matrix(.79 -.613 .613 .79 -141.489 267.455)"/><path d="m284 424.44c-5.49-2.18-14.6-4.94-11.85-7.14 2.52-2 10.78-9.18 16.82-14.44 3.82-3.34 9.82-4.11 13.89-1.68 3.16 1.89 6.92 4.16 10.32 6.3 7.81 4.89 2.24 9.72 2.24 9.72l-4 2-13.42 4.05s-8.34 3.45-14 1.19z" fill="#90278e"/><path d="m246.5 401c-9.77 2.06-19.13 5.65-28.86 7.33 1 13.08 2.91 31.53 6.66 44.23l11.08-7.76 17.11 7.66 15.76-11.18 3.34 2.46-19.59-43.81c-1.81.36-3.66.72-5.5 1.07z" fill="#f88f1c"/><path d="m356.37 392.4c-.54-.41-1.06-.85-1.58-1.28-.382-.175-.704-.456-.93-.81-6.511-5.521-11.341-12.759-13.94-20.89-5.24-16-4.64-33.21-8.24-49.55-.191-.726.04-1.499.6-2-.24-1.67-.48-3.34-.73-5-3.427-.816-6.929-1.282-10.45-1.39.063.424-.007.857-.2 1.24-1.27 2.51-2.49 5-3.72 7.57-2.18 13.36-1.85 29.12-9.29 39.85-.437.395-.967.674-1.54.81-.09 0-.15.09-.23.13l56.39 43.18c.17-1.83.32-3.56.43-5.22-2.893-1.386-5.215-3.733-6.57-6.64z" fill="#f9ac67"/><path d="m356 451.68-1.19.44 1 .47z" fill="#f88f1c"/><path d="m306.13 361.08c-3.14 1.31-5.14 3.92-6 7.85-1.14 1.878-2.42 3.666-3.83 5.35-4.338 4.727-9.297 8.844-14.74 12.24.763.895.656 2.24-.24 3.003-.076.065-.156.124-.24.177-8.66 6.36-18.83 8.25-29.07 10.23l19.54 43.85 12.45 9.16 16.88-8.61 20.26 12.41 17.56-11.9 16.12 7.28 1.19-.44c.82-5 4.84-29.73 6.52-47.42z" fill="#f79c41"/><path d="m339.92 369.41c-1.134-3.552-2.039-7.173-2.71-10.84l-5.32 2.3c-3.74 1.61-5.32 4.8-3.51 7.09 1.8 2.29 7.33 4.16 12.28 4.16h.34c-.36-.87-.76-1.74-1.08-2.71z" fill="#90278e"/><path d="m350 386.52c-4.888 2.064-9.641 4.436-14.23 7.1-4.8 2.84-2.88 6.72-1.76 9.2s26.32 6.09 26.32 6.09.82-.91 2-2.28c.37-3.56.64-6.86.81-9.77-4.861-2.786-9.288-6.27-13.14-10.34z" fill="#90278e"/><path d="m360.48 421.7-3.56-.05h-6.49c-6.2 0-12.26.11-16.11.11-6.64 0-8.72 5.31-9.34 9.3-.37 2.39 2.95 6.07 6.72 8.15 4.23 2.33 19.18 3.27 25.71 3.57.9-5.78 2.04-13.32 3.07-21.08z" fill="#90278e"/><path d="m284.38 448.6s5.15-.81 4.12-5c-.3-1.21-.48-2.44-.59-3.19-.3-2-1.66-3.37-4.76-4.44s-11.26-3.15-11.26-3.15-8.27-2.77-12.33-.46c-.93.53-2.48 1.5-3.24 2-5.09 3.68.88 9.83.88 9.83l5.63 1.12 5.4-4 11.93 8.61z" fill="#90278e"/><path d="m239.43 430.07c3.15-.12 7.9-2.28 8.41-8.75s-8.42-8.26-8.42-8.26l-21.59-2.12c.47 5.83 1.12 12.5 2 19.15 5.62.03 17.23.07 19.6-.02z" fill="#90278e"/><path d="m282.81 385.7c4.83.74 8.77 1.22 9.94 1 2.15-.33 1.83-5.45 1.17-10-3.397 3.36-7.119 6.374-11.11 9z" fill="#90278e"/><path d="m311.88 329.59c-2.599 3.708-5.553 7.155-8.82 10.29 2.567-.187 5.121-.521 7.65-1 .49-3.07.84-6.19 1.17-9.29z" fill="#90278e"/><path d="m330 332.38c-4.435-1.9-9.066-3.301-13.81-4.18-.37 3.21-.7 6.47-1.14 9.7 1.42-.36 2.89-.77 4.42-1.26 11.53-3.75 10.53-4.26 10.53-4.26z" fill="#90278e"/><path d="m292.75 423.61 1.79-.64c1.19-1.13 2.55-2.3 4-3.5l6.42-8.53 9.43-2.35 2.88-1.75-4.25-5.17s-31.4-4.08-35-3.29.79 15.14 1 16.8 13.73 8.43 13.73 8.43z" fill="#90278e"/><path d="m164.31 188.18c1.77-17.91 32-32.6 32-32.6s-18.8 10.79-23.47 4.56 3.57-16.43 30.22-25.49c0 0-13.7-7.8-11.63-16.32s42.27 1.57 42.27 1.57-17-17.17-7.72-18.59 29 8.46 29 8.46-15.75-7.16-13.51-14.43 32.53 10.23 32.53 10.23-14.21-21.13-1.37-19.24c8.19 1.21 19.9 18.5 19.9 18.5s-12-28.76-.07-28.94 13 28.33 13 28.33 7.84-28.83 15.3-26.4-7 26.4-7 26.4 40.63-32.06 47.4-20.59-17.73 19.07-20.16 20.2 32-10.93 35.75-1-13.75 14.66-19.75 16.64c0 0 43.49-6.05 45.55 3.55s-23.19 9.52-28.14 9.23c0 0 35.54 11.34 34.17 18.83s-9.69 3.59-23.24.82c0 0 23.16 9 22.79 19.39s-25.08-.62-25.08-.62 22.21 6.67 25.37 16.74-27.5 19.42-27.5 19.42h-182.38s-36-.73-34.23-18.65z" fill="#3e2945"/><ellipse cx="292.78" cy="281.2" fill="#8e3d7c" rx="60.1" ry="32.02"/><ellipse cx="292.78" cy="274.26" fill="#d49f77" rx="60.1" ry="32.02"/><path d="m382.72 236.64c-5.78-28.38-9.21-61.66-29.64-85.88-43.43-51.54-124.21-25.52-145.61 25.53-12.05 29.59-32.14 89.51 12.19 103.75 54.23 17.29 176.21 21.21 163.06-43.4z" fill="#f7bf9a"/><path d="m251.09 176.28c10.47-25 35.14-43.95 62.7-50.79-41.78-11.23-90.43 12.87-106.32 50.79-12.05 29.59-32.14 89.5 12.19 103.75 25 8 64.37 13.1 98.28 10-20.5-1.64-40-5.33-54.66-10-44.28-14.25-24.28-74.16-12.19-103.75z" fill="#fed9be"/><path d="m195.71 183.79.38.84c-.063-.126-.117-.256-.16-.39-.07-.13-.13-.24-.22-.45z" fill="#d49f77"/><path d="m196.11 184.68-.06-.1c.036.021.059.059.06.1z" fill="#d49f77"/><path d="m195.93 184.24c.043.134.097.264.16.39l.06.1c.1.17 0-.03-.22-.49z" fill="#d49f77"/><path d="m380.8 183.79-.37.84c.058-.127.108-.257.15-.39.07-.13.13-.24.22-.45z" fill="#d49f77"/><path d="m380.4 184.68.06-.1s-.05.08-.06.1z" fill="#d49f77"/><path d="m380.58 184.24c-.042.133-.092.263-.15.39l-.06.1c-.11.17-.01-.03.21-.49z" fill="#d49f77"/><path d="m416.87 275.87c-2.49-9.26-22.42-23.32-22.42-23.32 27.76 7.2 17.8-8.91 17.8-8.91-5-9.94-28.12-17.49-28.12-17.49 30.61-3.43 12.1-15.43 12.1-15.43-17.8-9.6-43.43-7.88-43.43-7.88 14.59-5.83 16-15.43 16-15.43-1.42-6.17-13.17-6.86-13.17-6.86-1.66.08-3.23.24-4.73.46-.5.07-.95.18-1.43.27-1 .17-1.92.33-2.81.55-.54.13-1 .3-1.55.45-.76.22-1.52.43-2.23.68-.52.18-1 .39-1.48.59s-1.28.51-1.87.8-.91.47-1.36.7-1.08.58-1.58.88-.83.53-1.23.8-.91.62-1.33.94-.74.58-1.09.87-.75.64-1.1 1-.66.62-1 .93c-.14.14-.31.28-.44.43-3.03 3.163-5.229 7.029-6.4 11.25 9.46 10-.91 16.23-3.6 17.3s-13.13 13.64-33.94 13.64-31.3-12.6-33.94-13.64-13.05-7.33-3.6-17.3c-1.196-4.247-3.434-8.127-6.51-11.29-.14-.14-.3-.29-.44-.43-.307-.313-.64-.623-1-.93-.35-.32-.72-.64-1.1-1s-.71-.59-1.09-.87-.87-.63-1.33-.94-.8-.54-1.23-.8-1-.59-1.58-.88-.88-.48-1.36-.7-1.23-.54-1.87-.8-1-.41-1.48-.59c-.71-.25-1.47-.46-2.23-.68-.52-.15-1-.31-1.55-.45-.89-.22-1.85-.38-2.81-.55-.48-.08-.93-.19-1.43-.27-1.5-.21-3.07-.37-4.73-.46 0 0-11.74.69-13.17 6.86 0 0 1.42 9.6 16 15.43 0 0-25.63-1.72-43.43 7.88 0 0-18.51 12 12.1 15.43 0 0-23.14 7.54-28.12 17.49 0 0-10 16.11 17.8 8.91 0 0-19.93 14.06-22.42 23.32 0 0-4.27 11.65 19.22-1.37 0 0-8.9 11-12.1 21.26s3 11.45 13.61 5.38c0 0-9 11.42-9.69 19.65s1.5 25.24 21.4-2.81c0 0-5.38 22-1.11 30.92 0 0 5.7 4.8 9.26 1.37s6.41-11 6.05-15.08c0 0 4.27 20.57 17.79 26.05 0 0 10 2.75 11.74-15.43 0 0 5.7 12.68 16 16.46s15.66-2.06 15.31-15.43c0 0 4.66 20.35 22 20.35s23.86-20.35 23.86-20.35c-.35 13.37 5 19.2 15.31 15.43s16-16.46 16-16.46c1.78 18.17 11.74 15.43 11.74 15.43 13.52-5.49 17.79-26.05 17.79-26.05-.36 4.11 2.49 11.65 6.05 15.08s9.26-1.37 9.26-1.37c4.27-8.91-1.11-30.92-1.11-30.92 19.9 28 22.11 11 21.4 2.81s-9.69-19.65-9.69-19.65c10.6 6.07 16.81 4.9 13.61-5.38s-12.1-21.26-12.1-21.26c23.6 13.06 19.33 1.41 19.33 1.41z" fill="#3e2945"/><ellipse cx="222.6" cy="188.15" fill="#fff" rx="32.93" ry="32.92"/><circle cx="351.91" cy="187.36" fill="#fff" r="32.94"/><path d="m351.9 209.68c-16.131-.011-29.878-11.709-32.47-27.63-3.062 17.933 8.993 34.952 26.925 38.015s34.952-8.993 38.015-26.925c.627-3.67.627-7.419 0-11.089-2.592 15.92-16.339 27.618-32.47 27.629z" fill="#f2f2f2"/><path d="m222.6 210.46c-16.131-.011-29.878-11.709-32.47-27.63-3.062 17.933 8.993 34.952 26.925 38.015s34.952-8.993 38.015-26.925c.627-3.67.627-7.419 0-11.089-2.592 15.92-16.339 27.618-32.47 27.629z" fill="#f2f2f2"/><path d="m213.44 200.43c.006-4.242 3.448-7.676 7.69-7.67s7.676 3.448 7.67 7.69c-.006 4.238-3.442 7.67-7.68 7.67-4.243-.006-7.68-3.447-7.68-7.69z" fill="#3e2945"/><path d="m344 201.92c0-4.247 3.443-7.69 7.69-7.69s7.69 3.443 7.69 7.69-3.443 7.69-7.69 7.69c-.003 0-.007 0-.01 0-4.243-.006-7.68-3.447-7.68-7.69z" fill="#3e2945"/><path d="m378.91 156.9c-4.3-3.45-9.7-4.23-15.49-3.47 1.295-3.449-.451-7.294-3.899-8.589-1.895-.712-4.011-.524-5.751.509-3.832 2.097-7.27 4.845-10.16 8.12-1.087-2.367-3.398-3.935-6-4.07-11.74-1-19.93 15.64-21.83 25-.85 4.22 2.39 7.84 6.54 8.27 2.475.1 4.948-.263 7.29-1.07 15.14-4.2 34.27-6.35 48-14.17 3.39-1.94 4.72-7.79 1.3-10.53z" fill="#543966"/><path d="m196.55 153.64c4.3-3.45 9.7-4.23 15.49-3.47-1.295-3.449.451-7.294 3.899-8.589 1.895-.712 4.011-.524 5.751.509 3.832 2.097 7.27 4.845 10.16 8.12 1.087-2.367 3.398-3.935 6-4.07 11.74-1 19.93 15.64 21.83 25 .85 4.22-2.39 7.84-6.54 8.27-2.475.1-4.948-.263-7.29-1.07-15.14-4.2-34.27-6.35-48-14.17-3.38-1.94-4.71-7.79-1.3-10.53z" fill="#543966"/><g fill="#3e2945"><path d="m262.66 389.61c-.36-.192-.548-.601-.46-1-.047-.447.187-.447.7 0 .27.35-.06 1.4-.21 1.72-.422.913-1.283 1.547-2.28 1.68-.94.16-.54 1.59.39 1.43 1.886-.345 3.338-1.861 3.6-3.76.18-1.4-.76-3.93-2.62-3-1.46.7-1.37 3.19-.27 4.15s3.19-.07 2.58-1.6c-.35-.87-1.79-.49-1.43.39z"/><path d="m252.33 383.32c1.128-1.045 1.674-2.577 1.46-4.1-.15-1.07-.87-2.95-2.26-2.63s-1.11 2-.6 2.83c.866 1.402 2.356 2.3 4 2.41.95.11.94-1.38 0-1.48-.743-.081-1.443-.392-2-.89-.259-.226-.479-.492-.65-.79-.27-.52-.31-.76-.12 0 .501 1.265.18 2.707-.81 3.64-.7.65.35 1.7 1 1z"/><path d="m253.47 362.4c-.22 1.37-.39 2.91.73 3.95.718.767 1.899.871 2.74.24.641-.619.766-1.6.3-2.36-.75-1.1-2-.48-2.83.18s.32 1.65 1 1c-.64.52-.58-2.48-.56-2.66.15-.93-1.28-1.34-1.43-.39z"/><path d="m285.31 367.22c-.22 1.37-.39 2.91.73 3.95.718.767 1.899.871 2.74.24.641-.619.766-1.6.3-2.36-.75-1.1-2-.48-2.83.18s.32 1.65 1 1c-.64.52-.58-2.48-.56-2.66.15-.93-1.28-1.34-1.43-.39z"/><path d="m351.47 366.44c-.22 1.37-.39 2.91.73 3.95.718.767 1.899.871 2.74.24.641-.619.766-1.6.3-2.36-.75-1.1-2-.48-2.83.18s.32 1.65 1 1c-.64.52-.58-2.48-.56-2.66.15-.93-1.28-1.34-1.43-.39z"/><path d="m250.85 386.5c0 1.45.24 3 1.75 3.57 1.105.473 2.384-.037 2.86-1.14.422-.912.025-1.994-.887-2.416s-1.994-.025-2.416.887c-.039.084-.071.171-.097.26-.108.395.125.802.52.91s.802-.125.91-.52v.72c-.444-.006-.83-.303-.95-.73-.204-.486-.277-1.017-.21-1.54-.001-.409-.333-.739-.742-.738-.407 0-.737.33-.738.737z"/><path d="m264.38 367.75c0 1.45.24 3 1.75 3.57 1.105.473 2.384-.037 2.86-1.14.422-.912.025-1.994-.887-2.416s-1.994-.025-2.416.887c-.039.084-.071.171-.097.26-.108.395.125.802.52.91s.802-.125.91-.52v.7c-.444-.006-.83-.303-.95-.73-.204-.486-.276-1.017-.21-1.54 0-.409-.331-.74-.74-.74s-.74.331-.74.74z"/><path d="m262.34 360.26c0 1.45.24 3 1.75 3.57 1.105.473 2.384-.037 2.86-1.14.422-.912.025-1.994-.887-2.416s-1.994-.025-2.416.887c-.039.084-.071.171-.097.26-.108.395.125.802.52.91s.802-.125.91-.52v.72c-.444-.006-.83-.303-.95-.73-.204-.486-.276-1.017-.21-1.54 0-.409-.331-.74-.74-.74-.409-.001-.74.33-.74.739z"/><path d="m256.42 374.7c.61-1.28 1-2.71 0-3.92-.75-.945-2.122-1.106-3.07-.36-2.17 1.72.78 4.68 2.42 2.71.61-.73-.44-1.78-1-1 .627-.407.913-.237.86.51-.064.479-.221.941-.46 1.36-.41.86.87 1.61 1.28.75z"/><path d="m275.83 382.69c.61-1.28 1-2.71 0-3.92-.75-.945-2.122-1.106-3.07-.36-2.17 1.72.78 4.68 2.42 2.71.61-.73-.44-1.78-1-1 .627-.407.913-.237.86.51-.064.479-.22.941-.46 1.36-.41.86.87 1.61 1.28.75z"/><path d="m247.08 380c.61-1.28 1-2.71 0-3.92-.75-.945-2.122-1.106-3.07-.36-2.17 1.72.78 4.68 2.42 2.71.61-.73-.44-1.78-1-1 .627-.407.913-.237.86.51-.064.479-.221.941-.46 1.36-.41.86.87 1.61 1.28.75z"/><path d="m273.5 369.26c0 1.45.24 3 1.75 3.57 1.105.473 2.384-.037 2.86-1.14.422-.912.025-1.994-.887-2.416s-1.994-.025-2.416.887c-.039.084-.071.171-.097.26-.108.395.125.802.52.91s.802-.125.91-.52v.72c-.444-.006-.83-.303-.95-.73-.204-.486-.276-1.017-.21-1.54 0-.409-.331-.74-.74-.74-.409-.001-.74.33-.74.739z"/><path d="m341.66 371c0 1.45.24 3 1.75 3.57 1.105.473 2.384-.037 2.86-1.14.422-.912.025-1.994-.887-2.416s-1.994-.025-2.416.887c-.039.084-.071.171-.097.26-.108.395.125.802.52.91s.802-.125.91-.52v.72c-.444-.006-.83-.303-.95-.73-.204-.486-.276-1.017-.21-1.54 0-.409-.331-.74-.74-.74-.409-.001-.74.33-.74.739z"/><path d="m245.32 395.56c.22 1.49.63 3.12 2.13 3.79 1.066.547 2.374.125 2.921-.941.01-.019.02-.039.029-.059.456-.865.125-1.935-.74-2.391-.033-.017-.066-.034-.1-.049-1.37-.61-2.57.43-3.38 1.43-.59.74.45 1.79 1 1 .175-.242.369-.469.58-.68l.71-.47c-.04.88-.28 1.033-.72.46-.83-.5-.92-1.7-1-2.57s-1.57-.54-1.43.39z"/><path d="m242.78 371.47c.78-1.47 1.31-3.23.46-4.8-.5-.9-1.91-2.14-2.94-1.26s-.35 2.33.27 3.12c1.248 1.362 3.094 2.011 4.92 1.73.95-.06 1-1.54 0-1.48s-3.67 0-4-1.52c-.2-.92.69.87.71 1 .013.868-.23 1.72-.7 2.45-.45.84.83 1.59 1.28.75z"/><path d="m233.12 376.14c-.221.45-.569.825-1 1.08.113-.787.287-.837.52-.15.59.85 0 1.66-.62 2.33s.41 1.76 1 1c1.06-1.18 1.87-2.88.85-4.36-.583-1.003-1.868-1.343-2.871-.761-.106.061-.206.132-.299.211-.781.633-.901 1.779-.268 2.56.124.153.272.285.438.39 1.46.82 2.79-.45 3.5-1.61.5-.82-.78-1.56-1.28-.75z"/><path d="m263 376.7c-.221.45-.569.825-1 1.08.113-.787.287-.837.52-.15.59.85 0 1.66-.62 2.33s.41 1.76 1 1c1.06-1.18 1.87-2.88.85-4.36-.583-1.003-1.868-1.343-2.871-.761-.106.061-.206.132-.299.211-.781.633-.901 1.779-.268 2.56.124.153.272.285.438.39 1.46.82 2.79-.45 3.5-1.61.5-.82-.78-1.56-1.28-.75z"/><path d="m240.24 389.64c1.42-1.06 2.67-2.63 2.21-4.51-.3-1.24-1.78-2.69-2.87-1.3-2.22 2.8 2 7 4.73 4.4.68-.67-.37-1.72-1-1-1.27 1.24-2.93-.41-2.67-1.85s.47.8.44 1c-.245.833-.79 1.546-1.53 2-.76.56 0 1.85.75 1.28z"/><path d="m348.64 363-.06-.09-.12.9.11-.11-.72.19h.14l-.54-.71c0 .37-1.25.95-1.44 1-.383.222-.87.133-1.15-.21-.275-.149-.444-.438-.44-.75l.59.18c.119.433.14.888.06 1.33-.116.593-.396 1.14-.81 1.58-.63.71.41 1.76 1 1 1.23-1.38 1.85-3.67.69-5.32-.493-.767-1.514-.989-2.28-.496-.368.236-.627.609-.72 1.036-.328 1.37.516 2.746 1.886 3.074.081.019.162.035.244.046 1.32.18 3.9-.9 3.77-2.51-.008-.329-.225-.615-.54-.71-.359-.119-.755-.008-1 .28-.238.239-.287.607-.12.9l.06.09c.5.81 1.78.07 1.28-.75z"/><path d="m350.35 380c-.413.667-.847.63-1.3-.11-.097-.454-.034-.928.18-1.34.62-1.05 1.32-.24 1.47.62.31 1.66-1 3.32-2.74 2.66-.9-.33-1.28 1.1-.39 1.43 1.822.629 3.809-.338 4.438-2.16.077-.224.132-.455.162-.69.29-1.61-.68-4.69-2.88-3.94-1.68.57-2.28 3.33-1.23 4.66.736.924 2.083 1.077 3.007.341.347-.277.6-.654.723-1.081.19-.93-1.24-1.33-1.43-.39z"/></g><path d="m252.5 228.59c2.64 1 13.13 13.64 33.94 13.64s31.3-12.6 33.94-13.64 16.76-8.26 7.49-18.17c.11 1-.68 3.27-2.11 5.13-1.475 1.693-3.315 3.029-5.38 3.91-2.64 1-13.13 13.64-33.94 13.64s-31.3-12.6-33.94-13.64c-1.638-.718-3.151-1.693-4.48-2.89-1.64-1.61-2.37-3.63-3.09-4.23-9.28 9.9 4.9 15.19 7.57 16.25z" fill="#2a1d30" opacity=".22"/><path d="m237.56 262.7c11-6.67 29.55-18.08 56.91-18.17 34.78-.11 54 10.65 63 23.86 12.77 18.72 5.13 42.37-7.39 47-1.69.633-3.416 1.164-5.17 1.59-17.35 4.15-24.35-7-50.41-11-38.42-1.89-54.36.81-60.75 4.48-1.495.927-3.246 1.354-5 1.22-7.68-.8-15-14.92-13.34-25.94 1.59-10.38 11.05-16.28 22.15-23.04z" fill="#84575d"/><path d="m282.19 274.73c-24.363-.01-46.93 12.814-59.39 33.75 1.564 1.717 3.659 2.858 5.95 3.24 1.754.134 3.505-.293 5-1.22 6.39-3.67 22.33-6.37 60.75-4.48 26.05 4 33.06 15.12 50.41 11 .29-.07.61-.17.91-.25-10.865-25.502-35.91-42.049-63.63-42.04z" fill="#ca6867"/><path d="m311.58 254.57c-.589 2.361.78 4.769 3.11 5.47 3.2 1.05 6.42 2.06 9.66 3 2.83.81 6.42 2.45 9.33 1.4 2.76-1 3.41-3.14 3.77-5.8l.8-6c-8.018-3.646-16.559-6.008-25.31-7-.292.575-.456 1.206-.48 1.85-.065 2.383-.359 4.754-.88 7.08z" fill="#f2f2f2"/><path d="m250.62 263.29c2.83 1.33 6.13-.2 8.92-.94 3.83-1 7.81-1.82 11.55-3.09 6-2.05 5.56-7.62 4.39-12.76-9.894 2.112-19.42 5.678-28.27 10.58.39 2.47.94 5.05 3.41 6.21z" fill="#f2f2f2"/><path d="m275.05 296c-2.32-3.74-9.07-2.62-12.78-2.76s-9.58-1.61-12.46 1.29c-2.64 2.66-1.79 8.26-1.59 12 9.402-1.034 18.864-1.424 28.32-1.17l-.3-2.87c-.24-1.97-.06-4.64-1.19-6.49z" fill="#f2f2f2"/></g></g></svg>