<svg height="512" viewBox="0 0 512 512" width="512" xmlns="http://www.w3.org/2000/svg"><g id="social_media" data-name="social media"><g id="fire"><g id="HUH"><path d="m87.54 197.17c1.66-16.83 30.05-30.63 30.05-30.63s-17.66 10.14-22 4.29 3.36-15.43 28.39-24c0 0-12.87-7.33-10.92-15.33s39.66 1.5 39.66 1.5-16-16.13-7.25-17.47 27.21 7.95 27.21 7.95-14.79-6.73-12.69-13.56 30.56 9.62 30.56 9.62-13.35-19.85-1.29-18.07c7.74 1.15 18.74 17.39 18.74 17.39s-11.25-27-.07-27.19 12.24 26.61 12.24 26.61 7.36-27.09 14.37-24.81-6.57 24.81-6.57 24.81 38.17-30.12 44.53-19.34-16.66 17.92-19 19 30.07-10.26 33.58-.89-12.86 13.72-18.54 15.58c0 0 40.86-5.69 42.8 3.34s-21.79 8.94-26.43 8.67c0 0 33.39 10.65 32.1 17.69s-9.11 3.37-21.83.77c0 0 21.76 8.47 21.41 18.22s-23.56-.58-23.56-.58 20.87 6.27 23.84 15.73-25.87 18.22-25.87 18.22h-171.3s-33.83-.69-32.16-17.52z" fill="#3e2945"/><g opacity=".21"><ellipse cx="203.78" cy="487.98" fill="#3f3f44" rx="81.21" ry="8.02"/></g><path d="m234.29 455.68s-.76 28.81 7.81 30.36 28.22 5.44 31.5 0-2.88-17.83-21.06-21-18.25-9.36-18.25-9.36z" fill="#f7bf9a"/><path d="m247.94 486.23c2.78.41 10.16-21.25 15.94-46.55h-38c12.77 14.05 10.38 44.84 22.06 46.55z" fill="#f7bf9a"/><path d="m172.42 456.37s.76 28.81-7.81 30.36-28.22 5.44-31.5 0 2.88-17.83 21.06-21 18.25-9.36 18.25-9.36z" fill="#f7bf9a"/><path d="m158.94 486.92c-2.78.41-10.16-21.25-15.94-46.55h38c-12.77 14.05-10.37 44.84-22.06 46.55z" fill="#f7bf9a"/><g opacity=".63"><path d="m235.28 459.73 16.05-9.48 8.47 5.77 3.69-10.04-16.3-3.88-14.44 11.19z" fill="#f2a88f"/></g><g opacity=".63"><path d="m146.28 453.45 3.68-3.73 14.08 7.52 10.47-6.73 2.83-6.05h-31.95l-.73 2.97z" fill="#f2a88f"/></g><path d="m339.27 306.3a10.53 10.53 0 0 1 -10.79-10.3l-.19-7.57a10.53 10.53 0 0 1 10.25-10.79 10.52 10.52 0 0 1 10.79 10.25l.19 7.58a10.53 10.53 0 0 1 -10.26 10.79z" fill="#f7bf9a"/><path d="m256.57 318.12-19.78-4.21h-67.27l-19.7 4.17c-12.08 3.57-20.77 19.23-20.77 37.42l3.3 61.93c21.1 25.11 119.81 24.14 139.34-3.41l5.65-58.51c0-18.19-8.69-33.86-20.77-37.43zm0 0" fill="#f7bf9a"/><path d="m271.68 414.05 5.65-58.51c0-18.19-8.69-33.86-20.77-37.43l-19.78-4.21h-67.27l-19.7 4.17 78.63 20.18 43.23 75.75m-15.11-97" fill="#fed9be"/><path d="m236.42 323.94c3.83-.54 15.3-2.89 15.3-2.89s80.69-37.86 88.4-23.68-88.12 57.22-89.51 54.93-14.19-28.36-14.19-28.36z" fill="#f7bf9a" fill-rule="evenodd"/><ellipse cx="231.57" cy="342.33" fill="#f79820" rx="6.72" ry="5.1" transform="matrix(.79 -.613 .613 .79 -161.23 213.79)"/><path d="m196.15 425.35c-5.42-2.16-14.42-4.88-11.69-7.05 2.49-2 10.65-9.07 16.6-14.26 3.78-3.29 9.69-4.06 13.71-1.65 3.12 1.86 6.83 4.11 10.19 6.22 7.71 4.82 2.21 9.6 2.21 9.6l-4 2-13.19 4s-8.22 3.37-13.83 1.14z" fill="#90278e"/><path d="m159.16 402.25c-9.65 2-18.88 5.57-28.49 7.23 1 12.92 2.87 31.13 6.57 43.66l10.94-7.66 16.89 7.52 15.55-11 3.3 2.43-19.29-43.29c-1.83.37-3.63.73-5.47 1.11z" fill="#f88f1c"/><path d="m267.63 393.72c-.54-.41-1-.84-1.56-1.27a2.15 2.15 0 0 1 -.91-.8 45 45 0 0 1 -13.77-20.65c-5.17-15.79-4.59-32.79-8.13-48.91a2 2 0 0 1 .59-2c-.24-1.65-.47-3.3-.72-4.95a51.34 51.34 0 0 0 -10.32-1.38 2.06 2.06 0 0 1 -.19 1.22c-1.25 2.48-2.46 5-3.67 7.47-2.15 13.19-10.11 40-10.69 40.14-.08 0-.15.09-.23.13l55.67 42.63c.17-1.81.31-3.52.43-5.15a13.68 13.68 0 0 1 -6.5-6.48z" fill="#f9ac67"/><path d="m267.26 452.25-1.18.44 1 .47z" fill="#f88f1c"/><path d="m218 362.8c-3.1 1.3-26.15 22.9-27.28 23.73-8.55 6.28-16 12.68-26.12 14.63l19.29 43.29 12.26 9 16.66-8.5 20 12.25 17.33-11.75 15.92 7.19 1.18-.44c.81-4.9 4.78-29.35 6.44-46.81z" fill="#f79c41"/><path d="m251.39 371a86.29 86.29 0 0 1 -2.67-10.7l-5.25 2.27c-3.69 1.59-5.25 4.74-3.47 7 1.78 2.26 7.24 4.11 12.12 4.11h.31c-.33-.84-.73-1.68-1.04-2.68z" fill="#90278e"/><path d="m261.29 387.92a124.25 124.25 0 0 0 -14 7c-4.74 2.8-2.85 6.64-1.74 9.09s26 6 26 6 .81-.9 2-2.25c.36-3.51.64-6.78.8-9.64a56.64 56.64 0 0 1 -13.06-10.2z" fill="#90278e"/><path d="m271.68 422.65h-3.51-6.4c-6.12 0-12.1.11-15.9.11-6.56 0-8.61 5.25-9.22 9.18-.37 2.36 2.91 6 6.64 8 4.18 2.3 18.93 3.23 25.38 3.53.87-5.67 1.99-13.16 3.01-20.82z" fill="#90278e"/><path d="m196.56 449.2s5.08-.8 4.07-4.94c-.29-1.2-.47-2.41-.58-3.15-.29-1.94-1.64-3.32-4.69-4.39s-11.11-3.11-11.11-3.11-8.17-2.73-12.17-.46c-.92.52-2.45 1.48-3.2 2-5 3.63.87 9.7.87 9.7l5.55 1.1 5.33-4 11.78 8.5z" fill="#90278e"/><path d="m152.18 430.91c3.11-.12 7.8-2.25 8.31-8.64s-8.32-8.15-8.32-8.15l-21.31-2.12c.46 5.75 1.1 12.34 2 18.91 5.52.09 16.98.09 19.32 0z" fill="#90278e"/><path d="m203.83 378.06a69.61 69.61 0 0 0 9.77-1.22c2-.7.87-4.63-.53-8a70.86 70.86 0 0 1 -9.24 9.22z" fill="#90278e"/><path d="m241.55 334.47a64.41 64.41 0 0 0 -13.64-4.13c-.36 3.17-.7 6.39-1.12 9.57 1.4-.36 2.85-.76 4.36-1.25 11.46-3.66 10.4-4.19 10.4-4.19z" fill="#90278e"/><ellipse cx="206.25" cy="284.56" fill="#8e3d7c" rx="56.46" ry="30.08"/><ellipse cx="206.25" cy="278.04" fill="#d49f77" rx="56.46" ry="30.08"/><path d="m290.75 242.7c-5.43-26.7-8.65-57.93-27.85-80.7-40.81-48.42-116.69-24-136.79 24-11.32 27.8-30.2 84.09 11.45 97.48 50.94 16.23 165.54 19.92 153.19-40.78z" fill="#f7bf9a"/><path d="m167.09 186c9.83-23.46 33-41.29 58.9-47.72-39.25-10.55-85 12.09-99.88 47.72-11.32 27.8-30.2 84.09 11.45 97.47 23.48 7.49 60.47 12.3 92.33 9.38-19.26-1.54-37.62-5-51.35-9.38-41.65-13.39-22.77-69.68-11.45-97.47z" fill="#fed9be"/><path d="m115.05 193 .35.79a2.64 2.64 0 0 1 -.15-.36c-.05-.09-.11-.23-.2-.43z" fill="#d49f77"/><path d="m115.43 193.88-.06-.09a.12.12 0 0 1 .06.09z" fill="#d49f77"/><path d="m115.26 193.47a2.64 2.64 0 0 0 .15.36l.06.09c.09.17 0-.02-.21-.45z" fill="#d49f77"/><path d="m288.94 193-.35.79a3 3 0 0 0 .14-.36c.07-.09.13-.23.21-.43z" fill="#d49f77"/><path d="m288.56 193.88.06-.09s-.05.07-.06.09z" fill="#d49f77"/><path d="m288.74 193.47a3 3 0 0 1 -.14.36l-.06.09c-.1.17-.01-.02.2-.45z" fill="#d49f77"/><path d="m322.83 279.55c-2.34-8.7-21.07-21.91-21.07-21.91 26.08 6.76 16.72-8.37 16.72-8.37-4.68-9.34-26.42-16.43-26.42-16.43 28.76-3.22 11.37-14.5 11.37-14.5-16.72-9-40.8-7.41-40.8-7.41 13.71-5.48 15-14.5 15-14.5-1.34-5.8-12.37-6.44-12.37-6.44-1.56.08-3 .23-4.44.43-.47.07-.89.17-1.34.25-.9.16-1.81.31-2.64.52-.51.12-1 .28-1.46.42-.71.2-1.43.4-2.09.64-.49.17-.93.37-1.39.55s-1.2.48-1.76.75-.86.44-1.28.66-1 .54-1.48.83-.78.5-1.15.75-.85.58-1.25.88-.7.54-1 .82-.7.6-1 .9-.62.58-.91.87c-.13.14-.29.27-.42.4a24.9 24.9 0 0 0 -6.11 10.6c8.88 9.37-.86 15.25-3.38 16.25s-12.33 12.82-31.88 12.82-29.4-11.83-31.88-12.82-12.26-6.88-3.38-16.25a24.9 24.9 0 0 0 -6.11-10.6c-.13-.14-.28-.27-.42-.4q-.43-.44-.91-.87c-.33-.3-.68-.6-1-.9s-.67-.55-1-.82-.82-.59-1.25-.88-.75-.51-1.15-.75-1-.56-1.48-.83-.83-.45-1.28-.66-1.16-.5-1.76-.75-.91-.38-1.39-.55c-.66-.23-1.38-.43-2.09-.64-.49-.14-1-.29-1.46-.42-.84-.2-1.74-.36-2.64-.52-.45-.08-.87-.18-1.34-.25-1.41-.2-2.88-.35-4.44-.43 0 0-11 .65-12.37 6.44 0 0 1.34 9 15 14.5 0 0-24.08-1.61-40.8 7.41 0 0-17.39 11.27 11.37 14.5 0 0-21.74 7.09-26.42 16.43 0 0-9.36 15.14 16.72 8.37 0 0-18.73 13.21-21.07 21.91 0 0-4 10.95 18.06-1.29 0 0-8.36 10.31-11.37 20s2.82 10.76 12.78 5.06c0 0-8.43 10.73-9.1 18.46s1.41 23.71 20.1-2.64c0 0-5.05 20.68-1 29 0 0 5.35 4.51 8.7 1.29s6-10.31 5.69-14.17c0 0 4 19.33 16.72 24.48 0 0 9.36 2.58 11-14.49 0 0 5.35 11.92 15.05 15.46s14.71-1.93 14.38-14.5c0 0 4.38 19.12 20.69 19.12s22.42-19.12 22.42-19.12c-.33 12.56 4.69 18 14.38 14.5s15.05-15.46 15.05-15.46c1.67 17.07 11 14.49 11 14.49 12.72-5.14 16.72-24.46 16.72-24.46-.33 3.86 2.34 10.95 5.69 14.17s8.7-1.29 8.7-1.29c4-8.37-1-29-1-29 18.69 26.35 20.77 10.37 20.1 2.64s-9.1-18.46-9.1-18.46c10 5.7 15.79 4.61 12.78-5.06s-11.37-20-11.37-20c22.05 12.22 18.03 1.27 18.03 1.27z" fill="#3e2945"/><circle cx="140.32" cy="197.14" fill="#fff" r="30.93"/><path d="m208 283.45c-4.07-4.87-37.3 19-41.88 22.22a257.93 257.93 0 0 0 -41.33 36.89 14.19 14.19 0 0 0 -1.74 5.57 14.81 14.81 0 0 0 2.44 9.4c2.63 10.44 6.1 13.6 9.05 14.27 0 0 1.4.32 10.66-1.64 1.92-3.35 8.32-13.18 8.32-13.18s64.83-61.15 54.48-73.53z" fill="#f7bf9a" fill-rule="evenodd"/><circle cx="261.8" cy="196.4" fill="#fff" r="30.94"/><path d="m261.8 217.37a30.93 30.93 0 0 1 -30.5-26 30.95 30.95 0 1 0 61 0 30.93 30.93 0 0 1 -30.5 26z" fill="#f2f2f2"/><path d="m202.87 298.94a10.53 10.53 0 0 1 -13.64 6l-7-2.77a10.53 10.53 0 0 1 -6-13.64 10.52 10.52 0 0 1 13.64-6l7.05 2.77a10.53 10.53 0 0 1 6 13.64z" fill="#f7bf9a"/><path d="m140.32 218.1a30.93 30.93 0 0 1 -30.5-26 30.95 30.95 0 1 0 61 0 30.93 30.93 0 0 1 -30.5 26z" fill="#f2f2f2"/><circle cx="155.43" cy="183.76" fill="#3e2945" r="7.22"/><path d="m109.72 201.44a30.9 30.9 0 0 0 61 1.42c-20.2 3.07-40.5 3.14-61-1.42z" fill="#f7bf9a"/><circle cx="280.92" cy="185.16" fill="#3e2945" r="7.22"/><path d="m204.82 424.54 1.77-.63c1.17-1.12 2.51-2.27 4-3.46l6.34-8.42 9.31-2.32 2.84-1.73-4.2-5.1s-31-4-34.59-3.25.78 14.94 1 16.59 13.53 8.32 13.53 8.32z" fill="#90278e"/><path d="m288.86 153.65c-4-3.24-9.12-4-14.56-3.26a6.27 6.27 0 0 0 -9.07-7.59 35.39 35.39 0 0 0 -9.54 7.63 6.58 6.58 0 0 0 -5.68-3.82c-11-1-18.73 14.7-20.51 23.5-.8 4 2.24 7.37 6.15 7.77a18.72 18.72 0 0 0 6.85-1c14.22-3.94 32.2-6 45.09-13.31 3.22-1.85 4.48-7.34 1.27-9.92z" fill="#543966"/><path d="m115.84 135.68c4-3.24 9.12-4 14.56-3.26a6.27 6.27 0 0 1 9.07-7.59 35.39 35.39 0 0 1 9.54 7.63 6.58 6.58 0 0 1 5.68-3.82c11-1 18.73 14.7 20.51 23.5.8 4-2.24 7.37-6.15 7.77a18.72 18.72 0 0 1 -6.85-1c-14.22-3.94-32.2-6-45.09-13.31-3.22-1.85-4.47-7.34-1.27-9.92z" fill="#543966"/><g fill="#3e2945"><path d="m180.1 389a.85.85 0 0 1 -.43-.94q-.06-.63.65 0c.25.33-.06 1.31-.19 1.61a2.76 2.76 0 0 1 -2.14 1.58c-.88.15-.51 1.5.37 1.34a4.17 4.17 0 0 0 3.38-3.53c.17-1.31-.71-3.69-2.46-2.85-1.37.66-1.29 3-.25 3.9s3-.07 2.42-1.51c-.33-.82-1.68-.46-1.34.37z"/><path d="m170.4 383a4.42 4.42 0 0 0 1.37-3.85c-.14-1-.82-2.77-2.12-2.47s-1 1.84-.56 2.66a4.79 4.79 0 0 0 3.71 2.27c.89.1.88-1.29 0-1.39a3.36 3.36 0 0 1 -1.9-.84 2.91 2.91 0 0 1 -.61-.74c-.25-.49-.29-.71-.11 0a3.12 3.12 0 0 1 -.76 3.42c-.65.62.33 1.6 1 1z"/><path d="m171.47 363.39c-.2 1.28-.36 2.74.69 3.71a1.93 1.93 0 0 0 2.57.22 1.79 1.79 0 0 0 .28-2.22c-.71-1-1.9-.45-2.66.17s.3 1.55 1 1c-.6.49-.55-2.33-.52-2.5.14-.88-1.2-1.25-1.34-.37z"/><path d="m201.38 367.92c-.2 1.28-.36 2.74.69 3.71a1.93 1.93 0 0 0 2.57.22 1.79 1.79 0 0 0 .28-2.22c-.71-1-1.9-.45-2.66.17s.3 1.55 1 1c-.6.49-.55-2.33-.52-2.5.14-.88-1.2-1.25-1.34-.37z"/><path d="m263.53 367.19c-.2 1.28-.36 2.74.69 3.71a1.93 1.93 0 0 0 2.57.22 1.79 1.79 0 0 0 .28-2.22c-.71-1-1.9-.45-2.66.17s.3 1.55 1 1c-.6.49-.55-2.33-.52-2.5.14-.88-1.2-1.25-1.34-.37z"/><path d="m169 386c0 1.36.23 2.79 1.64 3.35a2 2 0 0 0 2.69-1.07 1.71 1.71 0 1 0 -3.2-1.19.7.7 0 0 0 1.34.37v.67a.91.91 0 0 1 -.89-.69 2.83 2.83 0 0 1 -.2-1.45.7.7 0 0 0 -1.39 0z"/><path d="m181.71 368.42c0 1.36.23 2.79 1.64 3.35a2 2 0 0 0 2.69-1.07 1.71 1.71 0 1 0 -3.2-1.19.7.7 0 0 0 1.34.37v.67a.91.91 0 0 1 -.89-.69 2.83 2.83 0 0 1 -.2-1.45.7.7 0 0 0 -1.39 0z"/><path d="m179.8 361.39c0 1.36.23 2.79 1.64 3.35a2 2 0 0 0 2.69-1.07 1.71 1.71 0 1 0 -3.2-1.19.7.7 0 0 0 1.34.37v.67a.91.91 0 0 1 -.89-.69 2.83 2.83 0 0 1 -.2-1.45.7.7 0 0 0 -1.39 0z"/><path d="m174.23 375c.57-1.21 1-2.55 0-3.68a2.06 2.06 0 0 0 -2.88-.34c-2 1.61.73 4.39 2.27 2.54.57-.68-.41-1.67-1-1q.89-.57.81.48a3.53 3.53 0 0 1 -.44 1.28c-.38.81.82 1.51 1.2.7z"/><path d="m192.47 382.45c.57-1.21 1-2.55 0-3.68a2.06 2.06 0 0 0 -2.88-.34c-2 1.61.73 4.39 2.27 2.54.57-.68-.41-1.67-1-1q.89-.57.81.48a3.53 3.53 0 0 1 -.44 1.28c-.38.81.82 1.51 1.2.7z"/><path d="m165.46 380c.57-1.21 1-2.55 0-3.68a2.06 2.06 0 0 0 -2.88-.34c-2 1.61.73 4.39 2.27 2.54.57-.68-.41-1.67-1-1q.89-.57.81.48a3.53 3.53 0 0 1 -.44 1.28c-.38.81.82 1.51 1.2.7z"/><path d="m190.29 369.84c0 1.36.23 2.79 1.64 3.35a2 2 0 0 0 2.69-1.07 1.71 1.71 0 1 0 -3.2-1.19.7.7 0 0 0 1.34.37v.7a.91.91 0 0 1 -.89-.69 2.83 2.83 0 0 1 -.2-1.45.7.7 0 0 0 -1.39 0z"/><path d="m254.32 371.46c0 1.36.23 2.79 1.64 3.35a2 2 0 0 0 2.69-1.07 1.71 1.71 0 1 0 -3.2-1.19.7.7 0 0 0 1.34.37v.67a.91.91 0 0 1 -.89-.69 2.83 2.83 0 0 1 -.2-1.45.7.7 0 0 0 -1.39 0z"/><path d="m163.81 394.54c.21 1.4.59 2.93 2 3.57a2 2 0 0 0 2.77-.9 1.67 1.67 0 0 0 -.78-2.3c-1.29-.58-2.42.4-3.18 1.34-.56.69.42 1.68 1 1a5.26 5.26 0 0 1 .55-.64l.67-.44q-.05 1.24-.68.43c-.78-.47-.86-1.6-1-2.42s-1.48-.51-1.34.37z"/><path d="m161.42 371.92c.74-1.38 1.23-3 .43-4.51-.47-.85-1.8-2-2.76-1.18s-.33 2.19.25 2.93a5.2 5.2 0 0 0 4.63 1.63c.89-.06.9-1.45 0-1.39s-3.45 0-3.75-1.42c-.19-.87.65.82.66 1a4.13 4.13 0 0 1 -.66 2.3c-.42.79.78 1.49 1.2.7z"/><path d="m152.35 376.3a2.42 2.42 0 0 1 -1 1q.16-1.11.48-.14c.55.8 0 1.56-.58 2.19s.38 1.65 1 1c1-1.11 1.75-2.71.8-4.09a2 2 0 0 0 -3-.51 1.71 1.71 0 0 0 .16 2.77c1.37.77 2.62-.42 3.29-1.51.47-.77-.73-1.47-1.2-.7z"/><path d="m180.43 376.82a2.42 2.42 0 0 1 -1 1q.16-1.11.48-.14c.55.8 0 1.56-.58 2.19s.38 1.65 1 1c1-1.11 1.75-2.71.8-4.09a2 2 0 0 0 -3-.51 1.71 1.71 0 0 0 .16 2.77c1.37.77 2.62-.42 3.29-1.51.47-.77-.73-1.47-1.2-.7z"/><path d="m159 389c1.33-1 2.5-2.47 2.07-4.24-.28-1.16-1.67-2.53-2.7-1.22-2.08 2.63 1.9 6.62 4.44 4.13.64-.63-.34-1.61-1-1-1.19 1.17-2.75-.39-2.51-1.74s.45.75.41.93a3.3 3.3 0 0 1 -1.44 1.92c-.71.53 0 1.74.7 1.2z"/><path d="m260.87 364-.05-.09-.11.84.11-.11-.68.18h.13l-.51-.67c0 .35-1.18.89-1.35.93a.85.85 0 0 1 -1.08-.2.79.79 0 0 1 -.41-.7l.55.17a2.82 2.82 0 0 1 .06 1.25 3 3 0 0 1 -.76 1.48c-.59.67.39 1.66 1 1 1.15-1.3 1.74-3.45.65-5a1.55 1.55 0 0 0 -2.8.51 2.39 2.39 0 0 0 2 2.93c1.24.17 3.66-.85 3.55-2.36a.71.71 0 0 0 -.51-.67.87.87 0 0 0 -.92.26.71.71 0 0 0 -.11.84l.05.09c.47.76 1.68.06 1.2-.7z"/><path d="m262.48 379.91q-.58.93-1.22-.1a1.92 1.92 0 0 1 .17-1.26c.58-1 1.24-.22 1.39.58.29 1.56-.92 3.12-2.58 2.5-.84-.31-1.2 1-.37 1.34a3.28 3.28 0 0 0 4.32-2.68c.27-1.51-.63-4.41-2.71-3.7-1.58.54-2.14 3.13-1.16 4.37a2 2 0 0 0 3.5-.69c.17-.88-1.17-1.25-1.34-.37z"/></g><g opacity=".35"><path d="m168.44 235.14c2.48 1 12.33 12.82 31.88 12.82s29.4-11.83 31.88-12.82 15.75-7.76 7-17.07a8.77 8.77 0 0 1 -2 4.82 14 14 0 0 1 -5.05 3.67c-2.48 1-12.33 12.82-31.88 12.82s-29.4-11.83-31.88-12.82a15.72 15.72 0 0 1 -4.21-2.71c-1.54-1.52-2.23-3.41-2.91-4-8.66 9.32 4.66 14.29 7.17 15.29z" fill="#2a1d30"/></g><path d="m334 293.59a4 4 0 0 1 -3.95-3.95v-24.46a3.95 3.95 0 0 1 7.9 0v24.46a4 4 0 0 1 -3.95 3.95z" fill="#f7bf9a"/></g><path d="m426.35 68.44c1.94 8.52-1.76 16.28-5.43 21.5 2.84-24.11-16.05-37.06-16.05-37.06-22.55-20.44-7-36.89-7-36.89-40.52 14.9-37.87 60.01-37.87 60.01a23.79 23.79 0 0 1 -3-25.33c-34.37 35.11-6.44 60.22-6.44 60.22a62.41 62.41 0 0 1 -14.5-17.11c1.07 42.44 50.74 47.11 50.74 47.11 74.45-30.68 39.55-72.45 39.55-72.45z" fill="#f15a24"/><path d="m405.42 114.79c1.6-13.61-9.06-20.92-9.06-20.92-12.73-11.54-3.94-20.82-3.94-20.82-22.89 8.4-21.37 33.87-21.37 33.87a13.43 13.43 0 0 1 -1.67-14.3c-19.4 19.82-3.64 34-3.64 34a35.25 35.25 0 0 1 -8.18-9.66 23.82 23.82 0 0 0 8.5 18.25 76.63 76.63 0 0 0 20.82 5.68 144.21 144.21 0 0 0 18.94-9.35c14.66-14.53 2.67-28.88 2.67-28.88 1.09 4.8-.99 9.18-3.07 12.13z" fill="#f7931e"/><path d="m398.06 135.78c7.59-8.31.91-16.31.91-16.31a9.07 9.07 0 0 1 -1.8 7.14 13.58 13.58 0 0 0 -5.33-12.31c-7.49-6.79-2.32-12.26-2.32-12.26-13.52 4.96-12.59 19.96-12.59 19.96a7.91 7.91 0 0 1 -1-8.42c-11.42 11.67-2.14 20-2.14 20a20.75 20.75 0 0 1 -4.82-5.69 14 14 0 0 0 4.13 9.94 73 73 0 0 0 13.76 3c4.07-1.62 7.77-3.32 11.2-5.05z" fill="#fcee21"/><path d="m164.64 282.1c7.7-1.72 15.07-4.71 22.74-6.58a81.37 81.37 0 0 1 49.5 3.63" fill="none" stroke="#543966" stroke-linecap="round" stroke-linejoin="round" stroke-width="6.56"/><g fill="#f15a24"><ellipse cx="330.03" cy="167.32" rx="8.51" ry="7.66"/><ellipse cx="347.26" cy="150.14" rx="13.22" ry="12.21"/></g></g></g></svg>