<svg height="512" viewBox="0 0 512 512" width="512" xmlns="http://www.w3.org/2000/svg"><g id="social_media" data-name="social media"><g id="wave"><g opacity=".21"><ellipse cx="275.86" cy="486.48" fill="#3f3f44" rx="96.41" ry="9.52"/></g><path d="m312.08 448.14s-.9 34.2 9.27 36 33.51 6.46 37.4 0-3.42-21.16-25-24.91-21.67-11.09-21.67-11.09z" fill="#f7bf9a"/><path d="m328.28 484.4c3.3.48 12.06-25.23 18.92-55.26h-45.09c15.15 16.69 12.3 53.24 26.17 55.26z" fill="#f7bf9a"/><path d="m238.63 449s.9 34.2-9.27 36-33.51 6.46-37.4 0 3.42-21.16 25-24.91 21.67-11.09 21.67-11.09z" fill="#f7bf9a"/><path d="m222.63 485.22c-3.3.48-12.06-25.23-18.92-55.26h45.09c-15.14 16.68-12.3 53.23-26.17 55.26z" fill="#f7bf9a"/><g opacity=".63"><path d="m313.26 452.95 19.05-11.26 10.05 6.85 4.39-11.92-19.36-4.61-17.14 13.28z" fill="#f2a88f"/></g><path d="m137.86 141.25c2-20 35.68-36.36 35.68-36.36s-21 12-26.18 5.09 4-18.32 33.71-28.43c0 0-15.27-8.7-13-18.2s47.15 1.76 47.15 1.76-18.95-19.15-8.61-20.73 32.31 9.44 32.31 9.44-17.56-8-15.06-16.1 36.28 11.41 36.28 11.41-15.85-23.56-1.53-21.45c9.14 1.34 22.19 20.63 22.19 20.63s-13.33-32.11-.05-32.31 14.53 31.6 14.53 31.6 8.72-32.16 17.06-29.45-7.8 29.45-7.8 29.45 45.31-35.76 52.87-23-19.78 21.27-22.54 22.54 35.7-12.19 39.87-1.06-15.27 16.29-22 18.5c0 0 48.5-6.75 50.81 4s-25.87 10.61-31.38 10.3c0 0 39.64 12.65 38.11 21s-10.81 4-25.92.91c0 0 25.83 10.06 25.42 21.63s-28-.69-28-.69 24.77 7.44 28.3 18.67-30.64 21.6-30.64 21.6h-203.44s-40.11-.77-38.14-20.75z" fill="#3e2945"/><g opacity=".63"><path d="m207.6 445.49 4.37-4.43 16.72 8.93 12.41-7.99 3.37-7.18h-37.93l-.87 3.52z" fill="#f2a88f"/></g><path d="m338.53 284.82-23.49-5h-79.86l-23.38 4.95c-14.34 4.24-24.66 22.83-24.66 44.42l3.92 73.52c25 29.81 142.24 28.66 165.41-4.05l6.71-69.46c0-21.6-10.32-40.2-24.65-44.43zm0 0" fill="#f7bf9a"/><path d="m356.47 398.71 6.71-69.46c0-21.6-10.32-40.2-24.65-44.43l-23.49-5h-79.86l-23.38 4.95 93.34 24 51.33 89.93m-17.94-115.1" fill="#fed9be"/><ellipse cx="308.85" cy="313.57" fill="#f79820" rx="7.98" ry="6.05" transform="matrix(.79 -.613 .613 .79 -127.38 255.12)"/><path d="m266.8 412.13c-6.43-2.56-17.11-5.79-13.88-8.37 3-2.36 12.64-10.76 19.71-16.93 4.48-3.91 11.51-4.82 16.28-2 3.7 2.21 8.11 4.88 12.1 7.38 9.15 5.73 2.62 11.39 2.62 11.39l-4.71 2.4-15.66 4.79s-9.8 3.99-16.46 1.34z" fill="#90278e"/><path d="m222.89 384.71c-11.46 2.41-22.42 6.62-33.82 8.59 1.13 15.33 3.41 37 7.8 51.83l13-9.09 20 9 18.46-13.1 3.91 2.89-22.9-51.39c-2.13.39-4.34.81-6.45 1.27z" fill="#f88f1c"/><path d="m351.65 374.58c-.64-.49-1.24-1-1.85-1.51a2.56 2.56 0 0 1 -1.08-.95 53.43 53.43 0 0 1 -16.34-24.49c-6.14-18.75-5.44-38.92-9.65-58.07a2.38 2.38 0 0 1 .71-2.32c-.28-2-.56-3.92-.85-5.87a61 61 0 0 0 -12.25-1.63 2.44 2.44 0 0 1 -.23 1.45c-1.49 2.94-2.92 5.91-4.36 8.87-2.55 15.66-12 47.49-12.69 47.65-.1 0-.17.11-.27.15l66.09 50.61c.2-2.15.37-4.18.51-6.11a16.24 16.24 0 0 1 -7.74-7.78z" fill="#f9ac67"/><path d="m351.22 444.06-1.4.52 1.22.55z" fill="#f88f1c"/><path d="m292.77 337.87c-3.68 1.54-31 27.19-32.39 28.17-10.15 7.45-19 15-31 17.37l22.9 51.39 14.55 10.73 19.78-10.09 23.74 14.56 20.57-14 18.89 8.54 1.4-.52c1-5.81 5.67-34.85 7.64-55.57z" fill="#f79c41"/><path d="m332.37 347.64a102.44 102.44 0 0 1 -3.17-12.7l-6.2 2.69c-4.38 1.89-6.23 5.63-4.12 8.31v.05c2.11 2.68 8.59 4.88 14.39 4.88h.37c-.42-1.07-.89-2.09-1.27-3.23z" fill="#90278e"/><path d="m344.13 367.7a147.51 147.51 0 0 0 -16.68 8.3c-5.63 3.33-3.38 7.88-2.07 10.79s30.85 7.14 30.85 7.14 1-1.07 2.35-2.67c.43-4.17.76-8 .95-11.45a67.23 67.23 0 0 1 -15.4-12.11z" fill="#90278e"/><path d="m356.47 408.92-4.17-.06h-7.6c-7.27 0-14.37.13-18.88.13-7.79 0-10.22 6.23-10.94 10.9-.44 2.8 3.45 7.11 7.88 9.55 5 2.73 22.48 3.83 30.13 4.19 1.04-6.72 2.37-15.63 3.58-24.71z" fill="#90278e"/><path d="m267.28 440.44s6-1 4.83-5.86c-.35-1.42-.56-2.86-.69-3.74-.35-2.3-1.95-3.95-5.57-5.21s-13.19-3.69-13.19-3.69-9.7-3.25-14.45-.54c-1.09.62-2.91 1.75-3.8 2.4-6 4.31 1 11.52 1 11.52l6.59 1.31 6.33-4.72 14 10.09z" fill="#90278e"/><path d="m214.6 418.73c3.69-.14 9.26-2.67 9.86-10.26s-9.87-9.68-9.87-9.68l-25.3-2.49c.55 6.83 1.31 14.65 2.37 22.45 6.56.04 20.16.09 22.94-.02z" fill="#90278e"/><path d="m275.92 356c5.68-.49 10.29-1 11.6-1.45 2.4-.83 1-5.5-.62-9.54a84.12 84.12 0 0 1 -10.98 10.99z" fill="#90278e"/><path d="m320.69 304.24a76.47 76.47 0 0 0 -16.19-4.9c-.43 3.76-.83 7.59-1.33 11.37 1.66-.42 3.38-.9 5.18-1.48 13.65-4.38 12.34-4.99 12.34-4.99z" fill="#90278e"/><path d="m277.09 411.16 2.1-.74c1.39-1.33 3-2.7 4.74-4.1l7.52-10 11-2.76 3.37-2.05-5-6.06s-36.79-4.78-41.06-3.85.93 17.74 1.2 19.69 16.13 9.87 16.13 9.87z" fill="#90278e"/><g fill="#3e2945"><path d="m247.75 368.92a1 1 0 0 1 -.51-1.11q-.07-.75.78 0c.3.39-.07 1.56-.23 1.91a3.27 3.27 0 0 1 -2.54 1.88c-1 .18-.6 1.78.44 1.59a5 5 0 0 0 4-4.19c.2-1.56-.84-4.38-2.92-3.38-1.63.78-1.53 3.55-.3 4.63s3.56-.08 2.87-1.79c-.39-1-2-.55-1.59.44z"/><path d="m236.23 361.9a5.25 5.25 0 0 0 1.63-4.57c-.16-1.19-1-3.29-2.52-2.93s-1.24 2.18-.67 3.16a5.68 5.68 0 0 0 4.41 2.69c1.06.12 1-1.53 0-1.65a4 4 0 0 1 -2.26-1 3.45 3.45 0 0 1 -.72-.88c-.3-.58-.35-.85-.13 0a3.71 3.71 0 0 1 -.91 4.06c-.78.73.39 1.9 1.17 1.17z"/><path d="m237.5 338.57c-.24 1.52-.43 3.25.81 4.41a2.29 2.29 0 0 0 3.05.27 2.12 2.12 0 0 0 .33-2.64c-.84-1.23-2.26-.53-3.15.2s.35 1.84 1.17 1.17c-.71.58-.65-2.77-.62-3 .16-1-1.43-1.49-1.59-.44z"/><path d="m273 344c-.24 1.52-.43 3.25.81 4.41a2.29 2.29 0 0 0 3.05.27 2.12 2.12 0 0 0 .33-2.64c-.84-1.23-2.26-.53-3.15.2s.35 1.84 1.17 1.17c-.71.58-.65-2.77-.62-3 .16-1-1.43-1.49-1.59-.44z"/><path d="m346.79 343.08c-.24 1.52-.43 3.25.81 4.41a2.29 2.29 0 0 0 3.05.27 2.12 2.12 0 0 0 .33-2.64c-.84-1.23-2.26-.53-3.15.2s.35 1.84 1.17 1.17c-.71.58-.65-2.77-.62-3 .16-1-1.43-1.49-1.59-.44z"/><path d="m234.57 365.46c0 1.62.27 3.31 1.95 4a2.43 2.43 0 0 0 3.19-1.27c1.17-2.73-3-4.14-3.8-1.42a.83.83 0 0 0 1.59.44v.8a1.07 1.07 0 0 1 -1.06-.82 3.36 3.36 0 0 1 -.24-1.72.83.83 0 0 0 -1.65 0z"/><path d="m249.66 344.54c0 1.62.27 3.31 1.95 4a2.43 2.43 0 0 0 3.19-1.27c1.17-2.73-3-4.14-3.8-1.42a.83.83 0 0 0 1.59.44v.8a1.07 1.07 0 0 1 -1.06-.82 3.36 3.36 0 0 1 -.24-1.72.83.83 0 0 0 -1.65 0z"/><path d="m247.39 336.19c0 1.62.27 3.31 1.95 4a2.43 2.43 0 0 0 3.19-1.27c1.17-2.73-3-4.14-3.8-1.42a.83.83 0 0 0 1.59.44v.8a1.07 1.07 0 0 1 -1.06-.82 3.36 3.36 0 0 1 -.24-1.72.83.83 0 0 0 -1.65 0z"/><path d="m240.78 352.3c.68-1.43 1.16-3 0-4.37a2.44 2.44 0 0 0 -3.42-.4c-2.42 1.91.87 5.22 2.7 3 .68-.81-.49-2-1.17-1.17q1.05-.68 1 .57a4.19 4.19 0 0 1 -.52 1.52c-.45 1 1 1.8 1.43.83z"/><path d="m262.43 361.2c.68-1.43 1.16-3 0-4.37a2.44 2.44 0 0 0 -3.42-.4c-2.42 1.91.87 5.22 2.7 3 .68-.81-.49-2-1.17-1.17q1.05-.68 1 .57a4.19 4.19 0 0 1 -.52 1.52c-.45 1 1 1.8 1.43.83z"/><path d="m230.37 358.25c.68-1.43 1.16-3 0-4.37a2.44 2.44 0 0 0 -3.42-.4c-2.42 1.91.87 5.22 2.7 3 .68-.81-.49-2-1.17-1.17q1.05-.68 1 .57a4.19 4.19 0 0 1 -.52 1.52c-.45 1 1 1.8 1.43.83z"/><path d="m259.84 346.23c0 1.62.27 3.31 1.95 4a2.43 2.43 0 0 0 3.19-1.27c1.17-2.73-3-4.14-3.8-1.42a.83.83 0 0 0 1.59.44v.8a1.07 1.07 0 0 1 -1.06-.82 3.36 3.36 0 0 1 -.24-1.72.83.83 0 0 0 -1.65 0z"/><path d="m335.86 348.16c0 1.62.27 3.31 1.95 4a2.43 2.43 0 0 0 3.19-1.27c1.17-2.73-3-4.14-3.8-1.42a.83.83 0 0 0 1.59.44v.8a1.07 1.07 0 0 1 -1.06-.82 3.36 3.36 0 0 1 -.24-1.72.83.83 0 0 0 -1.65 0z"/><path d="m228.41 375.56c.25 1.66.7 3.48 2.37 4.23a2.42 2.42 0 0 0 3.29-1.07 2 2 0 0 0 -.93-2.73c-1.53-.69-2.87.47-3.77 1.59-.66.82.5 2 1.17 1.17a6.24 6.24 0 0 1 .65-.76l.8-.52q-.07 1.48-.81.51c-.92-.56-1-1.9-1.17-2.87s-1.75-.6-1.59.44z"/><path d="m225.57 348.7c.87-1.64 1.46-3.6.51-5.35-.55-1-2.13-2.38-3.28-1.41s-.4 2.6.3 3.48c1.33 1.69 3.46 2.06 5.49 1.93 1.06-.07 1.06-1.72 0-1.65s-4.09 0-4.46-1.69c-.22-1 .77 1 .79 1.13a4.9 4.9 0 0 1 -.78 2.73c-.5.94.93 1.77 1.43.83z"/><path d="m214.8 353.9a2.87 2.87 0 0 1 -1.15 1.21q.19-1.32.58-.17c.65.95 0 1.85-.69 2.6s.46 2 1.17 1.17c1.18-1.31 2.08-3.21 1-4.86a2.35 2.35 0 0 0 -3.53-.61 2 2 0 0 0 .19 3.29c1.63.92 3.12-.5 3.91-1.79.56-.91-.87-1.74-1.43-.83z"/><path d="m248.14 354.52a2.87 2.87 0 0 1 -1.15 1.21q.19-1.32.58-.17c.65.95 0 1.85-.69 2.6s.46 2 1.17 1.17c1.18-1.31 2.08-3.21 1-4.86a2.35 2.35 0 0 0 -3.53-.61 2 2 0 0 0 .19 3.29c1.63.92 3.12-.5 3.91-1.79.56-.91-.87-1.74-1.43-.83z"/><path d="m222.74 369c1.58-1.18 3-2.93 2.46-5-.34-1.38-2-3-3.21-1.45-2.47 3.12 2.25 7.86 5.27 4.9.76-.75-.41-1.91-1.17-1.17-1.41 1.38-3.26-.46-3-2.06s.53.89.49 1.11a3.92 3.92 0 0 1 -1.7 2.28c-.84.63 0 2.06.83 1.43z"/><path d="m343.64 339.26-.06-.1-.13 1 .12-.13-.8.21h.16l-.61-.8c0 .41-1.4 1.05-1.61 1.11a1 1 0 0 1 -1.28-.24.93.93 0 0 1 -.49-.84l.66.2a3.35 3.35 0 0 1 .07 1.49 3.57 3.57 0 0 1 -.9 1.76c-.7.79.46 2 1.17 1.17 1.37-1.54 2.07-4.1.77-5.93a1.84 1.84 0 0 0 -3.32.6 2.84 2.84 0 0 0 2.38 3.48c1.47.2 4.34-1 4.21-2.8a.85.85 0 0 0 -.61-.8 1 1 0 0 0 -1.09.31.84.84 0 0 0 -.13 1l.06.1c.56.9 2 .07 1.43-.83z"/><path d="m345.54 358.19q-.69 1.1-1.45-.12a2.28 2.28 0 0 1 .2-1.49c.69-1.17 1.47-.27 1.64.69.34 1.85-1.1 3.7-3.06 3-1-.37-1.43 1.23-.44 1.59a3.89 3.89 0 0 0 5.13-3.18c.32-1.79-.75-5.23-3.22-4.39-1.88.64-2.54 3.72-1.37 5.19s3.78 1.1 4.16-.82c.21-1-1.39-1.48-1.59-.44z"/></g><ellipse cx="278.79" cy="244.99" fill="#8e3d7c" rx="67.03" ry="35.71"/><ellipse cx="278.79" cy="237.25" fill="#d49f77" rx="67.03" ry="35.71"/><path d="m379.1 195.29c-6.45-31.66-10.27-68.77-33.06-95.79-48.44-57.5-138.53-28.5-162.39 28.5-13.44 33-35.85 99.83 13.6 115.72 60.47 19.28 196.52 23.63 181.85-48.43z" fill="#f7bf9a"/><path d="m232.3 128c11.67-27.85 39.19-49 69.93-56.65-46.6-12.55-100.86 14.33-118.58 56.65-13.44 33-35.85 99.83 13.6 115.72 27.87 8.89 71.79 14.61 109.61 11.14-22.86-1.83-44.66-5.94-61-11.14-49.41-15.92-27-82.72-13.56-115.72z" fill="#fed9be"/><path d="m170.52 136.35.42.93a3.14 3.14 0 0 1 -.17-.43c-.07-.15-.14-.31-.25-.5z" fill="#d49f77"/><path d="m171 137.34v.05l-.07-.11a.14.14 0 0 1 .07.06z" fill="#d49f77"/><path d="m170.77 136.85a3.14 3.14 0 0 0 .17.43l.07.11c.11.2-.01-.03-.24-.54z" fill="#d49f77"/><path d="m377 136.35-.42.93a3.61 3.61 0 0 0 .17-.43c.04-.15.11-.31.25-.5z" fill="#d49f77"/><path d="m376.51 137.34v.05l.07-.11s-.06.04-.07.06z" fill="#d49f77"/><path d="m376.71 136.85a3.61 3.61 0 0 1 -.17.43l-.07.11c-.11.2 0-.03.24-.54z" fill="#d49f77"/><path d="m417.19 239c-2.78-10.33-25-26-25-26 31 8 19.85-9.94 19.85-9.94-5.56-11.09-31.36-19.5-31.36-19.5 34.14-3.82 13.5-17.21 13.5-17.21-19.85-10.71-48.43-8.79-48.43-8.79 16.28-6.5 17.87-17.21 17.87-17.21-1.59-6.88-14.69-7.65-14.69-7.65-1.85.09-3.61.27-5.27.51-.56.08-1.06.2-1.59.3-1.07.19-2.14.37-3.14.61-.61.15-1.16.33-1.73.5-.85.24-1.7.48-2.49.76-.58.2-1.11.44-1.65.66-.71.29-1.42.57-2.09.89s-1 .52-1.51.78-1.2.64-1.76 1-.92.59-1.37.89-1 .69-1.48 1-.83.65-1.22 1-.84.71-1.23 1.07-.73.69-1.07 1c-.16.16-.34.32-.5.48a29.56 29.56 0 0 0 -7.26 12.59c10.55 11.13-1 18.1-4 19.3s-14.64 15.22-37.85 15.22-34.9-14-37.85-15.22-14.56-8.17-4-19.3a29.56 29.56 0 0 0 -7.26-12.59c-.15-.16-.34-.32-.5-.48q-.51-.52-1.07-1c-.39-.36-.8-.72-1.23-1.07s-.8-.65-1.22-1-1-.7-1.48-1-.89-.6-1.37-.89-1.16-.66-1.76-1-1-.53-1.51-.78-1.38-.6-2.09-.89c-.55-.22-1.08-.45-1.65-.66-.79-.28-1.64-.52-2.49-.76-.58-.17-1.13-.35-1.73-.5-1-.24-2.07-.43-3.14-.61-.54-.09-1-.22-1.59-.3-1.67-.24-3.42-.41-5.27-.51 0 0-13.1.77-14.69 7.65 0 0 1.59 10.71 17.87 17.21 0 0-28.58-1.91-48.43 8.79 0 0-20.64 13.38 13.5 17.21 0 0-25.81 8.41-31.36 19.5 0 0-11.12 18 19.85 9.94 0 0-22.23 15.68-25 26 0 0-4.76 13 21.44-1.53 0 0-9.93 12.24-13.5 23.71s3.35 12.77 15.17 6c0 0-10 12.73-10.81 21.91s1.67 28.15 23.86-3.13c0 0-6 24.55-1.24 34.49 0 0 6.35 5.35 10.32 1.53s7.15-12.24 6.75-16.82c0 0 4.76 22.94 19.85 29.06 0 0 11.12 3.06 13.1-17.2 0 0 6.35 14.14 17.87 18.35s17.47-2.3 17.07-17.21c0 0 5.2 22.7 24.56 22.7s26.62-22.7 26.62-22.7c-.39 14.91 5.56 21.41 17.07 17.21s17.87-18.35 17.87-18.35c2 20.27 13.1 17.2 13.1 17.2 15.08-6.12 19.85-29.06 19.85-29.06-.4 4.59 2.78 13 6.75 16.82s10.32-1.53 10.32-1.53c4.73-9.9-1.27-34.45-1.27-34.45 22.19 31.28 24.66 12.31 23.86 3.13s-10.81-21.91-10.81-21.91c11.82 6.77 18.74 5.47 15.17-6s-13.5-23.71-13.5-23.71c26.28 14.49 21.47 1.49 21.47 1.49z" fill="#3e2945"/><ellipse cx="200.52" cy="141.21" fill="#fff" rx="36.72" ry="36.72"/><circle cx="344.73" cy="140.33" fill="#fff" r="36.74"/><path d="m344.73 165.23a36.71 36.71 0 0 1 -36.21-30.82 36.74 36.74 0 1 0 72.43 0 36.72 36.72 0 0 1 -36.22 30.82z" fill="#f2f2f2"/><path d="m200.52 166.09a36.71 36.71 0 0 1 -36.21-30.82 36.74 36.74 0 1 0 72.43 0 36.72 36.72 0 0 1 -36.22 30.82z" fill="#f2f2f2"/><path d="m192 141.21a8.57 8.57 0 1 1 8.57 8.57 8.57 8.57 0 0 1 -8.57-8.57z" fill="#3e2945"/><path d="m338.17 141.21a8.58 8.58 0 1 1 8.57 8.58 8.58 8.58 0 0 1 -8.57-8.58z" fill="#3e2945"/><path d="m382.33 91c-3.42-5.1-8.91-7.75-15.32-8.88a7.44 7.44 0 0 0 -7.56-11.83 42 42 0 0 0 -13.53 5.24 7.81 7.81 0 0 0 -5.07-6.35c-12.14-5-26.44 10-31.6 19.31-2.32 4.21-.09 9.14 4.19 11 2.53 1.09 5.36 1.2 8.11 1.3 17.51.6 38.59 4.71 55.8 1 4.32-.9 7.7-6.68 4.98-10.79z" fill="#543966"/><path d="m405.12 227.05c8.15 3.66 18.28-1.18 22.62-10.83l5.65-12.57c4.34-9.64 1.24-20.43-6.9-24.1-8.15-3.66-18.28 1.18-22.61 10.82l-5.65 12.57c-4.34 9.64-1.24 20.44 6.91 24.1z" fill="#fed9be"/><path d="m155.37 96c3.13-5.28 8.47-8.22 14.82-9.7a7.44 7.44 0 0 1 6.91-12.22 42 42 0 0 1 13.79 4.5 7.81 7.81 0 0 1 4.71-6.58c11.85-5.69 26.94 8.52 32.6 17.56 2.55 4.07.58 9.12-3.59 11.2-2.47 1.23-5.29 1.49-8 1.74-17.45 1.55-38.27 6.8-55.66 4-4.39-.67-8.08-6.25-5.58-10.5z" fill="#543966"/><g opacity=".35"><path d="m233.91 186.32c2.95 1.17 14.64 15.22 37.85 15.22s34.9-14 37.85-15.22 18.7-9.22 8.39-20.32c.12 1.07-.76 3.65-2.36 5.72a16.6 16.6 0 0 1 -6 4.36c-2.95 1.17-14.64 15.22-37.85 15.22s-34.9-14-37.85-15.22a18.66 18.66 0 0 1 -5-3.22c-1.83-1.8-2.64-4-3.45-4.72-10.37 11.1 5.43 16.99 8.42 18.18z" fill="#2a1d30"/></g><path d="m366.92 330.59a15.68 15.68 0 0 0 2.41-7.81s14.71-24.36 27.3-50.29c6.29-13 22-54.91 14.55-59.69-13.07-8.4-87.83 104.12-79 116.2a24 24 0 0 0 6.19 5.72 21.84 21.84 0 0 0 11.46 3c2.72-.01 12.39.06 17.09-7.13z" fill="#fed9be" fill-rule="evenodd"/><path d="m408.73 213.16a116.67 116.67 0 0 0 -9.85-16.37c-2.57-3.57-7.11-5.3-11.17-2.93-3.53 2.06-5.52 7.57-2.93 11.17a116.67 116.67 0 0 1 9.85 16.37c2 3.95 7.55 5 11.17 2.93 4-2.35 4.89-7.2 2.93-11.17z" fill="#fed9be"/><path d="m347.89 269.22c-18.36 14.27-44.43 25-78.66 25.12-48.08.16-74.58-14.72-87-33-17.65-25.87-7.1-58.56 10.21-65a62.09 62.09 0 0 1 7.15-2.2c24-5.74 33.66 9.68 69.67 15.15 0 0 57 9.72 84-6.2a52 52 0 0 1 5.39-2.79c32.89-14.46 31.06 36.41-10.76 68.92z" fill="#84575d"/><path d="m347.89 269.22c-18.36 14.27-44.43 25-78.66 25.12-48.08.16-74.58-14.72-87-33-.02.01 79.36-46.71 165.66 7.88z" fill="#ca6867"/><path d="m312.16 230c3.81.67 8.37-.53 12.22-.9 3.66-.35 8.86.15 11.54-2.92 2.81-3.22.68-6.16 0-9.67-.45-2.48.34-4.81.72-7.17a135.64 135.64 0 0 1 -28.64 2.94l-.45 9.47c-.21 3.63.29 7.49 4.61 8.25z" fill="#f2f2f2"/><path d="m251 291.59v-.08a39.68 39.68 0 0 0 -.89-16 5.24 5.24 0 0 0 -4.93-3.75l-13.18-.66c-3.5-.18-8.35-1.3-11.79-.14-5.18 1.75-6.1 8.88-6.09 14.46 10 4 22.07 6.86 36.59 8.14a5.5 5.5 0 0 0 .17-.61c.04-.46.06-.95.12-1.36z" fill="#f2f2f2"/><path d="m229.11 224.57a89.82 89.82 0 0 1 24.18 4.36 5.15 5.15 0 0 0 6.47-4.93l-.58-16.6c-14.82-3.41-24.66-8.33-33.78-11.47l-1.4 23.53c-.16 2.84 2.48 5.01 5.11 5.11z" fill="#f2f2f2"/><path d="m146.61 242c-8.15 3.66-18.28-1.18-22.62-10.83l-5.65-12.57c-4.34-9.64-1.24-20.43 6.9-24.1 8.15-3.66 18.28 1.18 22.61 10.82l5.65 12.57c4.34 9.64 1.24 20.44-6.91 24.1z" fill="#f7bf9a"/><path d="m184.8 345.54a15.68 15.68 0 0 1 -2.41-7.81s-14.71-24.36-27.3-50.29c-6.29-13-22-54.91-14.55-59.69 13.07-8.4 87.83 104.12 79 116.2a24 24 0 0 1 -6.19 5.72 21.84 21.84 0 0 1 -11.46 3c-2.72-.01-12.38.06-17.09-7.13z" fill="#f7bf9a" fill-rule="evenodd"/><path d="m154.33 234.73a116.67 116.67 0 0 1 9.85-16.37c1.58-2.19.36-5.5-1.78-6.79-2.48-1.49-5.23-.38-6.79 1.78a116.67 116.67 0 0 0 -9.85 16.37c-2.83 5.7 5.73 10.73 8.57 5z" fill="#f7bf9a"/><path d="m433.45 240.34a152.65 152.65 0 0 1 -3.45 59.36c-1.58 6.19 8 8.83 9.57 2.64a165.65 165.65 0 0 0 3.43-64.64c-.88-6.3-10.44-3.62-9.57 2.64z" fill="#f7bf9a"/><path d="m436.26 158.92a90.32 90.32 0 0 1 11.16 25.22c1.66 6.16 11.24 3.54 9.57-2.64a99.57 99.57 0 0 0 -12.16-27.59c-3.42-5.37-12-.4-8.57 5z" fill="#f7bf9a"/><path d="m110.59 162.78a165.91 165.91 0 0 0 -16.53 18.22c-1.66 2.13-2 4.93 0 7 1.7 1.74 5.37 2.11 7 0a165.91 165.91 0 0 1 16.54-18.2c4.64-4.4-2.38-11.41-7-7z" fill="#f7bf9a"/><path d="m97.32 147.86a177.4 177.4 0 0 0 -42 55.66c-2.76 5.72 5.79 10.76 8.57 5a170.36 170.36 0 0 1 40.41-53.65c4.77-4.26-2.26-11.25-7-7z" fill="#f7bf9a"/></g></g></svg>