<svg height="512" viewBox="0 0 512 512" width="512" xmlns="http://www.w3.org/2000/svg"><g id="social_media" data-name="social media"><g id="workout"><path d="m302.1 410.47s-19.2 18.76-14.48 25.36 15.33 21.94 21.05 20.43 9.64-13.78-.46-27.68-6.11-18.11-6.11-18.11z" fill="#f7bf9a"/><path d="m294.29 442c2.59.38 9.47-19.79 14.84-43.35h-35.37c11.88 13.04 9.65 41.72 20.53 43.35z" fill="#f7bf9a"/><path d="m203.8 410.47s19.2 18.76 14.48 25.36-15.33 21.94-21.05 20.43-9.64-13.78.46-27.68 6.11-18.11 6.11-18.11z" fill="#f7bf9a"/><path d="m211.62 442c-2.59.38-9.47-19.79-14.84-43.35h35.37c-11.88 13.04-9.65 41.72-20.53 43.35z" fill="#f7bf9a"/><path d="m145.24 170.06c1.55-15.67 28-28.53 28-28.53s-16.45 9.44-20.54 4 3.13-14.38 26.44-22.31c0 0-12-6.82-10.17-14.28s37 1.38 37 1.38-14.86-15-6.76-16.27 25.35 7.4 25.35 7.4-13.78-6.26-11.82-12.63 28.46 9 28.46 9-12.45-18.53-1.2-16.88c7.16 1.06 17.4 16.18 17.4 16.18s-10.48-25.12-.06-25.33 11.4 24.79 11.4 24.79 6.86-25.23 13.39-23.1-6.13 23.1-6.13 23.1 35.55-28.05 41.48-18-15.48 16.68-17.67 17.67 28-9.56 31.28-.83-12 12.78-17.27 14.51c0 0 38.05-5.29 39.86 3.11s-20.29 8.33-24.62 8.08c0 0 31.1 9.92 29.9 16.47s-8.48 3.14-20.33.71c0 0 20.27 7.89 19.94 17s-21.94-.54-21.94-.54 19.43 5.84 22.2 14.65-24.06 17-24.06 17h-159.58s-31.5-.68-29.95-16.35z" fill="#3e2945"/><g opacity=".21"><ellipse cx="253.5" cy="491" fill="#3f3f44" rx="50.62" ry="5"/></g><g opacity=".63"><path d="m282.84 414.6 14.95-8.84 7.88 5.38 3.44-9.36-15.18-3.61-13.45 10.42z" fill="#f2a88f"/></g><g opacity=".63"><path d="m199.94 408.74 3.43-3.47 13.12 7 9.74-6.26 2.64-5.64h-29.76l-.68 2.77z" fill="#f2a88f"/></g><path d="m302.67 282.7-18.43-3.92h-62.65l-18.35 3.88c-11.24 3.34-19.34 17.95-19.34 34.89l3.1 57.68c19.65 23.39 111.59 22.49 129.77-3.18l5.23-54.49c0-16.95-8.09-31.54-19.34-34.86zm0 0" fill="#f7bf9a"/><path d="m316.74 372 5.26-54.44c0-16.95-8.09-31.54-19.34-34.86l-18.43-3.92h-62.65l-18.35 3.88 73.23 18.8 40.28 70.54m-14.08-90.3" fill="#fed9be"/><ellipse cx="279.39" cy="305.25" fill="#f79820" rx="6.26" ry="4.75" transform="matrix(.79 -.613 .613 .79 -128.46 235.31)"/><path d="m108.18 289.38a9.81 9.81 0 0 1 10.14-9.45l7 .25a9.8 9.8 0 0 1 9.46 10.14 9.8 9.8 0 0 1 -10.14 9.46l-7.05-.24a9.81 9.81 0 0 1 -9.46-10.14z" fill="#f7bf9a"/><path d="m398.83 289.38a9.81 9.81 0 0 0 -10.14-9.45l-7 .25a9.8 9.8 0 0 0 -9.46 10.14 9.8 9.8 0 0 0 10.14 9.46l7.05-.24a9.81 9.81 0 0 0 9.46-10.14z" fill="#fed9be"/><path d="m119.78 299.48a3.68 3.68 0 0 1 -3.56-2.78c-17.62-69.84-5.94-152.7 29.78-211.09 12.72-20.87 26.36-36.45 41.65-47.61 38.73-28.3 95.72-29.39 135.5-2.57 30 20.21 51.95 55.72 61.87 100 7.7 34.36 7.93 70.12 8.16 104.7q0 6.62.1 13.22c.13 13.24.4 26.66.81 39.88a3.68 3.68 0 0 1 -3.56 3.79 3.8 3.8 0 0 1 -3.79-3.56c-.41-13.28-.69-26.75-.82-40q-.06-6.62-.1-13.25c-.22-34.19-.45-69.55-8-103.14-9.51-42.42-30.39-76.34-58.81-95.5-37.3-25.15-90.73-24.13-127 2.41-14.5 10.6-27.5 25.49-39.75 45.53-34.71 56.79-46 137.43-28.89 205.45a3.69 3.69 0 0 1 -3.57 4.58z" fill="#543966"/><path d="m214.42 283.57c-3.56.56-14.42 1.64-14.42 1.64s-82.21-11.46-85.17 3.28 94.17 26.64 94.78 24.22 4.81-29.14 4.81-29.14z" fill="#f7bf9a" fill-rule="evenodd"/><path d="m292.59 283.57c3.56.56 14.42 1.64 14.42 1.64s82.21-11.46 85.17 3.28-94.18 26.63-94.78 24.22-4.81-29.14-4.81-29.14z" fill="#fed9be" fill-rule="evenodd"/><path d="m246.4 382.57c-5-2-13.43-4.54-10.89-6.57 2.32-1.85 9.92-8.44 15.46-13.28 3.52-3.07 9-3.78 12.77-1.54 2.9 1.74 6.36 3.83 9.49 5.79 7.18 4.49 2.06 8.94 2.06 8.94l-3.7 1.82-12.28 3.76s-7.69 3.16-12.91 1.08z" fill="#90278e"/><path d="m211.94 361.06c-9 1.89-17.59 5.19-26.54 6.74.89 12 2.67 29 6.12 40.66l10.19-7.13 15.73 7 14.49-10.28 3.07 2.27-18-40.32c-1.67.37-3.36.7-5.06 1.06z" fill="#f88f1c"/><path d="m313 353.11c-.5-.38-1-.78-1.45-1.18a2 2 0 0 1 -.85-.74 41.92 41.92 0 0 1 -12.86-19.19c-4.82-14.71-4.27-30.54-7.57-45.56a1.87 1.87 0 0 1 .55-1.82c-.22-1.54-.44-3.07-.67-4.61a47.82 47.82 0 0 0 -9.61-1.28 1.91 1.91 0 0 1 -.18 1.14c-1.17 2.31-2.29 4.63-3.42 7-2 12.28-9.42 37.25-10 37.39-.08 0-.14.08-.21.12l51.89 39.62c.16-1.69.29-3.28.4-4.8a12.74 12.74 0 0 1 -6.02-6.09z" fill="#f9ac67"/><path d="m312.62 407.62-1.1.41 1 .43z" fill="#f88f1c"/><path d="m266.77 324.32c-2.88 1.21-24.36 21.33-25.41 22.1-8 5.85-14.91 11.81-24.32 13.62l18 40.31 11.41 8.42 15.52-7.91 18.62 11.41 16.14-10.94 14.82 6.7 1.1-.41c.75-4.56 4.45-27.34 6-43.6z" fill="#f79c41"/><path d="m297.84 332a80.36 80.36 0 0 1 -2.49-10l-4.89 2.11c-3.44 1.48-4.89 4.42-3.23 6.52 1.66 2.1 6.74 3.83 11.29 3.83h.29c-.31-.79-.68-1.59-.97-2.46z" fill="#90278e"/><path d="m307.06 347.71a115.73 115.73 0 0 0 -13.06 6.53c-4.41 2.61-2.65 6.18-1.62 8.46s24.2 5.6 24.2 5.6.75-.84 1.84-2.1c.34-3.27.59-6.31.74-9a52.75 52.75 0 0 1 -12.1-9.49z" fill="#90278e"/><path d="m316.74 380.06h-3.27-6c-5.7 0-11.27.1-14.81.1-6.11 0-8 4.89-8.59 8.55-.34 2.2 2.71 5.58 6.18 7.49 3.89 2.14 17.63 3 23.64 3.28.86-5.31 1.9-12.28 2.85-19.42z" fill="#90278e"/><path d="m246.77 404.79s4.73-.75 3.79-4.6c-.27-1.12-.44-2.24-.54-2.94-.27-1.8-1.53-3.1-4.37-4.09s-10.35-2.9-10.35-2.9-7.61-2.55-11.33-.42c-.86.49-2.28 1.38-3 1.88-4.68 3.38.81 9 .81 9l5.17 1 5-3.7 11 7.91z" fill="#90278e"/><path d="m205.44 387.75c2.9-.11 7.26-2.09 7.74-8s-7.74-7.59-7.74-7.59l-19.85-2c.43 5.36 1 11.49 1.86 17.61 5.14.03 15.81.07 17.99-.02z" fill="#90278e"/><path d="m253.55 338.53a64.83 64.83 0 0 0 9.1-1.14c1.89-.65.81-4.32-.49-7.49a66 66 0 0 1 -8.61 8.63z" fill="#90278e"/><path d="m288.67 297.93a60 60 0 0 0 -12.7-3.84c-.34 3-.65 6-1 8.92 1.3-.33 2.66-.71 4.06-1.16 10.64-3.44 9.64-3.92 9.64-3.92z" fill="#90278e"/><ellipse cx="255.8" cy="251.45" fill="#8e3d7c" rx="52.59" ry="28.02"/><ellipse cx="255.8" cy="245.37" fill="#d49f77" rx="52.59" ry="28.02"/><path d="m334.5 212.46c-5.06-24.84-8.06-54-25.94-75.15-38-45.1-108.68-22.33-127.41 22.34-10.54 25.89-28.15 78.35 10.67 90.78 47.45 15.13 154.18 18.57 142.68-37.97z" fill="#f7bf9a"/><path d="m219.32 159.64c9.16-21.85 30.75-38.45 54.86-44.44-36.55-9.82-79.12 11.26-93 44.44-10.57 25.89-28.18 78.36 10.64 90.78 21.87 7 56.32 11.46 86 8.74-17.93-1.43-35-4.66-47.83-8.74-38.79-12.42-21.21-64.89-10.67-90.78z" fill="#fed9be"/><path d="m181.16 157.05c-1 2.5-2.1 5.24-3.19 8.17a440.75 440.75 0 0 1 146.16-1.48 103.75 103.75 0 0 0 -6.45-15.35h-132.07a64.47 64.47 0 0 0 -4.45 8.66z" fill="#5bb34d"/><path d="m301.29 127.24c-14.89-1.13-30.74-1.78-47.48-1.73-17.43 0-33.85.86-49.23 2.16a81.51 81.51 0 0 0 -7.69 6.65h111.32a72.4 72.4 0 0 0 -6.92-7.08z" fill="#5bb34d"/><path d="m308.21 134.32h-111.33a72.91 72.91 0 0 0 -11.28 14.07h132.08a75.49 75.49 0 0 0 -9.12-13.68z" fill="#f5f9f4"/><path d="m170.86 166.21.33.73a2.46 2.46 0 0 1 -.14-.34c-.05-.11-.11-.24-.19-.39z" fill="#d49f77"/><path d="m171.21 167-.05-.09a.11.11 0 0 1 .05.09z" fill="#d49f77"/><path d="m171.05 166.61a2.46 2.46 0 0 0 .14.34l.05.09c.09.14.01-.04-.19-.43z" fill="#d49f77"/><path d="m332.82 166.21-.33.73a2.83 2.83 0 0 0 .13-.34c.06-.11.12-.24.2-.39z" fill="#d49f77"/><path d="m332.46 167 .06-.09s-.05.09-.06.09z" fill="#d49f77"/><path d="m332.62 166.61a2.83 2.83 0 0 1 -.13.34l-.06.09c-.08.14 0-.04.19-.43z" fill="#d49f77"/><path d="m364.38 246.78c-2.18-8.1-19.62-20.4-19.62-20.4 24.29 6.3 15.57-7.8 15.57-7.8-4.36-8.7-24.6-15.3-24.6-15.3 26.79-3 10.59-13.5 10.59-13.5-15.57-8.4-38-6.9-38-6.9 12.77-5.1 14-13.5 14-13.5-1.25-5.4-11.52-6-11.52-6-1.45.07-2.83.21-4.14.4-.44.06-.83.16-1.25.23-.84.15-1.68.29-2.46.48-.48.12-.91.26-1.36.39-.66.19-1.33.38-2 .59-.45.16-.87.34-1.3.51s-1.12.45-1.64.7-.8.41-1.19.62-.94.5-1.38.77-.72.46-1.07.7-.79.54-1.16.82-.65.51-1 .77-.66.56-1 .84-.57.54-.84.81-.27.25-.39.38a23.19 23.19 0 0 0 -5.69 9.88c8.27 8.73-.8 14.2-3.15 15.14s-11.49 11.94-29.69 11.94-27.38-11-29.69-11.94-11.42-6.41-3.15-15.14a23.19 23.19 0 0 0 -5.69-9.88c-.12-.13-.26-.25-.39-.38s-.55-.54-.84-.81-.63-.56-1-.84-.62-.51-1-.77-.76-.55-1.16-.82-.7-.47-1.07-.7-.91-.52-1.38-.77-.77-.42-1.19-.62-1.08-.47-1.64-.7-.84-.35-1.3-.51c-.62-.22-1.29-.4-2-.59-.45-.13-.88-.27-1.36-.39-.78-.19-1.62-.33-2.46-.48-.42-.07-.81-.17-1.25-.23-1.31-.19-2.68-.33-4.14-.4 0 0-10.28.6-11.52 6 0 0 1.25 8.4 14 13.5 0 0-22.42-1.5-38 6.9 0 0-16.2 10.5 10.59 13.5 0 0-20.25 6.6-24.6 15.3 0 0-8.72 14.1 15.57 7.8 0 0-17.44 12.3-19.62 20.4 0 0-3.74 10.2 16.82-1.2 0 0-7.79 9.6-10.59 18.6s2.63 10 11.9 4.71c0 0-7.85 10-8.48 17.19s1.31 22.08 18.72-2.46c0 0-4.71 19.26-1 27.06 0 0 5 4.2 8.1 1.2s5.61-9.6 5.3-13.2c0 0 3.74 18 15.57 22.8 0 0 8.72 2.4 10.28-13.5 0 0 5 11.1 14 14.4s13.7-1.8 13.39-13.5c0 0 4.08 17.81 19.27 17.81s20.88-17.81 20.88-17.81c-.31 11.7 4.36 16.8 13.39 13.5s14-14.4 14-14.4c1.56 15.9 10.28 13.5 10.28 13.5 11.83-4.8 15.57-22.8 15.57-22.8-.31 3.6 2.18 10.2 5.3 13.2s8.1-1.2 8.1-1.2c3.74-7.8-1-27.06-1-27.06 17.41 24.54 19.34 9.66 18.72 2.46s-8.48-17.19-8.48-17.19c9.27 5.31 14.71 4.29 11.9-4.71s-10.59-18.6-10.59-18.6c20.97 11.42 17.23 1.2 17.23 1.2z" fill="#3e2945"/><circle cx="194.39" cy="170.02" fill="#fff" r="28.81"/><circle cx="307.54" cy="169.33" fill="#fff" r="28.82"/><path d="m166.11 175.44a28.8 28.8 0 0 0 56.57 0z" fill="#f7bf9a"/><circle cx="194.39" cy="159.65" fill="#543966" r="7.79"/><circle cx="309.64" cy="159.65" fill="#543966" r="7.79"/><path d="m219.28 155.56a28.76 28.76 0 0 0 -49.78 0z" fill="#f7bf9a"/><path d="m332.86 155.56a28.83 28.83 0 0 0 -50.64 0z" fill="#f7bf9a"/><path d="m279.38 175.44a28.81 28.81 0 0 0 56.32 0z" fill="#f7bf9a"/><path d="m254.47 381.81 1.65-.58c1.09-1 2.34-2.12 3.72-3.22l5.9-7.84 8.67-2.16 2.65-1.61-3.91-4.75s-28.87-3.75-32.22-3 .73 13.92.94 15.45 12.6 7.71 12.6 7.71z" fill="#90278e"/><path d="m331.17 124.52c-3.76-3-8.49-3.7-13.56-3a5.84 5.84 0 0 0 -8.44-7.07 33 33 0 0 0 -8.89 7.11 6.13 6.13 0 0 0 -5.28-3.56c-10.27-.91-17.44 13.69-19.1 21.89a6.19 6.19 0 0 0 5.73 7.24 17.43 17.43 0 0 0 6.38-.94c13.25-3.67 30-5.56 42-12.4 2.99-1.79 4.14-6.87 1.16-9.27z" fill="#543966"/><path d="m171.6 128.35c3.76-3 8.49-3.7 13.56-3a5.84 5.84 0 0 1 8.44-7.07 33 33 0 0 1 8.89 7.11 6.13 6.13 0 0 1 5.29-3.56c10.27-.91 17.44 13.69 19.1 21.89a6.19 6.19 0 0 1 -5.73 7.24 17.43 17.43 0 0 1 -6.38-.94c-13.25-3.67-30-5.56-42-12.4-2.99-1.75-4.16-6.87-1.17-9.27z" fill="#543966"/><g fill="#3e2945"><path d="m231.45 348.67a.79.79 0 0 1 -.4-.87q-.06-.59.61 0c.23.3-.05 1.22-.18 1.5a2.57 2.57 0 0 1 -2 1.47c-.82.14-.47 1.39.34 1.25a3.88 3.88 0 0 0 3.15-3.29c.16-1.22-.66-3.44-2.29-2.65-1.28.61-1.2 2.79-.24 3.63s2.79-.06 2.25-1.4c-.31-.76-1.56-.43-1.25.34z"/><path d="m222.41 343.17a4.11 4.11 0 0 0 1.28-3.59c-.13-.93-.76-2.58-2-2.3s-1 1.71-.52 2.48a4.46 4.46 0 0 0 3.46 2.11c.83.09.82-1.2 0-1.3a3.13 3.13 0 0 1 -1.77-.78 2.71 2.71 0 0 1 -.57-.69c-.23-.45-.27-.66-.1 0a2.91 2.91 0 0 1 -.71 3.19c-.61.57.31 1.49.92.92z"/><path d="m223.4 324.86c-.19 1.2-.34 2.55.64 3.46a1.8 1.8 0 0 0 2.39.21 1.66 1.66 0 0 0 .26-2.07c-.66-1-1.77-.42-2.47.16s.28 1.44.92.92c-.56.46-.51-2.17-.49-2.32.13-.82-1.12-1.17-1.25-.34z"/><path d="m251.26 329.09c-.19 1.2-.34 2.55.64 3.46a1.8 1.8 0 0 0 2.39.21 1.66 1.66 0 0 0 .26-2.07c-.66-1-1.77-.42-2.47.16s.28 1.44.92.92c-.56.46-.51-2.17-.49-2.32.13-.82-1.12-1.17-1.25-.34z"/><path d="m309.15 328.4c-.19 1.2-.34 2.55.64 3.46a1.8 1.8 0 0 0 2.39.21 1.66 1.66 0 0 0 .26-2.07c-.66-1-1.77-.42-2.47.16s.28 1.44.92.92c-.56.46-.51-2.17-.49-2.32.13-.82-1.12-1.17-1.25-.34z"/><path d="m221.11 346c0 1.27.21 2.59 1.53 3.12a1.91 1.91 0 0 0 2.5-1 1.59 1.59 0 1 0 -3-1.11.65.65 0 0 0 1.25.34v.63a.84.84 0 0 1 -.83-.64 2.63 2.63 0 0 1 -.19-1.35.65.65 0 0 0 -1.3 0z"/><path d="m232.94 329.55c0 1.27.21 2.59 1.53 3.12a1.91 1.91 0 0 0 2.5-1 1.59 1.59 0 1 0 -3-1.11.65.65 0 0 0 1.25.34v.63a.84.84 0 0 1 -.83-.64 2.63 2.63 0 0 1 -.19-1.35.65.65 0 0 0 -1.3 0z"/><path d="m231.16 323c0 1.27.21 2.59 1.53 3.12a1.91 1.91 0 0 0 2.5-1 1.59 1.59 0 1 0 -3-1.11.65.65 0 0 0 1.25.34v.65a.84.84 0 0 1 -.83-.64 2.63 2.63 0 0 1 -.19-1.35.65.65 0 0 0 -1.3 0z"/><path d="m226 335.63c.54-1.12.91-2.37 0-3.43a1.91 1.91 0 0 0 -2.68-.31c-1.9 1.5.68 4.09 2.12 2.37.53-.64-.38-1.56-.92-.92q.83-.53.75.45a3.29 3.29 0 0 1 -.41 1.19c-.36.75.76 1.41 1.12.65z"/><path d="m243 342.62c.54-1.12.91-2.37 0-3.43a1.91 1.91 0 0 0 -2.68-.31c-1.9 1.5.68 4.09 2.12 2.37.53-.64-.38-1.56-.92-.92q.83-.53.75.45a3.29 3.29 0 0 1 -.41 1.19c-.36.75.76 1.41 1.12.65z"/><path d="m217.81 340.3c.54-1.12.91-2.37 0-3.43a1.91 1.91 0 0 0 -2.68-.31c-1.9 1.5.68 4.09 2.12 2.37.53-.64-.38-1.56-.92-.92q.83-.53.75.45a3.29 3.29 0 0 1 -.41 1.19c-.36.75.76 1.41 1.12.65z"/><path d="m240.93 330.87c0 1.27.21 2.59 1.53 3.12a1.91 1.91 0 0 0 2.5-1 1.59 1.59 0 1 0 -3-1.11.65.65 0 0 0 1.25.34v.63a.84.84 0 0 1 -.83-.64 2.63 2.63 0 0 1 -.19-1.35.65.65 0 0 0 -1.3 0z"/><path d="m300.57 332.39c0 1.27.21 2.59 1.53 3.12a1.91 1.91 0 0 0 2.5-1 1.59 1.59 0 1 0 -3-1.11.65.65 0 0 0 1.25.34v.63a.84.84 0 0 1 -.83-.64 2.63 2.63 0 0 1 -.19-1.35.65.65 0 0 0 -1.3 0z"/><path d="m216.27 353.88c.2 1.3.55 2.73 1.86 3.32a1.9 1.9 0 0 0 2.58-.84 1.55 1.55 0 0 0 -.73-2.14c-1.2-.54-2.25.37-3 1.25-.52.64.39 1.57.92.92a4.89 4.89 0 0 1 .51-.6l.62-.41q-.05 1.16-.63.4c-.72-.44-.8-1.49-.92-2.25s-1.37-.47-1.25.34z"/><path d="m214 332.81a4.39 4.39 0 0 0 .4-4.2c-.43-.79-1.67-1.87-2.57-1.1s-.31 2 .23 2.73a4.84 4.84 0 0 0 4.31 1.51c.83-.05.83-1.35 0-1.3s-3.21 0-3.5-1.33c-.17-.81.61.76.62.89a3.85 3.85 0 0 1 -.61 2.14c-.39.74.73 1.39 1.12.65z"/><path d="m205.6 336.89a2.25 2.25 0 0 1 -.9.95q.15-1 .45-.13c.51.74 0 1.45-.54 2s.36 1.54.92.92c.92-1 1.63-2.52.75-3.81a1.84 1.84 0 0 0 -2.77-.48 1.6 1.6 0 0 0 .15 2.58c1.28.72 2.44-.4 3.07-1.41.44-.71-.68-1.37-1.12-.65z"/><path d="m231.75 337.38a2.25 2.25 0 0 1 -.9.95q.15-1 .45-.13c.51.74 0 1.45-.54 2s.36 1.54.92.92c.92-1 1.63-2.52.75-3.81a1.84 1.84 0 0 0 -2.77-.48 1.6 1.6 0 0 0 .15 2.58c1.28.72 2.44-.4 3.07-1.41.44-.71-.68-1.37-1.12-.65z"/><path d="m211.83 348.71c1.24-.93 2.33-2.3 1.93-4-.26-1.08-1.55-2.35-2.51-1.14-1.94 2.45 1.77 6.16 4.14 3.85.6-.58-.32-1.5-.92-.92-1.11 1.09-2.56-.36-2.34-1.62s.41.7.38.87a3.07 3.07 0 0 1 -1.34 1.79c-.66.49 0 1.62.65 1.12z"/><path d="m306.67 325.4v-.08l-.1.79.1-.1-.63.17h.12l-.48-.63c0 .32-1.1.83-1.26.87a.79.79 0 0 1 -1-.19.73.73 0 0 1 -.38-.66l.52.16a2.63 2.63 0 0 1 .06 1.17 2.8 2.8 0 0 1 -.71 1.38c-.55.62.36 1.54.92.92a3.88 3.88 0 0 0 .61-4.65 1.44 1.44 0 0 0 -2.61.47 2.23 2.23 0 0 0 1.87 2.73c1.16.16 3.41-.79 3.3-2.2a.66.66 0 0 0 -.48-.63.81.81 0 0 0 -.85.24.66.66 0 0 0 -.1.79v.08c.44.71 1.56.06 1.12-.65z"/><path d="m308.17 340.25q-.54.86-1.14-.1a1.79 1.79 0 0 1 .15-1.17c.54-.92 1.15-.21 1.29.54.27 1.45-.86 2.9-2.4 2.33-.78-.29-1.12 1-.34 1.25a3.05 3.05 0 0 0 4-2.49c.25-1.41-.59-4.11-2.52-3.45-1.47.5-2 2.92-1.08 4.07a1.87 1.87 0 0 0 3.26-.64c.16-.82-1.09-1.16-1.25-.34z"/></g><g opacity=".35"><path d="m220.59 205.41c2.31.92 11.49 11.94 29.69 11.94s27.38-11 29.69-11.94 14.67-7.23 6.55-15.9a8.17 8.17 0 0 1 -1.85 4.49 13 13 0 0 1 -4.7 3.42c-2.31.92-11.49 11.94-29.69 11.94s-27.38-11-29.69-11.94a14.64 14.64 0 0 1 -3.92-2.53c-1.43-1.41-2.07-3.17-2.71-3.7-8.11 8.67 4.29 13.29 6.63 14.22z" fill="#2a1d30"/></g><path d="m240.65 258.22a2.85 2.85 0 0 1 -2.48-1.44c-1.93-3.37-2.05-7.88-.35-12.35a22.58 22.58 0 0 1 31.86-11.81c4.16 2.25 7.8 5.88 11.11 11.09a2.85 2.85 0 1 1 -4.81 3.07c-2.78-4.36-5.73-7.35-9-9.14a16.87 16.87 0 0 0 -23.81 8.83c-1.1 2.87-1.11 5.6 0 7.49a2.85 2.85 0 0 1 -2.48 4.27z" fill="#543966"/><path d="m135.25 194c-5.9 2.49-11.75 5.31-16.69 9.38s-9 9.54-10.27 15.81a5.2 5.2 0 0 0 0 2.73 3.8 3.8 0 0 0 3.59 2.3 8 8 0 0 0 4.24-1.46c3.72-2.35 6.47-5.95 9-9.56a167.5 167.5 0 0 0 12.27-20.55" fill="#66a9e3" fill-rule="evenodd"/><path d="m133.29 190.61c-8.84 3.8-17.59 8.41-23.45 16.3-3.48 4.68-8.82 14.31-3.1 19.27 13.23 11.45 30.19-24.14 34-31.59 2.28-4.45-4.43-8.39-6.72-3.93-2.65 5.17-5.49 10.23-8.63 15.13-1.95 3-8 14.35-12.29 14q-1.64 1.13-.81-.52a10.38 10.38 0 0 1 .71-2.27 21.42 21.42 0 0 1 1.9-3.82 28.48 28.48 0 0 1 5.67-6.48c4.89-4.16 10.77-6.89 16.63-9.41 4.59-2 .63-8.68-3.93-6.72z" fill="#66a9e3"/><path d="m141.17 128.19a55.22 55.22 0 0 0 -14.86-.21c-4.91.76-9.76 2.8-13.13 6.45a3.46 3.46 0 0 0 -1.15 2.3 3.13 3.13 0 0 0 1.28 2.15c2.48 2.11 6 2.56 9.24 1.92a30.08 30.08 0 0 0 8.93-3.85q6.06-3.48 11.92-7.3" fill="#66a9e3" fill-rule="evenodd"/><path d="m141.17 124.3c-7.48-.82-15.16-1.18-22.25 1.73-4.58 1.88-12.19 6.3-10.44 12.33 1.69 5.82 9.5 7.16 14.59 6.27 8-1.4 15.62-7.3 22.3-11.61 4.2-2.7.3-9.44-3.93-6.72-2.17 1.4-22.44 15-23.94 10.09-.79-2.58 9-4.58 10.91-4.79a59.22 59.22 0 0 1 12.75.47c5 .55 4.93-7.24 0-7.78z" fill="#66a9e3"/><path d="m369.51 178.23c6.39.49 12.82 1.31 18.8 3.61s11.52 6.21 14.75 11.74a5.2 5.2 0 0 1 .88 2.58 3.8 3.8 0 0 1 -2.68 3.32 8 8 0 0 1 -4.49 0c-4.28-1.05-8-3.59-11.56-6.21a167.5 167.5 0 0 1 -18.16-15.6" fill="#66a9e3" fill-rule="evenodd"/><path d="m369.51 182.13c6.57.56 13.21 1.37 19.25 4.16a26.21 26.21 0 0 1 7.62 5.06c1.42 1.4 5.67 4.32 1.44 4.35-4.69 0-10.73-5.81-14.07-8.45a177.08 177.08 0 0 1 -13.93-12.36c-3.59-3.5-9.09 2-5.5 5.5 5.78 5.64 35 35.37 42.81 18.7 2.86-6.11-4.17-12.7-8.45-15.93-8.42-6.34-18.92-7.94-29.16-8.81-5-.43-5 7.36 0 7.78z" fill="#66a9e3"/></g></g></svg>