<svg height="512" viewBox="0 0 512 512" width="512" xmlns="http://www.w3.org/2000/svg"><g id="social_media" data-name="social media"><g id="BUNNIES"><g opacity=".21"><ellipse cx="219.49" cy="486.72" fill="#3f3f44" rx="93.99" ry="9.28"/></g><path d="m256.56 449.34s-.88 33.34 9 35.14 32.67 6.3 36.46 0-3.33-20.63-24.37-24.29-21.09-10.85-21.09-10.85z" fill="#f7bf9a"/><path d="m270.59 484.69c3.22.47 11.76-24.6 18.44-53.87h-44c14.81 16.26 12.04 51.9 25.56 53.87z" fill="#f7bf9a"/><path d="m182.28 450.13s.88 33.34-9 35.14-32.67 6.3-36.46 0 3.33-20.63 24.37-24.29 21.09-10.85 21.09-10.85z" fill="#f7bf9a"/><path d="m167.59 485.49c-3.22.47-11.76-24.6-18.44-53.87h44c-14.81 16.26-12.04 51.89-25.56 53.87z" fill="#f7bf9a"/><g opacity=".63"><path d="m255.94 454.03 18.57-10.98 9.81 6.68 4.27-11.62-18.87-4.5-16.71 12.95z" fill="#f2a88f"/></g><g opacity=".63"><path d="m152.93 446.75 4.26-4.31 16.3 8.7 12.11-7.79 3.28-7h-36.98l-.85 3.44z" fill="#f2a88f"/></g><path d="m280.58 290.12-22.9-4.87h-77.85l-22.83 4.87c-14 4.13-24 22.26-24 43.31l3.82 71.67c24.42 29.06 138.67 27.94 161.26-4l6.54-67.71c0-21.06-10.06-39.19-24-43.32zm0 0" fill="#f7bf9a"/><path d="m298.07 401.16 6.54-67.71c0-21.06-10.06-39.19-24-43.32l-22.9-4.87h-77.85l-22.86 4.86 111.4 19.7-2.19 45.82zm-17.49-112.22" fill="#fed9be"/><path d="m170.92 291.21c-4.42.69-17.92 2-17.92 2s-102.16-14.21-105.84 4.11 117 33.1 117.78 30.09 5.98-36.2 5.98-36.2z" fill="#f7bf9a" fill-rule="evenodd"/><path d="m303.13 286c1.53 4.21 7 16.62 7 16.62s62.3 82.21 48.11 94.36-86-86-83.76-88.09 28.65-22.89 28.65-22.89z" fill="#fed9be" fill-rule="evenodd"/><ellipse cx="251.65" cy="318.14" fill="#f79820" rx="7.78" ry="5.9" transform="matrix(.79 -.613 .613 .79 -142.19 221.02)"/><path d="m210.65 414.24c-6.27-2.5-16.68-5.65-13.53-8.16 2.88-2.3 12.32-10.49 19.21-16.5 4.37-3.81 11.22-4.7 15.87-1.92 3.61 2.16 7.9 4.76 11.8 7.2 8.92 5.58 2.56 11.11 2.56 11.11l-4.56 2.25-15.26 4.67s-9.59 3.93-16.09 1.35z" fill="#90278e"/><path d="m167.84 387.5c-11.17 2.35-21.85 6.45-33 8.37 1.11 14.95 3.32 36 7.6 50.53l12.66-8.86 19.54 8.75 18-12.77 3.82 2.82-22.33-50.1c-2.07.41-4.18.82-6.29 1.26z" fill="#f88f1c"/><path d="m293.37 377.63c-.62-.47-1.21-1-1.81-1.47a2.49 2.49 0 0 1 -1.06-.92 52.09 52.09 0 0 1 -15.93-23.87c-6-18.28-5.31-37.94-9.41-56.61a2.32 2.32 0 0 1 .69-2.26c-.27-1.91-.55-3.82-.83-5.73a59.42 59.42 0 0 0 -11.94-1.59 2.38 2.38 0 0 1 -.23 1.41c-1.45 2.87-2.85 5.76-4.25 8.65-2.49 15.26-2.12 33.27-10.62 45.53a4 4 0 0 1 -1.76.93c-.1 0-.17.11-.27.15l64.43 49.34c.2-2.1.36-4.07.5-6a15.83 15.83 0 0 1 -7.51-7.56z" fill="#f9ac67"/><path d="m293 445.36-1.36.5 1.19.54z" fill="#f88f1c"/><path d="m236 341.84c-3.58 1.5-5.88 4.47-6.83 9-1.76 2.51-2.32 3.84-4.38 6.12a81.21 81.21 0 0 1 -16.84 14 2.43 2.43 0 0 1 -.55 3.63c-9.89 7.27-21.52 9.43-33.21 11.69l22.33 50.1 14.18 10.47 19.3-9.85 23.14 14.18 20.06-13.6 18.42 8.32 1.36-.5c.93-5.67 5.53-34 7.45-54.18z" fill="#f79c41"/><path d="m274.58 351.37a99.86 99.86 0 0 1 -3.1-12.38l-6.08 2.62c-4.27 1.84-6.08 5.49-4 8.1v.05c2.06 2.61 8.37 4.75 14 4.75h.36c-.36-1.04-.82-2.04-1.18-3.14z" fill="#90278e"/><path d="m286 370.92a143.81 143.81 0 0 0 -16.22 8.08c-5.48 3.25-3.29 7.68-2 10.52s30.07 7 30.07 7 .93-1 2.29-2.61c.42-4.06.74-7.84.93-11.16a65.55 65.55 0 0 1 -15.07-11.83z" fill="#90278e"/><path d="m298.07 411.11-4.07-.11h-7.41c-7.09 0-14 .12-18.41.12-7.59 0-10 6.07-10.67 10.63-.43 2.73 3.37 6.93 7.68 9.31 4.83 2.66 21.91 3.74 29.38 4.08 1.02-6.49 2.32-15.14 3.5-24.03z" fill="#90278e"/><path d="m211.12 441.84s5.88-.93 4.71-5.71c-.34-1.39-.54-2.79-.67-3.65-.34-2.24-1.9-3.85-5.43-5.08s-12.86-3.6-12.86-3.6-9.45-3.16-14.08-.53c-1.07.61-2.84 1.71-3.7 2.34-5.81 4.2 1 11.23 1 11.23l6.43 1.28 6.17-4.6 13.63 9.83z" fill="#90278e"/><path d="m159.76 420.67c3.6-.14 9-2.6 9.61-10s-9.62-9.43-9.62-9.43l-24.67-2.43c.53 6.66 1.28 14.28 2.31 21.88 6.4.04 19.66.09 22.37-.02z" fill="#90278e"/><path d="m209.33 370c5.51.85 10 1.4 11.35 1.19 2.46-.38 2.09-6.23 1.34-11.41a82.64 82.64 0 0 1 -12.69 10.22z" fill="#90278e"/><path d="m242.54 305.87a79.63 79.63 0 0 1 -10.08 11.76 77.11 77.11 0 0 0 8.74-1.17c.56-3.46.96-7.05 1.34-10.59z" fill="#90278e"/><path d="m263.19 309.06a74.55 74.55 0 0 0 -15.78-4.78c-.42 3.67-.81 7.4-1.3 11.08 1.62-.41 3.3-.88 5-1.44 13.32-4.27 12.08-4.86 12.08-4.86z" fill="#90278e"/><path d="m220.68 413.29 2-.73c1.35-1.29 2.91-2.63 4.62-4l7.33-9.75 10.77-2.69 3.29-2-4.86-5.91s-35.87-4.66-40-3.76.9 17.29 1.17 19.19 15.68 9.65 15.68 9.65z" fill="#90278e"/><path d="m73.93 144.31c2-20.47 36.55-37.25 36.55-37.25s-21.48 12.33-26.82 5.21 4.08-18.77 34.53-29.13c0 0-15.65-8.91-13.29-18.65s48.3 1.8 48.3 1.8-19.4-19.61-8.81-21.29 33.1 9.67 33.1 9.67-18-8.18-15.43-16.49 37.17 11.69 37.17 11.69-16.24-24.14-1.56-22c9.36 1.38 22.73 21.13 22.73 21.13s-13.69-32.79-.09-33 14.89 32.37 14.89 32.37 9-32.94 17.48-30.17-8 30.17-8 30.17 46.42-36.63 54.16-23.52-20.26 21.79-23.09 23.09 36.57-12.48 40.84-1.09-15.59 16.68-22.53 18.95c0 0 49.69-6.91 52 4.06s-26.45 10.87-32.06 10.54c0 0 40.61 13 39 21.51s-11.08 4.1-26.55.93c0 0 26.46 10.3 26 22.16s-28.65-.71-28.65-.71 25.38 7.62 29 19.12-31.42 22.19-31.42 22.19h-208.38s-41.09-.82-39.07-21.29z" fill="#3e2945"/><ellipse cx="220.71" cy="250.59" fill="#8e3d7c" rx="68.66" ry="36.59"/><ellipse cx="220.71" cy="242.65" fill="#d49f77" rx="68.66" ry="36.59"/><path d="m323.48 199.67c-6.6-32.43-10.52-70.45-33.87-98.13-49.61-58.89-141.91-29.16-166.36 29.17-13.76 33.81-36.72 102.29 13.93 118.55 61.95 19.74 201.32 24.23 186.3-49.59z" fill="#f7bf9a"/><path d="m173.09 130.71c12-28.53 40.15-50.21 71.63-58-47.73-12.83-103.32 14.71-121.47 58-13.76 33.81-36.72 102.29 13.93 118.54 28.55 9.1 73.54 15 112.29 11.41-23.42-1.87-45.75-6.08-62.45-11.41-50.65-16.25-27.69-84.73-13.93-118.54z" fill="#fed9be"/><path d="m109.81 139.29.43 1a3.21 3.21 0 0 1 -.18-.44c-.06-.2-.15-.37-.25-.56z" fill="#d49f77"/><path d="m110.27 140.3v.06l-.07-.11a.14.14 0 0 1 .07.05z" fill="#d49f77"/><path d="m110.06 139.8a3.21 3.21 0 0 0 .18.44l.07.11c.11.2.01-.02-.25-.55z" fill="#d49f77"/><path d="m321.29 139.29-.43 1a3.7 3.7 0 0 0 .17-.44c.08-.2.15-.37.26-.56z" fill="#d49f77"/><path d="m320.82 140.3v.06l.07-.11s-.06.03-.07.05z" fill="#d49f77"/><path d="m321 139.8a3.7 3.7 0 0 1 -.17.44l-.07.11c-.09.2.02-.02.24-.55z" fill="#d49f77"/><path d="m362.5 244.49c-2.85-10.58-25.62-26.64-25.62-26.64 31.72 8.23 20.33-10.18 20.33-10.18-5.69-11.36-32.13-20-32.13-20 35-3.92 13.83-17.63 13.83-17.63-20.33-11-49.62-9-49.62-9 16.67-6.66 18.3-17.63 18.3-17.63-1.63-7.05-15-7.84-15-7.84-1.9.1-3.69.28-5.4.52-.57.08-1.08.21-1.63.3-1.1.19-2.2.38-3.21.63-.62.15-1.18.34-1.78.51-.87.25-1.74.49-2.55.78-.59.21-1.13.45-1.69.67-.73.29-1.46.59-2.14.91s-1 .53-1.55.8-1.23.66-1.81 1-.95.61-1.4.91-1 .71-1.52 1.07-.85.66-1.25 1-.86.73-1.26 1.1-.75.71-1.1 1.06c-.16.16-.35.33-.51.49a30.28 30.28 0 0 0 -7.44 12.9c10.8 11.4-1 18.55-4.11 19.77s-15 15.59-38.77 15.59-35.75-14.35-38.77-15.58-14.92-8.37-4.11-19.77a30.28 30.28 0 0 0 -7.44-12.9c-.16-.16-.35-.33-.51-.49q-.53-.53-1.1-1.06c-.4-.37-.82-.73-1.26-1.1s-.82-.67-1.25-1-1-.72-1.52-1.07-.91-.62-1.4-.91-1.19-.68-1.81-1-1-.55-1.55-.8-1.41-.61-2.14-.91c-.56-.23-1.1-.46-1.69-.67-.81-.29-1.68-.53-2.55-.78-.59-.17-1.16-.36-1.78-.51-1-.25-2.12-.44-3.21-.63-.55-.1-1.06-.22-1.63-.3-1.71-.24-3.5-.42-5.4-.52 0 0-13.42.78-15 7.84 0 0 1.63 11 18.3 17.63 0 0-29.28-2-49.62 9 0 0-21.15 13.71 13.83 17.63 0 0-26.44 8.62-32.13 20 0 0-11.39 18.41 20.33 10.18 0 0-22.77 16.06-25.62 26.64 0 0-4.88 13.31 22-1.57 0 0-10.17 12.54-13.83 24.29s3.43 13.08 15.54 6.15c0 0-10.26 13-11.07 22.45s1.71 28.84 24.45-3.21c0 0-6.15 25.15-1.27 35.33 0 0 6.51 5.48 10.58 1.57s7.32-12.54 6.91-17.23c0 0 4.88 23.5 20.33 29.77 0 0 11.39 3.14 13.42-17.62 0 0 6.51 14.49 18.3 18.8s17.89-2.35 17.49-17.63c0 0 5.32 23.26 25.16 23.26s27.27-23.26 27.27-23.26c-.4 15.28 5.7 21.94 17.49 17.63s18.3-18.8 18.3-18.8c2 20.76 13.42 17.62 13.42 17.62 15.45-6.27 20.33-29.77 20.33-29.77-.41 4.7 2.85 13.32 6.91 17.23s10.58-1.57 10.58-1.57c4.88-10.18-1.27-35.33-1.27-35.33 22.73 32 25.26 12.61 24.45 3.21s-11.07-22.45-11.07-22.45c12.11 6.93 19.2 5.6 15.54-6.15s-13.83-24.29-13.83-24.29c26.81 14.87 21.93 1.56 21.93 1.56z" fill="#3e2945"/><ellipse cx="140.54" cy="144.26" fill="#fff" rx="37.62" ry="37.61"/><circle cx="288.27" cy="143.36" fill="#fff" r="37.63"/><path d="m288.27 168.87a37.61 37.61 0 0 1 -37.1-31.57 37.63 37.63 0 1 0 74.2 0 37.62 37.62 0 0 1 -37.1 31.57z" fill="#f2f2f2"/><path d="m140.53 169.76a37.61 37.61 0 0 1 -37.1-31.57 37.63 37.63 0 1 0 74.2 0 37.62 37.62 0 0 1 -37.1 31.57z" fill="#f2f2f2"/><path d="m109.75 158.3a8.78 8.78 0 1 1 8.78 8.78 8.78 8.78 0 0 1 -8.78-8.78z" fill="#3e2945"/><path d="m262.35 160a8.78 8.78 0 1 1 8.78 8.78 8.78 8.78 0 0 1 -8.78-8.78z" fill="#3e2945"/><path d="m319.13 67.91c-4.91-3.94-11.09-4.83-17.7-4a7.62 7.62 0 0 0 -11-9.23 43 43 0 0 0 -11.64 9.32 8 8 0 0 0 -6.91-4.65c-13.41-1.19-22.77 17.87-24.95 28.58-1 4.82 2.73 9 7.48 9.45 2.81.29 5.61-.47 8.33-1.23 17.26-4.79 39.16-7.25 54.83-16.15 3.93-2.27 5.43-9 1.56-12.09z" fill="#543966"/><path d="m110.77 98.06c4.91-3.94 11.09-4.83 17.7-4a7.62 7.62 0 0 1 11-9.23 43 43 0 0 1 11.61 9.28 8 8 0 0 1 6.92-4.61c13.41-1.19 22.77 17.87 24.95 28.58 1 4.82-2.73 9-7.48 9.45-2.81.29-5.61-.47-8.33-1.23-17.3-4.8-39.16-7.26-54.83-16.19-3.91-2.23-5.44-8.92-1.54-12.05z" fill="#543966"/><g fill="#3e2945"><path d="m186.31 374.44a1 1 0 0 1 -.52-1.14q-.07-.77.79 0c.31.4-.07 1.6-.24 2a3.35 3.35 0 0 1 -2.6 1.92c-1.07.19-.62 1.82.45 1.63a5.07 5.07 0 0 0 4.11-4.3c.21-1.6-.86-4.49-3-3.47-1.67.8-1.57 3.64-.31 4.75s3.65-.08 2.94-1.83c-.4-1-2-.56-1.63.45z"/><path d="m174.51 367.25a5.37 5.37 0 0 0 1.67-4.68c-.17-1.22-1-3.37-2.58-3s-1.27 2.24-.68 3.23a5.82 5.82 0 0 0 4.52 2.76c1.08.12 1.07-1.57 0-1.69a4.09 4.09 0 0 1 -2.32-1 3.54 3.54 0 0 1 -.74-.9c-.31-.59-.35-.87-.14 0a3.8 3.8 0 0 1 -.93 4.16c-.8.75.4 1.94 1.2 1.2z"/><path d="m175.81 343.35c-.25 1.56-.44 3.33.83 4.51a2.35 2.35 0 0 0 3.13.27 2.17 2.17 0 0 0 .34-2.7c-.86-1.26-2.31-.55-3.23.2s.36 1.88 1.2 1.2c-.73.6-.67-2.84-.64-3 .17-1.07-1.46-1.53-1.63-.45z"/><path d="m212.18 348.87c-.25 1.56-.44 3.33.83 4.51a2.35 2.35 0 0 0 3.13.27 2.17 2.17 0 0 0 .34-2.7c-.86-1.26-2.31-.55-3.23.2s.36 1.88 1.2 1.2c-.73.6-.67-2.84-.64-3 .17-1.07-1.46-1.53-1.63-.45z"/><path d="m287.77 348c-.25 1.56-.44 3.33.83 4.51a2.35 2.35 0 0 0 3.13.27 2.17 2.17 0 0 0 .34-2.7c-.86-1.26-2.31-.55-3.23.2s.36 1.88 1.2 1.2c-.73.6-.67-2.84-.64-3 .17-1.07-1.46-1.53-1.63-.45z"/><path d="m172.81 370.89c0 1.66.28 3.39 2 4.08a2.49 2.49 0 0 0 3.27-1.3c1.2-2.8-3.11-4.25-3.89-1.45a.85.85 0 0 0 1.63.45v.82a1.1 1.1 0 0 1 -1.08-.84 3.44 3.44 0 0 1 -.24-1.76.85.85 0 0 0 -1.69 0z"/><path d="m188.26 349.47c0 1.66.28 3.39 2 4.08a2.49 2.49 0 0 0 3.27-1.3c1.2-2.8-3.11-4.25-3.89-1.45a.85.85 0 0 0 1.63.45v.82a1.1 1.1 0 0 1 -1.08-.84 3.44 3.44 0 0 1 -.24-1.76.85.85 0 0 0 -1.69 0z"/><path d="m185.94 340.92c0 1.66.28 3.39 2 4.08a2.49 2.49 0 0 0 3.27-1.3c1.2-2.8-3.11-4.25-3.89-1.45a.85.85 0 0 0 1.63.45v.82a1.1 1.1 0 0 1 -1.08-.84 3.44 3.44 0 0 1 -.24-1.76.85.85 0 0 0 -1.69 0z"/><path d="m179.17 357.41c.7-1.47 1.18-3.1 0-4.48a2.5 2.5 0 0 0 -3.5-.41c-2.48 2 .89 5.34 2.76 3.09.69-.83-.5-2-1.2-1.2q1.08-.7 1 .58a4.29 4.29 0 0 1 -.53 1.56c-.47 1 1 1.84 1.46.85z"/><path d="m201.35 366.54c.7-1.47 1.18-3.1 0-4.48a2.5 2.5 0 0 0 -3.5-.41c-2.48 2 .89 5.34 2.76 3.09.69-.83-.5-2-1.2-1.2q1.08-.7 1 .58a4.29 4.29 0 0 1 -.53 1.56c-.47 1 1 1.84 1.46.85z"/><path d="m168.5 363.51c.7-1.47 1.18-3.1 0-4.48a2.5 2.5 0 0 0 -3.5-.41c-2.48 2 .89 5.34 2.76 3.09.69-.83-.5-2-1.2-1.2q1.08-.7 1 .58a4.29 4.29 0 0 1 -.53 1.56c-.47 1 1 1.84 1.46.85z"/><path d="m198.69 351.19c0 1.66.28 3.39 2 4.08a2.49 2.49 0 0 0 3.31-1.27c1.2-2.8-3.11-4.25-3.89-1.45a.85.85 0 0 0 1.63.45v.82a1.1 1.1 0 0 1 -1.08-.84 3.44 3.44 0 0 1 -.24-1.76.85.85 0 0 0 -1.69 0z"/><path d="m276.57 353.17c0 1.66.28 3.39 2 4.08a2.49 2.49 0 0 0 3.27-1.3c1.2-2.8-3.11-4.25-3.89-1.45a.85.85 0 0 0 1.63.45v.82a1.1 1.1 0 0 1 -1.08-.84 3.44 3.44 0 0 1 -.24-1.76.85.85 0 0 0 -1.69 0z"/><path d="m166.5 381.24c.26 1.7.72 3.56 2.43 4.34a2.48 2.48 0 0 0 3.37-1.09 2 2 0 0 0 -1-2.79c-1.57-.7-2.94.49-3.86 1.63-.68.84.51 2 1.2 1.2a6.39 6.39 0 0 1 .66-.78l.82-.53q-.07 1.51-.83.52c-.95-.57-1-1.95-1.2-2.94s-1.79-.62-1.63.45z"/><path d="m163.59 353.72c.9-1.68 1.5-3.69.52-5.48-.57-1-2.19-2.44-3.36-1.44s-.41 2.66.31 3.56c1.36 1.73 3.54 2.11 5.63 2 1.08-.07 1.09-1.76 0-1.69s-4.19 0-4.57-1.73c-.23-1.05.79 1 .81 1.16a5 5 0 0 1 -.8 2.79c-.51 1 .95 1.82 1.46.85z"/><path d="m152.56 359.05a2.94 2.94 0 0 1 -1.18 1.24q.19-1.35.59-.17c.67 1 0 1.9-.7 2.66s.47 2 1.2 1.2c1.21-1.34 2.13-3.29 1-5a2.4 2.4 0 0 0 -3.62-.62 2.08 2.08 0 0 0 .2 3.37c1.67.94 3.19-.52 4-1.84.57-.93-.89-1.78-1.46-.85z"/><path d="m186.71 359.69a2.94 2.94 0 0 1 -1.18 1.24q.19-1.35.59-.17c.67 1 0 1.9-.7 2.66s.47 2 1.2 1.2c1.21-1.34 2.13-3.29 1-5a2.4 2.4 0 0 0 -3.62-.62 2.08 2.08 0 0 0 .2 3.37c1.67.94 3.19-.52 4-1.84.57-.93-.89-1.78-1.46-.85z"/><path d="m160.69 374.48c1.62-1.21 3-3 2.52-5.16-.34-1.41-2-3.07-3.28-1.49-2.53 3.2 2.31 8 5.4 5 .78-.76-.42-2-1.2-1.2-1.45 1.42-3.34-.47-3.05-2.11s.54.91.5 1.13a4 4 0 0 1 -1.75 2.34c-.86.64 0 2.12.85 1.46z"/><path d="m284.54 344.06-.06-.1-.13 1 .13-.13-.82.22h.16l-.62-.82c0 .42-1.43 1.08-1.65 1.13a1 1 0 0 1 -1.31-.24 1 1 0 0 1 -.5-.86l.67.21a3.43 3.43 0 0 1 .07 1.52 3.66 3.66 0 0 1 -.92 1.8c-.72.81.47 2 1.2 1.2 1.4-1.58 2.12-4.2.79-6.08a1.88 1.88 0 0 0 -3.41.62 2.91 2.91 0 0 0 2.44 3.56c1.51.21 4.45-1 4.31-2.87a.87.87 0 0 0 -.62-.82 1.06 1.06 0 0 0 -1.11.32.86.86 0 0 0 -.13 1l.06.1c.57.92 2 .08 1.46-.85z"/><path d="m286.49 363.45q-.71 1.13-1.48-.13a2.33 2.33 0 0 1 .2-1.53c.71-1.2 1.5-.27 1.69.71.35 1.9-1.12 3.79-3.13 3-1-.38-1.46 1.26-.45 1.63a4 4 0 0 0 5.25-3.25c.33-1.84-.77-5.36-3.3-4.5-1.92.65-2.6 3.81-1.41 5.32s3.87 1.12 4.26-.84c.21-1.06-1.42-1.52-1.63-.45z"/></g><path d="m171.1 233a7.2 7.2 0 0 1 6.26 0 19.55 19.55 0 0 1 11.5 8.28 9.86 9.86 0 0 1 1 2.14 8.88 8.88 0 0 0 -1-7.62 19.55 19.55 0 0 0 -11.5-8.28 7.19 7.19 0 0 0 -6.26 0c-4.32 1.91-5.77 7.11-4.74 11.48a8.57 8.57 0 0 1 4.74-6z" fill="#ca6867"/><path d="m181.16 249.12a8.52 8.52 0 0 0 8.7-5.7 9.86 9.86 0 0 0 -1-2.14 19.55 19.55 0 0 0 -11.5-8.28 7.2 7.2 0 0 0 -6.26 0 8.57 8.57 0 0 0 -4.74 6 10.53 10.53 0 0 0 1 2.7c2.53 4.6 8.72 7.2 13.8 7.42z" fill="#b75e5e"/><rect fill="#e5842c" height="62.89" rx="11.82" stroke="#bc763c" stroke-miterlimit="10" stroke-width="2.98" transform="matrix(0 -1 1 0 -204.67 365.69)" width="110.45" x="25.28" y="253.73"/><rect fill="#452c29" height="14.04" rx="6.19" transform="matrix(0 -1 1 0 -191.42 315.34)" width="30.82" x="46.55" y="246.36"/><circle cx="62.05" cy="246.26" fill="#7c747b" r="4.47"/><circle cx="62.05" cy="259.24" fill="#fdfbfd" r="3.16"/><path d="m38.9 298.43a12.19 12.19 0 0 1 12.6-11.75l8.76.31a12.18 12.18 0 0 1 11.74 12.59 12.18 12.18 0 0 1 -12.59 11.75l-8.76-.3a12.19 12.19 0 0 1 -11.75-12.6z" fill="#f7bf9a"/><path d="m471.28 79.52-33.63 109.39a19.31 19.31 0 0 1 -37.7-4l-9.66-114a41.48 41.48 0 1 1 82.67-7 42.08 42.08 0 0 1 -1.68 15.61z" fill="#bc763c"/><circle cx="413.96" cy="232" fill="#bc763c" r="24.8" transform="matrix(.107 -.994 .994 .107 139.13 618.86)"/><path d="m400.45 79a41.47 41.47 0 0 1 61.87-39.53 41.45 41.45 0 0 0 -72 31.34l9.66 114a19.31 19.31 0 0 0 12.93 16.58 19.37 19.37 0 0 1 -2.77-8.39z" fill="#cc8652" opacity=".5"/><path d="m419.13 207.75a25.13 25.13 0 0 0 -2.52-.4 24.8 24.8 0 0 0 -12.52 47.41 24.79 24.79 0 0 1 29.91-37.32 24.82 24.82 0 0 0 -7.77-7 19.4 19.4 0 0 1 -2.54-.58 19.18 19.18 0 0 1 -4.56-2.11z" fill="#cc8652" opacity=".5"/><path d="m423.68 209.88a19.4 19.4 0 0 0 2.54.58 24.61 24.61 0 0 0 -7.1-2.71 19.18 19.18 0 0 0 4.56 2.13z" fill="#bc763c"/><path d="m174.7 190.47c3 1.2 15 15.59 38.77 15.59s35.76-14.39 38.77-15.59 19.15-9.44 8.56-20.77c.13 1.1-.78 3.74-2.41 5.86a17 17 0 0 1 -6.14 4.46c-3 1.2-15 15.59-38.77 15.59s-35.76-14.38-38.78-15.61a19.12 19.12 0 0 1 -5.12-3.3c-1.87-1.84-2.71-4.15-3.54-4.83-10.59 11.35 5.6 17.39 8.66 18.6z" fill="#2a1d30" opacity=".22"/></g></g></svg>