<svg height="512" viewBox="0 0 512 512" width="512" xmlns="http://www.w3.org/2000/svg"><g id="social_media" data-name="social media"><g id="ballerina"><path d="m351.77 230.24a10.87 10.87 0 0 1 7.16-13.6l7.47-2.31a10.87 10.87 0 0 1 13.6 7.15 10.87 10.87 0 0 1 -7.15 13.6l-7.47 2.32a10.87 10.87 0 0 1 -13.6-7.16z" fill="#f7bf9a"/><path d="m365.63 265.29a2.87 2.87 0 0 1 -2.88-2.88c0-5.47-.55-11.07-1.08-16.49-.45-4.59-.92-9.34-1.06-14.07-.58-18.78 3.78-37.11 8-54.84a2.88 2.88 0 0 1 5.6 1.33c-4.13 17.36-8.39 35.31-7.84 53.33.14 4.54.6 9.19 1 13.69.55 5.56 1.11 11.31 1.11 17.06a2.87 2.87 0 0 1 -2.85 2.87z" fill="#3e2945"/><path d="m396.68 206.59c-5.47-1.76-11-3.52-16.8-3.67s-11.8 1.51-15.76 5.69c2.69.79 4.13 2.71 6.81 3.54a25 25 0 0 0 14.21-.3 74.42 74.42 0 0 0 13.2-5.72" fill="#3e2945"/><ellipse cx="360.95" cy="167.07" fill="#f88f1c" rx="9.36" ry="15.35" transform="matrix(.79 -.61 .61 .79 -27.32 253.36)"/><ellipse cx="380.5" cy="167.13" fill="#f88f1c" rx="15.35" ry="9.36" transform="matrix(.611 -.791 .791 .611 15.61 366.04)"/><ellipse cx="371.43" cy="165.25" fill="#f88f1c" rx="15.35" ry="9.36" transform="matrix(.056 -.998 .998 .056 185.71 526.88)"/><path d="m104.61 124.93c1.72-17.38 31-31.62 31-31.62s-18.23 10.47-22.76 4.42 3.48-15.94 29.33-24.73c0 0-13.28-7.56-11.28-15.83s41 1.53 41 1.53-16.48-16.65-7.49-18 28.1 8.21 28.1 8.21-15.27-6.94-13.1-14 31.59 9.88 31.59 9.88-13.79-20.49-1.33-18.66c7.95 1.17 19.3 17.94 19.3 17.94s-11.61-27.9-.07-28.07 12.64 27.48 12.64 27.48 7.6-28 14.84-25.61-6.78 25.61-6.78 25.61 39.41-31.1 46-20-17.2 18.5-19.6 19.6 31-10.6 34.67-.92-13.28 14.16-19.14 16.08c0 0 42.18-5.87 44.18 3.45s-22.49 9.23-27.29 9c0 0 34.47 11 33.14 18.26s-9.4 3.48-22.54.79c0 0 22.46 8.75 22.11 18.81s-24.32-.6-24.32-.6 21.54 6.47 24.61 16.24-26.72 18.81-26.72 18.81h-176.89s-34.92-.7-33.2-18.07z" fill="#3e2945"/><g opacity=".21"><ellipse cx="224.62" cy="487.72" fill="#3f3f44" rx="72.18" ry="8.28"/></g><path d="m279.1 389.16s-21.28 20.8-16 28.11 17 24.33 23.34 22.65 10.69-15.28-.51-30.69-6.83-20.07-6.83-20.07z" fill="#f7bf9a"/><path d="m270.44 424.06c2.87.42 10.49-21.94 16.45-48.06h-39.21c13.17 14.51 10.7 46.3 22.76 48.06z" fill="#f7bf9a"/><path d="m170.14 389.16s21.28 20.8 16 28.11-17 24.33-23.34 22.65-10.69-15.28.51-30.69 6.83-20.07 6.83-20.07z" fill="#f7bf9a"/><path d="m178.8 424.06c-2.87.42-10.49-21.94-16.45-48.06h39.21c-13.17 14.51-10.69 46.3-22.76 48.06z" fill="#f7bf9a"/><path d="m279.12 249.79-20.42-4.35h-69.45l-20.34 4.3c-12.47 3.68-21.44 19.86-21.44 38.63l3.41 63.94c21.78 25.92 123.7 24.93 143.85-3.52l5.84-60.4c0-18.78-9-35-21.44-38.64zm0 0" fill="#f7bf9a"/><path d="m294.72 348.83 5.84-60.4c0-18.78-9-35-21.44-38.64l-20.42-4.35h-69.45l-20.34 4.3 81.18 20.84 44.64 78.21m-15.6-100.1" fill="#fed9be"/><path d="m181.29 250.76c-3.94.62-16 1.81-16 1.81s-91.13-12.7-94.41 3.63 104.4 29.53 105.12 26.8 5.29-32.24 5.29-32.24z" fill="#f7bf9a" fill-rule="evenodd"/><path d="m258.32 255.8c4-.56 15.8-3 15.8-3s83.3-39.09 91.27-24.45-91 59.08-92.42 56.72-14.65-29.27-14.65-29.27z" fill="#f7bf9a" fill-rule="evenodd"/><ellipse cx="253.31" cy="274.78" fill="#f79820" rx="6.94" ry="5.26" transform="matrix(.79 -.613 .613 .79 -115.26 212.93)"/><path d="m216.74 360.5c-5.6-2.23-14.88-5-12.07-7.28 2.57-2.05 11-9.36 17.14-14.72 3.9-3.4 10-4.19 14.16-1.71 3.22 1.92 7 4.24 10.52 6.42 8 5 2.28 9.91 2.28 9.91l-4.1 2-13.62 4.16s-8.52 3.52-14.31 1.22z" fill="#90278e"/><path d="m178.55 336.65c-10 2.1-19.49 5.75-29.42 7.47 1 13.33 3 32.14 6.78 45.08l11.3-7.9 17.43 7.8 16.06-11.39 3.4 2.51-19.92-44.69c-1.87.36-3.75.72-5.63 1.12z" fill="#f88f1c"/><path d="m290.53 327.84c-.55-.42-1.08-.87-1.61-1.31a2.22 2.22 0 0 1 -.94-.82 46.46 46.46 0 0 1 -14.21-21.3c-5.34-16.3-4.73-33.85-8.39-50.5a2.07 2.07 0 0 1 .61-2c-.25-1.7-.49-3.41-.74-5.11a53 53 0 0 0 -10.65-1.42 2.12 2.12 0 0 1 -.2 1.26c-1.29 2.56-2.54 5.14-3.79 7.71-2.22 13.62-10.44 41.3-11 41.44-.09 0-.15.09-.24.13l57.48 44c.18-1.87.32-3.63.44-5.32a14.12 14.12 0 0 1 -6.76-6.76z" fill="#f9ac67"/><path d="m290.15 388.26-1.22.45 1.06.48z" fill="#f88f1c"/><path d="m239.32 295.92c-3.2 1.34-27 23.64-28.17 24.5-8.82 6.48-16.53 13.09-27 15.1l19.92 44.69 12.65 9.34 17.28-8.77 20.64 12.64 17.89-12.13 16.43 7.42 1.22-.45c.83-5.05 4.93-30.31 6.65-48.33z" fill="#f79c41"/><path d="m273.76 304.41a89.08 89.08 0 0 1 -2.76-11l-5.42 2.34c-3.81 1.64-5.42 4.89-3.58 7.23 1.84 2.33 7.47 4.24 12.52 4.24h.32c-.34-.93-.75-1.82-1.08-2.81z" fill="#90278e"/><path d="m284 321.85a128.28 128.28 0 0 0 -14.5 7.24c-4.89 2.89-2.94 6.85-1.8 9.38s26.83 6.21 26.83 6.21.83-.93 2-2.33c.37-3.62.66-7 .83-10a58.47 58.47 0 0 1 -13.36-10.5z" fill="#90278e"/><path d="m294.72 357.71-3.62-.05h-6.61c-6.32 0-12.49.11-16.42.11-6.77 0-8.88 5.42-9.52 9.48-.38 2.44 3 6.19 6.85 8.31 4.31 2.37 19.55 3.33 26.21 3.64.9-5.85 2.06-13.58 3.11-21.49z" fill="#90278e"/><path d="m217.16 385.12s5.25-.83 4.2-5.1c-.3-1.24-.49-2.48-.6-3.25-.3-2-1.69-3.43-4.85-4.53s-11.47-3.24-11.47-3.24-8.43-2.82-12.56-.47c-1 .54-2.53 1.53-3.3 2.08-5.19 3.75.89 10 .89 10l5.73 1.14 5.51-4.1 12.16 8.77z" fill="#90278e"/><path d="m171.34 366.24c3.21-.12 8.05-2.32 8.58-8.92s-8.59-8.42-8.59-8.42l-22-2.17c.48 5.94 1.14 12.74 2.06 19.52 5.71.04 17.54.08 19.95-.01z" fill="#90278e"/><path d="m224.67 311.67a71.86 71.86 0 0 0 10.08-1.26c2.09-.73.89-4.78-.54-8.3a73.16 73.16 0 0 1 -9.54 9.56z" fill="#90278e"/><path d="m263.61 266.67a66.5 66.5 0 0 0 -14.08-4.26c-.37 3.27-.72 6.6-1.16 9.88 1.44-.37 2.94-.79 4.5-1.29 11.84-3.8 10.74-4.33 10.74-4.33z" fill="#90278e"/><ellipse cx="227.16" cy="215.15" fill="#8e3d7c" rx="58.29" ry="31.06"/><ellipse cx="227.16" cy="208.41" fill="#d49f77" rx="58.29" ry="31.06"/><path d="m314.4 171.92c-5.61-27.53-8.93-59.81-28.75-83.3-42.13-50-120.48-24.76-141.23 24.76-11.69 28.7-31.17 86.82 11.82 100.64 52.6 16.77 170.92 20.57 158.16-42.1z" fill="#f7bf9a"/><path d="m186.73 113.38c10.15-24.22 34.08-42.62 60.81-49.27-40.54-10.89-87.7 12.49-103.11 49.27-11.69 28.7-31.17 86.81 11.82 100.63 24.24 7.73 62.43 12.7 95.33 9.69-19.88-1.59-38.84-5.17-53-9.69-43.02-13.82-23.58-71.93-11.85-100.63z" fill="#fed9be"/><path d="m133 140.79.37.81a2.73 2.73 0 0 1 -.15-.37c-.06-.13-.12-.23-.22-.44z" fill="#d49f77"/><path d="m133.4 141.65-.06-.09a.12.12 0 0 1 .06.09z" fill="#d49f77"/><path d="m133.23 141.23a2.73 2.73 0 0 0 .15.37l.06.09c.09.18 0-.02-.21-.46z" fill="#d49f77"/><path d="m312.54 140.79-.36.81a3.14 3.14 0 0 0 .15-.37c.06-.13.13-.23.21-.44z" fill="#d49f77"/><path d="m312.15 141.65.06-.09s-.05.08-.06.09z" fill="#d49f77"/><path d="m312.33 141.23a3.14 3.14 0 0 1 -.15.37l-.06.09c-.12.18-.01-.02.21-.46z" fill="#d49f77"/><path d="m347.53 210c-2.42-9-21.75-22.62-21.75-22.62 26.93 7 17.26-8.65 17.26-8.65-4.83-9.64-27.27-17-27.27-17 29.69-3.33 11.74-15 11.74-15-17.26-9.31-42.12-7.65-42.12-7.65 14.15-5.65 15.54-15 15.54-15-1.38-6-12.77-6.65-12.77-6.65-1.61.08-3.14.23-4.59.44-.48.07-.92.18-1.39.26-.93.16-1.86.32-2.73.53-.53.13-1 .29-1.51.43-.74.21-1.48.42-2.16.66-.5.18-1 .38-1.44.57s-1.24.5-1.81.77-.88.45-1.32.68-1 .56-1.53.86-.8.51-1.19.78-.88.6-1.29.91-.72.56-1.06.85-.73.62-1.07.93-.64.6-.93.9c-.14.14-.3.28-.43.42a25.71 25.71 0 0 0 -6.31 10.95c9.17 9.68-.88 15.74-3.49 16.78s-12.71 13.34-32.91 13.34-30.35-12.22-32.92-13.23-12.66-7.11-3.49-16.78a25.71 25.71 0 0 0 -6.31-10.95c-.13-.14-.29-.28-.43-.42q-.45-.45-.93-.9c-.34-.31-.7-.62-1.07-.93s-.69-.57-1.06-.85-.84-.61-1.29-.91-.78-.52-1.19-.78-1-.58-1.53-.86-.86-.46-1.32-.68-1.2-.52-1.81-.77-.94-.39-1.44-.57c-.68-.24-1.43-.45-2.16-.66-.5-.14-1-.3-1.51-.43-.86-.21-1.8-.37-2.73-.53-.47-.08-.9-.19-1.39-.26-1.45-.21-3-.36-4.59-.44 0 0-11.39.67-12.77 6.65 0 0 1.38 9.31 15.54 15 0 0-24.86-1.66-42.12 7.65 0 0-18 11.64 11.74 15 0 0-22.44 7.32-27.27 17 0 0-9.67 15.63 17.26 8.65 0 0-19.33 13.63-21.75 22.62 0 0-4.14 11.3 18.64-1.33 0 0-8.63 10.64-11.74 20.62s2.92 11.1 13.2 5.22c0 0-8.71 11.07-9.4 19.06s1.5 24.32 20.84-2.87c0 0-5.22 21.35-1.08 30 0 0 5.53 4.66 9 1.33s6.21-10.64 5.87-14.63c0 0 4.14 20 17.26 25.27 0 0 9.67 2.66 11.39-15 0 0 5.52 12.3 15.54 16s15.19-2 14.85-15c0 0 4.52 19.74 21.36 19.74s23.15-19.74 23.15-19.74c-.34 13 4.84 18.62 14.85 15s15.54-16 15.54-16c1.72 17.63 11.39 15 11.39 15 13.12-5.32 17.26-25.27 17.26-25.27-.34 4 2.42 11.3 5.87 14.63s9-1.33 9-1.33c4.14-8.64-1.08-30-1.08-30 19.3 27.2 21.44 10.7 20.75 2.73s-9.4-19.06-9.4-19.06c10.28 5.89 16.3 4.76 13.2-5.22s-11.74-20.62-11.74-20.62c22.69 12.63 18.55 1.36 18.55 1.36z" fill="#3e2945"/><path d="m225.69 359.65 1.83-.65c1.21-1.15 2.6-2.35 4.12-3.57l6.54-8.7 9.61-2.4 2.93-1.79-4.33-5.27s-32-4.16-35.71-3.35.81 15.43 1 17.12 14.01 8.61 14.01 8.61z" fill="#90278e"/><path d="m133.13 70.68c3.37-4.14 8.35-6 14-6.43a6.47 6.47 0 0 1 7.51-9.62 36.54 36.54 0 0 1 11.28 5.65 6.79 6.79 0 0 1 4.91-5.09c10.92-3.37 22.08 10.79 25.78 19.3 1.67 3.83-.67 7.92-4.53 9.17a19.32 19.32 0 0 1 -7.13.46c-15.21-.91-33.79.93-48.39-3.7-3.66-1.17-6.12-6.42-3.43-9.74z" fill="#543966"/><g fill="#3e2945"><path d="m200.17 322.92a.88.88 0 0 1 -.44-1q-.06-.65.67 0c.26.34-.06 1.35-.2 1.66a2.85 2.85 0 0 1 -2.21 1.63c-.91.16-.52 1.55.38 1.39a4.3 4.3 0 0 0 3.49-3.65c.18-1.35-.73-3.81-2.54-2.94-1.42.68-1.33 3.09-.26 4s3.1-.07 2.5-1.55c-.34-.85-1.73-.48-1.39.38z"/><path d="m190.15 316.82a4.56 4.56 0 0 0 1.42-4c-.14-1-.85-2.86-2.19-2.55s-1.07 1.9-.58 2.74a4.94 4.94 0 0 0 3.83 2.34c.92.1.91-1.33 0-1.44a3.47 3.47 0 0 1 -2-.86 3 3 0 0 1 -.63-.77c-.26-.5-.3-.74-.12 0a3.22 3.22 0 0 1 -.79 3.53c-.68.64.34 1.65 1 1z"/><path d="m191.26 296.53c-.21 1.33-.37 2.83.71 3.83a2 2 0 0 0 2.65.23 1.84 1.84 0 0 0 .29-2.29c-.73-1.07-2-.46-2.74.17s.31 1.6 1 1c-.62.51-.57-2.41-.54-2.58.14-.91-1.24-1.29-1.39-.38z"/><path d="m222.14 301.21c-.21 1.33-.37 2.83.71 3.83a2 2 0 0 0 2.65.23 1.84 1.84 0 0 0 .29-2.29c-.73-1.07-2-.46-2.74.17s.31 1.6 1 1c-.62.51-.57-2.41-.54-2.58.14-.91-1.24-1.29-1.39-.38z"/><path d="m286.3 300.45c-.21 1.33-.37 2.83.71 3.83a2 2 0 0 0 2.65.23 1.84 1.84 0 0 0 .29-2.29c-.73-1.07-2-.46-2.74.17s.31 1.6 1 1c-.62.51-.57-2.41-.54-2.58.14-.91-1.24-1.29-1.39-.38z"/><path d="m188.71 319.91c0 1.41.24 2.88 1.69 3.46a2.12 2.12 0 0 0 2.78-1.1 1.77 1.77 0 1 0 -3.3-1.23.72.72 0 0 0 1.39.38v.7a.93.93 0 0 1 -.92-.71 2.92 2.92 0 0 1 -.21-1.5.72.72 0 0 0 -1.44 0z"/><path d="m201.83 301.72c0 1.41.24 2.88 1.69 3.46a2.12 2.12 0 0 0 2.78-1.1 1.77 1.77 0 1 0 -3.3-1.23.72.72 0 0 0 1.39.38v.7a.93.93 0 0 1 -.92-.71 2.92 2.92 0 0 1 -.21-1.5.72.72 0 0 0 -1.44 0z"/><path d="m199.86 294.46c0 1.41.24 2.88 1.69 3.46a2.12 2.12 0 0 0 2.78-1.1 1.77 1.77 0 1 0 -3.3-1.23.72.72 0 0 0 1.39.38v.7a.93.93 0 0 1 -.92-.71 2.92 2.92 0 0 1 -.21-1.5.72.72 0 0 0 -1.44 0z"/><path d="m194.11 308.46c.59-1.25 1-2.63 0-3.8a2.12 2.12 0 0 0 -3-.35c-2.1 1.66.75 4.54 2.34 2.62.59-.71-.42-1.73-1-1q.92-.59.84.49a3.64 3.64 0 0 1 -.45 1.32c-.4.83.84 1.56 1.24.73z"/><path d="m212.94 316.21c.59-1.25 1-2.63 0-3.8a2.12 2.12 0 0 0 -3-.35c-2.1 1.66.75 4.54 2.34 2.62.59-.71-.42-1.73-1-1q.92-.59.84.49a3.64 3.64 0 0 1 -.45 1.32c-.4.83.84 1.56 1.24.73z"/><path d="m185.05 313.64c.59-1.25 1-2.63 0-3.8a2.12 2.12 0 0 0 -3-.35c-2.1 1.66.75 4.54 2.34 2.62.59-.71-.42-1.73-1-1q.92-.59.84.49a3.64 3.64 0 0 1 -.45 1.32c-.4.83.84 1.56 1.24.73z"/><path d="m210.69 303.18c0 1.41.24 2.88 1.69 3.46a2.12 2.12 0 0 0 2.78-1.1 1.77 1.77 0 1 0 -3.3-1.23.72.72 0 0 0 1.39.38v.7a.93.93 0 0 1 -.92-.71 2.92 2.92 0 0 1 -.21-1.5.72.72 0 0 0 -1.44 0z"/><path d="m276.8 304.86c0 1.41.24 2.88 1.69 3.46a2.12 2.12 0 0 0 2.78-1.1 1.77 1.77 0 1 0 -3.27-1.22.72.72 0 0 0 1.39.38v.7a.93.93 0 0 1 -.92-.71 2.92 2.92 0 0 1 -.21-1.5.72.72 0 0 0 -1.44 0z"/><path d="m183.35 328.69c.22 1.44.61 3 2.06 3.68a2.1 2.1 0 0 0 2.86-.93 1.72 1.72 0 0 0 -.81-2.37c-1.33-.6-2.49.41-3.28 1.38-.58.71.44 1.74 1 1a5.43 5.43 0 0 1 .56-.66l.69-.45q-.06 1.28-.7.44c-.8-.48-.89-1.65-1-2.5s-1.52-.52-1.39.38z"/><path d="m180.88 305.33c.76-1.42 1.27-3.13.44-4.65-.48-.88-1.86-2.07-2.85-1.22s-.34 2.26.26 3a5.37 5.37 0 0 0 4.78 1.68c.92-.06.93-1.5 0-1.44s-3.56 0-3.88-1.47c-.19-.89.67.85.68 1a4.26 4.26 0 0 1 -.68 2.37c-.44.82.81 1.54 1.24.73z"/><path d="m171.52 309.85a2.49 2.49 0 0 1 -1 1.05q.16-1.14.5-.14c.57.82 0 1.61-.6 2.26s.4 1.71 1 1c1-1.14 1.81-2.79.83-4.23a2 2 0 0 0 -3.07-.53 1.77 1.77 0 0 0 .17 2.86c1.42.8 2.71-.44 3.4-1.56.49-.79-.76-1.51-1.24-.73z"/><path d="m200.51 310.4a2.49 2.49 0 0 1 -1 1.05q.16-1.14.5-.14c.57.82 0 1.61-.6 2.26s.4 1.71 1 1c1-1.14 1.81-2.79.83-4.23a2 2 0 0 0 -3.07-.53 1.77 1.77 0 0 0 .17 2.86c1.42.8 2.71-.44 3.4-1.56.49-.79-.76-1.51-1.24-.73z"/><path d="m178.42 323c1.38-1 2.59-2.55 2.14-4.38-.29-1.2-1.72-2.61-2.79-1.26-2.15 2.71 2 6.83 4.59 4.26.66-.65-.35-1.66-1-1-1.23 1.2-2.84-.4-2.59-1.79s.46.78.43 1a3.41 3.41 0 0 1 -1.48 2c-.73.55 0 1.8.73 1.24z"/><path d="m283.56 297.12-.05-.09-.11.87.11-.11-.7.18h.14l-.53-.69c0 .36-1.22.92-1.4 1a.88.88 0 0 1 -1.11-.21.81.81 0 0 1 -.43-.73l.57.18a2.91 2.91 0 0 1 .06 1.29 3.11 3.11 0 0 1 -.78 1.53c-.61.69.4 1.71 1 1 1.19-1.34 1.8-3.56.67-5.16a1.6 1.6 0 0 0 -2.89.52 2.47 2.47 0 0 0 2.07 3c1.28.18 3.78-.88 3.66-2.43a.74.74 0 0 0 -.53-.69.9.9 0 0 0 -.95.27.73.73 0 0 0 -.11.87l.05.09c.49.79 1.73.06 1.24-.73z"/><path d="m285.22 313.58q-.6 1-1.26-.11a2 2 0 0 1 .17-1.3c.6-1 1.28-.23 1.43.6.3 1.61-1 3.22-2.66 2.58-.87-.32-1.24 1.07-.38 1.39a3.38 3.38 0 0 0 4.48-2.74c.28-1.56-.66-4.55-2.8-3.82-1.63.56-2.21 3.23-1.19 4.52a2.07 2.07 0 0 0 3.62-.71c.18-.9-1.21-1.29-1.39-.38z"/></g><g opacity=".35"><path d="m188.14 164.12c2.56 1 12.73 13.23 32.92 13.23s30.35-12.22 32.92-13.23 16.26-8 7.26-17.63c.11.93-.66 3.18-2 5a14.44 14.44 0 0 1 -5.22 3.79c-2.56 1-12.73 13.23-32.92 13.23s-30.35-12.22-32.92-13.23a16.23 16.23 0 0 1 -4.34-2.8c-1.59-1.57-2.3-3.52-3-4.1-9.05 9.62 4.7 14.7 7.3 15.74z" fill="#2a1d30"/></g><g opacity=".2"><path d="m283.59 326.1s99.44 7 86.78 23.45l-13.55-5.26s-23.2 6.06-56.82-2.29c-6.18-1.53-35.69-5.11-10.61 14 0 0 2 1.92 3.77 3.22 3.24 2.44 0 7.07-17.44 9.37-35.39 4.66-34.39-3.2-34.86-4s-1.83-6-14.76-4.29-15.83 3 1.72 13.91-18.74 1.34-25.84 1.27c-8.3-.08-26.86 5.35-32.57 3.36 0 0 20.27-12.79-9.42-10.75s-32.99-5.89-32.99-5.89-7.07-7.72-16.74.31-35.62-15.75-36.55-18.21c0 0 34.27-20.13 99.3-19-.01.05 28.74 10.7 110.58.8z" fill="#3e2945"/></g><g opacity=".3"><path d="m370.39 349.52s6.63-9.26-13.57-5.22z" fill="#3e2945"/></g><g opacity=".2"><path d="m283.59 326.1s34.38 6.37 61.88 14.43c6.77 2 13.14 4.45 18.46 6.5 2.11.82 4.3 1.52 6 2.33l8 3.31s-15.19-5.79-42.67 9.76c0 0-14.87 11.64-28.12 10 0 0-37.29-27.07-41.72-43.88 0 0-.59-.31 7.51-1.09 8.77-.8 6.86-.39 10.66-1.36z" fill="#442f4b"/></g><g opacity=".3"><path d="m293.12 359.25-8-18.41s-10.89 1-3.23 8.53a105.64 105.64 0 0 0 11.23 9.88z" fill="#3e2945"/></g><g opacity=".4"><path d="m277 327.52s28.3 28.38 31.9 53.55c0 0-5.32-4.16-26.19.66s-47.68 19.51-76.13 6.09c-3.72-1.76-17.86-5.56-18 3.63 0 0-13.05-41.44 10.2-62.56-.03-.01 46.92 2.69 78.22-1.37z" fill="#442f4b"/></g><g opacity=".2"><path d="m308.86 381.07s-2.39 8.68-30.51 1.75c0 0 5.75-34.92-6.89-54.56l5.51-.74s28.3 28.17 31.89 53.55z" fill="#442f4b"/></g><g opacity=".4"><path d="m232.44 378.44s-2.84-32.24 3.12-48.23l-23.42-.87s-3 21.13 3 35.1a46.86 46.86 0 0 0 6.14 5.6c4.41 3.3 9.88 5.49 11.16 8.4z" fill="#442f4b"/></g><g opacity=".3"><path d="m378 352.68s33.23 19.81-98.82 23.48c0 0 3.33-41.62-7.7-47.9l12.13-2.16s35.68 3 72.59 15.86c15.8 5.53 20.46 10.12 21.8 10.72z" fill="#442f4b"/></g><g opacity=".3"><path d="m318.75 392.44c14.21-.31 70.84-9.64 36-29.12s-76.39-36.21-76.39-36.21l-30.07 2.25s16.35 62.73 10.88 68.78c-.05.01 13.59-4.7 59.58-5.7z" fill="#442f4b"/></g><g opacity=".3"><path d="m122.16 387.8c-14.2-.71-73.88-19.68-38.47-38.19s85-24.36 85-24.36l30.1 3.63s-18.78 9.54-12.24 55c-.04-.02-18.45 6.2-64.39 3.92z" fill="#442f4b"/></g><g opacity=".3"><path d="m365.79 375.84s-2.88-11.78-63.51 14.74c0 0-66.85 18.29-90.9-1.12 0 0 7.64-24.65 19.88-58.91 0 0 42.67-2.57 47.07-3.43 0 0 6 2.06 32.07 13.81 9.87 4.66 15 7.13 25 12.16 3.75 1.9 12.33 6.31 13.48 6.94a96.56 96.56 0 0 1 11.69 7.07c4.12 3.16 5.43 5.8 5.22 8.74z" fill="#442f4b"/></g><g opacity=".2"><path d="m188.56 391.45s.21 6.61 33.64 1.15c0 0-14-45 .22-63.18l-23.67-.53s-21.67 11.93-10.19 62.56z" fill="#3e2945"/></g><g opacity=".4"><path d="m202.38 386.36s-19 13.8-46.17 9.54c0 0-8.24-.93-17.47-7.6s-13.22-3.45-14 0c0 0 14.65-47.59 51.8-62.6 0 0 20.74 4.37 30.44 3.49.02.01-5.41 37.55-4.6 57.17z" fill="#442f4b"/></g><g opacity=".2"><path d="m124.75 388.31s5.05 17.18 62-4.5c0 0-8-37 12-54.93l-22.2-3.17s-32.05 9.77-51.8 62.6z" fill="#3e2945"/></g><g opacity=".2"><path d="m110.28 362.51s1.11 6 35.19 5.66c0 0 22.34-33.19 40-41.11 0 0-7-.72-16.85-1.82.03.01-48.87 18.14-58.34 37.27z" fill="#3e2945"/></g><g opacity=".4"><path d="m73.71 344.3s13-9.08 36.57 18.21 59.08 16.35 59.08 16.35 7.22-2.9 6.34-8.9c0 0-4.89-27 15.41-41.73l-22.45-3s-66.41-3.95-94.95 19.07z" fill="#442f4b"/></g><path d="m301.07 328.11s-73.91 33.69-153.62-.58l1.25-10.53s66 27.77 150.66-.87z" fill="#442f4b"/><circle cx="284.52" cy="124.12" fill="#f2a88f" r="31.95"/><path d="m287.92 115.75c-12.16-.35-24.53 2-35.3 7.53v.84a31.95 31.95 0 1 0 63.72-3.35 106.23 106.23 0 0 0 -28.42-5.02z" fill="#fff"/><path d="m316.29 120.32a115.84 115.84 0 0 0 -28.37-4.57c-12.16-.32-24.53 1.78-35.3 6.84v.6c2-.11 4-.22 6.06-.24a2 2 0 0 1 1.23.39c14.56.15 29.12.73 43.63 1.89 3.81.3 8.39.37 12.82.91a25.59 25.59 0 0 0 0-5.81z" fill="#e6e6e6"/><path d="m277.19 120.92a7.46 7.46 0 1 1 7.45 7.46 7.46 7.46 0 0 1 -7.45-7.46z" fill="#3e2945"/><path d="m252.24 122.79c-1.43-2.39 7.41-12.74 19.15-17 0 0 8.56-3.1 23-2.34 5.49.29 11.5 1.2 11.5 1.2 4.45.63 5 .91 7.52 1.18a60.91 60.91 0 0 0 14.58-.67c12.48-2.29 24.44-10.53 26.22-11.77-1.37 1.34-17.6 17-28.25 24-3.13 2.06-6.15 3.66-9.71 3.35-2.05-.18-2.88-.78-7.62-2.11 0 0-2.77-.78-7.5-1.78-7.83-1.66-18-.12-22.07.54-18.98 3.13-25.7 7.26-26.82 5.4z" fill="#2a1d30"/><circle cx="161.85" cy="124.12" fill="#f2a88f" r="31.95"/><path d="m158.45 115.75c12.16-.35 24.53 2 35.3 7.53v.84a31.95 31.95 0 1 1 -63.72-3.35 106.23 106.23 0 0 1 28.42-5.02z" fill="#fff"/><path d="m130.08 120.32a115.84 115.84 0 0 1 28.37-4.57c12.16-.32 24.53 1.78 35.3 6.84v.6c-2-.11-4-.22-6.06-.24a2 2 0 0 0 -1.23.39c-14.56.15-29.12.73-43.63 1.89-3.81.3-8.39.37-12.82.91a25.59 25.59 0 0 1 0-5.81z" fill="#e6e6e6"/><path d="m169.18 120.14a7.46 7.46 0 1 0 -7.45 7.46 7.46 7.46 0 0 0 7.45-7.46z" fill="#3e2945"/><path d="m194.12 122.79c1.43-2.39-7.41-12.74-19.15-17 0 0-8.56-3.1-23-2.34-5.49.29-11.5 1.2-11.5 1.2-4.45.63-5 .91-7.52 1.18a60.91 60.91 0 0 1 -14.58-.67c-12.51-2.28-24.47-10.52-26.25-11.76 1.37 1.34 17.6 17 28.25 24 3.13 2.06 6.15 3.66 9.71 3.35 2.05-.18 2.88-.78 7.62-2.11 0 0 2.77-.78 7.5-1.78 7.83-1.66 18-.12 22.07.54 19.02 3.12 25.73 7.25 26.85 5.39z" fill="#2a1d30"/><path d="m202.13 197.26s4 9.47 21.15 10c12 .39 19.81-4.3 24.64-11.21l-20-.31-6.23 1.18-17.37-.34z" fill="#c57d7d"/><path d="m201 196.87c-1.83-.68-2.5-3.1.56-2 3.71 1.32 6.82.79 12.25-1.31 2-.78 5.45-1.12 9.37 2.27 0 0 1.81-3.68 9.81-2.77s8 3.25 14.06 1.71c0 0 5.31-1.25 2.05 1.22-4.76 3.6-20.78 2.86-20.78 2.86s-5.45 1.66-9.68-.09c-.06-.03-10.64.75-17.64-1.89z" fill="#b75e5e"/><path d="m310.71 65.82c-4.17-3.34-9.41-4.1-15-3.37a6.47 6.47 0 0 0 -9.36-7.84 36.54 36.54 0 0 0 -9.85 7.88 6.79 6.79 0 0 0 -5.86-3.95c-11.39-1-19.33 15.17-21.18 24.26-.83 4.1 2.31 7.61 6.35 8a19.32 19.32 0 0 0 7.07-1c14.68-4.07 33.24-6.16 46.55-13.74 3.29-1.9 4.57-7.58 1.28-10.24z" fill="#543966"/><path d="m465.53 188.52c-3 6.25-23.86 6.33-37.53-4.06-12.3-9.35-19.76-27.92-13.59-35.21 3.94-4.66 13.3-4.57 19.63-1.77 5.13 2.27 7.59 6 11.15 11.15 16.7 23.98 22.03 26.37 20.34 29.89z" fill="#f88f1c"/><path d="m398.88 257.35c-8.18.25-17.47 2.78-20.94 10.19-3.39 7.25.28 15.93-1.46 23.73-.76 3.4-2.52 7-1 10.18s5.34 4.13 8.76 4.22a30.47 30.47 0 0 0 15.82-4c7.21-4.12 12.4-11 16.89-18 2.61-4.07 5.1-8.33 6.09-13.06s.29-10-2.89-13.68" fill="#f88f1c"/><path d="m84 344.57c-5.16-4-6.73-11.19-6.25-17.69a29.57 29.57 0 0 1 6.66-17.18c4.09-4.72 10.29-7.78 16.52-7.34 10.07.71 18.11 11.63 15.79 21.46-1.54 6.54-6.79 11.7-12.76 14.77s-12.68 4.35-19.28 5.6" fill="#f88f1c"/><path d="m81.58 118.25c-1.13 7-8.57 10.9-15.32 13s-14.37 4.06-18.15 10c-4.1 6.48-1.37 15.93 5 20.14s15.35 3.44 21.67-.9 10.22-11.63 11.4-19.21 0-15.36-2.16-22.72" fill="#f88f1c"/></g></g></svg>