<svg height="512" viewBox="0 0 512 512" width="512" xmlns="http://www.w3.org/2000/svg"><g id="social_media" data-name="social media"><g id="lightning_struck" data-name="lightning struck"><ellipse cx="242.36" cy="488.37" fill="#3f3f44" opacity=".21" rx="77.29" ry="7.63"/><path d="" fill="#fdbc3e"/><path d="m474 214.67h2.22z" fill="#fdbc3e"/><path d="m476.18 214.71q-35.15-.56-70.29 1.39a133.3 133.3 0 0 0 11.21 16.62q-19.42 5.19-38.34 12.07l14 23.65a392.61 392.61 0 0 1 45.15-22.81 59.18 59.18 0 0 1 -11.91-17.19z" fill="#fdbc3e"/><path d="m202.2 16.26c0-.09 0-.18 0-.27z" fill="#fdbc3e"/><path d="m202.1 18.49.1-2.22z" fill="#fdbc3e"/><path d="m202.2 16.27q-1.66 35.12-.8 70.3a133.3 133.3 0 0 0 17-10.69q4.59 19.57 10.87 38.7l24.08-13.26a392.61 392.61 0 0 1 -21.4-45.84 59.18 59.18 0 0 1 -17.54 11.34z" fill="#fdbc3e"/><path d="m35.81 342.58h-.27z" fill="#fdbc3e"/><path d="m38 342.44-2.22.14z" fill="#fdbc3e"/><path d="m35.82 342.58q35.09-2.21 70-6.93a133.3 133.3 0 0 0 -12.53-15.65q18.95-6.71 37.27-15.05l-15.82-22.47a392.61 392.61 0 0 1 -43.21 26.3 59.18 59.18 0 0 1 13.2 16.19z" fill="#fdbc3e"/><path d="m346.93 332.28c31.1 2.79 59.5 7.37 90.6 10.16-36.38-27-72.26-52.71-108.74-78.48q53.21-46.16 104.43-94.49a439.85 439.85 0 0 0 -97.75 20.48c12.86-28.45 26.52-53.77 39.38-82.22-48.13 32.74-94 65.4-141 99.27q-76-42.39-154.06-80.84a439.88 439.88 0 0 0 53.34 84.44c-31.15-2.11-59.65-6.07-90.8-8.17 46.65 33.06 92.47 64.11 139.73 95.76q-41.19 58.63-79.88 119a439.87 439.87 0 0 0 89.82-43.57c-5.59 30.72-12.73 58.59-18.32 89.31 33.94-38 66.21-75.51 98.84-113.93q62.2 35.76 125.86 68.87a439.84 439.84 0 0 0 -51.45-85.59zm-102.2-94.45.34.55h-.88z" fill="#fdbc3e"/><path d="m118.79 195.9c-1.78-16 21.92-34.46 21.92-34.46s-14.44 12.93-19.68 8.35.07-15 21.7-27.91c0 0-13.43-4.28-13.2-12.12s37.26-6.48 37.26-6.48-18-11.86-10.21-14.82 26.91 2 26.91 2-15.1-3.34-14.49-10.11 30.35 2.91 30.35 2.91-16.35-15.81-4.77-16.55c7.39-.47 20.84 12.48 20.84 12.48s-15.82-22.93-5.42-25.3 16.66 22.35 16.66 22.35 1.5-26.67 8.48-25.93-1.24 24.39-1.24 24.39 29.58-35.59 37.63-26.81-12 20-13.92 21.43 26-15.5 31.09-7.47-9.26 15.31-14.17 18.15c0 0 36.91-13.37 40.5-5.35s-18.51 12.63-22.89 13.3c0 0 33.19 3.32 33.38 10.12s-7.81 4.94-20.17 5c0 0 21.93 3.58 23.53 12.73s-22 4.12-22 4.12 20.66 1.71 25.3 9.93-20.49 22.15-20.49 22.15l-159.5 33.88s-31.62 6.02-33.4-9.98z" fill="#3e2945"/><path d="m316.9 410.75s17.33 21.26 24.48 17.06 23.74-13.59 22.73-19.55-13.14-11.08-28.22-2.07-18.99 4.56-18.99 4.56z" fill="#3e2945"/><path d="m318.31 411.85c15.18 11 23.93 14.67 27.4 12.47 2.26-1.43-5.86-21.64-17.39-43.47l-.34.29c2.67-7.46 5-11.83 5.12-19.76-8.68 3.27-18 3.85-25.36 9.55-4.21 3.28-8.2 7-13 9.28a29.66 29.66 0 0 1 -10.63 2.62" fill="#3e2945"/><path d="m239 427.29s-7.19 26.47-15.43 25.54-27.21-2.77-28.71-8.62 7.5-15.46 24.94-13.36 19.2-3.56 19.2-3.56z" fill="#3e2945"/><path d="m247.4 389.61c.75.16.24 20.69-9.19 39.26-4.29 8.44-14.19 23.38-20 22.53-2.64-.39-3.44-22.15-1.78-46.79l.43.13c-5.47-5.73-9.51-5.43-12.83-12.62 9.26-.54 18.17-7.16 27.17-4.92 4.39 1.09 13.44 5.9 15.66 3.19.38-.39.44-.8.54-.78z" fill="#3e2945"/><path d="m362.23 245.22a10 10 0 0 1 3.85-13.63l6.29-3.52a10 10 0 0 1 13.63 3.85 10 10 0 0 1 -3.85 13.63l-6.29 3.52a10 10 0 0 1 -13.63-3.85z" fill="#3e2945"/><path d="m282.45 284.47c3.46-1.26 13.67-5.72 13.67-5.72s67.63-51.2 77.61-39.52-70.73 70.69-72.46 68.84-18.82-23.6-18.82-23.6z" fill="#3e2945" fill-rule="evenodd"/><path d="m132.84 293.94a10 10 0 0 0 -9.06-10.94l-7.18-.66a10 10 0 0 0 -10.89 9.06 10 10 0 0 0 9.05 10.89l7.18.66a10 10 0 0 0 10.89-9.06z" fill="#3e2945"/><path d="m221.69 297.37c-3.67.25-14.82.33-14.82.33s-82.6-19.29-87-4.57 93.35 35.85 94.19 33.44 7.63-29.2 7.63-29.2z" fill="#3e2945" fill-rule="evenodd"/><ellipse cx="281.57" cy="302.55" fill="#f79820" rx="6.4" ry="4.85" transform="matrix(.646 -.764 .764 .646 -131.26 322.28)"/><ellipse cx="246.58" cy="253.78" fill="#8e3d7c" rx="53.73" ry="28.63" transform="matrix(.978 -.208 .208 .978 -47.34 56.76)"/><ellipse cx="245.29" cy="247.71" fill="#d49f77" rx="53.73" ry="28.63" transform="matrix(.978 -.208 .208 .978 -46.11 56.36)"/><path d="m317 198.1c-10.33-23.75-19.51-52.22-41.88-69.61-47.56-37-113.37.75-122.6 49.37-5 28.12-11.48 84.25 29.93 88.48 50.55 5.05 158.01-14.17 134.55-68.24z" fill="#3e2945"/><path d="m190.63 169.76c4.51-23.78 22.57-45 45.4-56.07-38.62-2.06-76.69 28.05-83.55 64.17-5 28.12-11.48 84.25 29.93 88.47 23.33 2.33 58.73-.5 87.81-9.52-18.23 2.37-36 2.78-49.66 1.42-41.41-4.23-34.97-60.35-29.93-88.47z" fill="#3e2945"/><path d="m143.59 186.62.49.66a2.51 2.51 0 0 1 -.21-.31c-.09-.1-.17-.22-.28-.35z" fill="#d49f77"/><path d="m144.11 187.32-.07-.07z" fill="#d49f77"/><path d="m143.87 187a2.51 2.51 0 0 0 .21.31l.07.07c.12.11 0-.05-.28-.38z" fill="#d49f77"/><path d="m305.47 152.24-.17.8a2.89 2.89 0 0 0 .06-.37c.03-.13.06-.27.11-.43z" fill="#d49f77"/><circle cx="164.27" cy="186.01" fill="#3e2945" r="6.87" transform="matrix(.978 -.208 .208 .978 -35.06 38.18)"/><circle cx="281.36" cy="162.51" fill="#3e2945" r="6.87" transform="matrix(.978 -.208 .208 .978 -27.62 62)"/><path d="m300.06 275.07h-19.25l-62.62 13.33-17.51 7.78c-10.54 5.71-15.53 22-11.94 38.94l15.31 57c24.61 19.2 116.31-1.21 129-30.73l-6.3-55.58c-3.6-16.94-14.79-29.8-26.73-30.74zm0 0" fill="#3e2945"/><g fill="#efefef"><path d="m271.5 387.79a3.76 3.76 0 0 1 -3.67-3l-15.51-73a3.76 3.76 0 1 1 7.35-1.56l15.51 73a3.76 3.76 0 0 1 -2.89 4.46 3.87 3.87 0 0 1 -.79.1z"/><path d="m270.09 319.79h-.25a3.76 3.76 0 0 1 0-7.51h.23c14.32 0 28.56-6.11 41.13-11.5a3.76 3.76 0 0 1 3 6.91c-13.27 5.67-28.26 12.1-44.11 12.1z"/><path d="m273.42 335.5h-.25a3.76 3.76 0 0 1 0-7.51h.23c14.31 0 28.55-6.11 41.13-11.5a3.76 3.76 0 0 1 3 6.91c-13.27 5.67-28.26 12.1-44.11 12.1z"/><path d="m277.19 353.21h-.26a3.76 3.76 0 0 1 0-7.51h.24c14.3 0 28.54-6.1 41.12-11.49a3.76 3.76 0 1 1 3 6.91c-13.29 5.67-28.29 12.09-44.1 12.09z"/><path d="m201.44 331.62a3.76 3.76 0 0 1 -.05-7.51c13.75-.19 29.34-.4 42.45-6.3a3.76 3.76 0 1 1 3.08 6.85c-14.53 6.54-30.95 6.77-45.43 7z"/><path d="m204.78 347.32a3.76 3.76 0 0 1 0-7.51c13.75-.19 29.33-.4 42.45-6.3a3.76 3.76 0 1 1 3.08 6.85c-14.54 6.55-31 6.77-45.43 7z"/><path d="m208.54 365a3.76 3.76 0 0 1 0-7.51c13.75-.19 29.33-.4 42.45-6.3a3.76 3.76 0 1 1 3.08 6.85c-14.54 6.55-31 6.77-45.43 7z"/><path d="m314.39 356.44c-3.83-1.46-7.36.18-10.64 2-8.8 4.75-17.09 11.64-25.33 17.29a4.1 4.1 0 0 0 -1.79 2.86c-1 .37-1.92.74-2.9 1.07a56 56 0 0 1 -7.06.19c-12.41-.54-43.25-10.81-51.74 2.57a4.15 4.15 0 0 0 .39 4.84c3.9 5.54 10.75 4.45 17 4.6a181 181 0 0 0 27.13-.95 75.61 75.61 0 0 0 13.81-3.1h.39c12.85-.74 31.06-6.79 41.09-15 5.2-4.38 7.94-13.22-.35-16.37z"/><path d="m236.28 402.61a13.16 13.16 0 0 0 -6 2.65c-.2-2.16-.69-4.53-3.23-4-3.29.7-.82 5.69 0 7.43a1.52 1.52 0 0 0 1.07.75 3.53 3.53 0 0 0 -.3.45c-1.54 3.54-1 9.06-1.41 12.88a60.64 60.64 0 0 1 -1.06 7.27c-.88 3.76-1.37 3.9-4.76 6.46-2.26 1.7-3.41 2.34-3.83 5.42-.13 1 1.29 1.59 2.06 1.3a11.4 11.4 0 0 0 3.64-2.11 6.13 6.13 0 0 0 1.46 2.8 1.74 1.74 0 0 0 1.5.6c3.65-.8 1.81-5.8 1.44-8.37a1.11 1.11 0 0 0 -.44-.69c1.75-3 2-7.57 2.4-10.92.59-5.09-.45-12.8 4.28-16 2.59-1.77 4.57-.87 5-4.54.08-.85-1.1-1.52-1.82-1.38z"/><path d=""/><path d="m337.46 411.38a1.08 1.08 0 0 0 -1.17 1.15c-1.23-2.4-3.45-4.53-5.07-6.6-4.36-5.56-8.42-11.34-12.3-17.25a.9.9 0 0 0 .36-.66 8 8 0 0 0 1.2-1.31c1.42-1.86 3.14-6.21 1.63-8.48a2.57 2.57 0 0 0 -3.75-1c-2.21 1.3-2.39 4.87-2.12 7.77a15 15 0 0 1 -3.9.42 6.63 6.63 0 0 0 -5.34 2.58 1.31 1.31 0 0 0 .39 2 11.73 11.73 0 0 0 4.2 1.1c-.12-.07 4.65-.35 4.42-.67 3 1 6.14 7.6 8 10.17 2.93 4 7.28 8 9.59 12.34 1.6 3 .85 6.15 3.48 8.53.66.6 2.1.37 2.18-.68a10.9 10.9 0 0 0 -.26-3.82c2.75.72 6.11 1 6.65-1.67.76-3.76-6.03-3.86-8.19-3.92zm-18.46-29.66-.1 2.26h-.12a13 13 0 0 1 .22-2.26z"/><path d="m375.45 239.76 1.63-5.21-2.22-1.19a5 5 0 0 1 -2 5.54c-.94.91 1 2.15 1.87 1.83l3.11.24-.44-1.56-3.35.71c-.49-.34-1.13-.58-1.62-.1q-17.06 16.59-35.43 31.78c-1.06.88.76 2.75 1.67 2q18.55-15.35 35.83-32.1l-1.62-.1c2.4 1.65 4.55 1.8 6.59-.5.41-.46 0-1.28-.44-1.56-2.18-1.47-3.45-1.75-6-.78l1.87 1.83a6.89 6.89 0 0 0 2.27-6.5c-.11-.91-1.37-2-2.22-1.19-2.13 2.08-2.53 3.86-1.86 6.73.28 1.18 2.66 1.74 2.29.15z"/><path d="m122.11 293.58c-3.23-3.13-6.24.91-4.92 3.79a1.66 1.66 0 0 0 1.34.89c2.06-.1 1.21-.49 2.9-1.21 3.67-1.58 4-.81 7.5.51q2.87 1.07 5.78 2a187.3 187.3 0 0 0 24.91 6.36c1.7.32 1.34-1.89 0-2.14a197.77 197.77 0 0 1 -33-9.26c-2.77-1-3.93-1.92-6.32-.41s1.79.15 2.58-1.56c1.14-2.48-1-7.33-4.26-6.51-4.78 1.18.71 7.52 2.25 9 1.19 1.15 2.38-.37 1.21-1.5z"/></g><path d="m354.12 226.07c-3.9-7.63-23.94-16.23-23.94-16.23 25.62 1.14 13.91-11.1 13.91-11.1-6.2-7.77-27.84-10.07-27.84-10.07 26.13-8.67 7.75-15.74 7.75-15.74-17.35-5.09-39.44 1.17-39.44 1.17 11.68-7.81 11.14-16.47 11.14-16.47-2.39-5.13-12.79-3.55-12.79-3.55-1.44.38-2.78.81-4.05 1.28-.42.16-.79.33-1.2.5-.81.33-1.62.65-2.36 1-.45.22-.85.45-1.28.68-.62.33-1.25.66-1.82 1-.42.26-.79.53-1.19.79s-1 .69-1.49 1-.71.58-1.06.87-.84.71-1.22 1.06-.63.62-.92.93-.68.71-1 1.07-.54.64-.79 1-.54.7-.78 1-.46.66-.67 1c-.1.15-.22.31-.31.46a23.7 23.7 0 0 0 -3.6 11.08c10.12 7 2.22 14.37.07 15.8s-8.94 14.4-27.14 18.29-29.71-5.2-32.21-5.63-12.78-4-6.36-14.46a23.7 23.7 0 0 0 -7.79-8.66l-.47-.29q-.49-.32-1-.64c-.37-.22-.75-.43-1.14-.63s-.73-.38-1.12-.56-.88-.39-1.33-.57-.8-.32-1.22-.47-1-.33-1.55-.48-.86-.25-1.32-.36-1.18-.24-1.78-.35-.92-.18-1.41-.24c-.66-.09-1.37-.13-2.08-.18-.48 0-.94-.09-1.44-.1-.82 0-1.69 0-2.56 0-.44 0-.85 0-1.3 0-1.35.09-2.75.24-4.22.48 0 0-10.14 2.78-10.24 8.44 0 0 3 8.13 16.87 10.52 0 0-22.73 3.26-36.51 15 0 0-14 13.93 13.45 11.25 0 0-18.83 10.89-21.34 20.52 0 0-5.72 15.94 17.22 4.49 0 0-14.82 16-15.28 24.56 0 0-1.57 11 16.55-4.77 0 0-5.74 11.25-6.64 20.84s4.75 9.45 12.9 2.18c0 0-5.73 11.65-4.82 19s6 21.79 18.19-6.43c0 0-.62 20.25 4.77 27.25 0 0 5.87 3.14 8.35-.52s3.57-10.79 2.49-14.32c0 0 7.56 17.2 20.4 19.48 0 0 9.23.55 7.41-15.67 0 0 7.34 10 17.07 11.42s13.31-4.71 10.52-16.34c0 0 7.86 16.94 23 13.71s17.09-22.23 17.09-22.23c2.17 11.76 7.93 15.86 16.25 10.65s11-17.37 11-17.37c4.93 15.56 13.14 11.31 13.14 11.31 10.81-7.31 10.72-26.09 10.72-26.09.45 3.66 4.34 9.73 8.09 12.07s7.84-2.92 7.84-2.92c2.08-8.59-6.71-26.84-6.71-26.84 22.61 20.83 21.39 5.55 19.23-1.52s-12.12-15.42-12.12-15.42c10.4 3.34 15.61 1.17 10.9-7.23s-14.53-16.34-14.53-16.34c22.94 7.03 17.06-2.36 17.06-2.36z" fill="#3e2945"/><path d="m192.64 248.87c8.36-7.87 22.48-21.31 46.36-26.47 30.4-6.56 49.16-.71 59.5 9.18 14.64 14 12.36 36.1 2.27 42.47a40.17 40.17 0 0 1 -4.23 2.35c-14.4 6.86-22.6-1.6-46.12-.22-33.95 5.49-47.39 10.81-52.29 15.2a7.41 7.41 0 0 1 -4.12 2c-6.87.72-15.93-10.26-16.49-20.21-.52-9.41 6.67-16.33 15.12-24.3z" fill="#fff"/><path d="m233.9 251.1a61.77 61.77 0 0 0 -45.67 40.54 9.25 9.25 0 0 0 5.8 1.73 7.41 7.41 0 0 0 4.12-2c4.9-4.4 18.35-9.72 52.29-15.2 23.52-1.38 31.72 7.08 46.12.22.24-.12.5-.26.75-.39a61.82 61.82 0 0 0 -63.41-24.9z" fill="#fff"/><path d="m257.27 225.85a4.46 4.46 0 0 0 4.12 4.6c3.32.35 6.64.65 10 .87 2.91.19 6.71 1 9.33-.58s2.67-3.71 2.47-6.33l-.44-5.86a84 84 0 0 0 -26-1.53 4.3 4.3 0 0 0 -.09 1.87 35.75 35.75 0 0 1 .61 6.96z" fill="#3e2945"/><path d="m200 246.74c3 .69 5.9-1.46 8.45-2.74 3.5-1.76 7.19-3.35 10.57-5.34 5.43-3.21 3.84-8.44 1.66-13.12a102.31 102.31 0 0 0 -25.24 15.94c.85 2.3 1.9 4.66 4.56 5.26z" fill="#3e2945"/><path d="m230.3 273.05c-3-3.11-9.32-.64-12.94 0s-9.61.43-11.81 3.8c-2 3.09-.05 8.28.91 11.85a208.58 208.58 0 0 1 27.2-6.94l-.87-2.68c-.62-1.93-1.02-4.51-2.49-6.03z" fill="#3e2945"/><path d="m264.67 360.74h16.72v52.58h-16.72z" fill="#c03018" transform="matrix(.839 .545 -.545 .839 254.92 -86.27)"/><path d="m264.75 360.72h16.72v52.58h-16.72z" fill="#c03018" transform="matrix(-.545 .839 -.839 -.545 746.43 368.83)"/><path d="m256.29 144.54a29.43 29.43 0 1 0 50.16 30.71 14.15 14.15 0 0 0 -4.74-18.75l-25-16.22a14.84 14.84 0 0 0 -20.42 4.26z" fill="#fff"/><path d="m184.19 159.85a29.43 29.43 0 1 1 -33.35 48.44 14.15 14.15 0 0 1 -3.29-19.06l16.22-25a14.84 14.84 0 0 1 20.42-4.38z" fill="#fff"/></g></g></svg>