<svg width="150" height="180" xmlns="http://www.w3.org/2000/svg">
 <g>
  <title>Layer 1</title>
  <rect x="0" y="0" stroke-width="0" stroke="#000" id="svg_1" height="180" width="150" fill="#33d651"/>
  <rect rx="25" stroke-width="0" id="svg_2" height="81.93277" width="86.55462" y="47.64706" x="31.95798" stroke="#000" fill="#249e3a"/>
  <path id="svg_5" d="m62.80647,88.68328c2.06884,3.88218 2.47272,5.06114 1.78869,5.22125c-1.33621,0.31277 -1.0677,2.10152 0.80255,5.34636c2.34549,4.06938 6.93959,6.56835 11.25487,6.12211c1.67494,-0.17321 3.56854,-0.53066 4.20799,-0.79435c0.63945,-0.2637 0.24706,0.22754 -0.87198,1.09163c-5.59809,4.32268 -12.51197,4.02157 -18.02775,-0.78513c-2.19924,-1.91653 -5.22506,-7.51608 -5.22506,-9.66947c0,-0.61004 -0.49885,-1.20115 -1.10856,-1.31356c-0.99711,-0.18384 -0.8632,-0.6679 1.33188,-4.81465c1.34225,-2.53565 2.60575,-4.79215 2.80779,-5.01445c0.20204,-0.2223 1.56985,1.85232 3.03957,4.61026l0,0zm17.78343,7.48436c-2.06884,-3.88218 -2.47272,-5.06115 -1.7887,-5.22125c1.33621,-0.31276 1.0677,-2.10152 -0.80255,-5.34636c-2.34549,-4.06938 -6.9396,-6.56835 -11.25488,-6.12211c-1.67494,0.1732 -3.56853,0.53067 -4.20799,0.79436c-0.63945,0.26369 -0.24706,-0.22754 0.87198,-1.09163c5.59809,-4.32268 12.51197,-4.02157 18.02775,0.78513c2.19924,1.91652 5.22506,7.51608 5.22506,9.66947c0,0.61005 0.49886,1.20115 1.10856,1.31356c0.99711,0.18385 0.8632,0.6679 -1.33188,4.81465c-1.34225,2.53564 -2.60575,4.79214 -2.80779,5.01445c-0.20204,0.2223 -1.56985,-1.85231 -3.03957,-4.61026l0,0z" stroke-width="0" stroke="#000" fill="#249e3a"/>
  <path stroke="#000" id="svg_6" d="m58.56969,84.21034c3.67002,6.82689 4.3865,8.90013 3.17306,9.18168c-2.37038,0.55001 -1.89405,3.69557 1.42369,9.40169c4.1608,7.15609 12.31053,11.55059 19.96564,10.76586c2.97127,-0.30459 6.33043,-0.93318 7.46479,-1.39689c1.13436,-0.46372 0.43827,0.40014 -1.54686,1.91966c-9.93075,7.60152 -22.19568,7.07201 -31.98042,-1.38067c-3.90136,-3.37025 -9.26903,-13.21719 -9.26903,-17.00397c0,-1.07277 -0.88494,-2.11224 -1.96654,-2.30992c-1.76882,-0.32329 -1.53128,-1.17452 2.3627,-8.46667c2.38109,-4.45899 4.62249,-8.42709 4.98089,-8.81801c0.35841,-0.39092 2.78484,3.25734 5.39207,8.10724l0,0zm31.547,13.16141c-3.67002,-6.82689 -4.3865,-8.90013 -3.17307,-9.18168c2.37038,-0.55 1.89405,-3.69557 -1.42369,-9.40169c-4.1608,-7.15609 -12.31054,-11.55059 -19.96565,-10.76587c-2.97127,0.30458 -6.33042,0.93319 -7.46478,1.3969c-1.13436,0.46371 -0.43827,-0.40014 1.54685,-1.91966c9.93076,-7.60152 22.19568,-7.07202 31.98042,1.38067c3.90136,3.37024 9.26902,13.21719 9.26902,17.00396c0,1.07278 0.88495,2.11224 1.96653,2.30992c1.76883,0.3233 1.53128,1.17452 -2.3627,8.46667c-2.38108,4.45898 -4.62249,8.42709 -4.98089,8.81801c-0.35841,0.39092 -2.78484,-3.25734 -5.39207,-8.10724l0,0z" stroke-width="0" fill="#1b722a"/>
  <path stroke="#000" id="svg_7" d="m58.932,82.76107c3.67003,6.82689 4.38651,8.90013 3.17306,9.18168c-2.37037,0.55 -1.89404,3.69557 1.4237,9.40168c4.1608,7.1561 12.31053,11.55059 19.96564,10.76587c2.97127,-0.30459 6.33042,-0.93318 7.46479,-1.39689c1.13435,-0.46372 0.43827,0.40013 -1.54686,1.91966c-9.93076,7.60151 -22.19568,7.072 -31.98042,-1.38067c-3.90136,-3.37025 -9.26903,-13.21719 -9.26903,-17.00397c0,-1.07277 -0.88494,-2.11225 -1.96654,-2.30993c-1.76882,-0.32329 -1.53127,-1.17452 2.36271,-8.46666c2.38109,-4.45899 4.62248,-8.4271 4.98089,-8.81801c0.35841,-0.39092 2.78484,3.25733 5.39206,8.10724l0,0zm31.54701,13.16141c-3.67003,-6.82689 -4.38651,-8.90013 -3.17307,-9.18168c2.37038,-0.54999 1.89405,-3.69557 -1.42369,-9.40168c-4.1608,-7.1561 -12.31054,-11.55059 -19.96564,-10.76587c-2.97128,0.30458 -6.33042,0.93319 -7.46478,1.3969c-1.13437,0.46371 -0.43828,-0.40014 1.54685,-1.91966c9.93076,-7.60153 22.19568,-7.07202 31.98042,1.38067c3.90136,3.37024 9.26903,13.21718 9.26903,17.00396c0,1.07278 0.88495,2.11224 1.96653,2.30992c1.76883,0.3233 1.53128,1.17453 -2.3627,8.46667c-2.38108,4.45898 -4.62249,8.42709 -4.98089,8.81801c-0.35841,0.39092 -2.78483,-3.25733 -5.39206,-8.10724l0,0z" stroke-width="0" fill="#33d651"/>
 </g>

</svg>